M48
;GenerationSoftware,Autodesk,EAGLE,9.6.2*%
;CreationDate,2020-12-16T04:31:20Z*%
FMAT,2
ICI,OFF
METRIC,TZ,000.000
T8C0.305
T7C0.889
T6C0.914
T5C1.016
T4C1.400
T3C2.000
T2C2.311
T1C3.175
%
G90
M71
T1
X146050Y64770
X3810Y64770
X146050Y3810
X3810Y3810
T2
X131026Y12700
X117894Y12700
T3
X10770Y30670
X118770Y30670
X10770Y59670
X119614Y59100
T4
X84990Y20280
X130910Y40600
X130910Y35600
X143410Y35600
X143410Y40600
X130910Y60920
X130910Y55920
X143410Y55920
X143410Y60920
X44550Y20280
X44550Y15280
X57050Y15280
X57050Y20280
X72490Y20280
X72490Y15280
X84990Y15280
T5
X63754Y61100
X66294Y61100
X68834Y61100
X61270Y61170
T6
X120967Y15418
X123457Y15418
X125463Y15418
X127952Y15418
T7
X116500Y22990
X116500Y25530
X113960Y22990
X113960Y25530
X111420Y22990
X111420Y25530
X108880Y22990
X108880Y25530
X106340Y22990
X106340Y25530
X103800Y22990
X103800Y25530
X101260Y22990
X101260Y25530
X98720Y22990
X98720Y25530
X141900Y48390
X141900Y50930
X139360Y48390
X139360Y50930
X136820Y48390
X136820Y50930
X134280Y48390
X134280Y50930
X131740Y48390
X131740Y50930
X129200Y48390
X129200Y50930
X126660Y48390
X126660Y50930
X124120Y48390
X124120Y50930
X121580Y48390
X121580Y50930
X119040Y48390
X119040Y50930
X116500Y48390
X116500Y50930
X113960Y48390
X113960Y50930
X111420Y48390
X111420Y50930
X108880Y48390
X108880Y50930
X106340Y48390
X106340Y50930
X103800Y48390
X103800Y50930
X101260Y48390
X101260Y50930
X98720Y48390
X98720Y50930
X119040Y25530
X119040Y22990
X121580Y25530
X121580Y22990
X124120Y25530
X124120Y22990
X126660Y25530
X126660Y22990
X129200Y25530
X129200Y22990
X131740Y25530
X131740Y22990
X134280Y25530
X134280Y22990
X136820Y25530
X136820Y22990
X139700Y12700
X142240Y12700
X144780Y12700
X3810Y13970
X6350Y13970
X8890Y13970
X139360Y25530
X139360Y22990
X141900Y25530
X141900Y22990
T8
X147320Y58420
X147320Y45720
X88900Y5080
X66040Y5080
X64770Y54610
X57150Y55880
M30