G04 EAGLE Gerber RS-274X export*
G75*
%MOMM*%
%FSLAX34Y34*%
%LPD*%
%INCopper Layer 15*%
%IPPOS*%
%AMOC8*
5,1,8,0,0,1.08239X$1,22.5*%
G01*
%ADD10C,1.422400*%
%ADD11C,1.244600*%
%ADD12C,1.960000*%
%ADD13C,1.280163*%
%ADD14C,3.235963*%
%ADD15C,4.191000*%
%ADD16C,0.609600*%

G36*
X1496302Y2556D02*
X1496302Y2556D01*
X1496422Y2564D01*
X1496459Y2576D01*
X1496498Y2581D01*
X1496609Y2625D01*
X1496724Y2662D01*
X1496757Y2683D01*
X1496793Y2698D01*
X1496891Y2768D01*
X1496992Y2833D01*
X1497019Y2861D01*
X1497051Y2884D01*
X1497128Y2977D01*
X1497210Y3065D01*
X1497229Y3099D01*
X1497254Y3129D01*
X1497305Y3238D01*
X1497363Y3344D01*
X1497373Y3382D01*
X1497389Y3417D01*
X1497412Y3535D01*
X1497442Y3652D01*
X1497445Y3710D01*
X1497449Y3729D01*
X1497448Y3750D01*
X1497451Y3813D01*
X1496067Y681993D01*
X1496052Y682109D01*
X1496045Y682227D01*
X1496032Y682267D01*
X1496027Y682308D01*
X1495983Y682417D01*
X1495947Y682529D01*
X1495924Y682565D01*
X1495909Y682604D01*
X1495840Y682699D01*
X1495777Y682798D01*
X1495746Y682827D01*
X1495722Y682860D01*
X1495631Y682935D01*
X1495545Y683016D01*
X1495508Y683036D01*
X1495476Y683063D01*
X1495370Y683113D01*
X1495266Y683170D01*
X1495226Y683180D01*
X1495188Y683198D01*
X1495072Y683220D01*
X1494958Y683249D01*
X1494896Y683253D01*
X1494876Y683257D01*
X1494856Y683256D01*
X1494798Y683259D01*
X3810Y683259D01*
X3692Y683244D01*
X3573Y683237D01*
X3535Y683224D01*
X3494Y683219D01*
X3384Y683176D01*
X3271Y683139D01*
X3236Y683117D01*
X3199Y683102D01*
X3103Y683033D01*
X3002Y682969D01*
X2974Y682939D01*
X2941Y682916D01*
X2865Y682824D01*
X2784Y682737D01*
X2764Y682702D01*
X2739Y682671D01*
X2688Y682563D01*
X2630Y682459D01*
X2620Y682419D01*
X2603Y682383D01*
X2581Y682266D01*
X2551Y682151D01*
X2547Y682091D01*
X2543Y682071D01*
X2545Y682050D01*
X2541Y681990D01*
X2541Y3810D01*
X2556Y3692D01*
X2563Y3573D01*
X2576Y3535D01*
X2581Y3494D01*
X2624Y3384D01*
X2661Y3271D01*
X2683Y3236D01*
X2698Y3199D01*
X2767Y3103D01*
X2831Y3002D01*
X2861Y2974D01*
X2884Y2941D01*
X2976Y2865D01*
X3063Y2784D01*
X3098Y2764D01*
X3129Y2739D01*
X3237Y2688D01*
X3341Y2630D01*
X3381Y2620D01*
X3417Y2603D01*
X3534Y2581D01*
X3649Y2551D01*
X3709Y2547D01*
X3729Y2543D01*
X3750Y2545D01*
X3810Y2541D01*
X1496182Y2541D01*
X1496302Y2556D01*
G37*
%LPC*%
G36*
X646122Y34289D02*
X646122Y34289D01*
X643889Y36522D01*
X643889Y65078D01*
X646493Y67682D01*
X671522Y92711D01*
X934720Y92711D01*
X934838Y92726D01*
X934957Y92733D01*
X934995Y92746D01*
X935036Y92751D01*
X935146Y92794D01*
X935259Y92831D01*
X935294Y92853D01*
X935331Y92868D01*
X935427Y92937D01*
X935528Y93001D01*
X935556Y93031D01*
X935589Y93054D01*
X935665Y93146D01*
X935746Y93233D01*
X935766Y93268D01*
X935791Y93299D01*
X935842Y93407D01*
X935900Y93511D01*
X935910Y93551D01*
X935927Y93587D01*
X935949Y93704D01*
X935979Y93819D01*
X935983Y93879D01*
X935987Y93899D01*
X935985Y93920D01*
X935989Y93980D01*
X935989Y230178D01*
X1126118Y420307D01*
X1126178Y420385D01*
X1126246Y420457D01*
X1126275Y420510D01*
X1126312Y420558D01*
X1126352Y420649D01*
X1126400Y420736D01*
X1126415Y420794D01*
X1126439Y420850D01*
X1126454Y420948D01*
X1126479Y421044D01*
X1126485Y421144D01*
X1126489Y421164D01*
X1126487Y421176D01*
X1126489Y421204D01*
X1126489Y496878D01*
X1128722Y499111D01*
X1134917Y499111D01*
X1134987Y499119D01*
X1135056Y499118D01*
X1135144Y499139D01*
X1135233Y499151D01*
X1135298Y499176D01*
X1135366Y499193D01*
X1135445Y499235D01*
X1135529Y499268D01*
X1135585Y499309D01*
X1135647Y499341D01*
X1135713Y499402D01*
X1135786Y499454D01*
X1135831Y499508D01*
X1135882Y499555D01*
X1135931Y499630D01*
X1135989Y499699D01*
X1136019Y499763D01*
X1136057Y499821D01*
X1136086Y499906D01*
X1136124Y499987D01*
X1136137Y500056D01*
X1136160Y500122D01*
X1136167Y500211D01*
X1136184Y500299D01*
X1136180Y500369D01*
X1136185Y500439D01*
X1136170Y500527D01*
X1136164Y500617D01*
X1136143Y500683D01*
X1136131Y500752D01*
X1136094Y500834D01*
X1136066Y500919D01*
X1136029Y500978D01*
X1136000Y501042D01*
X1135944Y501112D01*
X1135896Y501188D01*
X1135845Y501236D01*
X1135802Y501290D01*
X1135730Y501344D01*
X1135665Y501406D01*
X1135603Y501440D01*
X1135548Y501482D01*
X1135403Y501553D01*
X1134636Y501870D01*
X1132170Y504336D01*
X1130836Y507557D01*
X1130836Y511043D01*
X1132170Y514264D01*
X1134636Y516730D01*
X1137857Y518064D01*
X1141343Y518064D01*
X1144564Y516730D01*
X1147030Y514264D01*
X1148364Y511043D01*
X1148364Y507557D01*
X1147030Y504336D01*
X1144564Y501870D01*
X1143797Y501553D01*
X1143736Y501518D01*
X1143671Y501492D01*
X1143599Y501440D01*
X1143521Y501395D01*
X1143471Y501347D01*
X1143414Y501306D01*
X1143357Y501236D01*
X1143292Y501174D01*
X1143256Y501114D01*
X1143211Y501061D01*
X1143173Y500979D01*
X1143126Y500903D01*
X1143105Y500836D01*
X1143076Y500773D01*
X1143059Y500685D01*
X1143032Y500599D01*
X1143029Y500529D01*
X1143016Y500460D01*
X1143021Y500371D01*
X1143017Y500281D01*
X1143031Y500213D01*
X1143036Y500143D01*
X1143063Y500058D01*
X1143081Y499970D01*
X1143112Y499907D01*
X1143134Y499841D01*
X1143182Y499765D01*
X1143221Y499684D01*
X1143266Y499631D01*
X1143304Y499572D01*
X1143369Y499510D01*
X1143428Y499442D01*
X1143485Y499402D01*
X1143535Y499354D01*
X1143614Y499311D01*
X1143688Y499259D01*
X1143753Y499234D01*
X1143814Y499200D01*
X1143901Y499178D01*
X1143985Y499146D01*
X1144054Y499138D01*
X1144122Y499121D01*
X1144283Y499111D01*
X1157278Y499111D01*
X1159511Y496878D01*
X1159511Y493012D01*
X1159517Y492962D01*
X1159515Y492913D01*
X1159537Y492805D01*
X1159551Y492696D01*
X1159569Y492650D01*
X1159579Y492601D01*
X1159627Y492503D01*
X1159668Y492400D01*
X1159697Y492360D01*
X1159719Y492316D01*
X1159790Y492232D01*
X1159854Y492143D01*
X1159893Y492111D01*
X1159925Y492074D01*
X1160015Y492010D01*
X1160099Y491940D01*
X1160144Y491919D01*
X1160185Y491890D01*
X1160288Y491851D01*
X1160387Y491805D01*
X1160436Y491795D01*
X1160482Y491778D01*
X1160592Y491766D01*
X1160699Y491745D01*
X1160749Y491748D01*
X1160798Y491742D01*
X1160907Y491758D01*
X1161017Y491765D01*
X1161064Y491780D01*
X1161113Y491787D01*
X1161266Y491839D01*
X1163257Y492664D01*
X1166743Y492664D01*
X1169964Y491330D01*
X1172430Y488864D01*
X1173764Y485643D01*
X1173764Y482157D01*
X1172430Y478936D01*
X1169964Y476470D01*
X1166743Y475136D01*
X1163257Y475136D01*
X1161266Y475961D01*
X1161218Y475974D01*
X1161173Y475995D01*
X1161065Y476016D01*
X1160959Y476045D01*
X1160909Y476046D01*
X1160860Y476055D01*
X1160751Y476048D01*
X1160641Y476050D01*
X1160593Y476038D01*
X1160543Y476035D01*
X1160439Y476002D01*
X1160332Y475976D01*
X1160288Y475953D01*
X1160241Y475937D01*
X1160148Y475879D01*
X1160051Y475827D01*
X1160014Y475794D01*
X1159972Y475767D01*
X1159897Y475687D01*
X1159815Y475613D01*
X1159788Y475572D01*
X1159754Y475536D01*
X1159701Y475439D01*
X1159641Y475348D01*
X1159624Y475300D01*
X1159600Y475257D01*
X1159573Y475151D01*
X1159537Y475047D01*
X1159533Y474997D01*
X1159521Y474949D01*
X1159511Y474788D01*
X1159511Y462280D01*
X1159526Y462162D01*
X1159533Y462043D01*
X1159546Y462005D01*
X1159551Y461964D01*
X1159594Y461854D01*
X1159631Y461741D01*
X1159653Y461706D01*
X1159668Y461669D01*
X1159737Y461573D01*
X1159801Y461472D01*
X1159831Y461444D01*
X1159854Y461411D01*
X1159946Y461335D01*
X1160033Y461254D01*
X1160068Y461234D01*
X1160099Y461209D01*
X1160207Y461158D01*
X1160311Y461100D01*
X1160351Y461090D01*
X1160387Y461073D01*
X1160504Y461051D01*
X1160619Y461021D01*
X1160679Y461017D01*
X1160699Y461013D01*
X1160720Y461015D01*
X1160780Y461011D01*
X1442720Y461011D01*
X1442838Y461026D01*
X1442957Y461033D01*
X1442995Y461046D01*
X1443036Y461051D01*
X1443146Y461094D01*
X1443259Y461131D01*
X1443294Y461153D01*
X1443331Y461168D01*
X1443427Y461237D01*
X1443528Y461301D01*
X1443556Y461331D01*
X1443589Y461354D01*
X1443665Y461446D01*
X1443746Y461533D01*
X1443766Y461568D01*
X1443791Y461599D01*
X1443842Y461707D01*
X1443900Y461811D01*
X1443910Y461851D01*
X1443927Y461887D01*
X1443949Y462004D01*
X1443979Y462119D01*
X1443983Y462179D01*
X1443987Y462199D01*
X1443985Y462220D01*
X1443989Y462280D01*
X1443989Y548573D01*
X1443972Y548711D01*
X1443959Y548849D01*
X1443952Y548868D01*
X1443949Y548888D01*
X1443898Y549017D01*
X1443851Y549148D01*
X1443840Y549165D01*
X1443832Y549184D01*
X1443751Y549296D01*
X1443673Y549411D01*
X1443657Y549425D01*
X1443646Y549441D01*
X1443538Y549530D01*
X1443434Y549622D01*
X1443416Y549631D01*
X1443401Y549644D01*
X1443275Y549703D01*
X1443151Y549766D01*
X1443131Y549771D01*
X1443113Y549780D01*
X1442976Y549806D01*
X1442841Y549836D01*
X1442820Y549835D01*
X1442801Y549839D01*
X1442662Y549831D01*
X1442523Y549826D01*
X1442503Y549821D01*
X1442483Y549820D01*
X1442351Y549777D01*
X1442217Y549738D01*
X1442200Y549728D01*
X1442181Y549722D01*
X1442063Y549647D01*
X1441943Y549576D01*
X1441922Y549558D01*
X1441912Y549551D01*
X1441898Y549536D01*
X1441823Y549470D01*
X1441090Y548738D01*
X1436555Y546859D01*
X1431645Y546859D01*
X1427110Y548738D01*
X1423638Y552210D01*
X1421759Y556745D01*
X1421759Y561655D01*
X1423638Y566190D01*
X1427110Y569662D01*
X1431645Y571541D01*
X1436555Y571541D01*
X1441090Y569662D01*
X1441823Y568930D01*
X1441932Y568845D01*
X1442039Y568756D01*
X1442058Y568747D01*
X1442074Y568735D01*
X1442202Y568680D01*
X1442327Y568620D01*
X1442347Y568617D01*
X1442366Y568609D01*
X1442504Y568587D01*
X1442640Y568561D01*
X1442660Y568562D01*
X1442680Y568559D01*
X1442819Y568572D01*
X1442957Y568580D01*
X1442976Y568587D01*
X1442996Y568589D01*
X1443128Y568636D01*
X1443259Y568678D01*
X1443277Y568689D01*
X1443296Y568696D01*
X1443411Y568774D01*
X1443528Y568849D01*
X1443542Y568863D01*
X1443559Y568875D01*
X1443651Y568979D01*
X1443746Y569080D01*
X1443756Y569098D01*
X1443769Y569113D01*
X1443832Y569237D01*
X1443900Y569359D01*
X1443905Y569378D01*
X1443914Y569396D01*
X1443944Y569532D01*
X1443979Y569667D01*
X1443981Y569695D01*
X1443984Y569707D01*
X1443983Y569727D01*
X1443989Y569827D01*
X1443989Y598573D01*
X1443972Y598711D01*
X1443959Y598849D01*
X1443952Y598868D01*
X1443949Y598888D01*
X1443898Y599017D01*
X1443851Y599148D01*
X1443840Y599165D01*
X1443832Y599184D01*
X1443751Y599296D01*
X1443673Y599411D01*
X1443657Y599425D01*
X1443646Y599441D01*
X1443538Y599530D01*
X1443434Y599622D01*
X1443416Y599631D01*
X1443401Y599644D01*
X1443275Y599703D01*
X1443151Y599766D01*
X1443131Y599771D01*
X1443113Y599780D01*
X1442976Y599806D01*
X1442841Y599836D01*
X1442820Y599835D01*
X1442801Y599839D01*
X1442662Y599831D01*
X1442523Y599826D01*
X1442503Y599821D01*
X1442483Y599820D01*
X1442351Y599777D01*
X1442217Y599738D01*
X1442200Y599728D01*
X1442181Y599722D01*
X1442063Y599647D01*
X1441943Y599576D01*
X1441922Y599558D01*
X1441912Y599551D01*
X1441898Y599536D01*
X1441823Y599470D01*
X1441090Y598738D01*
X1436555Y596859D01*
X1431645Y596859D01*
X1427110Y598738D01*
X1423638Y602210D01*
X1421759Y606745D01*
X1421759Y611655D01*
X1423638Y616190D01*
X1427110Y619662D01*
X1431645Y621541D01*
X1436555Y621541D01*
X1441090Y619662D01*
X1444562Y616190D01*
X1445389Y614194D01*
X1445403Y614169D01*
X1445413Y614141D01*
X1445482Y614031D01*
X1445546Y613918D01*
X1445567Y613897D01*
X1445583Y613872D01*
X1445677Y613783D01*
X1445768Y613690D01*
X1445793Y613674D01*
X1445814Y613654D01*
X1445928Y613591D01*
X1446039Y613523D01*
X1446067Y613515D01*
X1446093Y613500D01*
X1446219Y613468D01*
X1446343Y613430D01*
X1446372Y613428D01*
X1446401Y613421D01*
X1446561Y613411D01*
X1487478Y613411D01*
X1489711Y611178D01*
X1489711Y417522D01*
X1487478Y415289D01*
X1445327Y415289D01*
X1445189Y415272D01*
X1445051Y415259D01*
X1445032Y415252D01*
X1445012Y415249D01*
X1444883Y415198D01*
X1444752Y415151D01*
X1444735Y415140D01*
X1444716Y415132D01*
X1444604Y415051D01*
X1444489Y414973D01*
X1444475Y414957D01*
X1444459Y414946D01*
X1444370Y414838D01*
X1444278Y414734D01*
X1444269Y414716D01*
X1444256Y414701D01*
X1444197Y414575D01*
X1444134Y414451D01*
X1444129Y414431D01*
X1444120Y414413D01*
X1444094Y414277D01*
X1444064Y414141D01*
X1444065Y414120D01*
X1444061Y414101D01*
X1444069Y413962D01*
X1444074Y413823D01*
X1444079Y413803D01*
X1444080Y413783D01*
X1444123Y413651D01*
X1444162Y413517D01*
X1444172Y413500D01*
X1444178Y413481D01*
X1444253Y413363D01*
X1444324Y413243D01*
X1444342Y413222D01*
X1444349Y413212D01*
X1444364Y413198D01*
X1444430Y413122D01*
X1444562Y412990D01*
X1446441Y408455D01*
X1446441Y403545D01*
X1444562Y399010D01*
X1441090Y395538D01*
X1436555Y393659D01*
X1431645Y393659D01*
X1427110Y395538D01*
X1423638Y399010D01*
X1421759Y403545D01*
X1421759Y408455D01*
X1423638Y412990D01*
X1423770Y413122D01*
X1423855Y413232D01*
X1423944Y413339D01*
X1423953Y413358D01*
X1423965Y413374D01*
X1424020Y413502D01*
X1424080Y413627D01*
X1424083Y413647D01*
X1424091Y413666D01*
X1424113Y413803D01*
X1424139Y413940D01*
X1424138Y413960D01*
X1424141Y413980D01*
X1424128Y414118D01*
X1424120Y414257D01*
X1424113Y414276D01*
X1424111Y414296D01*
X1424064Y414427D01*
X1424022Y414559D01*
X1424011Y414577D01*
X1424004Y414596D01*
X1423926Y414711D01*
X1423851Y414828D01*
X1423837Y414842D01*
X1423825Y414859D01*
X1423721Y414951D01*
X1423620Y415046D01*
X1423602Y415056D01*
X1423587Y415069D01*
X1423463Y415132D01*
X1423341Y415200D01*
X1423322Y415205D01*
X1423304Y415214D01*
X1423168Y415244D01*
X1423033Y415279D01*
X1423005Y415281D01*
X1422993Y415284D01*
X1422973Y415283D01*
X1422873Y415289D01*
X1320327Y415289D01*
X1320189Y415272D01*
X1320051Y415259D01*
X1320032Y415252D01*
X1320012Y415249D01*
X1319883Y415198D01*
X1319752Y415151D01*
X1319735Y415140D01*
X1319716Y415132D01*
X1319604Y415051D01*
X1319489Y414973D01*
X1319475Y414957D01*
X1319459Y414946D01*
X1319370Y414838D01*
X1319278Y414734D01*
X1319269Y414716D01*
X1319256Y414701D01*
X1319197Y414575D01*
X1319134Y414451D01*
X1319129Y414431D01*
X1319120Y414413D01*
X1319094Y414277D01*
X1319064Y414141D01*
X1319065Y414120D01*
X1319061Y414101D01*
X1319069Y413962D01*
X1319074Y413823D01*
X1319079Y413803D01*
X1319080Y413783D01*
X1319123Y413651D01*
X1319162Y413517D01*
X1319172Y413500D01*
X1319178Y413481D01*
X1319253Y413363D01*
X1319324Y413243D01*
X1319342Y413222D01*
X1319349Y413212D01*
X1319364Y413198D01*
X1319430Y413122D01*
X1319562Y412990D01*
X1321441Y408455D01*
X1321441Y403545D01*
X1319562Y399010D01*
X1316090Y395538D01*
X1311555Y393659D01*
X1306645Y393659D01*
X1302110Y395538D01*
X1298638Y399010D01*
X1296759Y403545D01*
X1296759Y408455D01*
X1298638Y412990D01*
X1298770Y413122D01*
X1298855Y413232D01*
X1298944Y413339D01*
X1298953Y413358D01*
X1298965Y413374D01*
X1299020Y413502D01*
X1299080Y413627D01*
X1299083Y413647D01*
X1299091Y413666D01*
X1299113Y413803D01*
X1299139Y413940D01*
X1299138Y413960D01*
X1299141Y413980D01*
X1299128Y414118D01*
X1299120Y414257D01*
X1299113Y414276D01*
X1299111Y414296D01*
X1299064Y414427D01*
X1299022Y414559D01*
X1299011Y414577D01*
X1299004Y414596D01*
X1298926Y414711D01*
X1298851Y414828D01*
X1298837Y414842D01*
X1298825Y414859D01*
X1298721Y414951D01*
X1298620Y415046D01*
X1298602Y415056D01*
X1298587Y415069D01*
X1298463Y415132D01*
X1298341Y415200D01*
X1298322Y415205D01*
X1298304Y415214D01*
X1298168Y415244D01*
X1298033Y415279D01*
X1298005Y415281D01*
X1297993Y415284D01*
X1297973Y415283D01*
X1297873Y415289D01*
X1157804Y415289D01*
X1157706Y415277D01*
X1157607Y415274D01*
X1157549Y415257D01*
X1157489Y415249D01*
X1157397Y415213D01*
X1157301Y415185D01*
X1157249Y415155D01*
X1157193Y415132D01*
X1157113Y415074D01*
X1157028Y415024D01*
X1156952Y414958D01*
X1156936Y414946D01*
X1156928Y414936D01*
X1156907Y414918D01*
X1083682Y341693D01*
X1083622Y341615D01*
X1083554Y341543D01*
X1083525Y341490D01*
X1083488Y341442D01*
X1083448Y341351D01*
X1083400Y341264D01*
X1083385Y341206D01*
X1083361Y341150D01*
X1083346Y341052D01*
X1083321Y340956D01*
X1083315Y340856D01*
X1083311Y340836D01*
X1083313Y340824D01*
X1083311Y340796D01*
X1083311Y264412D01*
X1083317Y264362D01*
X1083315Y264313D01*
X1083337Y264205D01*
X1083351Y264096D01*
X1083369Y264050D01*
X1083379Y264001D01*
X1083427Y263903D01*
X1083468Y263800D01*
X1083497Y263760D01*
X1083519Y263716D01*
X1083590Y263632D01*
X1083654Y263543D01*
X1083693Y263511D01*
X1083725Y263474D01*
X1083815Y263410D01*
X1083899Y263340D01*
X1083944Y263319D01*
X1083985Y263290D01*
X1084088Y263251D01*
X1084187Y263205D01*
X1084236Y263195D01*
X1084282Y263178D01*
X1084392Y263166D01*
X1084499Y263145D01*
X1084549Y263148D01*
X1084598Y263142D01*
X1084707Y263158D01*
X1084817Y263165D01*
X1084864Y263180D01*
X1084913Y263187D01*
X1085066Y263239D01*
X1087057Y264064D01*
X1090543Y264064D01*
X1093764Y262730D01*
X1096230Y260264D01*
X1097564Y257043D01*
X1097564Y253557D01*
X1096230Y250336D01*
X1093764Y247870D01*
X1090543Y246536D01*
X1087057Y246536D01*
X1085066Y247361D01*
X1085018Y247374D01*
X1084973Y247395D01*
X1084865Y247416D01*
X1084759Y247445D01*
X1084709Y247446D01*
X1084660Y247455D01*
X1084551Y247448D01*
X1084441Y247450D01*
X1084393Y247438D01*
X1084343Y247435D01*
X1084239Y247402D01*
X1084132Y247376D01*
X1084088Y247353D01*
X1084041Y247337D01*
X1083948Y247279D01*
X1083851Y247227D01*
X1083814Y247194D01*
X1083772Y247167D01*
X1083697Y247087D01*
X1083615Y247013D01*
X1083588Y246972D01*
X1083554Y246936D01*
X1083501Y246839D01*
X1083441Y246748D01*
X1083424Y246700D01*
X1083400Y246657D01*
X1083373Y246551D01*
X1083337Y246447D01*
X1083333Y246397D01*
X1083321Y246349D01*
X1083311Y246188D01*
X1083311Y239012D01*
X1083317Y238962D01*
X1083315Y238913D01*
X1083337Y238805D01*
X1083351Y238696D01*
X1083369Y238650D01*
X1083379Y238601D01*
X1083427Y238503D01*
X1083468Y238400D01*
X1083497Y238360D01*
X1083519Y238316D01*
X1083590Y238232D01*
X1083654Y238143D01*
X1083693Y238111D01*
X1083725Y238074D01*
X1083815Y238010D01*
X1083899Y237940D01*
X1083944Y237919D01*
X1083985Y237890D01*
X1084088Y237851D01*
X1084187Y237805D01*
X1084236Y237795D01*
X1084282Y237778D01*
X1084392Y237766D01*
X1084499Y237745D01*
X1084549Y237748D01*
X1084598Y237742D01*
X1084707Y237758D01*
X1084817Y237765D01*
X1084864Y237780D01*
X1084913Y237787D01*
X1085066Y237839D01*
X1087057Y238664D01*
X1090543Y238664D01*
X1093764Y237330D01*
X1096230Y234864D01*
X1097564Y231643D01*
X1097564Y228157D01*
X1096230Y224936D01*
X1093764Y222470D01*
X1090543Y221136D01*
X1087057Y221136D01*
X1085066Y221961D01*
X1085018Y221974D01*
X1084973Y221995D01*
X1084865Y222016D01*
X1084759Y222045D01*
X1084709Y222046D01*
X1084660Y222055D01*
X1084551Y222048D01*
X1084441Y222050D01*
X1084393Y222038D01*
X1084343Y222035D01*
X1084239Y222002D01*
X1084132Y221976D01*
X1084088Y221953D01*
X1084041Y221937D01*
X1083948Y221879D01*
X1083851Y221827D01*
X1083814Y221794D01*
X1083772Y221767D01*
X1083697Y221687D01*
X1083615Y221613D01*
X1083588Y221572D01*
X1083554Y221536D01*
X1083501Y221439D01*
X1083441Y221348D01*
X1083424Y221300D01*
X1083400Y221257D01*
X1083373Y221151D01*
X1083337Y221047D01*
X1083333Y220997D01*
X1083321Y220949D01*
X1083311Y220788D01*
X1083311Y201622D01*
X1080707Y199018D01*
X918582Y36893D01*
X915978Y34289D01*
X646122Y34289D01*
G37*
%LPD*%
G36*
X914498Y36843D02*
X914498Y36843D01*
X914597Y36846D01*
X914655Y36863D01*
X914716Y36871D01*
X914808Y36907D01*
X914903Y36935D01*
X914955Y36965D01*
X915011Y36988D01*
X915091Y37046D01*
X915177Y37096D01*
X915252Y37162D01*
X915269Y37174D01*
X915276Y37184D01*
X915298Y37203D01*
X1080398Y202303D01*
X1080458Y202381D01*
X1080526Y202453D01*
X1080555Y202506D01*
X1080592Y202554D01*
X1080632Y202645D01*
X1080680Y202731D01*
X1080695Y202790D01*
X1080719Y202846D01*
X1080734Y202944D01*
X1080759Y203039D01*
X1080765Y203139D01*
X1080769Y203160D01*
X1080767Y203172D01*
X1080769Y203200D01*
X1080769Y226135D01*
X1080768Y226144D01*
X1080769Y226153D01*
X1080748Y226302D01*
X1080729Y226450D01*
X1080726Y226459D01*
X1080725Y226468D01*
X1080673Y226621D01*
X1080036Y228157D01*
X1080036Y231643D01*
X1080673Y233179D01*
X1080675Y233188D01*
X1080680Y233197D01*
X1080717Y233341D01*
X1080757Y233486D01*
X1080757Y233496D01*
X1080759Y233505D01*
X1080769Y233665D01*
X1080769Y251535D01*
X1080768Y251544D01*
X1080769Y251553D01*
X1080748Y251702D01*
X1080729Y251850D01*
X1080726Y251859D01*
X1080725Y251868D01*
X1080673Y252021D01*
X1080036Y253557D01*
X1080036Y257043D01*
X1080673Y258579D01*
X1080675Y258588D01*
X1080680Y258597D01*
X1080717Y258741D01*
X1080757Y258886D01*
X1080757Y258896D01*
X1080759Y258905D01*
X1080769Y259065D01*
X1080769Y342374D01*
X1156226Y417831D01*
X1305162Y417831D01*
X1305171Y417832D01*
X1305180Y417831D01*
X1305329Y417852D01*
X1305477Y417871D01*
X1305486Y417874D01*
X1305495Y417875D01*
X1305647Y417927D01*
X1306645Y418341D01*
X1311555Y418341D01*
X1312553Y417927D01*
X1312562Y417925D01*
X1312570Y417920D01*
X1312715Y417883D01*
X1312859Y417843D01*
X1312869Y417843D01*
X1312878Y417841D01*
X1313038Y417831D01*
X1430162Y417831D01*
X1430171Y417832D01*
X1430180Y417831D01*
X1430329Y417852D01*
X1430477Y417871D01*
X1430486Y417874D01*
X1430495Y417875D01*
X1430647Y417927D01*
X1431645Y418341D01*
X1436555Y418341D01*
X1437553Y417927D01*
X1437562Y417925D01*
X1437570Y417920D01*
X1437715Y417883D01*
X1437859Y417843D01*
X1437869Y417843D01*
X1437878Y417841D01*
X1438038Y417831D01*
X1485900Y417831D01*
X1486018Y417846D01*
X1486137Y417853D01*
X1486175Y417866D01*
X1486216Y417871D01*
X1486326Y417914D01*
X1486439Y417951D01*
X1486474Y417973D01*
X1486511Y417988D01*
X1486607Y418058D01*
X1486708Y418121D01*
X1486736Y418151D01*
X1486769Y418174D01*
X1486845Y418266D01*
X1486926Y418353D01*
X1486946Y418388D01*
X1486971Y418419D01*
X1487022Y418527D01*
X1487080Y418631D01*
X1487090Y418671D01*
X1487107Y418707D01*
X1487129Y418824D01*
X1487159Y418939D01*
X1487163Y419000D01*
X1487167Y419020D01*
X1487165Y419040D01*
X1487169Y419100D01*
X1487169Y609600D01*
X1487154Y609718D01*
X1487147Y609837D01*
X1487134Y609875D01*
X1487129Y609916D01*
X1487086Y610026D01*
X1487049Y610139D01*
X1487027Y610174D01*
X1487012Y610211D01*
X1486943Y610307D01*
X1486879Y610408D01*
X1486849Y610436D01*
X1486826Y610469D01*
X1486734Y610545D01*
X1486647Y610626D01*
X1486612Y610646D01*
X1486581Y610671D01*
X1486473Y610722D01*
X1486369Y610780D01*
X1486329Y610790D01*
X1486293Y610807D01*
X1486176Y610829D01*
X1486061Y610859D01*
X1486001Y610863D01*
X1485981Y610867D01*
X1485960Y610865D01*
X1485900Y610869D01*
X1447800Y610869D01*
X1447682Y610854D01*
X1447563Y610847D01*
X1447525Y610834D01*
X1447484Y610829D01*
X1447374Y610786D01*
X1447261Y610749D01*
X1447226Y610727D01*
X1447189Y610712D01*
X1447093Y610643D01*
X1446992Y610579D01*
X1446964Y610549D01*
X1446931Y610526D01*
X1446856Y610434D01*
X1446774Y610347D01*
X1446754Y610312D01*
X1446729Y610281D01*
X1446678Y610173D01*
X1446620Y610069D01*
X1446610Y610029D01*
X1446593Y609993D01*
X1446571Y609876D01*
X1446541Y609761D01*
X1446537Y609701D01*
X1446533Y609681D01*
X1446535Y609660D01*
X1446531Y609600D01*
X1446531Y458469D01*
X1156969Y458469D01*
X1156969Y480135D01*
X1156968Y480144D01*
X1156969Y480153D01*
X1156948Y480302D01*
X1156929Y480450D01*
X1156926Y480459D01*
X1156925Y480468D01*
X1156873Y480621D01*
X1156236Y482157D01*
X1156236Y485643D01*
X1156873Y487179D01*
X1156875Y487188D01*
X1156880Y487197D01*
X1156917Y487341D01*
X1156957Y487486D01*
X1156957Y487496D01*
X1156959Y487505D01*
X1156969Y487665D01*
X1156969Y495300D01*
X1156954Y495418D01*
X1156947Y495537D01*
X1156934Y495575D01*
X1156929Y495616D01*
X1156886Y495726D01*
X1156849Y495839D01*
X1156827Y495874D01*
X1156812Y495911D01*
X1156743Y496007D01*
X1156679Y496108D01*
X1156649Y496136D01*
X1156626Y496169D01*
X1156534Y496245D01*
X1156447Y496326D01*
X1156412Y496346D01*
X1156381Y496371D01*
X1156273Y496422D01*
X1156169Y496480D01*
X1156129Y496490D01*
X1156093Y496507D01*
X1155976Y496529D01*
X1155861Y496559D01*
X1155801Y496563D01*
X1155781Y496567D01*
X1155760Y496565D01*
X1155700Y496569D01*
X1130300Y496569D01*
X1130182Y496554D01*
X1130063Y496547D01*
X1130025Y496534D01*
X1129984Y496529D01*
X1129874Y496486D01*
X1129761Y496449D01*
X1129726Y496427D01*
X1129689Y496412D01*
X1129593Y496343D01*
X1129492Y496279D01*
X1129464Y496249D01*
X1129431Y496226D01*
X1129356Y496134D01*
X1129274Y496047D01*
X1129254Y496012D01*
X1129229Y495981D01*
X1129178Y495873D01*
X1129120Y495769D01*
X1129110Y495729D01*
X1129093Y495693D01*
X1129071Y495576D01*
X1129041Y495461D01*
X1129037Y495401D01*
X1129033Y495381D01*
X1129035Y495360D01*
X1129031Y495300D01*
X1129031Y487665D01*
X1129040Y487596D01*
X1129038Y487526D01*
X1129059Y487439D01*
X1129071Y487350D01*
X1129096Y487285D01*
X1129113Y487217D01*
X1129155Y487137D01*
X1129188Y487054D01*
X1129229Y486998D01*
X1129261Y486936D01*
X1129322Y486869D01*
X1129374Y486797D01*
X1129428Y486752D01*
X1129475Y486700D01*
X1129550Y486651D01*
X1129619Y486594D01*
X1129683Y486564D01*
X1129741Y486526D01*
X1129826Y486497D01*
X1129907Y486458D01*
X1129976Y486445D01*
X1130042Y486423D01*
X1130131Y486415D01*
X1130220Y486399D01*
X1130289Y486403D01*
X1130359Y486397D01*
X1130447Y486413D01*
X1130537Y486418D01*
X1130603Y486440D01*
X1130672Y486452D01*
X1130754Y486489D01*
X1130839Y486516D01*
X1130899Y486554D01*
X1130962Y486582D01*
X1131032Y486638D01*
X1131108Y486686D01*
X1131156Y486737D01*
X1131211Y486781D01*
X1131265Y486853D01*
X1131326Y486918D01*
X1131360Y486979D01*
X1131402Y487035D01*
X1131473Y487180D01*
X1131834Y488051D01*
X1132793Y489487D01*
X1134013Y490707D01*
X1135449Y491666D01*
X1137044Y492327D01*
X1137378Y492393D01*
X1137378Y484853D01*
X1137393Y484734D01*
X1137401Y484616D01*
X1137413Y484577D01*
X1137418Y484537D01*
X1137462Y484426D01*
X1137499Y484313D01*
X1137520Y484279D01*
X1137535Y484241D01*
X1137605Y484145D01*
X1137669Y484045D01*
X1137698Y484017D01*
X1137722Y483984D01*
X1137814Y483908D01*
X1137818Y483904D01*
X1137812Y483897D01*
X1137779Y483873D01*
X1137703Y483781D01*
X1137621Y483694D01*
X1137602Y483659D01*
X1137576Y483628D01*
X1137525Y483520D01*
X1137468Y483416D01*
X1137458Y483377D01*
X1137441Y483340D01*
X1137418Y483223D01*
X1137388Y483108D01*
X1137385Y483048D01*
X1137381Y483028D01*
X1137382Y483007D01*
X1137378Y482947D01*
X1137378Y475407D01*
X1137044Y475473D01*
X1135449Y476134D01*
X1134013Y477093D01*
X1132793Y478313D01*
X1131834Y479749D01*
X1131473Y480620D01*
X1131438Y480681D01*
X1131412Y480746D01*
X1131360Y480819D01*
X1131315Y480897D01*
X1131267Y480947D01*
X1131226Y481003D01*
X1131156Y481061D01*
X1131094Y481125D01*
X1131034Y481162D01*
X1130981Y481206D01*
X1130899Y481244D01*
X1130823Y481291D01*
X1130756Y481312D01*
X1130693Y481342D01*
X1130605Y481359D01*
X1130519Y481385D01*
X1130449Y481388D01*
X1130381Y481401D01*
X1130291Y481396D01*
X1130201Y481400D01*
X1130133Y481386D01*
X1130063Y481382D01*
X1129978Y481354D01*
X1129890Y481336D01*
X1129827Y481305D01*
X1129761Y481284D01*
X1129685Y481236D01*
X1129604Y481196D01*
X1129551Y481151D01*
X1129492Y481114D01*
X1129430Y481048D01*
X1129362Y480990D01*
X1129322Y480933D01*
X1129274Y480882D01*
X1129231Y480803D01*
X1129179Y480730D01*
X1129154Y480665D01*
X1129120Y480603D01*
X1129098Y480516D01*
X1129066Y480432D01*
X1129058Y480363D01*
X1129041Y480295D01*
X1129031Y480135D01*
X1129031Y419626D01*
X938903Y229498D01*
X938842Y229419D01*
X938774Y229347D01*
X938745Y229294D01*
X938708Y229246D01*
X938668Y229155D01*
X938620Y229069D01*
X938605Y229010D01*
X938581Y228954D01*
X938566Y228856D01*
X938541Y228761D01*
X938535Y228661D01*
X938531Y228640D01*
X938533Y228628D01*
X938531Y228600D01*
X938531Y90169D01*
X673100Y90169D01*
X673002Y90157D01*
X672903Y90154D01*
X672845Y90137D01*
X672784Y90129D01*
X672692Y90093D01*
X672597Y90065D01*
X672545Y90035D01*
X672489Y90012D01*
X672409Y89954D01*
X672323Y89904D01*
X672248Y89838D01*
X672231Y89826D01*
X672224Y89816D01*
X672203Y89798D01*
X646803Y64398D01*
X646742Y64319D01*
X646674Y64247D01*
X646645Y64194D01*
X646608Y64146D01*
X646568Y64055D01*
X646520Y63969D01*
X646505Y63910D01*
X646481Y63854D01*
X646466Y63756D01*
X646441Y63661D01*
X646436Y63578D01*
X646433Y63566D01*
X646434Y63556D01*
X646431Y63540D01*
X646433Y63528D01*
X646431Y63500D01*
X646431Y38100D01*
X646446Y37982D01*
X646453Y37863D01*
X646466Y37825D01*
X646471Y37784D01*
X646514Y37674D01*
X646551Y37561D01*
X646573Y37526D01*
X646588Y37489D01*
X646658Y37393D01*
X646721Y37292D01*
X646751Y37264D01*
X646774Y37231D01*
X646866Y37156D01*
X646953Y37074D01*
X646988Y37054D01*
X647019Y37029D01*
X647127Y36978D01*
X647231Y36920D01*
X647271Y36910D01*
X647307Y36893D01*
X647424Y36871D01*
X647539Y36841D01*
X647600Y36837D01*
X647620Y36833D01*
X647640Y36835D01*
X647700Y36831D01*
X914400Y36831D01*
X914498Y36843D01*
G37*
%LPC*%
G36*
X1455826Y624204D02*
X1455826Y624204D01*
X1447191Y627781D01*
X1440581Y634391D01*
X1437004Y643026D01*
X1437004Y652374D01*
X1440581Y661009D01*
X1447191Y667619D01*
X1455826Y671196D01*
X1465174Y671196D01*
X1473809Y667619D01*
X1480419Y661009D01*
X1483996Y652374D01*
X1483996Y643026D01*
X1480419Y634391D01*
X1473809Y627781D01*
X1465174Y624204D01*
X1455826Y624204D01*
G37*
%LPD*%
%LPC*%
G36*
X33426Y624204D02*
X33426Y624204D01*
X24791Y627781D01*
X18181Y634391D01*
X14604Y643026D01*
X14604Y652374D01*
X18181Y661009D01*
X24791Y667619D01*
X33426Y671196D01*
X42774Y671196D01*
X51409Y667619D01*
X58019Y661009D01*
X61596Y652374D01*
X61596Y643026D01*
X58019Y634391D01*
X51409Y627781D01*
X42774Y624204D01*
X33426Y624204D01*
G37*
%LPD*%
%LPC*%
G36*
X1455826Y14604D02*
X1455826Y14604D01*
X1447191Y18181D01*
X1440581Y24791D01*
X1437004Y33426D01*
X1437004Y42774D01*
X1440581Y51409D01*
X1447191Y58019D01*
X1455826Y61596D01*
X1465174Y61596D01*
X1473809Y58019D01*
X1480419Y51409D01*
X1483996Y42774D01*
X1483996Y33426D01*
X1480419Y24791D01*
X1473809Y18181D01*
X1465174Y14604D01*
X1455826Y14604D01*
G37*
%LPD*%
%LPC*%
G36*
X33426Y14604D02*
X33426Y14604D01*
X24791Y18181D01*
X18181Y24791D01*
X14604Y33426D01*
X14604Y42774D01*
X18181Y51409D01*
X24791Y58019D01*
X33426Y61596D01*
X42774Y61596D01*
X51409Y58019D01*
X58019Y51409D01*
X61596Y42774D01*
X61596Y33426D01*
X58019Y24791D01*
X51409Y18181D01*
X42774Y14604D01*
X33426Y14604D01*
G37*
%LPD*%
%LPC*%
G36*
X1175217Y108279D02*
X1175217Y108279D01*
X1168337Y111129D01*
X1163070Y116396D01*
X1160220Y123276D01*
X1160220Y130724D01*
X1163070Y137604D01*
X1168337Y142871D01*
X1175217Y145721D01*
X1182665Y145721D01*
X1189545Y142871D01*
X1194812Y137604D01*
X1197662Y130724D01*
X1197662Y123276D01*
X1194812Y116396D01*
X1189545Y111129D01*
X1182665Y108279D01*
X1175217Y108279D01*
G37*
%LPD*%
%LPC*%
G36*
X1306535Y108279D02*
X1306535Y108279D01*
X1299655Y111129D01*
X1294388Y116396D01*
X1291538Y123276D01*
X1291538Y130724D01*
X1294388Y137604D01*
X1299655Y142871D01*
X1306535Y145721D01*
X1313983Y145721D01*
X1320863Y142871D01*
X1326130Y137604D01*
X1328980Y130724D01*
X1328980Y123276D01*
X1326130Y116396D01*
X1320863Y111129D01*
X1313983Y108279D01*
X1306535Y108279D01*
G37*
%LPD*%
%LPC*%
G36*
X1232788Y145236D02*
X1232788Y145236D01*
X1229502Y146598D01*
X1226987Y149113D01*
X1225625Y152399D01*
X1225625Y155957D01*
X1226987Y159243D01*
X1229502Y161758D01*
X1232788Y163120D01*
X1236346Y163120D01*
X1239632Y161758D01*
X1242147Y159243D01*
X1243427Y156153D01*
X1243496Y156032D01*
X1243561Y155909D01*
X1243575Y155894D01*
X1243585Y155876D01*
X1243681Y155777D01*
X1243775Y155674D01*
X1243792Y155662D01*
X1243806Y155648D01*
X1243925Y155575D01*
X1244041Y155499D01*
X1244060Y155492D01*
X1244077Y155482D01*
X1244210Y155441D01*
X1244342Y155396D01*
X1244362Y155394D01*
X1244381Y155388D01*
X1244520Y155381D01*
X1244659Y155370D01*
X1244679Y155374D01*
X1244699Y155373D01*
X1244834Y155401D01*
X1244972Y155425D01*
X1244991Y155433D01*
X1245010Y155437D01*
X1245135Y155498D01*
X1245262Y155555D01*
X1245278Y155568D01*
X1245296Y155577D01*
X1245402Y155667D01*
X1245510Y155754D01*
X1245523Y155770D01*
X1245538Y155783D01*
X1245618Y155897D01*
X1245702Y156008D01*
X1245714Y156033D01*
X1245721Y156043D01*
X1245728Y156062D01*
X1245773Y156153D01*
X1247053Y159243D01*
X1249568Y161758D01*
X1252854Y163120D01*
X1256412Y163120D01*
X1259698Y161758D01*
X1262213Y159243D01*
X1263575Y155957D01*
X1263575Y152399D01*
X1262213Y149113D01*
X1259698Y146598D01*
X1256412Y145236D01*
X1252854Y145236D01*
X1249568Y146598D01*
X1247053Y149113D01*
X1245773Y152203D01*
X1245704Y152324D01*
X1245639Y152447D01*
X1245625Y152462D01*
X1245615Y152480D01*
X1245518Y152580D01*
X1245425Y152682D01*
X1245408Y152694D01*
X1245394Y152708D01*
X1245276Y152781D01*
X1245159Y152857D01*
X1245140Y152864D01*
X1245123Y152874D01*
X1244990Y152915D01*
X1244858Y152960D01*
X1244838Y152962D01*
X1244819Y152968D01*
X1244680Y152975D01*
X1244541Y152986D01*
X1244521Y152982D01*
X1244501Y152983D01*
X1244365Y152955D01*
X1244228Y152931D01*
X1244210Y152923D01*
X1244190Y152919D01*
X1244064Y152858D01*
X1243938Y152801D01*
X1243922Y152788D01*
X1243904Y152779D01*
X1243798Y152688D01*
X1243690Y152602D01*
X1243677Y152586D01*
X1243662Y152573D01*
X1243582Y152459D01*
X1243498Y152348D01*
X1243486Y152323D01*
X1243479Y152313D01*
X1243472Y152293D01*
X1243427Y152203D01*
X1242147Y149113D01*
X1239632Y146598D01*
X1236346Y145236D01*
X1232788Y145236D01*
G37*
%LPD*%
%LPC*%
G36*
X1193645Y578459D02*
X1193645Y578459D01*
X1189036Y580368D01*
X1185508Y583896D01*
X1183599Y588505D01*
X1183599Y593495D01*
X1185508Y598104D01*
X1189036Y601632D01*
X1193645Y603541D01*
X1198635Y603541D01*
X1203244Y601632D01*
X1206772Y598104D01*
X1208681Y593495D01*
X1208681Y588505D01*
X1206772Y583896D01*
X1203244Y580368D01*
X1198635Y578459D01*
X1193645Y578459D01*
G37*
%LPD*%
%LPC*%
G36*
X1185205Y294159D02*
X1185205Y294159D01*
X1180596Y296068D01*
X1177068Y299596D01*
X1175159Y304205D01*
X1175159Y309195D01*
X1177068Y313804D01*
X1180596Y317332D01*
X1185205Y319241D01*
X1190195Y319241D01*
X1194804Y317332D01*
X1198332Y313804D01*
X1200241Y309195D01*
X1200241Y304205D01*
X1198332Y299596D01*
X1194804Y296068D01*
X1190195Y294159D01*
X1185205Y294159D01*
G37*
%LPD*%
%LPC*%
G36*
X105205Y584159D02*
X105205Y584159D01*
X100596Y586068D01*
X97068Y589596D01*
X95159Y594205D01*
X95159Y599195D01*
X97068Y603804D01*
X100596Y607332D01*
X105205Y609241D01*
X110195Y609241D01*
X114804Y607332D01*
X118332Y603804D01*
X120241Y599195D01*
X120241Y594205D01*
X118332Y589596D01*
X114804Y586068D01*
X110195Y584159D01*
X105205Y584159D01*
G37*
%LPD*%
%LPC*%
G36*
X105205Y294159D02*
X105205Y294159D01*
X100596Y296068D01*
X97068Y299596D01*
X95159Y304205D01*
X95159Y309195D01*
X97068Y313804D01*
X100596Y317332D01*
X105205Y319241D01*
X110195Y319241D01*
X114804Y317332D01*
X118332Y313804D01*
X120241Y309195D01*
X120241Y304205D01*
X118332Y299596D01*
X114804Y296068D01*
X110195Y294159D01*
X105205Y294159D01*
G37*
%LPD*%
%LPC*%
G36*
X443045Y140459D02*
X443045Y140459D01*
X438510Y142338D01*
X435038Y145810D01*
X433159Y150345D01*
X433159Y155255D01*
X435038Y159790D01*
X438510Y163262D01*
X443045Y165141D01*
X447955Y165141D01*
X452490Y163262D01*
X455962Y159790D01*
X457841Y155255D01*
X457841Y150345D01*
X455962Y145810D01*
X452490Y142338D01*
X447955Y140459D01*
X443045Y140459D01*
G37*
%LPD*%
%LPC*%
G36*
X568045Y190459D02*
X568045Y190459D01*
X563510Y192338D01*
X560038Y195810D01*
X558159Y200345D01*
X558159Y205255D01*
X560038Y209790D01*
X563510Y213262D01*
X568045Y215141D01*
X572955Y215141D01*
X577490Y213262D01*
X580962Y209790D01*
X582841Y205255D01*
X582841Y200345D01*
X580962Y195810D01*
X577490Y192338D01*
X572955Y190459D01*
X568045Y190459D01*
G37*
%LPD*%
%LPC*%
G36*
X1306645Y546859D02*
X1306645Y546859D01*
X1302110Y548738D01*
X1298638Y552210D01*
X1296759Y556745D01*
X1296759Y561655D01*
X1298638Y566190D01*
X1302110Y569662D01*
X1306645Y571541D01*
X1311555Y571541D01*
X1316090Y569662D01*
X1319562Y566190D01*
X1321441Y561655D01*
X1321441Y556745D01*
X1319562Y552210D01*
X1316090Y548738D01*
X1311555Y546859D01*
X1306645Y546859D01*
G37*
%LPD*%
%LPC*%
G36*
X1431645Y343659D02*
X1431645Y343659D01*
X1427110Y345538D01*
X1423638Y349010D01*
X1421759Y353545D01*
X1421759Y358455D01*
X1423638Y362990D01*
X1427110Y366462D01*
X1431645Y368341D01*
X1436555Y368341D01*
X1441090Y366462D01*
X1444562Y362990D01*
X1446441Y358455D01*
X1446441Y353545D01*
X1444562Y349010D01*
X1441090Y345538D01*
X1436555Y343659D01*
X1431645Y343659D01*
G37*
%LPD*%
%LPC*%
G36*
X568045Y140459D02*
X568045Y140459D01*
X563510Y142338D01*
X560038Y145810D01*
X558159Y150345D01*
X558159Y155255D01*
X560038Y159790D01*
X563510Y163262D01*
X568045Y165141D01*
X572955Y165141D01*
X577490Y163262D01*
X580962Y159790D01*
X582841Y155255D01*
X582841Y150345D01*
X580962Y145810D01*
X577490Y142338D01*
X572955Y140459D01*
X568045Y140459D01*
G37*
%LPD*%
%LPC*%
G36*
X722445Y140459D02*
X722445Y140459D01*
X717910Y142338D01*
X714438Y145810D01*
X712559Y150345D01*
X712559Y155255D01*
X714438Y159790D01*
X717910Y163262D01*
X722445Y165141D01*
X727355Y165141D01*
X731890Y163262D01*
X735362Y159790D01*
X737241Y155255D01*
X737241Y150345D01*
X735362Y145810D01*
X731890Y142338D01*
X727355Y140459D01*
X722445Y140459D01*
G37*
%LPD*%
%LPC*%
G36*
X847445Y140459D02*
X847445Y140459D01*
X842910Y142338D01*
X839438Y145810D01*
X837559Y150345D01*
X837559Y155255D01*
X839438Y159790D01*
X842910Y163262D01*
X847445Y165141D01*
X852355Y165141D01*
X856890Y163262D01*
X860362Y159790D01*
X862241Y155255D01*
X862241Y150345D01*
X860362Y145810D01*
X856890Y142338D01*
X852355Y140459D01*
X847445Y140459D01*
G37*
%LPD*%
%LPC*%
G36*
X443045Y190459D02*
X443045Y190459D01*
X438510Y192338D01*
X435038Y195810D01*
X433159Y200345D01*
X433159Y205255D01*
X435038Y209790D01*
X438510Y213262D01*
X443045Y215141D01*
X447955Y215141D01*
X452490Y213262D01*
X455962Y209790D01*
X457841Y205255D01*
X457841Y200345D01*
X455962Y195810D01*
X452490Y192338D01*
X447955Y190459D01*
X443045Y190459D01*
G37*
%LPD*%
%LPC*%
G36*
X1306645Y343659D02*
X1306645Y343659D01*
X1302110Y345538D01*
X1298638Y349010D01*
X1296759Y353545D01*
X1296759Y358455D01*
X1298638Y362990D01*
X1302110Y366462D01*
X1306645Y368341D01*
X1311555Y368341D01*
X1316090Y366462D01*
X1319562Y362990D01*
X1321441Y358455D01*
X1321441Y353545D01*
X1319562Y349010D01*
X1316090Y345538D01*
X1311555Y343659D01*
X1306645Y343659D01*
G37*
%LPD*%
%LPC*%
G36*
X722445Y190459D02*
X722445Y190459D01*
X717910Y192338D01*
X714438Y195810D01*
X712559Y200345D01*
X712559Y205255D01*
X714438Y209790D01*
X717910Y213262D01*
X722445Y215141D01*
X727355Y215141D01*
X731890Y213262D01*
X735362Y209790D01*
X737241Y205255D01*
X737241Y200345D01*
X735362Y195810D01*
X731890Y192338D01*
X727355Y190459D01*
X722445Y190459D01*
G37*
%LPD*%
%LPC*%
G36*
X847445Y190459D02*
X847445Y190459D01*
X842910Y192338D01*
X839438Y195810D01*
X837559Y200345D01*
X837559Y205255D01*
X839438Y209790D01*
X842910Y213262D01*
X847445Y215141D01*
X852355Y215141D01*
X856890Y213262D01*
X860362Y209790D01*
X862241Y205255D01*
X862241Y200345D01*
X860362Y195810D01*
X856890Y192338D01*
X852355Y190459D01*
X847445Y190459D01*
G37*
%LPD*%
%LPC*%
G36*
X1306645Y596859D02*
X1306645Y596859D01*
X1302110Y598738D01*
X1298638Y602210D01*
X1296759Y606745D01*
X1296759Y611655D01*
X1298638Y616190D01*
X1302110Y619662D01*
X1306645Y621541D01*
X1311555Y621541D01*
X1316090Y619662D01*
X1319562Y616190D01*
X1321441Y611655D01*
X1321441Y606745D01*
X1319562Y602210D01*
X1316090Y598738D01*
X1311555Y596859D01*
X1306645Y596859D01*
G37*
%LPD*%
%LPC*%
G36*
X610780Y602047D02*
X610780Y602047D01*
X607232Y603517D01*
X604517Y606232D01*
X603047Y609780D01*
X603047Y613620D01*
X604517Y617168D01*
X607232Y619883D01*
X610780Y621353D01*
X614620Y621353D01*
X618168Y619883D01*
X620883Y617168D01*
X622353Y613620D01*
X622353Y609780D01*
X620883Y606232D01*
X618168Y603517D01*
X614620Y602047D01*
X610780Y602047D01*
G37*
%LPD*%
%LPC*%
G36*
X661020Y601347D02*
X661020Y601347D01*
X657472Y602817D01*
X654757Y605532D01*
X653287Y609080D01*
X653287Y612920D01*
X654757Y616468D01*
X657472Y619183D01*
X661020Y620653D01*
X664860Y620653D01*
X668408Y619183D01*
X671123Y616468D01*
X672593Y612920D01*
X672593Y609080D01*
X671123Y605532D01*
X668408Y602817D01*
X664860Y601347D01*
X661020Y601347D01*
G37*
%LPD*%
%LPC*%
G36*
X635620Y601347D02*
X635620Y601347D01*
X632072Y602817D01*
X629357Y605532D01*
X627887Y609080D01*
X627887Y612920D01*
X629357Y616468D01*
X632072Y619183D01*
X635620Y620653D01*
X639460Y620653D01*
X643008Y619183D01*
X645723Y616468D01*
X647193Y612920D01*
X647193Y609080D01*
X645723Y605532D01*
X643008Y602817D01*
X639460Y601347D01*
X635620Y601347D01*
G37*
%LPD*%
%LPC*%
G36*
X1207896Y145236D02*
X1207896Y145236D01*
X1204610Y146598D01*
X1202095Y149113D01*
X1200733Y152399D01*
X1200733Y155957D01*
X1202095Y159243D01*
X1204610Y161758D01*
X1207896Y163120D01*
X1211454Y163120D01*
X1214740Y161758D01*
X1217255Y159243D01*
X1218617Y155957D01*
X1218617Y152399D01*
X1217255Y149113D01*
X1214740Y146598D01*
X1211454Y145236D01*
X1207896Y145236D01*
G37*
%LPD*%
%LPC*%
G36*
X1061657Y500536D02*
X1061657Y500536D01*
X1058436Y501870D01*
X1055970Y504336D01*
X1054636Y507557D01*
X1054636Y511043D01*
X1055970Y514264D01*
X1058436Y516730D01*
X1061657Y518064D01*
X1065143Y518064D01*
X1068364Y516730D01*
X1070830Y514264D01*
X1072164Y511043D01*
X1072164Y507557D01*
X1070830Y504336D01*
X1068364Y501870D01*
X1065143Y500536D01*
X1061657Y500536D01*
G37*
%LPD*%
%LPC*%
G36*
X1036257Y500536D02*
X1036257Y500536D01*
X1033036Y501870D01*
X1030570Y504336D01*
X1029236Y507557D01*
X1029236Y511043D01*
X1030570Y514264D01*
X1033036Y516730D01*
X1036257Y518064D01*
X1039743Y518064D01*
X1042964Y516730D01*
X1045430Y514264D01*
X1046764Y511043D01*
X1046764Y507557D01*
X1045430Y504336D01*
X1042964Y501870D01*
X1039743Y500536D01*
X1036257Y500536D01*
G37*
%LPD*%
%LPC*%
G36*
X985457Y500536D02*
X985457Y500536D01*
X982236Y501870D01*
X979770Y504336D01*
X978436Y507557D01*
X978436Y511043D01*
X979770Y514264D01*
X982236Y516730D01*
X985457Y518064D01*
X988943Y518064D01*
X992164Y516730D01*
X994630Y514264D01*
X995964Y511043D01*
X995964Y507557D01*
X994630Y504336D01*
X992164Y501870D01*
X988943Y500536D01*
X985457Y500536D01*
G37*
%LPD*%
%LPC*%
G36*
X1214057Y500536D02*
X1214057Y500536D01*
X1210836Y501870D01*
X1208370Y504336D01*
X1207036Y507557D01*
X1207036Y511043D01*
X1208370Y514264D01*
X1210836Y516730D01*
X1214057Y518064D01*
X1217543Y518064D01*
X1220764Y516730D01*
X1223230Y514264D01*
X1224564Y511043D01*
X1224564Y507557D01*
X1223230Y504336D01*
X1220764Y501870D01*
X1217543Y500536D01*
X1214057Y500536D01*
G37*
%LPD*%
%LPC*%
G36*
X1087057Y475136D02*
X1087057Y475136D01*
X1083836Y476470D01*
X1081370Y478936D01*
X1080036Y482157D01*
X1080036Y485643D01*
X1081370Y488864D01*
X1083836Y491330D01*
X1087057Y492664D01*
X1090543Y492664D01*
X1093764Y491330D01*
X1096230Y488864D01*
X1097564Y485643D01*
X1097564Y482157D01*
X1096230Y478936D01*
X1093764Y476470D01*
X1090543Y475136D01*
X1087057Y475136D01*
G37*
%LPD*%
%LPC*%
G36*
X1061657Y475136D02*
X1061657Y475136D01*
X1058436Y476470D01*
X1055970Y478936D01*
X1054636Y482157D01*
X1054636Y485643D01*
X1055970Y488864D01*
X1058436Y491330D01*
X1061657Y492664D01*
X1065143Y492664D01*
X1068364Y491330D01*
X1070830Y488864D01*
X1072164Y485643D01*
X1072164Y482157D01*
X1070830Y478936D01*
X1068364Y476470D01*
X1065143Y475136D01*
X1061657Y475136D01*
G37*
%LPD*%
%LPC*%
G36*
X1036257Y475136D02*
X1036257Y475136D01*
X1033036Y476470D01*
X1030570Y478936D01*
X1029236Y482157D01*
X1029236Y485643D01*
X1030570Y488864D01*
X1033036Y491330D01*
X1036257Y492664D01*
X1039743Y492664D01*
X1042964Y491330D01*
X1045430Y488864D01*
X1046764Y485643D01*
X1046764Y482157D01*
X1045430Y478936D01*
X1042964Y476470D01*
X1039743Y475136D01*
X1036257Y475136D01*
G37*
%LPD*%
%LPC*%
G36*
X1010857Y475136D02*
X1010857Y475136D01*
X1007636Y476470D01*
X1005170Y478936D01*
X1003836Y482157D01*
X1003836Y485643D01*
X1005170Y488864D01*
X1007636Y491330D01*
X1010857Y492664D01*
X1014343Y492664D01*
X1017564Y491330D01*
X1020030Y488864D01*
X1021364Y485643D01*
X1021364Y482157D01*
X1020030Y478936D01*
X1017564Y476470D01*
X1014343Y475136D01*
X1010857Y475136D01*
G37*
%LPD*%
%LPC*%
G36*
X1112457Y475136D02*
X1112457Y475136D01*
X1109236Y476470D01*
X1106770Y478936D01*
X1105436Y482157D01*
X1105436Y485643D01*
X1106770Y488864D01*
X1109236Y491330D01*
X1112457Y492664D01*
X1115943Y492664D01*
X1119164Y491330D01*
X1121630Y488864D01*
X1122964Y485643D01*
X1122964Y482157D01*
X1121630Y478936D01*
X1119164Y476470D01*
X1115943Y475136D01*
X1112457Y475136D01*
G37*
%LPD*%
%LPC*%
G36*
X1188657Y475136D02*
X1188657Y475136D01*
X1185436Y476470D01*
X1182970Y478936D01*
X1181636Y482157D01*
X1181636Y485643D01*
X1182970Y488864D01*
X1185436Y491330D01*
X1188657Y492664D01*
X1192143Y492664D01*
X1195364Y491330D01*
X1197830Y488864D01*
X1199164Y485643D01*
X1199164Y482157D01*
X1197830Y478936D01*
X1195364Y476470D01*
X1192143Y475136D01*
X1188657Y475136D01*
G37*
%LPD*%
%LPC*%
G36*
X1290257Y475136D02*
X1290257Y475136D01*
X1287036Y476470D01*
X1284570Y478936D01*
X1283236Y482157D01*
X1283236Y485643D01*
X1284570Y488864D01*
X1287036Y491330D01*
X1290257Y492664D01*
X1293743Y492664D01*
X1296964Y491330D01*
X1299430Y488864D01*
X1300764Y485643D01*
X1300764Y482157D01*
X1299430Y478936D01*
X1296964Y476470D01*
X1293743Y475136D01*
X1290257Y475136D01*
G37*
%LPD*%
%LPC*%
G36*
X1214057Y475136D02*
X1214057Y475136D01*
X1210836Y476470D01*
X1208370Y478936D01*
X1207036Y482157D01*
X1207036Y485643D01*
X1208370Y488864D01*
X1210836Y491330D01*
X1214057Y492664D01*
X1217543Y492664D01*
X1220764Y491330D01*
X1223230Y488864D01*
X1224564Y485643D01*
X1224564Y482157D01*
X1223230Y478936D01*
X1220764Y476470D01*
X1217543Y475136D01*
X1214057Y475136D01*
G37*
%LPD*%
%LPC*%
G36*
X1315657Y475136D02*
X1315657Y475136D01*
X1312436Y476470D01*
X1309970Y478936D01*
X1308636Y482157D01*
X1308636Y485643D01*
X1309970Y488864D01*
X1312436Y491330D01*
X1315657Y492664D01*
X1319143Y492664D01*
X1322364Y491330D01*
X1324830Y488864D01*
X1326164Y485643D01*
X1326164Y482157D01*
X1324830Y478936D01*
X1322364Y476470D01*
X1319143Y475136D01*
X1315657Y475136D01*
G37*
%LPD*%
%LPC*%
G36*
X1341057Y475136D02*
X1341057Y475136D01*
X1337836Y476470D01*
X1335370Y478936D01*
X1334036Y482157D01*
X1334036Y485643D01*
X1335370Y488864D01*
X1337836Y491330D01*
X1341057Y492664D01*
X1344543Y492664D01*
X1347764Y491330D01*
X1350230Y488864D01*
X1351564Y485643D01*
X1351564Y482157D01*
X1350230Y478936D01*
X1347764Y476470D01*
X1344543Y475136D01*
X1341057Y475136D01*
G37*
%LPD*%
%LPC*%
G36*
X1366457Y475136D02*
X1366457Y475136D01*
X1363236Y476470D01*
X1360770Y478936D01*
X1359436Y482157D01*
X1359436Y485643D01*
X1360770Y488864D01*
X1363236Y491330D01*
X1366457Y492664D01*
X1369943Y492664D01*
X1373164Y491330D01*
X1375630Y488864D01*
X1376964Y485643D01*
X1376964Y482157D01*
X1375630Y478936D01*
X1373164Y476470D01*
X1369943Y475136D01*
X1366457Y475136D01*
G37*
%LPD*%
%LPC*%
G36*
X1391857Y475136D02*
X1391857Y475136D01*
X1388636Y476470D01*
X1386170Y478936D01*
X1384836Y482157D01*
X1384836Y485643D01*
X1386170Y488864D01*
X1388636Y491330D01*
X1391857Y492664D01*
X1395343Y492664D01*
X1398564Y491330D01*
X1401030Y488864D01*
X1402364Y485643D01*
X1402364Y482157D01*
X1401030Y478936D01*
X1398564Y476470D01*
X1395343Y475136D01*
X1391857Y475136D01*
G37*
%LPD*%
%LPC*%
G36*
X1417257Y475136D02*
X1417257Y475136D01*
X1414036Y476470D01*
X1411570Y478936D01*
X1410236Y482157D01*
X1410236Y485643D01*
X1411570Y488864D01*
X1414036Y491330D01*
X1417257Y492664D01*
X1420743Y492664D01*
X1423964Y491330D01*
X1426430Y488864D01*
X1427764Y485643D01*
X1427764Y482157D01*
X1426430Y478936D01*
X1423964Y476470D01*
X1420743Y475136D01*
X1417257Y475136D01*
G37*
%LPD*%
%LPC*%
G36*
X1239457Y475136D02*
X1239457Y475136D01*
X1236236Y476470D01*
X1233770Y478936D01*
X1232436Y482157D01*
X1232436Y485643D01*
X1233770Y488864D01*
X1236236Y491330D01*
X1239457Y492664D01*
X1242943Y492664D01*
X1246164Y491330D01*
X1248630Y488864D01*
X1249964Y485643D01*
X1249964Y482157D01*
X1248630Y478936D01*
X1246164Y476470D01*
X1242943Y475136D01*
X1239457Y475136D01*
G37*
%LPD*%
%LPC*%
G36*
X985457Y475136D02*
X985457Y475136D01*
X982236Y476470D01*
X979770Y478936D01*
X978436Y482157D01*
X978436Y485643D01*
X979770Y488864D01*
X982236Y491330D01*
X985457Y492664D01*
X988943Y492664D01*
X992164Y491330D01*
X994630Y488864D01*
X995964Y485643D01*
X995964Y482157D01*
X994630Y478936D01*
X992164Y476470D01*
X988943Y475136D01*
X985457Y475136D01*
G37*
%LPD*%
%LPC*%
G36*
X1395257Y118236D02*
X1395257Y118236D01*
X1392036Y119570D01*
X1389570Y122036D01*
X1388236Y125257D01*
X1388236Y128743D01*
X1389570Y131964D01*
X1392036Y134430D01*
X1395257Y135764D01*
X1398743Y135764D01*
X1401964Y134430D01*
X1404430Y131964D01*
X1405764Y128743D01*
X1405764Y125257D01*
X1404430Y122036D01*
X1401964Y119570D01*
X1398743Y118236D01*
X1395257Y118236D01*
G37*
%LPD*%
%LPC*%
G36*
X1446057Y118236D02*
X1446057Y118236D01*
X1442836Y119570D01*
X1440370Y122036D01*
X1439036Y125257D01*
X1439036Y128743D01*
X1440370Y131964D01*
X1442836Y134430D01*
X1446057Y135764D01*
X1449543Y135764D01*
X1452764Y134430D01*
X1455230Y131964D01*
X1456564Y128743D01*
X1456564Y125257D01*
X1455230Y122036D01*
X1452764Y119570D01*
X1449543Y118236D01*
X1446057Y118236D01*
G37*
%LPD*%
%LPC*%
G36*
X36357Y130936D02*
X36357Y130936D01*
X33136Y132270D01*
X30670Y134736D01*
X29336Y137957D01*
X29336Y141443D01*
X30670Y144664D01*
X33136Y147130D01*
X36357Y148464D01*
X39843Y148464D01*
X43064Y147130D01*
X45530Y144664D01*
X46864Y141443D01*
X46864Y137957D01*
X45530Y134736D01*
X43064Y132270D01*
X39843Y130936D01*
X36357Y130936D01*
G37*
%LPD*%
%LPC*%
G36*
X87157Y130936D02*
X87157Y130936D01*
X83936Y132270D01*
X81470Y134736D01*
X80136Y137957D01*
X80136Y141443D01*
X81470Y144664D01*
X83936Y147130D01*
X87157Y148464D01*
X90643Y148464D01*
X93864Y147130D01*
X96330Y144664D01*
X97664Y141443D01*
X97664Y137957D01*
X96330Y134736D01*
X93864Y132270D01*
X90643Y130936D01*
X87157Y130936D01*
G37*
%LPD*%
%LPC*%
G36*
X1087057Y500536D02*
X1087057Y500536D01*
X1083836Y501870D01*
X1081370Y504336D01*
X1080036Y507557D01*
X1080036Y511043D01*
X1081370Y514264D01*
X1083836Y516730D01*
X1087057Y518064D01*
X1090543Y518064D01*
X1093764Y516730D01*
X1096230Y514264D01*
X1097564Y511043D01*
X1097564Y507557D01*
X1096230Y504336D01*
X1093764Y501870D01*
X1090543Y500536D01*
X1087057Y500536D01*
G37*
%LPD*%
%LPC*%
G36*
X1010857Y500536D02*
X1010857Y500536D01*
X1007636Y501870D01*
X1005170Y504336D01*
X1003836Y507557D01*
X1003836Y511043D01*
X1005170Y514264D01*
X1007636Y516730D01*
X1010857Y518064D01*
X1014343Y518064D01*
X1017564Y516730D01*
X1020030Y514264D01*
X1021364Y511043D01*
X1021364Y507557D01*
X1020030Y504336D01*
X1017564Y501870D01*
X1014343Y500536D01*
X1010857Y500536D01*
G37*
%LPD*%
%LPC*%
G36*
X1163257Y500536D02*
X1163257Y500536D01*
X1160036Y501870D01*
X1157570Y504336D01*
X1156236Y507557D01*
X1156236Y511043D01*
X1157570Y514264D01*
X1160036Y516730D01*
X1163257Y518064D01*
X1166743Y518064D01*
X1169964Y516730D01*
X1172430Y514264D01*
X1173764Y511043D01*
X1173764Y507557D01*
X1172430Y504336D01*
X1169964Y501870D01*
X1166743Y500536D01*
X1163257Y500536D01*
G37*
%LPD*%
%LPC*%
G36*
X1188657Y500536D02*
X1188657Y500536D01*
X1185436Y501870D01*
X1182970Y504336D01*
X1181636Y507557D01*
X1181636Y511043D01*
X1182970Y514264D01*
X1185436Y516730D01*
X1188657Y518064D01*
X1192143Y518064D01*
X1195364Y516730D01*
X1197830Y514264D01*
X1199164Y511043D01*
X1199164Y507557D01*
X1197830Y504336D01*
X1195364Y501870D01*
X1192143Y500536D01*
X1188657Y500536D01*
G37*
%LPD*%
%LPC*%
G36*
X1239457Y500536D02*
X1239457Y500536D01*
X1236236Y501870D01*
X1233770Y504336D01*
X1232436Y507557D01*
X1232436Y511043D01*
X1233770Y514264D01*
X1236236Y516730D01*
X1239457Y518064D01*
X1242943Y518064D01*
X1246164Y516730D01*
X1248630Y514264D01*
X1249964Y511043D01*
X1249964Y507557D01*
X1248630Y504336D01*
X1246164Y501870D01*
X1242943Y500536D01*
X1239457Y500536D01*
G37*
%LPD*%
%LPC*%
G36*
X1264857Y500536D02*
X1264857Y500536D01*
X1261636Y501870D01*
X1259170Y504336D01*
X1257836Y507557D01*
X1257836Y511043D01*
X1259170Y514264D01*
X1261636Y516730D01*
X1264857Y518064D01*
X1268343Y518064D01*
X1271564Y516730D01*
X1274030Y514264D01*
X1275364Y511043D01*
X1275364Y507557D01*
X1274030Y504336D01*
X1271564Y501870D01*
X1268343Y500536D01*
X1264857Y500536D01*
G37*
%LPD*%
%LPC*%
G36*
X1264857Y246536D02*
X1264857Y246536D01*
X1261636Y247870D01*
X1259170Y250336D01*
X1257836Y253557D01*
X1257836Y257043D01*
X1259170Y260264D01*
X1261636Y262730D01*
X1264857Y264064D01*
X1268343Y264064D01*
X1271564Y262730D01*
X1274030Y260264D01*
X1275364Y257043D01*
X1275364Y253557D01*
X1274030Y250336D01*
X1271564Y247870D01*
X1268343Y246536D01*
X1264857Y246536D01*
G37*
%LPD*%
%LPC*%
G36*
X1163257Y246536D02*
X1163257Y246536D01*
X1160036Y247870D01*
X1157570Y250336D01*
X1156236Y253557D01*
X1156236Y257043D01*
X1157570Y260264D01*
X1160036Y262730D01*
X1163257Y264064D01*
X1166743Y264064D01*
X1169964Y262730D01*
X1172430Y260264D01*
X1173764Y257043D01*
X1173764Y253557D01*
X1172430Y250336D01*
X1169964Y247870D01*
X1166743Y246536D01*
X1163257Y246536D01*
G37*
%LPD*%
%LPC*%
G36*
X1214057Y246536D02*
X1214057Y246536D01*
X1210836Y247870D01*
X1208370Y250336D01*
X1207036Y253557D01*
X1207036Y257043D01*
X1208370Y260264D01*
X1210836Y262730D01*
X1214057Y264064D01*
X1217543Y264064D01*
X1220764Y262730D01*
X1223230Y260264D01*
X1224564Y257043D01*
X1224564Y253557D01*
X1223230Y250336D01*
X1220764Y247870D01*
X1217543Y246536D01*
X1214057Y246536D01*
G37*
%LPD*%
%LPC*%
G36*
X1239457Y246536D02*
X1239457Y246536D01*
X1236236Y247870D01*
X1233770Y250336D01*
X1232436Y253557D01*
X1232436Y257043D01*
X1233770Y260264D01*
X1236236Y262730D01*
X1239457Y264064D01*
X1242943Y264064D01*
X1246164Y262730D01*
X1248630Y260264D01*
X1249964Y257043D01*
X1249964Y253557D01*
X1248630Y250336D01*
X1246164Y247870D01*
X1242943Y246536D01*
X1239457Y246536D01*
G37*
%LPD*%
%LPC*%
G36*
X1290257Y500536D02*
X1290257Y500536D01*
X1287036Y501870D01*
X1284570Y504336D01*
X1283236Y507557D01*
X1283236Y511043D01*
X1284570Y514264D01*
X1287036Y516730D01*
X1290257Y518064D01*
X1293743Y518064D01*
X1296964Y516730D01*
X1299430Y514264D01*
X1300764Y511043D01*
X1300764Y507557D01*
X1299430Y504336D01*
X1296964Y501870D01*
X1293743Y500536D01*
X1290257Y500536D01*
G37*
%LPD*%
%LPC*%
G36*
X1010857Y246536D02*
X1010857Y246536D01*
X1007636Y247870D01*
X1005170Y250336D01*
X1003836Y253557D01*
X1003836Y257043D01*
X1005170Y260264D01*
X1007636Y262730D01*
X1010857Y264064D01*
X1014343Y264064D01*
X1017564Y262730D01*
X1020030Y260264D01*
X1021364Y257043D01*
X1021364Y253557D01*
X1020030Y250336D01*
X1017564Y247870D01*
X1014343Y246536D01*
X1010857Y246536D01*
G37*
%LPD*%
%LPC*%
G36*
X1036257Y246536D02*
X1036257Y246536D01*
X1033036Y247870D01*
X1030570Y250336D01*
X1029236Y253557D01*
X1029236Y257043D01*
X1030570Y260264D01*
X1033036Y262730D01*
X1036257Y264064D01*
X1039743Y264064D01*
X1042964Y262730D01*
X1045430Y260264D01*
X1046764Y257043D01*
X1046764Y253557D01*
X1045430Y250336D01*
X1042964Y247870D01*
X1039743Y246536D01*
X1036257Y246536D01*
G37*
%LPD*%
%LPC*%
G36*
X1061657Y246536D02*
X1061657Y246536D01*
X1058436Y247870D01*
X1055970Y250336D01*
X1054636Y253557D01*
X1054636Y257043D01*
X1055970Y260264D01*
X1058436Y262730D01*
X1061657Y264064D01*
X1065143Y264064D01*
X1068364Y262730D01*
X1070830Y260264D01*
X1072164Y257043D01*
X1072164Y253557D01*
X1070830Y250336D01*
X1068364Y247870D01*
X1065143Y246536D01*
X1061657Y246536D01*
G37*
%LPD*%
%LPC*%
G36*
X1290257Y246536D02*
X1290257Y246536D01*
X1287036Y247870D01*
X1284570Y250336D01*
X1283236Y253557D01*
X1283236Y257043D01*
X1284570Y260264D01*
X1287036Y262730D01*
X1290257Y264064D01*
X1293743Y264064D01*
X1296964Y262730D01*
X1299430Y260264D01*
X1300764Y257043D01*
X1300764Y253557D01*
X1299430Y250336D01*
X1296964Y247870D01*
X1293743Y246536D01*
X1290257Y246536D01*
G37*
%LPD*%
%LPC*%
G36*
X1315657Y246536D02*
X1315657Y246536D01*
X1312436Y247870D01*
X1309970Y250336D01*
X1308636Y253557D01*
X1308636Y257043D01*
X1309970Y260264D01*
X1312436Y262730D01*
X1315657Y264064D01*
X1319143Y264064D01*
X1322364Y262730D01*
X1324830Y260264D01*
X1326164Y257043D01*
X1326164Y253557D01*
X1324830Y250336D01*
X1322364Y247870D01*
X1319143Y246536D01*
X1315657Y246536D01*
G37*
%LPD*%
%LPC*%
G36*
X1112457Y246536D02*
X1112457Y246536D01*
X1109236Y247870D01*
X1106770Y250336D01*
X1105436Y253557D01*
X1105436Y257043D01*
X1106770Y260264D01*
X1109236Y262730D01*
X1112457Y264064D01*
X1115943Y264064D01*
X1119164Y262730D01*
X1121630Y260264D01*
X1122964Y257043D01*
X1122964Y253557D01*
X1121630Y250336D01*
X1119164Y247870D01*
X1115943Y246536D01*
X1112457Y246536D01*
G37*
%LPD*%
%LPC*%
G36*
X1188657Y246536D02*
X1188657Y246536D01*
X1185436Y247870D01*
X1182970Y250336D01*
X1181636Y253557D01*
X1181636Y257043D01*
X1182970Y260264D01*
X1185436Y262730D01*
X1188657Y264064D01*
X1192143Y264064D01*
X1195364Y262730D01*
X1197830Y260264D01*
X1199164Y257043D01*
X1199164Y253557D01*
X1197830Y250336D01*
X1195364Y247870D01*
X1192143Y246536D01*
X1188657Y246536D01*
G37*
%LPD*%
%LPC*%
G36*
X1417257Y246536D02*
X1417257Y246536D01*
X1414036Y247870D01*
X1411570Y250336D01*
X1410236Y253557D01*
X1410236Y257043D01*
X1411570Y260264D01*
X1414036Y262730D01*
X1417257Y264064D01*
X1420743Y264064D01*
X1423964Y262730D01*
X1426430Y260264D01*
X1427764Y257043D01*
X1427764Y253557D01*
X1426430Y250336D01*
X1423964Y247870D01*
X1420743Y246536D01*
X1417257Y246536D01*
G37*
%LPD*%
%LPC*%
G36*
X1391857Y246536D02*
X1391857Y246536D01*
X1388636Y247870D01*
X1386170Y250336D01*
X1384836Y253557D01*
X1384836Y257043D01*
X1386170Y260264D01*
X1388636Y262730D01*
X1391857Y264064D01*
X1395343Y264064D01*
X1398564Y262730D01*
X1401030Y260264D01*
X1402364Y257043D01*
X1402364Y253557D01*
X1401030Y250336D01*
X1398564Y247870D01*
X1395343Y246536D01*
X1391857Y246536D01*
G37*
%LPD*%
%LPC*%
G36*
X1366457Y246536D02*
X1366457Y246536D01*
X1363236Y247870D01*
X1360770Y250336D01*
X1359436Y253557D01*
X1359436Y257043D01*
X1360770Y260264D01*
X1363236Y262730D01*
X1366457Y264064D01*
X1369943Y264064D01*
X1373164Y262730D01*
X1375630Y260264D01*
X1376964Y257043D01*
X1376964Y253557D01*
X1375630Y250336D01*
X1373164Y247870D01*
X1369943Y246536D01*
X1366457Y246536D01*
G37*
%LPD*%
%LPC*%
G36*
X1341057Y246536D02*
X1341057Y246536D01*
X1337836Y247870D01*
X1335370Y250336D01*
X1334036Y253557D01*
X1334036Y257043D01*
X1335370Y260264D01*
X1337836Y262730D01*
X1341057Y264064D01*
X1344543Y264064D01*
X1347764Y262730D01*
X1350230Y260264D01*
X1351564Y257043D01*
X1351564Y253557D01*
X1350230Y250336D01*
X1347764Y247870D01*
X1344543Y246536D01*
X1341057Y246536D01*
G37*
%LPD*%
%LPC*%
G36*
X1112457Y500536D02*
X1112457Y500536D01*
X1109236Y501870D01*
X1106770Y504336D01*
X1105436Y507557D01*
X1105436Y511043D01*
X1106770Y514264D01*
X1109236Y516730D01*
X1112457Y518064D01*
X1115943Y518064D01*
X1119164Y516730D01*
X1121630Y514264D01*
X1122964Y511043D01*
X1122964Y507557D01*
X1121630Y504336D01*
X1119164Y501870D01*
X1115943Y500536D01*
X1112457Y500536D01*
G37*
%LPD*%
%LPC*%
G36*
X1417257Y500536D02*
X1417257Y500536D01*
X1414036Y501870D01*
X1411570Y504336D01*
X1410236Y507557D01*
X1410236Y511043D01*
X1411570Y514264D01*
X1414036Y516730D01*
X1417257Y518064D01*
X1420743Y518064D01*
X1423964Y516730D01*
X1426430Y514264D01*
X1427764Y511043D01*
X1427764Y507557D01*
X1426430Y504336D01*
X1423964Y501870D01*
X1420743Y500536D01*
X1417257Y500536D01*
G37*
%LPD*%
%LPC*%
G36*
X1391857Y500536D02*
X1391857Y500536D01*
X1388636Y501870D01*
X1386170Y504336D01*
X1384836Y507557D01*
X1384836Y511043D01*
X1386170Y514264D01*
X1388636Y516730D01*
X1391857Y518064D01*
X1395343Y518064D01*
X1398564Y516730D01*
X1401030Y514264D01*
X1402364Y511043D01*
X1402364Y507557D01*
X1401030Y504336D01*
X1398564Y501870D01*
X1395343Y500536D01*
X1391857Y500536D01*
G37*
%LPD*%
%LPC*%
G36*
X985457Y246536D02*
X985457Y246536D01*
X982236Y247870D01*
X979770Y250336D01*
X978436Y253557D01*
X978436Y257043D01*
X979770Y260264D01*
X982236Y262730D01*
X985457Y264064D01*
X988943Y264064D01*
X992164Y262730D01*
X994630Y260264D01*
X995964Y257043D01*
X995964Y253557D01*
X994630Y250336D01*
X992164Y247870D01*
X988943Y246536D01*
X985457Y246536D01*
G37*
%LPD*%
%LPC*%
G36*
X1137857Y221136D02*
X1137857Y221136D01*
X1134636Y222470D01*
X1132170Y224936D01*
X1130836Y228157D01*
X1130836Y231643D01*
X1132170Y234864D01*
X1134636Y237330D01*
X1137857Y238664D01*
X1141343Y238664D01*
X1144564Y237330D01*
X1147030Y234864D01*
X1148364Y231643D01*
X1148364Y228157D01*
X1147030Y224936D01*
X1144564Y222470D01*
X1141343Y221136D01*
X1137857Y221136D01*
G37*
%LPD*%
%LPC*%
G36*
X1239457Y221136D02*
X1239457Y221136D01*
X1236236Y222470D01*
X1233770Y224936D01*
X1232436Y228157D01*
X1232436Y231643D01*
X1233770Y234864D01*
X1236236Y237330D01*
X1239457Y238664D01*
X1242943Y238664D01*
X1246164Y237330D01*
X1248630Y234864D01*
X1249964Y231643D01*
X1249964Y228157D01*
X1248630Y224936D01*
X1246164Y222470D01*
X1242943Y221136D01*
X1239457Y221136D01*
G37*
%LPD*%
%LPC*%
G36*
X1061657Y221136D02*
X1061657Y221136D01*
X1058436Y222470D01*
X1055970Y224936D01*
X1054636Y228157D01*
X1054636Y231643D01*
X1055970Y234864D01*
X1058436Y237330D01*
X1061657Y238664D01*
X1065143Y238664D01*
X1068364Y237330D01*
X1070830Y234864D01*
X1072164Y231643D01*
X1072164Y228157D01*
X1070830Y224936D01*
X1068364Y222470D01*
X1065143Y221136D01*
X1061657Y221136D01*
G37*
%LPD*%
%LPC*%
G36*
X1036257Y221136D02*
X1036257Y221136D01*
X1033036Y222470D01*
X1030570Y224936D01*
X1029236Y228157D01*
X1029236Y231643D01*
X1030570Y234864D01*
X1033036Y237330D01*
X1036257Y238664D01*
X1039743Y238664D01*
X1042964Y237330D01*
X1045430Y234864D01*
X1046764Y231643D01*
X1046764Y228157D01*
X1045430Y224936D01*
X1042964Y222470D01*
X1039743Y221136D01*
X1036257Y221136D01*
G37*
%LPD*%
%LPC*%
G36*
X1010857Y221136D02*
X1010857Y221136D01*
X1007636Y222470D01*
X1005170Y224936D01*
X1003836Y228157D01*
X1003836Y231643D01*
X1005170Y234864D01*
X1007636Y237330D01*
X1010857Y238664D01*
X1014343Y238664D01*
X1017564Y237330D01*
X1020030Y234864D01*
X1021364Y231643D01*
X1021364Y228157D01*
X1020030Y224936D01*
X1017564Y222470D01*
X1014343Y221136D01*
X1010857Y221136D01*
G37*
%LPD*%
%LPC*%
G36*
X985457Y221136D02*
X985457Y221136D01*
X982236Y222470D01*
X979770Y224936D01*
X978436Y228157D01*
X978436Y231643D01*
X979770Y234864D01*
X982236Y237330D01*
X985457Y238664D01*
X988943Y238664D01*
X992164Y237330D01*
X994630Y234864D01*
X995964Y231643D01*
X995964Y228157D01*
X994630Y224936D01*
X992164Y222470D01*
X988943Y221136D01*
X985457Y221136D01*
G37*
%LPD*%
%LPC*%
G36*
X1214057Y221136D02*
X1214057Y221136D01*
X1210836Y222470D01*
X1208370Y224936D01*
X1207036Y228157D01*
X1207036Y231643D01*
X1208370Y234864D01*
X1210836Y237330D01*
X1214057Y238664D01*
X1217543Y238664D01*
X1220764Y237330D01*
X1223230Y234864D01*
X1224564Y231643D01*
X1224564Y228157D01*
X1223230Y224936D01*
X1220764Y222470D01*
X1217543Y221136D01*
X1214057Y221136D01*
G37*
%LPD*%
%LPC*%
G36*
X1188657Y221136D02*
X1188657Y221136D01*
X1185436Y222470D01*
X1182970Y224936D01*
X1181636Y228157D01*
X1181636Y231643D01*
X1182970Y234864D01*
X1185436Y237330D01*
X1188657Y238664D01*
X1192143Y238664D01*
X1195364Y237330D01*
X1197830Y234864D01*
X1199164Y231643D01*
X1199164Y228157D01*
X1197830Y224936D01*
X1195364Y222470D01*
X1192143Y221136D01*
X1188657Y221136D01*
G37*
%LPD*%
%LPC*%
G36*
X1163257Y221136D02*
X1163257Y221136D01*
X1160036Y222470D01*
X1157570Y224936D01*
X1156236Y228157D01*
X1156236Y231643D01*
X1157570Y234864D01*
X1160036Y237330D01*
X1163257Y238664D01*
X1166743Y238664D01*
X1169964Y237330D01*
X1172430Y234864D01*
X1173764Y231643D01*
X1173764Y228157D01*
X1172430Y224936D01*
X1169964Y222470D01*
X1166743Y221136D01*
X1163257Y221136D01*
G37*
%LPD*%
%LPC*%
G36*
X1112457Y221136D02*
X1112457Y221136D01*
X1109236Y222470D01*
X1106770Y224936D01*
X1105436Y228157D01*
X1105436Y231643D01*
X1106770Y234864D01*
X1109236Y237330D01*
X1112457Y238664D01*
X1115943Y238664D01*
X1119164Y237330D01*
X1121630Y234864D01*
X1122964Y231643D01*
X1122964Y228157D01*
X1121630Y224936D01*
X1119164Y222470D01*
X1115943Y221136D01*
X1112457Y221136D01*
G37*
%LPD*%
%LPC*%
G36*
X1264857Y221136D02*
X1264857Y221136D01*
X1261636Y222470D01*
X1259170Y224936D01*
X1257836Y228157D01*
X1257836Y231643D01*
X1259170Y234864D01*
X1261636Y237330D01*
X1264857Y238664D01*
X1268343Y238664D01*
X1271564Y237330D01*
X1274030Y234864D01*
X1275364Y231643D01*
X1275364Y228157D01*
X1274030Y224936D01*
X1271564Y222470D01*
X1268343Y221136D01*
X1264857Y221136D01*
G37*
%LPD*%
%LPC*%
G36*
X1417257Y221136D02*
X1417257Y221136D01*
X1414036Y222470D01*
X1411570Y224936D01*
X1410236Y228157D01*
X1410236Y231643D01*
X1411570Y234864D01*
X1414036Y237330D01*
X1417257Y238664D01*
X1420743Y238664D01*
X1423964Y237330D01*
X1426430Y234864D01*
X1427764Y231643D01*
X1427764Y228157D01*
X1426430Y224936D01*
X1423964Y222470D01*
X1420743Y221136D01*
X1417257Y221136D01*
G37*
%LPD*%
%LPC*%
G36*
X1391857Y221136D02*
X1391857Y221136D01*
X1388636Y222470D01*
X1386170Y224936D01*
X1384836Y228157D01*
X1384836Y231643D01*
X1386170Y234864D01*
X1388636Y237330D01*
X1391857Y238664D01*
X1395343Y238664D01*
X1398564Y237330D01*
X1401030Y234864D01*
X1402364Y231643D01*
X1402364Y228157D01*
X1401030Y224936D01*
X1398564Y222470D01*
X1395343Y221136D01*
X1391857Y221136D01*
G37*
%LPD*%
%LPC*%
G36*
X1366457Y221136D02*
X1366457Y221136D01*
X1363236Y222470D01*
X1360770Y224936D01*
X1359436Y228157D01*
X1359436Y231643D01*
X1360770Y234864D01*
X1363236Y237330D01*
X1366457Y238664D01*
X1369943Y238664D01*
X1373164Y237330D01*
X1375630Y234864D01*
X1376964Y231643D01*
X1376964Y228157D01*
X1375630Y224936D01*
X1373164Y222470D01*
X1369943Y221136D01*
X1366457Y221136D01*
G37*
%LPD*%
%LPC*%
G36*
X1341057Y221136D02*
X1341057Y221136D01*
X1337836Y222470D01*
X1335370Y224936D01*
X1334036Y228157D01*
X1334036Y231643D01*
X1335370Y234864D01*
X1337836Y237330D01*
X1341057Y238664D01*
X1344543Y238664D01*
X1347764Y237330D01*
X1350230Y234864D01*
X1351564Y231643D01*
X1351564Y228157D01*
X1350230Y224936D01*
X1347764Y222470D01*
X1344543Y221136D01*
X1341057Y221136D01*
G37*
%LPD*%
%LPC*%
G36*
X1315657Y221136D02*
X1315657Y221136D01*
X1312436Y222470D01*
X1309970Y224936D01*
X1308636Y228157D01*
X1308636Y231643D01*
X1309970Y234864D01*
X1312436Y237330D01*
X1315657Y238664D01*
X1319143Y238664D01*
X1322364Y237330D01*
X1324830Y234864D01*
X1326164Y231643D01*
X1326164Y228157D01*
X1324830Y224936D01*
X1322364Y222470D01*
X1319143Y221136D01*
X1315657Y221136D01*
G37*
%LPD*%
%LPC*%
G36*
X1290257Y221136D02*
X1290257Y221136D01*
X1287036Y222470D01*
X1284570Y224936D01*
X1283236Y228157D01*
X1283236Y231643D01*
X1284570Y234864D01*
X1287036Y237330D01*
X1290257Y238664D01*
X1293743Y238664D01*
X1296964Y237330D01*
X1299430Y234864D01*
X1300764Y231643D01*
X1300764Y228157D01*
X1299430Y224936D01*
X1296964Y222470D01*
X1293743Y221136D01*
X1290257Y221136D01*
G37*
%LPD*%
%LPC*%
G36*
X1315657Y500536D02*
X1315657Y500536D01*
X1312436Y501870D01*
X1309970Y504336D01*
X1308636Y507557D01*
X1308636Y511043D01*
X1309970Y514264D01*
X1312436Y516730D01*
X1315657Y518064D01*
X1319143Y518064D01*
X1322364Y516730D01*
X1324830Y514264D01*
X1326164Y511043D01*
X1326164Y507557D01*
X1324830Y504336D01*
X1322364Y501870D01*
X1319143Y500536D01*
X1315657Y500536D01*
G37*
%LPD*%
%LPC*%
G36*
X1341057Y500536D02*
X1341057Y500536D01*
X1337836Y501870D01*
X1335370Y504336D01*
X1334036Y507557D01*
X1334036Y511043D01*
X1335370Y514264D01*
X1337836Y516730D01*
X1341057Y518064D01*
X1344543Y518064D01*
X1347764Y516730D01*
X1350230Y514264D01*
X1351564Y511043D01*
X1351564Y507557D01*
X1350230Y504336D01*
X1347764Y501870D01*
X1344543Y500536D01*
X1341057Y500536D01*
G37*
%LPD*%
%LPC*%
G36*
X1366457Y500536D02*
X1366457Y500536D01*
X1363236Y501870D01*
X1360770Y504336D01*
X1359436Y507557D01*
X1359436Y511043D01*
X1360770Y514264D01*
X1363236Y516730D01*
X1366457Y518064D01*
X1369943Y518064D01*
X1373164Y516730D01*
X1375630Y514264D01*
X1376964Y511043D01*
X1376964Y507557D01*
X1375630Y504336D01*
X1373164Y501870D01*
X1369943Y500536D01*
X1366457Y500536D01*
G37*
%LPD*%
%LPC*%
G36*
X690879Y613539D02*
X690879Y613539D01*
X690879Y620324D01*
X692045Y619946D01*
X693399Y619256D01*
X694628Y618363D01*
X695703Y617288D01*
X696596Y616059D01*
X697286Y614705D01*
X697664Y613539D01*
X690879Y613539D01*
G37*
%LPD*%
%LPC*%
G36*
X690879Y608461D02*
X690879Y608461D01*
X697664Y608461D01*
X697286Y607295D01*
X696596Y605941D01*
X695703Y604712D01*
X694628Y603637D01*
X693399Y602744D01*
X692045Y602054D01*
X690879Y601676D01*
X690879Y608461D01*
G37*
%LPD*%
%LPC*%
G36*
X679016Y613539D02*
X679016Y613539D01*
X679394Y614705D01*
X680084Y616059D01*
X680977Y617288D01*
X682052Y618363D01*
X683281Y619256D01*
X684635Y619946D01*
X685801Y620324D01*
X685801Y613539D01*
X679016Y613539D01*
G37*
%LPD*%
%LPC*%
G36*
X684635Y602054D02*
X684635Y602054D01*
X683281Y602744D01*
X682052Y603637D01*
X680977Y604712D01*
X680084Y605941D01*
X679394Y607295D01*
X679016Y608461D01*
X685801Y608461D01*
X685801Y601676D01*
X684635Y602054D01*
G37*
%LPD*%
%LPC*%
G36*
X1281810Y156463D02*
X1281810Y156463D01*
X1281810Y162840D01*
X1282133Y162776D01*
X1283760Y162102D01*
X1285225Y161123D01*
X1286470Y159878D01*
X1287449Y158413D01*
X1288123Y156786D01*
X1288187Y156463D01*
X1281810Y156463D01*
G37*
%LPD*%
%LPC*%
G36*
X1270863Y156463D02*
X1270863Y156463D01*
X1270927Y156786D01*
X1271601Y158413D01*
X1272580Y159878D01*
X1273825Y161123D01*
X1275290Y162102D01*
X1276917Y162776D01*
X1277240Y162840D01*
X1277240Y156463D01*
X1270863Y156463D01*
G37*
%LPD*%
%LPC*%
G36*
X1281810Y151893D02*
X1281810Y151893D01*
X1288187Y151893D01*
X1288123Y151570D01*
X1287449Y149943D01*
X1286470Y148478D01*
X1285225Y147233D01*
X1283760Y146254D01*
X1282133Y145580D01*
X1281810Y145516D01*
X1281810Y151893D01*
G37*
%LPD*%
%LPC*%
G36*
X1276917Y145580D02*
X1276917Y145580D01*
X1275290Y146254D01*
X1273825Y147233D01*
X1272580Y148478D01*
X1271601Y149943D01*
X1270927Y151570D01*
X1270863Y151893D01*
X1277240Y151893D01*
X1277240Y145516D01*
X1276917Y145580D01*
G37*
%LPD*%
%LPC*%
G36*
X1424622Y129222D02*
X1424622Y129222D01*
X1424622Y135493D01*
X1424956Y135427D01*
X1426551Y134766D01*
X1427987Y133807D01*
X1429207Y132587D01*
X1430166Y131151D01*
X1430827Y129556D01*
X1430893Y129222D01*
X1424622Y129222D01*
G37*
%LPD*%
%LPC*%
G36*
X1141822Y257522D02*
X1141822Y257522D01*
X1141822Y263793D01*
X1142156Y263727D01*
X1143751Y263066D01*
X1145187Y262107D01*
X1146407Y260887D01*
X1147366Y259451D01*
X1148027Y257856D01*
X1148093Y257522D01*
X1141822Y257522D01*
G37*
%LPD*%
%LPC*%
G36*
X1141822Y486122D02*
X1141822Y486122D01*
X1141822Y492393D01*
X1142156Y492327D01*
X1143751Y491666D01*
X1145187Y490707D01*
X1146407Y489487D01*
X1147366Y488051D01*
X1148027Y486456D01*
X1148093Y486122D01*
X1141822Y486122D01*
G37*
%LPD*%
%LPC*%
G36*
X65722Y141922D02*
X65722Y141922D01*
X65722Y148193D01*
X66056Y148127D01*
X67651Y147466D01*
X69087Y146507D01*
X70307Y145287D01*
X71266Y143851D01*
X71927Y142256D01*
X71993Y141922D01*
X65722Y141922D01*
G37*
%LPD*%
%LPC*%
G36*
X1268822Y486122D02*
X1268822Y486122D01*
X1268822Y492393D01*
X1269156Y492327D01*
X1270751Y491666D01*
X1272187Y490707D01*
X1273407Y489487D01*
X1274366Y488051D01*
X1275027Y486456D01*
X1275093Y486122D01*
X1268822Y486122D01*
G37*
%LPD*%
%LPC*%
G36*
X1141822Y253078D02*
X1141822Y253078D01*
X1148093Y253078D01*
X1148027Y252744D01*
X1147366Y251149D01*
X1146407Y249713D01*
X1145187Y248493D01*
X1143751Y247534D01*
X1142156Y246873D01*
X1141822Y246807D01*
X1141822Y253078D01*
G37*
%LPD*%
%LPC*%
G36*
X1258107Y486122D02*
X1258107Y486122D01*
X1258173Y486456D01*
X1258834Y488051D01*
X1259793Y489487D01*
X1261013Y490707D01*
X1262449Y491666D01*
X1264044Y492327D01*
X1264378Y492393D01*
X1264378Y486122D01*
X1258107Y486122D01*
G37*
%LPD*%
%LPC*%
G36*
X55007Y141922D02*
X55007Y141922D01*
X55073Y142256D01*
X55734Y143851D01*
X56693Y145287D01*
X57913Y146507D01*
X59349Y147466D01*
X60944Y148127D01*
X61278Y148193D01*
X61278Y141922D01*
X55007Y141922D01*
G37*
%LPD*%
%LPC*%
G36*
X1268822Y481678D02*
X1268822Y481678D01*
X1275093Y481678D01*
X1275027Y481344D01*
X1274366Y479749D01*
X1273407Y478313D01*
X1272187Y477093D01*
X1270751Y476134D01*
X1269156Y475473D01*
X1268822Y475407D01*
X1268822Y481678D01*
G37*
%LPD*%
%LPC*%
G36*
X65722Y137478D02*
X65722Y137478D01*
X71993Y137478D01*
X71927Y137144D01*
X71266Y135549D01*
X70307Y134113D01*
X69087Y132893D01*
X67651Y131934D01*
X66056Y131273D01*
X65722Y131207D01*
X65722Y137478D01*
G37*
%LPD*%
%LPC*%
G36*
X1424622Y124778D02*
X1424622Y124778D01*
X1430893Y124778D01*
X1430827Y124444D01*
X1430166Y122849D01*
X1429207Y121413D01*
X1427987Y120193D01*
X1426551Y119234D01*
X1424956Y118573D01*
X1424622Y118507D01*
X1424622Y124778D01*
G37*
%LPD*%
%LPC*%
G36*
X1141822Y481678D02*
X1141822Y481678D01*
X1148093Y481678D01*
X1148027Y481344D01*
X1147366Y479749D01*
X1146407Y478313D01*
X1145187Y477093D01*
X1143751Y476134D01*
X1142156Y475473D01*
X1141822Y475407D01*
X1141822Y481678D01*
G37*
%LPD*%
%LPC*%
G36*
X1131107Y257522D02*
X1131107Y257522D01*
X1131173Y257856D01*
X1131834Y259451D01*
X1132793Y260887D01*
X1134013Y262107D01*
X1135449Y263066D01*
X1137044Y263727D01*
X1137378Y263793D01*
X1137378Y257522D01*
X1131107Y257522D01*
G37*
%LPD*%
%LPC*%
G36*
X1413907Y129222D02*
X1413907Y129222D01*
X1413973Y129556D01*
X1414634Y131151D01*
X1415593Y132587D01*
X1416813Y133807D01*
X1418249Y134766D01*
X1419844Y135427D01*
X1420178Y135493D01*
X1420178Y129222D01*
X1413907Y129222D01*
G37*
%LPD*%
%LPC*%
G36*
X1264044Y475473D02*
X1264044Y475473D01*
X1262449Y476134D01*
X1261013Y477093D01*
X1259793Y478313D01*
X1258834Y479749D01*
X1258173Y481344D01*
X1258107Y481678D01*
X1264378Y481678D01*
X1264378Y475407D01*
X1264044Y475473D01*
G37*
%LPD*%
%LPC*%
G36*
X1419844Y118573D02*
X1419844Y118573D01*
X1418249Y119234D01*
X1416813Y120193D01*
X1415593Y121413D01*
X1414634Y122849D01*
X1413973Y124444D01*
X1413907Y124778D01*
X1420178Y124778D01*
X1420178Y118507D01*
X1419844Y118573D01*
G37*
%LPD*%
%LPC*%
G36*
X60944Y131273D02*
X60944Y131273D01*
X59349Y131934D01*
X57913Y132893D01*
X56693Y134113D01*
X55734Y135549D01*
X55073Y137144D01*
X55007Y137478D01*
X61278Y137478D01*
X61278Y131207D01*
X60944Y131273D01*
G37*
%LPD*%
%LPC*%
G36*
X1137044Y246873D02*
X1137044Y246873D01*
X1135449Y247534D01*
X1134013Y248493D01*
X1132793Y249713D01*
X1131834Y251149D01*
X1131173Y252744D01*
X1131107Y253078D01*
X1137378Y253078D01*
X1137378Y246807D01*
X1137044Y246873D01*
G37*
%LPD*%
%LPC*%
G36*
X688339Y610999D02*
X688339Y610999D01*
X688339Y611001D01*
X688341Y611001D01*
X688341Y610999D01*
X688339Y610999D01*
G37*
%LPD*%
D10*
X612700Y611700D03*
X637540Y611000D03*
X662940Y611000D03*
X688340Y611000D03*
D11*
X1419000Y229900D03*
X1419000Y255300D03*
X1393600Y229900D03*
X1393600Y255300D03*
X1368200Y229900D03*
X1368200Y255300D03*
X1342800Y229900D03*
X1342800Y255300D03*
X1317400Y229900D03*
X1317400Y255300D03*
X1292000Y229900D03*
X1292000Y255300D03*
X1266600Y229900D03*
X1266600Y255300D03*
X1241200Y229900D03*
X1241200Y255300D03*
X1215800Y229900D03*
X1215800Y255300D03*
X1190400Y229900D03*
X1190400Y255300D03*
X1165000Y229900D03*
X1165000Y255300D03*
X1139600Y229900D03*
X1139600Y255300D03*
X1114200Y229900D03*
X1114200Y255300D03*
X1088800Y229900D03*
X1088800Y255300D03*
X1063400Y229900D03*
X1063400Y255300D03*
X1038000Y229900D03*
X1038000Y255300D03*
X1012600Y229900D03*
X1012600Y255300D03*
X987200Y229900D03*
X987200Y255300D03*
X1419000Y483900D03*
X1419000Y509300D03*
X1393600Y483900D03*
X1393600Y509300D03*
X1368200Y483900D03*
X1368200Y509300D03*
X1342800Y483900D03*
X1342800Y509300D03*
X1317400Y483900D03*
X1317400Y509300D03*
X1292000Y483900D03*
X1292000Y509300D03*
X1266600Y483900D03*
X1266600Y509300D03*
X1241200Y483900D03*
X1241200Y509300D03*
X1215800Y483900D03*
X1215800Y509300D03*
X1190400Y483900D03*
X1190400Y509300D03*
X1165000Y483900D03*
X1165000Y509300D03*
X1139600Y483900D03*
X1139600Y509300D03*
X1114200Y483900D03*
X1114200Y509300D03*
X1088800Y483900D03*
X1088800Y509300D03*
X1063400Y483900D03*
X1063400Y509300D03*
X1038000Y483900D03*
X1038000Y509300D03*
X1012600Y483900D03*
X1012600Y509300D03*
X987200Y483900D03*
X987200Y509300D03*
D12*
X849900Y202800D03*
X849900Y152800D03*
X724900Y152800D03*
X724900Y202800D03*
X570500Y202800D03*
X570500Y152800D03*
X445500Y152800D03*
X445500Y202800D03*
X1434100Y609200D03*
X1434100Y559200D03*
X1309100Y559200D03*
X1309100Y609200D03*
X1434100Y406000D03*
X1434100Y356000D03*
X1309100Y356000D03*
X1309100Y406000D03*
D11*
X1397000Y127000D03*
X1422400Y127000D03*
X1447800Y127000D03*
X38100Y139700D03*
X63500Y139700D03*
X88900Y139700D03*
D13*
X1279525Y154178D03*
X1254633Y154178D03*
X1234567Y154178D03*
X1209675Y154178D03*
D14*
X1178941Y127000D03*
X1310259Y127000D03*
D15*
X38100Y38100D03*
X1460500Y38100D03*
X38100Y647700D03*
X1460500Y647700D03*
D16*
X571500Y558800D03*
X647700Y546100D03*
X660400Y50800D03*
X889000Y50800D03*
X1473200Y457200D03*
X1473200Y584200D03*
M02*
