G04 EAGLE Gerber RS-274X export*
G75*
%MOMM*%
%FSLAX34Y34*%
%LPD*%
%INCopper Layer 2*%
%IPPOS*%
%AMOC8*
5,1,8,0,0,1.08239X$1,22.5*%
G01*
%ADD10C,1.422400*%
%ADD11C,1.244600*%
%ADD12C,1.960000*%
%ADD13C,1.280163*%
%ADD14C,3.235963*%
%ADD15C,4.191000*%
%ADD16C,0.609600*%

G36*
X1496302Y2556D02*
X1496302Y2556D01*
X1496422Y2564D01*
X1496459Y2576D01*
X1496498Y2581D01*
X1496609Y2625D01*
X1496724Y2662D01*
X1496757Y2683D01*
X1496793Y2698D01*
X1496891Y2768D01*
X1496992Y2833D01*
X1497019Y2861D01*
X1497051Y2884D01*
X1497128Y2977D01*
X1497210Y3065D01*
X1497229Y3099D01*
X1497254Y3129D01*
X1497305Y3238D01*
X1497363Y3344D01*
X1497373Y3382D01*
X1497389Y3417D01*
X1497412Y3535D01*
X1497442Y3652D01*
X1497445Y3710D01*
X1497449Y3729D01*
X1497448Y3750D01*
X1497451Y3813D01*
X1496067Y681993D01*
X1496052Y682109D01*
X1496045Y682227D01*
X1496032Y682267D01*
X1496027Y682308D01*
X1495983Y682417D01*
X1495947Y682529D01*
X1495924Y682565D01*
X1495909Y682604D01*
X1495840Y682699D01*
X1495777Y682798D01*
X1495746Y682827D01*
X1495722Y682860D01*
X1495631Y682935D01*
X1495545Y683016D01*
X1495508Y683036D01*
X1495476Y683063D01*
X1495370Y683113D01*
X1495266Y683170D01*
X1495226Y683180D01*
X1495188Y683198D01*
X1495072Y683220D01*
X1494958Y683249D01*
X1494896Y683253D01*
X1494876Y683257D01*
X1494856Y683256D01*
X1494798Y683259D01*
X3810Y683259D01*
X3692Y683244D01*
X3573Y683237D01*
X3535Y683224D01*
X3494Y683219D01*
X3384Y683176D01*
X3271Y683139D01*
X3236Y683117D01*
X3199Y683102D01*
X3103Y683033D01*
X3002Y682969D01*
X2974Y682939D01*
X2941Y682916D01*
X2865Y682824D01*
X2784Y682737D01*
X2764Y682702D01*
X2739Y682671D01*
X2688Y682563D01*
X2630Y682459D01*
X2620Y682419D01*
X2603Y682383D01*
X2581Y682266D01*
X2551Y682151D01*
X2547Y682091D01*
X2543Y682071D01*
X2545Y682050D01*
X2541Y681990D01*
X2541Y3810D01*
X2556Y3692D01*
X2563Y3573D01*
X2576Y3535D01*
X2581Y3494D01*
X2624Y3384D01*
X2661Y3271D01*
X2683Y3236D01*
X2698Y3199D01*
X2767Y3103D01*
X2831Y3002D01*
X2861Y2974D01*
X2884Y2941D01*
X2976Y2865D01*
X3063Y2784D01*
X3098Y2764D01*
X3129Y2739D01*
X3237Y2688D01*
X3341Y2630D01*
X3381Y2620D01*
X3417Y2603D01*
X3534Y2581D01*
X3649Y2551D01*
X3709Y2547D01*
X3729Y2543D01*
X3750Y2545D01*
X3810Y2541D01*
X1496182Y2541D01*
X1496302Y2556D01*
G37*
%LPC*%
G36*
X1455826Y624204D02*
X1455826Y624204D01*
X1447191Y627781D01*
X1440581Y634391D01*
X1437004Y643026D01*
X1437004Y652374D01*
X1440581Y661009D01*
X1447191Y667619D01*
X1455826Y671196D01*
X1465174Y671196D01*
X1473809Y667619D01*
X1480419Y661009D01*
X1483996Y652374D01*
X1483996Y643026D01*
X1480419Y634391D01*
X1473809Y627781D01*
X1465174Y624204D01*
X1455826Y624204D01*
G37*
%LPD*%
%LPC*%
G36*
X33426Y624204D02*
X33426Y624204D01*
X24791Y627781D01*
X18181Y634391D01*
X14604Y643026D01*
X14604Y652374D01*
X18181Y661009D01*
X24791Y667619D01*
X33426Y671196D01*
X42774Y671196D01*
X51409Y667619D01*
X58019Y661009D01*
X61596Y652374D01*
X61596Y643026D01*
X58019Y634391D01*
X51409Y627781D01*
X42774Y624204D01*
X33426Y624204D01*
G37*
%LPD*%
%LPC*%
G36*
X1455826Y14604D02*
X1455826Y14604D01*
X1447191Y18181D01*
X1440581Y24791D01*
X1437004Y33426D01*
X1437004Y42774D01*
X1440581Y51409D01*
X1447191Y58019D01*
X1455826Y61596D01*
X1465174Y61596D01*
X1473809Y58019D01*
X1480419Y51409D01*
X1483996Y42774D01*
X1483996Y33426D01*
X1480419Y24791D01*
X1473809Y18181D01*
X1465174Y14604D01*
X1455826Y14604D01*
G37*
%LPD*%
%LPC*%
G36*
X33426Y14604D02*
X33426Y14604D01*
X24791Y18181D01*
X18181Y24791D01*
X14604Y33426D01*
X14604Y42774D01*
X18181Y51409D01*
X24791Y58019D01*
X33426Y61596D01*
X42774Y61596D01*
X51409Y58019D01*
X58019Y51409D01*
X61596Y42774D01*
X61596Y33426D01*
X58019Y24791D01*
X51409Y18181D01*
X42774Y14604D01*
X33426Y14604D01*
G37*
%LPD*%
%LPC*%
G36*
X1306535Y108279D02*
X1306535Y108279D01*
X1299655Y111129D01*
X1294388Y116396D01*
X1291538Y123276D01*
X1291538Y130724D01*
X1294388Y137604D01*
X1299655Y142871D01*
X1306535Y145721D01*
X1313983Y145721D01*
X1320863Y142871D01*
X1326130Y137604D01*
X1328980Y130724D01*
X1328980Y123276D01*
X1326130Y116396D01*
X1320863Y111129D01*
X1313983Y108279D01*
X1306535Y108279D01*
G37*
%LPD*%
%LPC*%
G36*
X1175217Y108279D02*
X1175217Y108279D01*
X1168337Y111129D01*
X1163070Y116396D01*
X1160220Y123276D01*
X1160220Y130724D01*
X1163070Y137604D01*
X1168337Y142871D01*
X1175217Y145721D01*
X1182665Y145721D01*
X1189545Y142871D01*
X1194812Y137604D01*
X1197662Y130724D01*
X1197662Y123276D01*
X1194812Y116396D01*
X1189545Y111129D01*
X1182665Y108279D01*
X1175217Y108279D01*
G37*
%LPD*%
%LPC*%
G36*
X1232788Y145236D02*
X1232788Y145236D01*
X1229502Y146598D01*
X1226987Y149113D01*
X1225625Y152399D01*
X1225625Y155957D01*
X1226987Y159243D01*
X1229502Y161758D01*
X1232788Y163120D01*
X1236346Y163120D01*
X1239632Y161758D01*
X1242147Y159243D01*
X1243427Y156153D01*
X1243496Y156032D01*
X1243561Y155909D01*
X1243575Y155894D01*
X1243585Y155876D01*
X1243681Y155777D01*
X1243775Y155674D01*
X1243792Y155662D01*
X1243806Y155648D01*
X1243925Y155575D01*
X1244041Y155499D01*
X1244060Y155492D01*
X1244077Y155482D01*
X1244210Y155441D01*
X1244342Y155396D01*
X1244362Y155394D01*
X1244381Y155388D01*
X1244520Y155381D01*
X1244659Y155370D01*
X1244679Y155374D01*
X1244699Y155373D01*
X1244834Y155401D01*
X1244972Y155425D01*
X1244991Y155433D01*
X1245010Y155437D01*
X1245135Y155498D01*
X1245262Y155555D01*
X1245278Y155568D01*
X1245296Y155577D01*
X1245402Y155667D01*
X1245510Y155754D01*
X1245523Y155770D01*
X1245538Y155783D01*
X1245618Y155897D01*
X1245702Y156008D01*
X1245714Y156033D01*
X1245721Y156043D01*
X1245728Y156062D01*
X1245773Y156153D01*
X1247053Y159243D01*
X1249568Y161758D01*
X1252854Y163120D01*
X1256412Y163120D01*
X1259698Y161758D01*
X1262213Y159243D01*
X1263575Y155957D01*
X1263575Y152399D01*
X1262213Y149113D01*
X1259698Y146598D01*
X1256412Y145236D01*
X1252854Y145236D01*
X1249568Y146598D01*
X1247053Y149113D01*
X1245773Y152203D01*
X1245704Y152324D01*
X1245639Y152447D01*
X1245625Y152462D01*
X1245615Y152480D01*
X1245518Y152580D01*
X1245425Y152682D01*
X1245408Y152694D01*
X1245394Y152708D01*
X1245276Y152781D01*
X1245159Y152857D01*
X1245140Y152864D01*
X1245123Y152874D01*
X1244990Y152915D01*
X1244858Y152960D01*
X1244838Y152962D01*
X1244819Y152968D01*
X1244680Y152975D01*
X1244541Y152986D01*
X1244521Y152982D01*
X1244501Y152983D01*
X1244365Y152955D01*
X1244228Y152931D01*
X1244210Y152923D01*
X1244190Y152919D01*
X1244064Y152858D01*
X1243938Y152801D01*
X1243922Y152788D01*
X1243904Y152779D01*
X1243798Y152688D01*
X1243690Y152602D01*
X1243677Y152586D01*
X1243662Y152573D01*
X1243582Y152459D01*
X1243498Y152348D01*
X1243486Y152323D01*
X1243479Y152313D01*
X1243472Y152293D01*
X1243427Y152203D01*
X1242147Y149113D01*
X1239632Y146598D01*
X1236346Y145236D01*
X1232788Y145236D01*
G37*
%LPD*%
%LPC*%
G36*
X105205Y294159D02*
X105205Y294159D01*
X100596Y296068D01*
X97068Y299596D01*
X95159Y304205D01*
X95159Y309195D01*
X97068Y313804D01*
X100596Y317332D01*
X105205Y319241D01*
X110195Y319241D01*
X114804Y317332D01*
X118332Y313804D01*
X120241Y309195D01*
X120241Y304205D01*
X118332Y299596D01*
X114804Y296068D01*
X110195Y294159D01*
X105205Y294159D01*
G37*
%LPD*%
%LPC*%
G36*
X1193645Y578459D02*
X1193645Y578459D01*
X1189036Y580368D01*
X1185508Y583896D01*
X1183599Y588505D01*
X1183599Y593495D01*
X1185508Y598104D01*
X1189036Y601632D01*
X1193645Y603541D01*
X1198635Y603541D01*
X1203244Y601632D01*
X1206772Y598104D01*
X1208681Y593495D01*
X1208681Y588505D01*
X1206772Y583896D01*
X1203244Y580368D01*
X1198635Y578459D01*
X1193645Y578459D01*
G37*
%LPD*%
%LPC*%
G36*
X1185205Y294159D02*
X1185205Y294159D01*
X1180596Y296068D01*
X1177068Y299596D01*
X1175159Y304205D01*
X1175159Y309195D01*
X1177068Y313804D01*
X1180596Y317332D01*
X1185205Y319241D01*
X1190195Y319241D01*
X1194804Y317332D01*
X1198332Y313804D01*
X1200241Y309195D01*
X1200241Y304205D01*
X1198332Y299596D01*
X1194804Y296068D01*
X1190195Y294159D01*
X1185205Y294159D01*
G37*
%LPD*%
%LPC*%
G36*
X105205Y584159D02*
X105205Y584159D01*
X100596Y586068D01*
X97068Y589596D01*
X95159Y594205D01*
X95159Y599195D01*
X97068Y603804D01*
X100596Y607332D01*
X105205Y609241D01*
X110195Y609241D01*
X114804Y607332D01*
X118332Y603804D01*
X120241Y599195D01*
X120241Y594205D01*
X118332Y589596D01*
X114804Y586068D01*
X110195Y584159D01*
X105205Y584159D01*
G37*
%LPD*%
%LPC*%
G36*
X1431645Y596859D02*
X1431645Y596859D01*
X1427110Y598738D01*
X1423638Y602210D01*
X1421759Y606745D01*
X1421759Y611655D01*
X1423638Y616190D01*
X1427110Y619662D01*
X1431645Y621541D01*
X1436555Y621541D01*
X1441090Y619662D01*
X1444562Y616190D01*
X1446441Y611655D01*
X1446441Y606745D01*
X1444562Y602210D01*
X1441090Y598738D01*
X1436555Y596859D01*
X1431645Y596859D01*
G37*
%LPD*%
%LPC*%
G36*
X1431645Y393659D02*
X1431645Y393659D01*
X1427110Y395538D01*
X1423638Y399010D01*
X1421759Y403545D01*
X1421759Y408455D01*
X1423638Y412990D01*
X1427110Y416462D01*
X1431645Y418341D01*
X1436555Y418341D01*
X1441090Y416462D01*
X1444562Y412990D01*
X1446441Y408455D01*
X1446441Y403545D01*
X1444562Y399010D01*
X1441090Y395538D01*
X1436555Y393659D01*
X1431645Y393659D01*
G37*
%LPD*%
%LPC*%
G36*
X1306645Y596859D02*
X1306645Y596859D01*
X1302110Y598738D01*
X1298638Y602210D01*
X1296759Y606745D01*
X1296759Y611655D01*
X1298638Y616190D01*
X1302110Y619662D01*
X1306645Y621541D01*
X1311555Y621541D01*
X1316090Y619662D01*
X1319562Y616190D01*
X1321441Y611655D01*
X1321441Y606745D01*
X1319562Y602210D01*
X1316090Y598738D01*
X1311555Y596859D01*
X1306645Y596859D01*
G37*
%LPD*%
%LPC*%
G36*
X1306645Y393659D02*
X1306645Y393659D01*
X1302110Y395538D01*
X1298638Y399010D01*
X1296759Y403545D01*
X1296759Y408455D01*
X1298638Y412990D01*
X1302110Y416462D01*
X1306645Y418341D01*
X1311555Y418341D01*
X1316090Y416462D01*
X1319562Y412990D01*
X1321441Y408455D01*
X1321441Y403545D01*
X1319562Y399010D01*
X1316090Y395538D01*
X1311555Y393659D01*
X1306645Y393659D01*
G37*
%LPD*%
%LPC*%
G36*
X722445Y190459D02*
X722445Y190459D01*
X717910Y192338D01*
X714438Y195810D01*
X712559Y200345D01*
X712559Y205255D01*
X714438Y209790D01*
X717910Y213262D01*
X722445Y215141D01*
X727355Y215141D01*
X731890Y213262D01*
X735362Y209790D01*
X737241Y205255D01*
X737241Y200345D01*
X735362Y195810D01*
X731890Y192338D01*
X727355Y190459D01*
X722445Y190459D01*
G37*
%LPD*%
%LPC*%
G36*
X847445Y190459D02*
X847445Y190459D01*
X842910Y192338D01*
X839438Y195810D01*
X837559Y200345D01*
X837559Y205255D01*
X839438Y209790D01*
X842910Y213262D01*
X847445Y215141D01*
X852355Y215141D01*
X856890Y213262D01*
X860362Y209790D01*
X862241Y205255D01*
X862241Y200345D01*
X860362Y195810D01*
X856890Y192338D01*
X852355Y190459D01*
X847445Y190459D01*
G37*
%LPD*%
%LPC*%
G36*
X443045Y190459D02*
X443045Y190459D01*
X438510Y192338D01*
X435038Y195810D01*
X433159Y200345D01*
X433159Y205255D01*
X435038Y209790D01*
X438510Y213262D01*
X443045Y215141D01*
X447955Y215141D01*
X452490Y213262D01*
X455962Y209790D01*
X457841Y205255D01*
X457841Y200345D01*
X455962Y195810D01*
X452490Y192338D01*
X447955Y190459D01*
X443045Y190459D01*
G37*
%LPD*%
%LPC*%
G36*
X568045Y190459D02*
X568045Y190459D01*
X563510Y192338D01*
X560038Y195810D01*
X558159Y200345D01*
X558159Y205255D01*
X560038Y209790D01*
X563510Y213262D01*
X568045Y215141D01*
X572955Y215141D01*
X577490Y213262D01*
X580962Y209790D01*
X582841Y205255D01*
X582841Y200345D01*
X580962Y195810D01*
X577490Y192338D01*
X572955Y190459D01*
X568045Y190459D01*
G37*
%LPD*%
%LPC*%
G36*
X686420Y601347D02*
X686420Y601347D01*
X682872Y602817D01*
X680157Y605532D01*
X678687Y609080D01*
X678687Y612920D01*
X680157Y616468D01*
X682872Y619183D01*
X686420Y620653D01*
X690260Y620653D01*
X693808Y619183D01*
X696523Y616468D01*
X697993Y612920D01*
X697993Y609080D01*
X696523Y605532D01*
X693808Y602817D01*
X690260Y601347D01*
X686420Y601347D01*
G37*
%LPD*%
%LPC*%
G36*
X610780Y602047D02*
X610780Y602047D01*
X607232Y603517D01*
X604517Y606232D01*
X603047Y609780D01*
X603047Y613620D01*
X604517Y617168D01*
X607232Y619883D01*
X610780Y621353D01*
X614620Y621353D01*
X618168Y619883D01*
X620883Y617168D01*
X622353Y613620D01*
X622353Y609780D01*
X620883Y606232D01*
X618168Y603517D01*
X614620Y602047D01*
X610780Y602047D01*
G37*
%LPD*%
%LPC*%
G36*
X635620Y601347D02*
X635620Y601347D01*
X632072Y602817D01*
X629357Y605532D01*
X627887Y609080D01*
X627887Y612920D01*
X629357Y616468D01*
X632072Y619183D01*
X635620Y620653D01*
X639460Y620653D01*
X643008Y619183D01*
X645723Y616468D01*
X647193Y612920D01*
X647193Y609080D01*
X645723Y605532D01*
X643008Y602817D01*
X639460Y601347D01*
X635620Y601347D01*
G37*
%LPD*%
%LPC*%
G36*
X1277746Y145236D02*
X1277746Y145236D01*
X1274460Y146598D01*
X1271945Y149113D01*
X1270583Y152399D01*
X1270583Y155957D01*
X1271945Y159243D01*
X1274460Y161758D01*
X1277746Y163120D01*
X1281304Y163120D01*
X1284590Y161758D01*
X1287105Y159243D01*
X1288467Y155957D01*
X1288467Y152399D01*
X1287105Y149113D01*
X1284590Y146598D01*
X1281304Y145236D01*
X1277746Y145236D01*
G37*
%LPD*%
%LPC*%
G36*
X1366457Y246536D02*
X1366457Y246536D01*
X1363236Y247870D01*
X1360770Y250336D01*
X1359436Y253557D01*
X1359436Y257043D01*
X1360770Y260264D01*
X1363236Y262730D01*
X1366457Y264064D01*
X1369943Y264064D01*
X1373164Y262730D01*
X1375630Y260264D01*
X1376964Y257043D01*
X1376964Y253557D01*
X1375630Y250336D01*
X1373164Y247870D01*
X1369943Y246536D01*
X1366457Y246536D01*
G37*
%LPD*%
%LPC*%
G36*
X1417257Y221136D02*
X1417257Y221136D01*
X1414036Y222470D01*
X1411570Y224936D01*
X1410236Y228157D01*
X1410236Y231643D01*
X1411570Y234864D01*
X1414036Y237330D01*
X1417257Y238664D01*
X1420743Y238664D01*
X1423964Y237330D01*
X1426430Y234864D01*
X1427764Y231643D01*
X1427764Y228157D01*
X1426430Y224936D01*
X1423964Y222470D01*
X1420743Y221136D01*
X1417257Y221136D01*
G37*
%LPD*%
%LPC*%
G36*
X1391857Y221136D02*
X1391857Y221136D01*
X1388636Y222470D01*
X1386170Y224936D01*
X1384836Y228157D01*
X1384836Y231643D01*
X1386170Y234864D01*
X1388636Y237330D01*
X1391857Y238664D01*
X1395343Y238664D01*
X1398564Y237330D01*
X1401030Y234864D01*
X1402364Y231643D01*
X1402364Y228157D01*
X1401030Y224936D01*
X1398564Y222470D01*
X1395343Y221136D01*
X1391857Y221136D01*
G37*
%LPD*%
%LPC*%
G36*
X1366457Y221136D02*
X1366457Y221136D01*
X1363236Y222470D01*
X1360770Y224936D01*
X1359436Y228157D01*
X1359436Y231643D01*
X1360770Y234864D01*
X1363236Y237330D01*
X1366457Y238664D01*
X1369943Y238664D01*
X1373164Y237330D01*
X1375630Y234864D01*
X1376964Y231643D01*
X1376964Y228157D01*
X1375630Y224936D01*
X1373164Y222470D01*
X1369943Y221136D01*
X1366457Y221136D01*
G37*
%LPD*%
%LPC*%
G36*
X1112457Y500536D02*
X1112457Y500536D01*
X1109236Y501870D01*
X1106770Y504336D01*
X1105436Y507557D01*
X1105436Y511043D01*
X1106770Y514264D01*
X1109236Y516730D01*
X1112457Y518064D01*
X1115943Y518064D01*
X1119164Y516730D01*
X1121630Y514264D01*
X1122964Y511043D01*
X1122964Y507557D01*
X1121630Y504336D01*
X1119164Y501870D01*
X1115943Y500536D01*
X1112457Y500536D01*
G37*
%LPD*%
%LPC*%
G36*
X1087057Y500536D02*
X1087057Y500536D01*
X1083836Y501870D01*
X1081370Y504336D01*
X1080036Y507557D01*
X1080036Y511043D01*
X1081370Y514264D01*
X1083836Y516730D01*
X1087057Y518064D01*
X1090543Y518064D01*
X1093764Y516730D01*
X1096230Y514264D01*
X1097564Y511043D01*
X1097564Y507557D01*
X1096230Y504336D01*
X1093764Y501870D01*
X1090543Y500536D01*
X1087057Y500536D01*
G37*
%LPD*%
%LPC*%
G36*
X1417257Y500536D02*
X1417257Y500536D01*
X1414036Y501870D01*
X1411570Y504336D01*
X1410236Y507557D01*
X1410236Y511043D01*
X1411570Y514264D01*
X1414036Y516730D01*
X1417257Y518064D01*
X1420743Y518064D01*
X1423964Y516730D01*
X1426430Y514264D01*
X1427764Y511043D01*
X1427764Y507557D01*
X1426430Y504336D01*
X1423964Y501870D01*
X1420743Y500536D01*
X1417257Y500536D01*
G37*
%LPD*%
%LPC*%
G36*
X1391857Y500536D02*
X1391857Y500536D01*
X1388636Y501870D01*
X1386170Y504336D01*
X1384836Y507557D01*
X1384836Y511043D01*
X1386170Y514264D01*
X1388636Y516730D01*
X1391857Y518064D01*
X1395343Y518064D01*
X1398564Y516730D01*
X1401030Y514264D01*
X1402364Y511043D01*
X1402364Y507557D01*
X1401030Y504336D01*
X1398564Y501870D01*
X1395343Y500536D01*
X1391857Y500536D01*
G37*
%LPD*%
%LPC*%
G36*
X1366457Y500536D02*
X1366457Y500536D01*
X1363236Y501870D01*
X1360770Y504336D01*
X1359436Y507557D01*
X1359436Y511043D01*
X1360770Y514264D01*
X1363236Y516730D01*
X1366457Y518064D01*
X1369943Y518064D01*
X1373164Y516730D01*
X1375630Y514264D01*
X1376964Y511043D01*
X1376964Y507557D01*
X1375630Y504336D01*
X1373164Y501870D01*
X1369943Y500536D01*
X1366457Y500536D01*
G37*
%LPD*%
%LPC*%
G36*
X1341057Y500536D02*
X1341057Y500536D01*
X1337836Y501870D01*
X1335370Y504336D01*
X1334036Y507557D01*
X1334036Y511043D01*
X1335370Y514264D01*
X1337836Y516730D01*
X1341057Y518064D01*
X1344543Y518064D01*
X1347764Y516730D01*
X1350230Y514264D01*
X1351564Y511043D01*
X1351564Y507557D01*
X1350230Y504336D01*
X1347764Y501870D01*
X1344543Y500536D01*
X1341057Y500536D01*
G37*
%LPD*%
%LPC*%
G36*
X1315657Y500536D02*
X1315657Y500536D01*
X1312436Y501870D01*
X1309970Y504336D01*
X1308636Y507557D01*
X1308636Y511043D01*
X1309970Y514264D01*
X1312436Y516730D01*
X1315657Y518064D01*
X1319143Y518064D01*
X1322364Y516730D01*
X1324830Y514264D01*
X1326164Y511043D01*
X1326164Y507557D01*
X1324830Y504336D01*
X1322364Y501870D01*
X1319143Y500536D01*
X1315657Y500536D01*
G37*
%LPD*%
%LPC*%
G36*
X1290257Y500536D02*
X1290257Y500536D01*
X1287036Y501870D01*
X1284570Y504336D01*
X1283236Y507557D01*
X1283236Y511043D01*
X1284570Y514264D01*
X1287036Y516730D01*
X1290257Y518064D01*
X1293743Y518064D01*
X1296964Y516730D01*
X1299430Y514264D01*
X1300764Y511043D01*
X1300764Y507557D01*
X1299430Y504336D01*
X1296964Y501870D01*
X1293743Y500536D01*
X1290257Y500536D01*
G37*
%LPD*%
%LPC*%
G36*
X1264857Y500536D02*
X1264857Y500536D01*
X1261636Y501870D01*
X1259170Y504336D01*
X1257836Y507557D01*
X1257836Y511043D01*
X1259170Y514264D01*
X1261636Y516730D01*
X1264857Y518064D01*
X1268343Y518064D01*
X1271564Y516730D01*
X1274030Y514264D01*
X1275364Y511043D01*
X1275364Y507557D01*
X1274030Y504336D01*
X1271564Y501870D01*
X1268343Y500536D01*
X1264857Y500536D01*
G37*
%LPD*%
%LPC*%
G36*
X1239457Y500536D02*
X1239457Y500536D01*
X1236236Y501870D01*
X1233770Y504336D01*
X1232436Y507557D01*
X1232436Y511043D01*
X1233770Y514264D01*
X1236236Y516730D01*
X1239457Y518064D01*
X1242943Y518064D01*
X1246164Y516730D01*
X1248630Y514264D01*
X1249964Y511043D01*
X1249964Y507557D01*
X1248630Y504336D01*
X1246164Y501870D01*
X1242943Y500536D01*
X1239457Y500536D01*
G37*
%LPD*%
%LPC*%
G36*
X1214057Y500536D02*
X1214057Y500536D01*
X1210836Y501870D01*
X1208370Y504336D01*
X1207036Y507557D01*
X1207036Y511043D01*
X1208370Y514264D01*
X1210836Y516730D01*
X1214057Y518064D01*
X1217543Y518064D01*
X1220764Y516730D01*
X1223230Y514264D01*
X1224564Y511043D01*
X1224564Y507557D01*
X1223230Y504336D01*
X1220764Y501870D01*
X1217543Y500536D01*
X1214057Y500536D01*
G37*
%LPD*%
%LPC*%
G36*
X1188657Y500536D02*
X1188657Y500536D01*
X1185436Y501870D01*
X1182970Y504336D01*
X1181636Y507557D01*
X1181636Y511043D01*
X1182970Y514264D01*
X1185436Y516730D01*
X1188657Y518064D01*
X1192143Y518064D01*
X1195364Y516730D01*
X1197830Y514264D01*
X1199164Y511043D01*
X1199164Y507557D01*
X1197830Y504336D01*
X1195364Y501870D01*
X1192143Y500536D01*
X1188657Y500536D01*
G37*
%LPD*%
%LPC*%
G36*
X1163257Y500536D02*
X1163257Y500536D01*
X1160036Y501870D01*
X1157570Y504336D01*
X1156236Y507557D01*
X1156236Y511043D01*
X1157570Y514264D01*
X1160036Y516730D01*
X1163257Y518064D01*
X1166743Y518064D01*
X1169964Y516730D01*
X1172430Y514264D01*
X1173764Y511043D01*
X1173764Y507557D01*
X1172430Y504336D01*
X1169964Y501870D01*
X1166743Y500536D01*
X1163257Y500536D01*
G37*
%LPD*%
%LPC*%
G36*
X1137857Y500536D02*
X1137857Y500536D01*
X1134636Y501870D01*
X1132170Y504336D01*
X1130836Y507557D01*
X1130836Y511043D01*
X1132170Y514264D01*
X1134636Y516730D01*
X1137857Y518064D01*
X1141343Y518064D01*
X1144564Y516730D01*
X1147030Y514264D01*
X1148364Y511043D01*
X1148364Y507557D01*
X1147030Y504336D01*
X1144564Y501870D01*
X1141343Y500536D01*
X1137857Y500536D01*
G37*
%LPD*%
%LPC*%
G36*
X1010857Y500536D02*
X1010857Y500536D01*
X1007636Y501870D01*
X1005170Y504336D01*
X1003836Y507557D01*
X1003836Y511043D01*
X1005170Y514264D01*
X1007636Y516730D01*
X1010857Y518064D01*
X1014343Y518064D01*
X1017564Y516730D01*
X1020030Y514264D01*
X1021364Y511043D01*
X1021364Y507557D01*
X1020030Y504336D01*
X1017564Y501870D01*
X1014343Y500536D01*
X1010857Y500536D01*
G37*
%LPD*%
%LPC*%
G36*
X985457Y500536D02*
X985457Y500536D01*
X982236Y501870D01*
X979770Y504336D01*
X978436Y507557D01*
X978436Y511043D01*
X979770Y514264D01*
X982236Y516730D01*
X985457Y518064D01*
X988943Y518064D01*
X992164Y516730D01*
X994630Y514264D01*
X995964Y511043D01*
X995964Y507557D01*
X994630Y504336D01*
X992164Y501870D01*
X988943Y500536D01*
X985457Y500536D01*
G37*
%LPD*%
%LPC*%
G36*
X1061657Y500536D02*
X1061657Y500536D01*
X1058436Y501870D01*
X1055970Y504336D01*
X1054636Y507557D01*
X1054636Y511043D01*
X1055970Y514264D01*
X1058436Y516730D01*
X1061657Y518064D01*
X1065143Y518064D01*
X1068364Y516730D01*
X1070830Y514264D01*
X1072164Y511043D01*
X1072164Y507557D01*
X1070830Y504336D01*
X1068364Y501870D01*
X1065143Y500536D01*
X1061657Y500536D01*
G37*
%LPD*%
%LPC*%
G36*
X1036257Y500536D02*
X1036257Y500536D01*
X1033036Y501870D01*
X1030570Y504336D01*
X1029236Y507557D01*
X1029236Y511043D01*
X1030570Y514264D01*
X1033036Y516730D01*
X1036257Y518064D01*
X1039743Y518064D01*
X1042964Y516730D01*
X1045430Y514264D01*
X1046764Y511043D01*
X1046764Y507557D01*
X1045430Y504336D01*
X1042964Y501870D01*
X1039743Y500536D01*
X1036257Y500536D01*
G37*
%LPD*%
%LPC*%
G36*
X1137857Y475136D02*
X1137857Y475136D01*
X1134636Y476470D01*
X1132170Y478936D01*
X1130836Y482157D01*
X1130836Y485643D01*
X1132170Y488864D01*
X1134636Y491330D01*
X1137857Y492664D01*
X1141343Y492664D01*
X1144564Y491330D01*
X1147030Y488864D01*
X1148364Y485643D01*
X1148364Y482157D01*
X1147030Y478936D01*
X1144564Y476470D01*
X1141343Y475136D01*
X1137857Y475136D01*
G37*
%LPD*%
%LPC*%
G36*
X1112457Y475136D02*
X1112457Y475136D01*
X1109236Y476470D01*
X1106770Y478936D01*
X1105436Y482157D01*
X1105436Y485643D01*
X1106770Y488864D01*
X1109236Y491330D01*
X1112457Y492664D01*
X1115943Y492664D01*
X1119164Y491330D01*
X1121630Y488864D01*
X1122964Y485643D01*
X1122964Y482157D01*
X1121630Y478936D01*
X1119164Y476470D01*
X1115943Y475136D01*
X1112457Y475136D01*
G37*
%LPD*%
%LPC*%
G36*
X1417257Y475136D02*
X1417257Y475136D01*
X1414036Y476470D01*
X1411570Y478936D01*
X1410236Y482157D01*
X1410236Y485643D01*
X1411570Y488864D01*
X1414036Y491330D01*
X1417257Y492664D01*
X1420743Y492664D01*
X1423964Y491330D01*
X1426430Y488864D01*
X1427764Y485643D01*
X1427764Y482157D01*
X1426430Y478936D01*
X1423964Y476470D01*
X1420743Y475136D01*
X1417257Y475136D01*
G37*
%LPD*%
%LPC*%
G36*
X1391857Y475136D02*
X1391857Y475136D01*
X1388636Y476470D01*
X1386170Y478936D01*
X1384836Y482157D01*
X1384836Y485643D01*
X1386170Y488864D01*
X1388636Y491330D01*
X1391857Y492664D01*
X1395343Y492664D01*
X1398564Y491330D01*
X1401030Y488864D01*
X1402364Y485643D01*
X1402364Y482157D01*
X1401030Y478936D01*
X1398564Y476470D01*
X1395343Y475136D01*
X1391857Y475136D01*
G37*
%LPD*%
%LPC*%
G36*
X1366457Y475136D02*
X1366457Y475136D01*
X1363236Y476470D01*
X1360770Y478936D01*
X1359436Y482157D01*
X1359436Y485643D01*
X1360770Y488864D01*
X1363236Y491330D01*
X1366457Y492664D01*
X1369943Y492664D01*
X1373164Y491330D01*
X1375630Y488864D01*
X1376964Y485643D01*
X1376964Y482157D01*
X1375630Y478936D01*
X1373164Y476470D01*
X1369943Y475136D01*
X1366457Y475136D01*
G37*
%LPD*%
%LPC*%
G36*
X1341057Y475136D02*
X1341057Y475136D01*
X1337836Y476470D01*
X1335370Y478936D01*
X1334036Y482157D01*
X1334036Y485643D01*
X1335370Y488864D01*
X1337836Y491330D01*
X1341057Y492664D01*
X1344543Y492664D01*
X1347764Y491330D01*
X1350230Y488864D01*
X1351564Y485643D01*
X1351564Y482157D01*
X1350230Y478936D01*
X1347764Y476470D01*
X1344543Y475136D01*
X1341057Y475136D01*
G37*
%LPD*%
%LPC*%
G36*
X1315657Y475136D02*
X1315657Y475136D01*
X1312436Y476470D01*
X1309970Y478936D01*
X1308636Y482157D01*
X1308636Y485643D01*
X1309970Y488864D01*
X1312436Y491330D01*
X1315657Y492664D01*
X1319143Y492664D01*
X1322364Y491330D01*
X1324830Y488864D01*
X1326164Y485643D01*
X1326164Y482157D01*
X1324830Y478936D01*
X1322364Y476470D01*
X1319143Y475136D01*
X1315657Y475136D01*
G37*
%LPD*%
%LPC*%
G36*
X1290257Y475136D02*
X1290257Y475136D01*
X1287036Y476470D01*
X1284570Y478936D01*
X1283236Y482157D01*
X1283236Y485643D01*
X1284570Y488864D01*
X1287036Y491330D01*
X1290257Y492664D01*
X1293743Y492664D01*
X1296964Y491330D01*
X1299430Y488864D01*
X1300764Y485643D01*
X1300764Y482157D01*
X1299430Y478936D01*
X1296964Y476470D01*
X1293743Y475136D01*
X1290257Y475136D01*
G37*
%LPD*%
%LPC*%
G36*
X1264857Y475136D02*
X1264857Y475136D01*
X1261636Y476470D01*
X1259170Y478936D01*
X1257836Y482157D01*
X1257836Y485643D01*
X1259170Y488864D01*
X1261636Y491330D01*
X1264857Y492664D01*
X1268343Y492664D01*
X1271564Y491330D01*
X1274030Y488864D01*
X1275364Y485643D01*
X1275364Y482157D01*
X1274030Y478936D01*
X1271564Y476470D01*
X1268343Y475136D01*
X1264857Y475136D01*
G37*
%LPD*%
%LPC*%
G36*
X1214057Y475136D02*
X1214057Y475136D01*
X1210836Y476470D01*
X1208370Y478936D01*
X1207036Y482157D01*
X1207036Y485643D01*
X1208370Y488864D01*
X1210836Y491330D01*
X1214057Y492664D01*
X1217543Y492664D01*
X1220764Y491330D01*
X1223230Y488864D01*
X1224564Y485643D01*
X1224564Y482157D01*
X1223230Y478936D01*
X1220764Y476470D01*
X1217543Y475136D01*
X1214057Y475136D01*
G37*
%LPD*%
%LPC*%
G36*
X1188657Y475136D02*
X1188657Y475136D01*
X1185436Y476470D01*
X1182970Y478936D01*
X1181636Y482157D01*
X1181636Y485643D01*
X1182970Y488864D01*
X1185436Y491330D01*
X1188657Y492664D01*
X1192143Y492664D01*
X1195364Y491330D01*
X1197830Y488864D01*
X1199164Y485643D01*
X1199164Y482157D01*
X1197830Y478936D01*
X1195364Y476470D01*
X1192143Y475136D01*
X1188657Y475136D01*
G37*
%LPD*%
%LPC*%
G36*
X1010857Y475136D02*
X1010857Y475136D01*
X1007636Y476470D01*
X1005170Y478936D01*
X1003836Y482157D01*
X1003836Y485643D01*
X1005170Y488864D01*
X1007636Y491330D01*
X1010857Y492664D01*
X1014343Y492664D01*
X1017564Y491330D01*
X1020030Y488864D01*
X1021364Y485643D01*
X1021364Y482157D01*
X1020030Y478936D01*
X1017564Y476470D01*
X1014343Y475136D01*
X1010857Y475136D01*
G37*
%LPD*%
%LPC*%
G36*
X985457Y475136D02*
X985457Y475136D01*
X982236Y476470D01*
X979770Y478936D01*
X978436Y482157D01*
X978436Y485643D01*
X979770Y488864D01*
X982236Y491330D01*
X985457Y492664D01*
X988943Y492664D01*
X992164Y491330D01*
X994630Y488864D01*
X995964Y485643D01*
X995964Y482157D01*
X994630Y478936D01*
X992164Y476470D01*
X988943Y475136D01*
X985457Y475136D01*
G37*
%LPD*%
%LPC*%
G36*
X1087057Y475136D02*
X1087057Y475136D01*
X1083836Y476470D01*
X1081370Y478936D01*
X1080036Y482157D01*
X1080036Y485643D01*
X1081370Y488864D01*
X1083836Y491330D01*
X1087057Y492664D01*
X1090543Y492664D01*
X1093764Y491330D01*
X1096230Y488864D01*
X1097564Y485643D01*
X1097564Y482157D01*
X1096230Y478936D01*
X1093764Y476470D01*
X1090543Y475136D01*
X1087057Y475136D01*
G37*
%LPD*%
%LPC*%
G36*
X1061657Y475136D02*
X1061657Y475136D01*
X1058436Y476470D01*
X1055970Y478936D01*
X1054636Y482157D01*
X1054636Y485643D01*
X1055970Y488864D01*
X1058436Y491330D01*
X1061657Y492664D01*
X1065143Y492664D01*
X1068364Y491330D01*
X1070830Y488864D01*
X1072164Y485643D01*
X1072164Y482157D01*
X1070830Y478936D01*
X1068364Y476470D01*
X1065143Y475136D01*
X1061657Y475136D01*
G37*
%LPD*%
%LPC*%
G36*
X1036257Y475136D02*
X1036257Y475136D01*
X1033036Y476470D01*
X1030570Y478936D01*
X1029236Y482157D01*
X1029236Y485643D01*
X1030570Y488864D01*
X1033036Y491330D01*
X1036257Y492664D01*
X1039743Y492664D01*
X1042964Y491330D01*
X1045430Y488864D01*
X1046764Y485643D01*
X1046764Y482157D01*
X1045430Y478936D01*
X1042964Y476470D01*
X1039743Y475136D01*
X1036257Y475136D01*
G37*
%LPD*%
%LPC*%
G36*
X1395257Y118236D02*
X1395257Y118236D01*
X1392036Y119570D01*
X1389570Y122036D01*
X1388236Y125257D01*
X1388236Y128743D01*
X1389570Y131964D01*
X1392036Y134430D01*
X1395257Y135764D01*
X1398743Y135764D01*
X1401964Y134430D01*
X1404430Y131964D01*
X1405764Y128743D01*
X1405764Y125257D01*
X1404430Y122036D01*
X1401964Y119570D01*
X1398743Y118236D01*
X1395257Y118236D01*
G37*
%LPD*%
%LPC*%
G36*
X1420657Y118236D02*
X1420657Y118236D01*
X1417436Y119570D01*
X1414970Y122036D01*
X1413636Y125257D01*
X1413636Y128743D01*
X1414970Y131964D01*
X1417436Y134430D01*
X1420657Y135764D01*
X1424143Y135764D01*
X1427364Y134430D01*
X1429830Y131964D01*
X1431164Y128743D01*
X1431164Y125257D01*
X1429830Y122036D01*
X1427364Y119570D01*
X1424143Y118236D01*
X1420657Y118236D01*
G37*
%LPD*%
%LPC*%
G36*
X36357Y130936D02*
X36357Y130936D01*
X33136Y132270D01*
X30670Y134736D01*
X29336Y137957D01*
X29336Y141443D01*
X30670Y144664D01*
X33136Y147130D01*
X36357Y148464D01*
X39843Y148464D01*
X43064Y147130D01*
X45530Y144664D01*
X46864Y141443D01*
X46864Y137957D01*
X45530Y134736D01*
X43064Y132270D01*
X39843Y130936D01*
X36357Y130936D01*
G37*
%LPD*%
%LPC*%
G36*
X61757Y130936D02*
X61757Y130936D01*
X58536Y132270D01*
X56070Y134736D01*
X54736Y137957D01*
X54736Y141443D01*
X56070Y144664D01*
X58536Y147130D01*
X61757Y148464D01*
X65243Y148464D01*
X68464Y147130D01*
X70930Y144664D01*
X72264Y141443D01*
X72264Y137957D01*
X70930Y134736D01*
X68464Y132270D01*
X65243Y130936D01*
X61757Y130936D01*
G37*
%LPD*%
%LPC*%
G36*
X1341057Y221136D02*
X1341057Y221136D01*
X1337836Y222470D01*
X1335370Y224936D01*
X1334036Y228157D01*
X1334036Y231643D01*
X1335370Y234864D01*
X1337836Y237330D01*
X1341057Y238664D01*
X1344543Y238664D01*
X1347764Y237330D01*
X1350230Y234864D01*
X1351564Y231643D01*
X1351564Y228157D01*
X1350230Y224936D01*
X1347764Y222470D01*
X1344543Y221136D01*
X1341057Y221136D01*
G37*
%LPD*%
%LPC*%
G36*
X1315657Y221136D02*
X1315657Y221136D01*
X1312436Y222470D01*
X1309970Y224936D01*
X1308636Y228157D01*
X1308636Y231643D01*
X1309970Y234864D01*
X1312436Y237330D01*
X1315657Y238664D01*
X1319143Y238664D01*
X1322364Y237330D01*
X1324830Y234864D01*
X1326164Y231643D01*
X1326164Y228157D01*
X1324830Y224936D01*
X1322364Y222470D01*
X1319143Y221136D01*
X1315657Y221136D01*
G37*
%LPD*%
%LPC*%
G36*
X1290257Y221136D02*
X1290257Y221136D01*
X1287036Y222470D01*
X1284570Y224936D01*
X1283236Y228157D01*
X1283236Y231643D01*
X1284570Y234864D01*
X1287036Y237330D01*
X1290257Y238664D01*
X1293743Y238664D01*
X1296964Y237330D01*
X1299430Y234864D01*
X1300764Y231643D01*
X1300764Y228157D01*
X1299430Y224936D01*
X1296964Y222470D01*
X1293743Y221136D01*
X1290257Y221136D01*
G37*
%LPD*%
%LPC*%
G36*
X1264857Y221136D02*
X1264857Y221136D01*
X1261636Y222470D01*
X1259170Y224936D01*
X1257836Y228157D01*
X1257836Y231643D01*
X1259170Y234864D01*
X1261636Y237330D01*
X1264857Y238664D01*
X1268343Y238664D01*
X1271564Y237330D01*
X1274030Y234864D01*
X1275364Y231643D01*
X1275364Y228157D01*
X1274030Y224936D01*
X1271564Y222470D01*
X1268343Y221136D01*
X1264857Y221136D01*
G37*
%LPD*%
%LPC*%
G36*
X1214057Y221136D02*
X1214057Y221136D01*
X1210836Y222470D01*
X1208370Y224936D01*
X1207036Y228157D01*
X1207036Y231643D01*
X1208370Y234864D01*
X1210836Y237330D01*
X1214057Y238664D01*
X1217543Y238664D01*
X1220764Y237330D01*
X1223230Y234864D01*
X1224564Y231643D01*
X1224564Y228157D01*
X1223230Y224936D01*
X1220764Y222470D01*
X1217543Y221136D01*
X1214057Y221136D01*
G37*
%LPD*%
%LPC*%
G36*
X985457Y246536D02*
X985457Y246536D01*
X982236Y247870D01*
X979770Y250336D01*
X978436Y253557D01*
X978436Y257043D01*
X979770Y260264D01*
X982236Y262730D01*
X985457Y264064D01*
X988943Y264064D01*
X992164Y262730D01*
X994630Y260264D01*
X995964Y257043D01*
X995964Y253557D01*
X994630Y250336D01*
X992164Y247870D01*
X988943Y246536D01*
X985457Y246536D01*
G37*
%LPD*%
%LPC*%
G36*
X1010857Y246536D02*
X1010857Y246536D01*
X1007636Y247870D01*
X1005170Y250336D01*
X1003836Y253557D01*
X1003836Y257043D01*
X1005170Y260264D01*
X1007636Y262730D01*
X1010857Y264064D01*
X1014343Y264064D01*
X1017564Y262730D01*
X1020030Y260264D01*
X1021364Y257043D01*
X1021364Y253557D01*
X1020030Y250336D01*
X1017564Y247870D01*
X1014343Y246536D01*
X1010857Y246536D01*
G37*
%LPD*%
%LPC*%
G36*
X1036257Y246536D02*
X1036257Y246536D01*
X1033036Y247870D01*
X1030570Y250336D01*
X1029236Y253557D01*
X1029236Y257043D01*
X1030570Y260264D01*
X1033036Y262730D01*
X1036257Y264064D01*
X1039743Y264064D01*
X1042964Y262730D01*
X1045430Y260264D01*
X1046764Y257043D01*
X1046764Y253557D01*
X1045430Y250336D01*
X1042964Y247870D01*
X1039743Y246536D01*
X1036257Y246536D01*
G37*
%LPD*%
%LPC*%
G36*
X1061657Y246536D02*
X1061657Y246536D01*
X1058436Y247870D01*
X1055970Y250336D01*
X1054636Y253557D01*
X1054636Y257043D01*
X1055970Y260264D01*
X1058436Y262730D01*
X1061657Y264064D01*
X1065143Y264064D01*
X1068364Y262730D01*
X1070830Y260264D01*
X1072164Y257043D01*
X1072164Y253557D01*
X1070830Y250336D01*
X1068364Y247870D01*
X1065143Y246536D01*
X1061657Y246536D01*
G37*
%LPD*%
%LPC*%
G36*
X985457Y221136D02*
X985457Y221136D01*
X982236Y222470D01*
X979770Y224936D01*
X978436Y228157D01*
X978436Y231643D01*
X979770Y234864D01*
X982236Y237330D01*
X985457Y238664D01*
X988943Y238664D01*
X992164Y237330D01*
X994630Y234864D01*
X995964Y231643D01*
X995964Y228157D01*
X994630Y224936D01*
X992164Y222470D01*
X988943Y221136D01*
X985457Y221136D01*
G37*
%LPD*%
%LPC*%
G36*
X1087057Y246536D02*
X1087057Y246536D01*
X1083836Y247870D01*
X1081370Y250336D01*
X1080036Y253557D01*
X1080036Y257043D01*
X1081370Y260264D01*
X1083836Y262730D01*
X1087057Y264064D01*
X1090543Y264064D01*
X1093764Y262730D01*
X1096230Y260264D01*
X1097564Y257043D01*
X1097564Y253557D01*
X1096230Y250336D01*
X1093764Y247870D01*
X1090543Y246536D01*
X1087057Y246536D01*
G37*
%LPD*%
%LPC*%
G36*
X1010857Y221136D02*
X1010857Y221136D01*
X1007636Y222470D01*
X1005170Y224936D01*
X1003836Y228157D01*
X1003836Y231643D01*
X1005170Y234864D01*
X1007636Y237330D01*
X1010857Y238664D01*
X1014343Y238664D01*
X1017564Y237330D01*
X1020030Y234864D01*
X1021364Y231643D01*
X1021364Y228157D01*
X1020030Y224936D01*
X1017564Y222470D01*
X1014343Y221136D01*
X1010857Y221136D01*
G37*
%LPD*%
%LPC*%
G36*
X1036257Y221136D02*
X1036257Y221136D01*
X1033036Y222470D01*
X1030570Y224936D01*
X1029236Y228157D01*
X1029236Y231643D01*
X1030570Y234864D01*
X1033036Y237330D01*
X1036257Y238664D01*
X1039743Y238664D01*
X1042964Y237330D01*
X1045430Y234864D01*
X1046764Y231643D01*
X1046764Y228157D01*
X1045430Y224936D01*
X1042964Y222470D01*
X1039743Y221136D01*
X1036257Y221136D01*
G37*
%LPD*%
%LPC*%
G36*
X1061657Y221136D02*
X1061657Y221136D01*
X1058436Y222470D01*
X1055970Y224936D01*
X1054636Y228157D01*
X1054636Y231643D01*
X1055970Y234864D01*
X1058436Y237330D01*
X1061657Y238664D01*
X1065143Y238664D01*
X1068364Y237330D01*
X1070830Y234864D01*
X1072164Y231643D01*
X1072164Y228157D01*
X1070830Y224936D01*
X1068364Y222470D01*
X1065143Y221136D01*
X1061657Y221136D01*
G37*
%LPD*%
%LPC*%
G36*
X1087057Y221136D02*
X1087057Y221136D01*
X1083836Y222470D01*
X1081370Y224936D01*
X1080036Y228157D01*
X1080036Y231643D01*
X1081370Y234864D01*
X1083836Y237330D01*
X1087057Y238664D01*
X1090543Y238664D01*
X1093764Y237330D01*
X1096230Y234864D01*
X1097564Y231643D01*
X1097564Y228157D01*
X1096230Y224936D01*
X1093764Y222470D01*
X1090543Y221136D01*
X1087057Y221136D01*
G37*
%LPD*%
%LPC*%
G36*
X1112457Y221136D02*
X1112457Y221136D01*
X1109236Y222470D01*
X1106770Y224936D01*
X1105436Y228157D01*
X1105436Y231643D01*
X1106770Y234864D01*
X1109236Y237330D01*
X1112457Y238664D01*
X1115943Y238664D01*
X1119164Y237330D01*
X1121630Y234864D01*
X1122964Y231643D01*
X1122964Y228157D01*
X1121630Y224936D01*
X1119164Y222470D01*
X1115943Y221136D01*
X1112457Y221136D01*
G37*
%LPD*%
%LPC*%
G36*
X1137857Y221136D02*
X1137857Y221136D01*
X1134636Y222470D01*
X1132170Y224936D01*
X1130836Y228157D01*
X1130836Y231643D01*
X1132170Y234864D01*
X1134636Y237330D01*
X1137857Y238664D01*
X1141343Y238664D01*
X1144564Y237330D01*
X1147030Y234864D01*
X1148364Y231643D01*
X1148364Y228157D01*
X1147030Y224936D01*
X1144564Y222470D01*
X1141343Y221136D01*
X1137857Y221136D01*
G37*
%LPD*%
%LPC*%
G36*
X1163257Y221136D02*
X1163257Y221136D01*
X1160036Y222470D01*
X1157570Y224936D01*
X1156236Y228157D01*
X1156236Y231643D01*
X1157570Y234864D01*
X1160036Y237330D01*
X1163257Y238664D01*
X1166743Y238664D01*
X1169964Y237330D01*
X1172430Y234864D01*
X1173764Y231643D01*
X1173764Y228157D01*
X1172430Y224936D01*
X1169964Y222470D01*
X1166743Y221136D01*
X1163257Y221136D01*
G37*
%LPD*%
%LPC*%
G36*
X1112457Y246536D02*
X1112457Y246536D01*
X1109236Y247870D01*
X1106770Y250336D01*
X1105436Y253557D01*
X1105436Y257043D01*
X1106770Y260264D01*
X1109236Y262730D01*
X1112457Y264064D01*
X1115943Y264064D01*
X1119164Y262730D01*
X1121630Y260264D01*
X1122964Y257043D01*
X1122964Y253557D01*
X1121630Y250336D01*
X1119164Y247870D01*
X1115943Y246536D01*
X1112457Y246536D01*
G37*
%LPD*%
%LPC*%
G36*
X1315657Y246536D02*
X1315657Y246536D01*
X1312436Y247870D01*
X1309970Y250336D01*
X1308636Y253557D01*
X1308636Y257043D01*
X1309970Y260264D01*
X1312436Y262730D01*
X1315657Y264064D01*
X1319143Y264064D01*
X1322364Y262730D01*
X1324830Y260264D01*
X1326164Y257043D01*
X1326164Y253557D01*
X1324830Y250336D01*
X1322364Y247870D01*
X1319143Y246536D01*
X1315657Y246536D01*
G37*
%LPD*%
%LPC*%
G36*
X1290257Y246536D02*
X1290257Y246536D01*
X1287036Y247870D01*
X1284570Y250336D01*
X1283236Y253557D01*
X1283236Y257043D01*
X1284570Y260264D01*
X1287036Y262730D01*
X1290257Y264064D01*
X1293743Y264064D01*
X1296964Y262730D01*
X1299430Y260264D01*
X1300764Y257043D01*
X1300764Y253557D01*
X1299430Y250336D01*
X1296964Y247870D01*
X1293743Y246536D01*
X1290257Y246536D01*
G37*
%LPD*%
%LPC*%
G36*
X1417257Y246536D02*
X1417257Y246536D01*
X1414036Y247870D01*
X1411570Y250336D01*
X1410236Y253557D01*
X1410236Y257043D01*
X1411570Y260264D01*
X1414036Y262730D01*
X1417257Y264064D01*
X1420743Y264064D01*
X1423964Y262730D01*
X1426430Y260264D01*
X1427764Y257043D01*
X1427764Y253557D01*
X1426430Y250336D01*
X1423964Y247870D01*
X1420743Y246536D01*
X1417257Y246536D01*
G37*
%LPD*%
%LPC*%
G36*
X1391857Y246536D02*
X1391857Y246536D01*
X1388636Y247870D01*
X1386170Y250336D01*
X1384836Y253557D01*
X1384836Y257043D01*
X1386170Y260264D01*
X1388636Y262730D01*
X1391857Y264064D01*
X1395343Y264064D01*
X1398564Y262730D01*
X1401030Y260264D01*
X1402364Y257043D01*
X1402364Y253557D01*
X1401030Y250336D01*
X1398564Y247870D01*
X1395343Y246536D01*
X1391857Y246536D01*
G37*
%LPD*%
%LPC*%
G36*
X1188657Y221136D02*
X1188657Y221136D01*
X1185436Y222470D01*
X1182970Y224936D01*
X1181636Y228157D01*
X1181636Y231643D01*
X1182970Y234864D01*
X1185436Y237330D01*
X1188657Y238664D01*
X1192143Y238664D01*
X1195364Y237330D01*
X1197830Y234864D01*
X1199164Y231643D01*
X1199164Y228157D01*
X1197830Y224936D01*
X1195364Y222470D01*
X1192143Y221136D01*
X1188657Y221136D01*
G37*
%LPD*%
%LPC*%
G36*
X1341057Y246536D02*
X1341057Y246536D01*
X1337836Y247870D01*
X1335370Y250336D01*
X1334036Y253557D01*
X1334036Y257043D01*
X1335370Y260264D01*
X1337836Y262730D01*
X1341057Y264064D01*
X1344543Y264064D01*
X1347764Y262730D01*
X1350230Y260264D01*
X1351564Y257043D01*
X1351564Y253557D01*
X1350230Y250336D01*
X1347764Y247870D01*
X1344543Y246536D01*
X1341057Y246536D01*
G37*
%LPD*%
%LPC*%
G36*
X1264857Y246536D02*
X1264857Y246536D01*
X1261636Y247870D01*
X1259170Y250336D01*
X1257836Y253557D01*
X1257836Y257043D01*
X1259170Y260264D01*
X1261636Y262730D01*
X1264857Y264064D01*
X1268343Y264064D01*
X1271564Y262730D01*
X1274030Y260264D01*
X1275364Y257043D01*
X1275364Y253557D01*
X1274030Y250336D01*
X1271564Y247870D01*
X1268343Y246536D01*
X1264857Y246536D01*
G37*
%LPD*%
%LPC*%
G36*
X1214057Y246536D02*
X1214057Y246536D01*
X1210836Y247870D01*
X1208370Y250336D01*
X1207036Y253557D01*
X1207036Y257043D01*
X1208370Y260264D01*
X1210836Y262730D01*
X1214057Y264064D01*
X1217543Y264064D01*
X1220764Y262730D01*
X1223230Y260264D01*
X1224564Y257043D01*
X1224564Y253557D01*
X1223230Y250336D01*
X1220764Y247870D01*
X1217543Y246536D01*
X1214057Y246536D01*
G37*
%LPD*%
%LPC*%
G36*
X1188657Y246536D02*
X1188657Y246536D01*
X1185436Y247870D01*
X1182970Y250336D01*
X1181636Y253557D01*
X1181636Y257043D01*
X1182970Y260264D01*
X1185436Y262730D01*
X1188657Y264064D01*
X1192143Y264064D01*
X1195364Y262730D01*
X1197830Y260264D01*
X1199164Y257043D01*
X1199164Y253557D01*
X1197830Y250336D01*
X1195364Y247870D01*
X1192143Y246536D01*
X1188657Y246536D01*
G37*
%LPD*%
%LPC*%
G36*
X1137857Y246536D02*
X1137857Y246536D01*
X1134636Y247870D01*
X1132170Y250336D01*
X1130836Y253557D01*
X1130836Y257043D01*
X1132170Y260264D01*
X1134636Y262730D01*
X1137857Y264064D01*
X1141343Y264064D01*
X1144564Y262730D01*
X1147030Y260264D01*
X1148364Y257043D01*
X1148364Y253557D01*
X1147030Y250336D01*
X1144564Y247870D01*
X1141343Y246536D01*
X1137857Y246536D01*
G37*
%LPD*%
%LPC*%
G36*
X570388Y553211D02*
X570388Y553211D01*
X568334Y554062D01*
X566762Y555634D01*
X565911Y557688D01*
X565911Y559912D01*
X566762Y561966D01*
X568334Y563538D01*
X570388Y564389D01*
X572612Y564389D01*
X574666Y563538D01*
X576238Y561966D01*
X577089Y559912D01*
X577089Y557688D01*
X576238Y555634D01*
X574666Y554062D01*
X572612Y553211D01*
X570388Y553211D01*
G37*
%LPD*%
%LPC*%
G36*
X887888Y45211D02*
X887888Y45211D01*
X885834Y46062D01*
X884262Y47634D01*
X883411Y49688D01*
X883411Y51912D01*
X884262Y53966D01*
X885834Y55538D01*
X887888Y56389D01*
X890112Y56389D01*
X892166Y55538D01*
X893738Y53966D01*
X894589Y51912D01*
X894589Y49688D01*
X893738Y47634D01*
X892166Y46062D01*
X890112Y45211D01*
X887888Y45211D01*
G37*
%LPD*%
%LPC*%
G36*
X646588Y540511D02*
X646588Y540511D01*
X644534Y541362D01*
X642962Y542934D01*
X642111Y544988D01*
X642111Y547212D01*
X642962Y549266D01*
X644534Y550838D01*
X646588Y551689D01*
X648812Y551689D01*
X650866Y550838D01*
X652438Y549266D01*
X653289Y547212D01*
X653289Y544988D01*
X652438Y542934D01*
X650866Y541362D01*
X648812Y540511D01*
X646588Y540511D01*
G37*
%LPD*%
%LPC*%
G36*
X1472088Y578611D02*
X1472088Y578611D01*
X1470034Y579462D01*
X1468462Y581034D01*
X1467611Y583088D01*
X1467611Y585312D01*
X1468462Y587366D01*
X1470034Y588938D01*
X1472088Y589789D01*
X1474312Y589789D01*
X1476366Y588938D01*
X1477938Y587366D01*
X1478789Y585312D01*
X1478789Y583088D01*
X1477938Y581034D01*
X1476366Y579462D01*
X1474312Y578611D01*
X1472088Y578611D01*
G37*
%LPD*%
%LPC*%
G36*
X659288Y45211D02*
X659288Y45211D01*
X657234Y46062D01*
X655662Y47634D01*
X654811Y49688D01*
X654811Y51912D01*
X655662Y53966D01*
X657234Y55538D01*
X659288Y56389D01*
X661512Y56389D01*
X663566Y55538D01*
X665138Y53966D01*
X665989Y51912D01*
X665989Y49688D01*
X665138Y47634D01*
X663566Y46062D01*
X661512Y45211D01*
X659288Y45211D01*
G37*
%LPD*%
%LPC*%
G36*
X1472088Y451611D02*
X1472088Y451611D01*
X1470034Y452462D01*
X1468462Y454034D01*
X1467611Y456088D01*
X1467611Y458312D01*
X1468462Y460366D01*
X1470034Y461938D01*
X1472088Y462789D01*
X1474312Y462789D01*
X1476366Y461938D01*
X1477938Y460366D01*
X1478789Y458312D01*
X1478789Y456088D01*
X1477938Y454034D01*
X1476366Y452462D01*
X1474312Y451611D01*
X1472088Y451611D01*
G37*
%LPD*%
%LPC*%
G36*
X448039Y155339D02*
X448039Y155339D01*
X448039Y164892D01*
X448390Y164837D01*
X450237Y164237D01*
X451968Y163355D01*
X452856Y162709D01*
X453539Y162213D01*
X454913Y160839D01*
X456055Y159268D01*
X456937Y157537D01*
X457537Y155690D01*
X457592Y155339D01*
X448039Y155339D01*
G37*
%LPD*%
%LPC*%
G36*
X852439Y155339D02*
X852439Y155339D01*
X852439Y164892D01*
X852790Y164837D01*
X854637Y164237D01*
X856368Y163355D01*
X857256Y162709D01*
X857939Y162213D01*
X859313Y160839D01*
X860455Y159268D01*
X861337Y157537D01*
X861937Y155690D01*
X861992Y155339D01*
X852439Y155339D01*
G37*
%LPD*%
%LPC*%
G36*
X727439Y155339D02*
X727439Y155339D01*
X727439Y164892D01*
X727790Y164837D01*
X729637Y164237D01*
X731368Y163355D01*
X732256Y162709D01*
X732939Y162213D01*
X734313Y160839D01*
X735455Y159268D01*
X736337Y157537D01*
X736937Y155690D01*
X736992Y155339D01*
X727439Y155339D01*
G37*
%LPD*%
%LPC*%
G36*
X573039Y155339D02*
X573039Y155339D01*
X573039Y164892D01*
X573390Y164837D01*
X575237Y164237D01*
X576968Y163355D01*
X577856Y162709D01*
X578539Y162213D01*
X579913Y160839D01*
X581055Y159268D01*
X581937Y157537D01*
X582537Y155690D01*
X582592Y155339D01*
X573039Y155339D01*
G37*
%LPD*%
%LPC*%
G36*
X1311639Y358539D02*
X1311639Y358539D01*
X1311639Y368092D01*
X1311990Y368037D01*
X1313837Y367437D01*
X1315568Y366555D01*
X1317139Y365413D01*
X1318513Y364039D01*
X1319655Y362468D01*
X1320537Y360737D01*
X1321137Y358890D01*
X1321192Y358539D01*
X1311639Y358539D01*
G37*
%LPD*%
%LPC*%
G36*
X1436639Y561739D02*
X1436639Y561739D01*
X1436639Y571292D01*
X1436990Y571237D01*
X1438837Y570637D01*
X1440568Y569755D01*
X1442139Y568613D01*
X1443513Y567239D01*
X1444655Y565668D01*
X1445537Y563937D01*
X1446137Y562090D01*
X1446192Y561739D01*
X1436639Y561739D01*
G37*
%LPD*%
%LPC*%
G36*
X1311639Y561739D02*
X1311639Y561739D01*
X1311639Y571292D01*
X1311990Y571237D01*
X1313837Y570637D01*
X1315568Y569755D01*
X1317139Y568613D01*
X1318513Y567239D01*
X1319655Y565668D01*
X1320537Y563937D01*
X1321137Y562090D01*
X1321192Y561739D01*
X1311639Y561739D01*
G37*
%LPD*%
%LPC*%
G36*
X1436639Y358539D02*
X1436639Y358539D01*
X1436639Y368092D01*
X1436990Y368037D01*
X1438837Y367437D01*
X1440568Y366555D01*
X1442139Y365413D01*
X1443513Y364039D01*
X1444655Y362468D01*
X1445537Y360737D01*
X1446137Y358890D01*
X1446192Y358539D01*
X1436639Y358539D01*
G37*
%LPD*%
%LPC*%
G36*
X1311639Y556661D02*
X1311639Y556661D01*
X1321192Y556661D01*
X1321137Y556310D01*
X1320537Y554463D01*
X1319655Y552732D01*
X1318513Y551161D01*
X1317139Y549787D01*
X1315568Y548645D01*
X1313837Y547763D01*
X1311990Y547163D01*
X1311639Y547108D01*
X1311639Y556661D01*
G37*
%LPD*%
%LPC*%
G36*
X448039Y150261D02*
X448039Y150261D01*
X457592Y150261D01*
X457537Y149910D01*
X456937Y148063D01*
X456055Y146332D01*
X454913Y144761D01*
X453539Y143387D01*
X451968Y142245D01*
X450237Y141363D01*
X448390Y140763D01*
X448039Y140708D01*
X448039Y150261D01*
G37*
%LPD*%
%LPC*%
G36*
X727439Y150261D02*
X727439Y150261D01*
X736992Y150261D01*
X736937Y149910D01*
X736337Y148063D01*
X735455Y146332D01*
X734313Y144761D01*
X732939Y143387D01*
X731368Y142245D01*
X729637Y141363D01*
X727790Y140763D01*
X727439Y140708D01*
X727439Y150261D01*
G37*
%LPD*%
%LPC*%
G36*
X573039Y150261D02*
X573039Y150261D01*
X582592Y150261D01*
X582537Y149910D01*
X581937Y148063D01*
X581055Y146332D01*
X579913Y144761D01*
X578539Y143387D01*
X576968Y142245D01*
X575237Y141363D01*
X573390Y140763D01*
X573039Y140708D01*
X573039Y150261D01*
G37*
%LPD*%
%LPC*%
G36*
X1436639Y556661D02*
X1436639Y556661D01*
X1446192Y556661D01*
X1446137Y556310D01*
X1445537Y554463D01*
X1444655Y552732D01*
X1443513Y551161D01*
X1442139Y549787D01*
X1440568Y548645D01*
X1438837Y547763D01*
X1436990Y547163D01*
X1436639Y547108D01*
X1436639Y556661D01*
G37*
%LPD*%
%LPC*%
G36*
X1422008Y358539D02*
X1422008Y358539D01*
X1422063Y358890D01*
X1422663Y360737D01*
X1423545Y362468D01*
X1424687Y364039D01*
X1426061Y365413D01*
X1427632Y366555D01*
X1429363Y367437D01*
X1431210Y368037D01*
X1431561Y368092D01*
X1431561Y358539D01*
X1422008Y358539D01*
G37*
%LPD*%
%LPC*%
G36*
X852439Y150261D02*
X852439Y150261D01*
X861992Y150261D01*
X861937Y149910D01*
X861337Y148063D01*
X860455Y146332D01*
X859313Y144761D01*
X857939Y143387D01*
X856368Y142245D01*
X854637Y141363D01*
X852790Y140763D01*
X852439Y140708D01*
X852439Y150261D01*
G37*
%LPD*%
%LPC*%
G36*
X1297008Y561739D02*
X1297008Y561739D01*
X1297063Y562090D01*
X1297663Y563937D01*
X1298545Y565668D01*
X1299687Y567239D01*
X1301061Y568613D01*
X1302632Y569755D01*
X1304363Y570637D01*
X1306210Y571237D01*
X1306561Y571292D01*
X1306561Y561739D01*
X1297008Y561739D01*
G37*
%LPD*%
%LPC*%
G36*
X1422008Y561739D02*
X1422008Y561739D01*
X1422063Y562090D01*
X1422663Y563937D01*
X1423545Y565668D01*
X1424687Y567239D01*
X1426061Y568613D01*
X1427632Y569755D01*
X1429363Y570637D01*
X1431210Y571237D01*
X1431561Y571292D01*
X1431561Y561739D01*
X1422008Y561739D01*
G37*
%LPD*%
%LPC*%
G36*
X433408Y155339D02*
X433408Y155339D01*
X433463Y155690D01*
X434063Y157537D01*
X434945Y159268D01*
X436087Y160839D01*
X437461Y162213D01*
X439032Y163355D01*
X440763Y164237D01*
X442610Y164837D01*
X442961Y164892D01*
X442961Y155339D01*
X433408Y155339D01*
G37*
%LPD*%
%LPC*%
G36*
X558408Y155339D02*
X558408Y155339D01*
X558463Y155690D01*
X559063Y157537D01*
X559945Y159268D01*
X561087Y160839D01*
X562461Y162213D01*
X564032Y163355D01*
X565763Y164237D01*
X567610Y164837D01*
X567961Y164892D01*
X567961Y155339D01*
X558408Y155339D01*
G37*
%LPD*%
%LPC*%
G36*
X1311639Y353461D02*
X1311639Y353461D01*
X1321192Y353461D01*
X1321137Y353110D01*
X1320537Y351263D01*
X1319655Y349532D01*
X1318513Y347961D01*
X1317139Y346587D01*
X1315568Y345445D01*
X1313837Y344563D01*
X1311990Y343963D01*
X1311639Y343908D01*
X1311639Y353461D01*
G37*
%LPD*%
%LPC*%
G36*
X712808Y155339D02*
X712808Y155339D01*
X712863Y155690D01*
X713463Y157537D01*
X714345Y159268D01*
X715487Y160839D01*
X716861Y162213D01*
X718432Y163355D01*
X720163Y164237D01*
X722010Y164837D01*
X722361Y164892D01*
X722361Y155339D01*
X712808Y155339D01*
G37*
%LPD*%
%LPC*%
G36*
X1436639Y353461D02*
X1436639Y353461D01*
X1446192Y353461D01*
X1446137Y353110D01*
X1445537Y351263D01*
X1444655Y349532D01*
X1443513Y347961D01*
X1442139Y346587D01*
X1440568Y345445D01*
X1438837Y344563D01*
X1436990Y343963D01*
X1436639Y343908D01*
X1436639Y353461D01*
G37*
%LPD*%
%LPC*%
G36*
X1297008Y358539D02*
X1297008Y358539D01*
X1297063Y358890D01*
X1297663Y360737D01*
X1298545Y362468D01*
X1299687Y364039D01*
X1301061Y365413D01*
X1302632Y366555D01*
X1304363Y367437D01*
X1306210Y368037D01*
X1306561Y368092D01*
X1306561Y358539D01*
X1297008Y358539D01*
G37*
%LPD*%
%LPC*%
G36*
X837808Y155339D02*
X837808Y155339D01*
X837863Y155690D01*
X838463Y157537D01*
X839345Y159268D01*
X840487Y160839D01*
X841861Y162213D01*
X843432Y163355D01*
X845163Y164237D01*
X847010Y164837D01*
X847361Y164892D01*
X847361Y155339D01*
X837808Y155339D01*
G37*
%LPD*%
%LPC*%
G36*
X1306210Y547163D02*
X1306210Y547163D01*
X1304363Y547763D01*
X1302632Y548645D01*
X1301670Y549344D01*
X1301061Y549787D01*
X1299687Y551161D01*
X1298545Y552732D01*
X1297663Y554463D01*
X1297063Y556310D01*
X1297008Y556661D01*
X1306561Y556661D01*
X1306561Y547108D01*
X1306210Y547163D01*
G37*
%LPD*%
%LPC*%
G36*
X1431210Y547163D02*
X1431210Y547163D01*
X1429363Y547763D01*
X1427632Y548645D01*
X1426670Y549344D01*
X1426061Y549787D01*
X1424687Y551161D01*
X1423545Y552732D01*
X1422663Y554463D01*
X1422063Y556310D01*
X1422008Y556661D01*
X1431561Y556661D01*
X1431561Y547108D01*
X1431210Y547163D01*
G37*
%LPD*%
%LPC*%
G36*
X1306210Y343963D02*
X1306210Y343963D01*
X1304363Y344563D01*
X1302632Y345445D01*
X1301061Y346587D01*
X1299687Y347961D01*
X1298545Y349532D01*
X1297663Y351263D01*
X1297063Y353110D01*
X1297008Y353461D01*
X1306561Y353461D01*
X1306561Y343908D01*
X1306210Y343963D01*
G37*
%LPD*%
%LPC*%
G36*
X442610Y140763D02*
X442610Y140763D01*
X440763Y141363D01*
X439032Y142245D01*
X437461Y143387D01*
X436087Y144761D01*
X434945Y146332D01*
X434063Y148063D01*
X433463Y149910D01*
X433408Y150261D01*
X442961Y150261D01*
X442961Y140708D01*
X442610Y140763D01*
G37*
%LPD*%
%LPC*%
G36*
X847010Y140763D02*
X847010Y140763D01*
X845163Y141363D01*
X843432Y142245D01*
X841861Y143387D01*
X840487Y144761D01*
X839345Y146332D01*
X838463Y148063D01*
X837863Y149910D01*
X837808Y150261D01*
X847361Y150261D01*
X847361Y140708D01*
X847010Y140763D01*
G37*
%LPD*%
%LPC*%
G36*
X1431210Y343963D02*
X1431210Y343963D01*
X1429363Y344563D01*
X1427632Y345445D01*
X1426061Y346587D01*
X1424687Y347961D01*
X1423545Y349532D01*
X1422663Y351263D01*
X1422063Y353110D01*
X1422008Y353461D01*
X1431561Y353461D01*
X1431561Y343908D01*
X1431210Y343963D01*
G37*
%LPD*%
%LPC*%
G36*
X722010Y140763D02*
X722010Y140763D01*
X720163Y141363D01*
X718432Y142245D01*
X716861Y143387D01*
X715487Y144761D01*
X714345Y146332D01*
X713463Y148063D01*
X712863Y149910D01*
X712808Y150261D01*
X722361Y150261D01*
X722361Y140708D01*
X722010Y140763D01*
G37*
%LPD*%
%LPC*%
G36*
X567610Y140763D02*
X567610Y140763D01*
X565763Y141363D01*
X564032Y142245D01*
X562461Y143387D01*
X561087Y144761D01*
X559945Y146332D01*
X559063Y148063D01*
X558463Y149910D01*
X558408Y150261D01*
X567961Y150261D01*
X567961Y140708D01*
X567610Y140763D01*
G37*
%LPD*%
%LPC*%
G36*
X665479Y613539D02*
X665479Y613539D01*
X665479Y620324D01*
X666645Y619946D01*
X667999Y619256D01*
X669228Y618363D01*
X670303Y617288D01*
X671196Y616059D01*
X671886Y614705D01*
X672264Y613539D01*
X665479Y613539D01*
G37*
%LPD*%
%LPC*%
G36*
X665479Y608461D02*
X665479Y608461D01*
X672264Y608461D01*
X671886Y607295D01*
X671196Y605941D01*
X670303Y604712D01*
X669228Y603637D01*
X667999Y602744D01*
X666645Y602054D01*
X665479Y601676D01*
X665479Y608461D01*
G37*
%LPD*%
%LPC*%
G36*
X653616Y613539D02*
X653616Y613539D01*
X653994Y614705D01*
X654684Y616059D01*
X655577Y617288D01*
X656652Y618363D01*
X657881Y619256D01*
X659235Y619946D01*
X660401Y620324D01*
X660401Y613539D01*
X653616Y613539D01*
G37*
%LPD*%
%LPC*%
G36*
X659235Y602054D02*
X659235Y602054D01*
X657881Y602744D01*
X656652Y603637D01*
X655577Y604712D01*
X654684Y605941D01*
X653994Y607295D01*
X653616Y608461D01*
X660401Y608461D01*
X660401Y601676D01*
X659235Y602054D01*
G37*
%LPD*%
%LPC*%
G36*
X1211960Y156463D02*
X1211960Y156463D01*
X1211960Y162840D01*
X1212283Y162776D01*
X1213910Y162102D01*
X1215375Y161123D01*
X1216620Y159878D01*
X1217599Y158413D01*
X1218273Y156786D01*
X1218337Y156463D01*
X1211960Y156463D01*
G37*
%LPD*%
%LPC*%
G36*
X1201013Y156463D02*
X1201013Y156463D01*
X1201077Y156786D01*
X1201751Y158413D01*
X1202730Y159878D01*
X1203975Y161123D01*
X1205440Y162102D01*
X1207067Y162776D01*
X1207390Y162840D01*
X1207390Y156463D01*
X1201013Y156463D01*
G37*
%LPD*%
%LPC*%
G36*
X1211960Y151893D02*
X1211960Y151893D01*
X1218337Y151893D01*
X1218273Y151570D01*
X1217599Y149943D01*
X1216620Y148478D01*
X1215375Y147233D01*
X1213910Y146254D01*
X1212283Y145580D01*
X1211960Y145516D01*
X1211960Y151893D01*
G37*
%LPD*%
%LPC*%
G36*
X1207067Y145580D02*
X1207067Y145580D01*
X1205440Y146254D01*
X1203975Y147233D01*
X1202730Y148478D01*
X1201751Y149943D01*
X1201077Y151570D01*
X1201013Y151893D01*
X1207390Y151893D01*
X1207390Y145516D01*
X1207067Y145580D01*
G37*
%LPD*%
%LPC*%
G36*
X91122Y141922D02*
X91122Y141922D01*
X91122Y148193D01*
X91456Y148127D01*
X93051Y147466D01*
X94487Y146507D01*
X95707Y145287D01*
X96666Y143851D01*
X97327Y142256D01*
X97393Y141922D01*
X91122Y141922D01*
G37*
%LPD*%
%LPC*%
G36*
X1243422Y486122D02*
X1243422Y486122D01*
X1243422Y492393D01*
X1243756Y492327D01*
X1245351Y491666D01*
X1246787Y490707D01*
X1248007Y489487D01*
X1248966Y488051D01*
X1249627Y486456D01*
X1249693Y486122D01*
X1243422Y486122D01*
G37*
%LPD*%
%LPC*%
G36*
X1243422Y232122D02*
X1243422Y232122D01*
X1243422Y238393D01*
X1243756Y238327D01*
X1245351Y237666D01*
X1246787Y236707D01*
X1248007Y235487D01*
X1248966Y234051D01*
X1249627Y232456D01*
X1249693Y232122D01*
X1243422Y232122D01*
G37*
%LPD*%
%LPC*%
G36*
X1243422Y257522D02*
X1243422Y257522D01*
X1243422Y263793D01*
X1243756Y263727D01*
X1245351Y263066D01*
X1246787Y262107D01*
X1248007Y260887D01*
X1248966Y259451D01*
X1249627Y257856D01*
X1249693Y257522D01*
X1243422Y257522D01*
G37*
%LPD*%
%LPC*%
G36*
X1167222Y257522D02*
X1167222Y257522D01*
X1167222Y263793D01*
X1167556Y263727D01*
X1169151Y263066D01*
X1170587Y262107D01*
X1171807Y260887D01*
X1172766Y259451D01*
X1173427Y257856D01*
X1173493Y257522D01*
X1167222Y257522D01*
G37*
%LPD*%
%LPC*%
G36*
X1167222Y486122D02*
X1167222Y486122D01*
X1167222Y492393D01*
X1167556Y492327D01*
X1169151Y491666D01*
X1170587Y490707D01*
X1171807Y489487D01*
X1172766Y488051D01*
X1173427Y486456D01*
X1173493Y486122D01*
X1167222Y486122D01*
G37*
%LPD*%
%LPC*%
G36*
X1450022Y129222D02*
X1450022Y129222D01*
X1450022Y135493D01*
X1450356Y135427D01*
X1451951Y134766D01*
X1453387Y133807D01*
X1454607Y132587D01*
X1455566Y131151D01*
X1456227Y129556D01*
X1456293Y129222D01*
X1450022Y129222D01*
G37*
%LPD*%
%LPC*%
G36*
X1243422Y253078D02*
X1243422Y253078D01*
X1249693Y253078D01*
X1249627Y252744D01*
X1248966Y251149D01*
X1248007Y249713D01*
X1246787Y248493D01*
X1245351Y247534D01*
X1243756Y246873D01*
X1243422Y246807D01*
X1243422Y253078D01*
G37*
%LPD*%
%LPC*%
G36*
X1232707Y257522D02*
X1232707Y257522D01*
X1232773Y257856D01*
X1233434Y259451D01*
X1234393Y260887D01*
X1235613Y262107D01*
X1237049Y263066D01*
X1238644Y263727D01*
X1238978Y263793D01*
X1238978Y257522D01*
X1232707Y257522D01*
G37*
%LPD*%
%LPC*%
G36*
X1167222Y253078D02*
X1167222Y253078D01*
X1173493Y253078D01*
X1173427Y252744D01*
X1172766Y251149D01*
X1171807Y249713D01*
X1170587Y248493D01*
X1169151Y247534D01*
X1167556Y246873D01*
X1167222Y246807D01*
X1167222Y253078D01*
G37*
%LPD*%
%LPC*%
G36*
X1232707Y486122D02*
X1232707Y486122D01*
X1232773Y486456D01*
X1233434Y488051D01*
X1234393Y489487D01*
X1235613Y490707D01*
X1237049Y491666D01*
X1238644Y492327D01*
X1238978Y492393D01*
X1238978Y486122D01*
X1232707Y486122D01*
G37*
%LPD*%
%LPC*%
G36*
X1156507Y257522D02*
X1156507Y257522D01*
X1156573Y257856D01*
X1157234Y259451D01*
X1158193Y260887D01*
X1159413Y262107D01*
X1160849Y263066D01*
X1162444Y263727D01*
X1162778Y263793D01*
X1162778Y257522D01*
X1156507Y257522D01*
G37*
%LPD*%
%LPC*%
G36*
X1243422Y481678D02*
X1243422Y481678D01*
X1249693Y481678D01*
X1249627Y481344D01*
X1248966Y479749D01*
X1248007Y478313D01*
X1246787Y477093D01*
X1245351Y476134D01*
X1243756Y475473D01*
X1243422Y475407D01*
X1243422Y481678D01*
G37*
%LPD*%
%LPC*%
G36*
X91122Y137478D02*
X91122Y137478D01*
X97393Y137478D01*
X97327Y137144D01*
X96666Y135549D01*
X95707Y134113D01*
X94487Y132893D01*
X93051Y131934D01*
X91456Y131273D01*
X91122Y131207D01*
X91122Y137478D01*
G37*
%LPD*%
%LPC*%
G36*
X1167222Y481678D02*
X1167222Y481678D01*
X1173493Y481678D01*
X1173427Y481344D01*
X1172766Y479749D01*
X1171807Y478313D01*
X1170587Y477093D01*
X1169151Y476134D01*
X1167556Y475473D01*
X1167222Y475407D01*
X1167222Y481678D01*
G37*
%LPD*%
%LPC*%
G36*
X1439307Y129222D02*
X1439307Y129222D01*
X1439373Y129556D01*
X1440034Y131151D01*
X1440993Y132587D01*
X1442213Y133807D01*
X1443649Y134766D01*
X1445244Y135427D01*
X1445578Y135493D01*
X1445578Y129222D01*
X1439307Y129222D01*
G37*
%LPD*%
%LPC*%
G36*
X1450022Y124778D02*
X1450022Y124778D01*
X1456293Y124778D01*
X1456227Y124444D01*
X1455566Y122849D01*
X1454607Y121413D01*
X1453387Y120193D01*
X1451951Y119234D01*
X1450356Y118573D01*
X1450022Y118507D01*
X1450022Y124778D01*
G37*
%LPD*%
%LPC*%
G36*
X80407Y141922D02*
X80407Y141922D01*
X80473Y142256D01*
X81134Y143851D01*
X82093Y145287D01*
X83313Y146507D01*
X84749Y147466D01*
X86344Y148127D01*
X86678Y148193D01*
X86678Y141922D01*
X80407Y141922D01*
G37*
%LPD*%
%LPC*%
G36*
X1243422Y227678D02*
X1243422Y227678D01*
X1249693Y227678D01*
X1249627Y227344D01*
X1248966Y225749D01*
X1248007Y224313D01*
X1246787Y223093D01*
X1245351Y222134D01*
X1243756Y221473D01*
X1243422Y221407D01*
X1243422Y227678D01*
G37*
%LPD*%
%LPC*%
G36*
X1232707Y232122D02*
X1232707Y232122D01*
X1232773Y232456D01*
X1233434Y234051D01*
X1234393Y235487D01*
X1235613Y236707D01*
X1237049Y237666D01*
X1238644Y238327D01*
X1238978Y238393D01*
X1238978Y232122D01*
X1232707Y232122D01*
G37*
%LPD*%
%LPC*%
G36*
X1156507Y486122D02*
X1156507Y486122D01*
X1156573Y486456D01*
X1157234Y488051D01*
X1158193Y489487D01*
X1159413Y490707D01*
X1160849Y491666D01*
X1162444Y492327D01*
X1162778Y492393D01*
X1162778Y486122D01*
X1156507Y486122D01*
G37*
%LPD*%
%LPC*%
G36*
X1238644Y221473D02*
X1238644Y221473D01*
X1237049Y222134D01*
X1235613Y223093D01*
X1234393Y224313D01*
X1233434Y225749D01*
X1232773Y227344D01*
X1232707Y227678D01*
X1238978Y227678D01*
X1238978Y221407D01*
X1238644Y221473D01*
G37*
%LPD*%
%LPC*%
G36*
X1445244Y118573D02*
X1445244Y118573D01*
X1443649Y119234D01*
X1442213Y120193D01*
X1440993Y121413D01*
X1440034Y122849D01*
X1439373Y124444D01*
X1439307Y124778D01*
X1445578Y124778D01*
X1445578Y118507D01*
X1445244Y118573D01*
G37*
%LPD*%
%LPC*%
G36*
X1162444Y246873D02*
X1162444Y246873D01*
X1160849Y247534D01*
X1159413Y248493D01*
X1158193Y249713D01*
X1157234Y251149D01*
X1156573Y252744D01*
X1156507Y253078D01*
X1162778Y253078D01*
X1162778Y246807D01*
X1162444Y246873D01*
G37*
%LPD*%
%LPC*%
G36*
X1162444Y475473D02*
X1162444Y475473D01*
X1160849Y476134D01*
X1159413Y477093D01*
X1158193Y478313D01*
X1157234Y479749D01*
X1156573Y481344D01*
X1156507Y481678D01*
X1162778Y481678D01*
X1162778Y475407D01*
X1162444Y475473D01*
G37*
%LPD*%
%LPC*%
G36*
X1238644Y475473D02*
X1238644Y475473D01*
X1237049Y476134D01*
X1235613Y477093D01*
X1234393Y478313D01*
X1233434Y479749D01*
X1232773Y481344D01*
X1232707Y481678D01*
X1238978Y481678D01*
X1238978Y475407D01*
X1238644Y475473D01*
G37*
%LPD*%
%LPC*%
G36*
X86344Y131273D02*
X86344Y131273D01*
X84749Y131934D01*
X83313Y132893D01*
X82093Y134113D01*
X81134Y135549D01*
X80473Y137144D01*
X80407Y137478D01*
X86678Y137478D01*
X86678Y131207D01*
X86344Y131273D01*
G37*
%LPD*%
%LPC*%
G36*
X1238644Y246873D02*
X1238644Y246873D01*
X1237049Y247534D01*
X1235613Y248493D01*
X1234393Y249713D01*
X1233434Y251149D01*
X1232773Y252744D01*
X1232707Y253078D01*
X1238978Y253078D01*
X1238978Y246807D01*
X1238644Y246873D01*
G37*
%LPD*%
%LPC*%
G36*
X1434099Y559199D02*
X1434099Y559199D01*
X1434099Y559201D01*
X1434101Y559201D01*
X1434101Y559199D01*
X1434099Y559199D01*
G37*
%LPD*%
%LPC*%
G36*
X662939Y610999D02*
X662939Y610999D01*
X662939Y611001D01*
X662941Y611001D01*
X662941Y610999D01*
X662939Y610999D01*
G37*
%LPD*%
%LPC*%
G36*
X1309099Y355999D02*
X1309099Y355999D01*
X1309099Y356001D01*
X1309101Y356001D01*
X1309101Y355999D01*
X1309099Y355999D01*
G37*
%LPD*%
%LPC*%
G36*
X445499Y152799D02*
X445499Y152799D01*
X445499Y152801D01*
X445501Y152801D01*
X445501Y152799D01*
X445499Y152799D01*
G37*
%LPD*%
%LPC*%
G36*
X1309099Y559199D02*
X1309099Y559199D01*
X1309099Y559201D01*
X1309101Y559201D01*
X1309101Y559199D01*
X1309099Y559199D01*
G37*
%LPD*%
%LPC*%
G36*
X570499Y152799D02*
X570499Y152799D01*
X570499Y152801D01*
X570501Y152801D01*
X570501Y152799D01*
X570499Y152799D01*
G37*
%LPD*%
%LPC*%
G36*
X849899Y152799D02*
X849899Y152799D01*
X849899Y152801D01*
X849901Y152801D01*
X849901Y152799D01*
X849899Y152799D01*
G37*
%LPD*%
%LPC*%
G36*
X724899Y152799D02*
X724899Y152799D01*
X724899Y152801D01*
X724901Y152801D01*
X724901Y152799D01*
X724899Y152799D01*
G37*
%LPD*%
%LPC*%
G36*
X1434099Y355999D02*
X1434099Y355999D01*
X1434099Y356001D01*
X1434101Y356001D01*
X1434101Y355999D01*
X1434099Y355999D01*
G37*
%LPD*%
D10*
X612700Y611700D03*
X637540Y611000D03*
X662940Y611000D03*
X688340Y611000D03*
D11*
X1419000Y229900D03*
X1419000Y255300D03*
X1393600Y229900D03*
X1393600Y255300D03*
X1368200Y229900D03*
X1368200Y255300D03*
X1342800Y229900D03*
X1342800Y255300D03*
X1317400Y229900D03*
X1317400Y255300D03*
X1292000Y229900D03*
X1292000Y255300D03*
X1266600Y229900D03*
X1266600Y255300D03*
X1241200Y229900D03*
X1241200Y255300D03*
X1215800Y229900D03*
X1215800Y255300D03*
X1190400Y229900D03*
X1190400Y255300D03*
X1165000Y229900D03*
X1165000Y255300D03*
X1139600Y229900D03*
X1139600Y255300D03*
X1114200Y229900D03*
X1114200Y255300D03*
X1088800Y229900D03*
X1088800Y255300D03*
X1063400Y229900D03*
X1063400Y255300D03*
X1038000Y229900D03*
X1038000Y255300D03*
X1012600Y229900D03*
X1012600Y255300D03*
X987200Y229900D03*
X987200Y255300D03*
X1419000Y483900D03*
X1419000Y509300D03*
X1393600Y483900D03*
X1393600Y509300D03*
X1368200Y483900D03*
X1368200Y509300D03*
X1342800Y483900D03*
X1342800Y509300D03*
X1317400Y483900D03*
X1317400Y509300D03*
X1292000Y483900D03*
X1292000Y509300D03*
X1266600Y483900D03*
X1266600Y509300D03*
X1241200Y483900D03*
X1241200Y509300D03*
X1215800Y483900D03*
X1215800Y509300D03*
X1190400Y483900D03*
X1190400Y509300D03*
X1165000Y483900D03*
X1165000Y509300D03*
X1139600Y483900D03*
X1139600Y509300D03*
X1114200Y483900D03*
X1114200Y509300D03*
X1088800Y483900D03*
X1088800Y509300D03*
X1063400Y483900D03*
X1063400Y509300D03*
X1038000Y483900D03*
X1038000Y509300D03*
X1012600Y483900D03*
X1012600Y509300D03*
X987200Y483900D03*
X987200Y509300D03*
D12*
X849900Y202800D03*
X849900Y152800D03*
X724900Y152800D03*
X724900Y202800D03*
X570500Y202800D03*
X570500Y152800D03*
X445500Y152800D03*
X445500Y202800D03*
X1434100Y609200D03*
X1434100Y559200D03*
X1309100Y559200D03*
X1309100Y609200D03*
X1434100Y406000D03*
X1434100Y356000D03*
X1309100Y356000D03*
X1309100Y406000D03*
D11*
X1397000Y127000D03*
X1422400Y127000D03*
X1447800Y127000D03*
X38100Y139700D03*
X63500Y139700D03*
X88900Y139700D03*
D13*
X1279525Y154178D03*
X1254633Y154178D03*
X1234567Y154178D03*
X1209675Y154178D03*
D14*
X1178941Y127000D03*
X1310259Y127000D03*
D15*
X38100Y38100D03*
X1460500Y38100D03*
X38100Y647700D03*
X1460500Y647700D03*
D16*
X571500Y558800D03*
X647700Y546100D03*
X660400Y50800D03*
X889000Y50800D03*
X1473200Y457200D03*
X1473200Y584200D03*
M02*
