G04 EAGLE Gerber RS-274X export*
G75*
%MOMM*%
%FSLAX34Y34*%
%LPD*%
%INSilkscreen Top*%
%IPPOS*%
%AMOC8*
5,1,8,0,0,1.08239X$1,22.5*%
G01*
%ADD10C,0.279400*%
%ADD11C,0.508000*%
%ADD12C,0.076200*%
%ADD13C,0.152400*%
%ADD14C,0.254000*%
%ADD15C,0.101600*%
%ADD16C,0.127000*%


D10*
X128397Y204597D02*
X128397Y224663D01*
X133971Y224663D01*
X134119Y224661D01*
X134268Y224655D01*
X134416Y224645D01*
X134563Y224631D01*
X134711Y224614D01*
X134858Y224592D01*
X135004Y224566D01*
X135149Y224537D01*
X135294Y224504D01*
X135438Y224467D01*
X135580Y224426D01*
X135722Y224381D01*
X135862Y224332D01*
X136001Y224280D01*
X136138Y224224D01*
X136274Y224165D01*
X136409Y224102D01*
X136541Y224035D01*
X136672Y223965D01*
X136801Y223891D01*
X136928Y223814D01*
X137052Y223734D01*
X137175Y223650D01*
X137295Y223563D01*
X137413Y223473D01*
X137529Y223380D01*
X137642Y223284D01*
X137752Y223185D01*
X137860Y223083D01*
X137965Y222978D01*
X138067Y222870D01*
X138166Y222760D01*
X138262Y222647D01*
X138355Y222531D01*
X138445Y222413D01*
X138532Y222293D01*
X138616Y222170D01*
X138696Y222046D01*
X138773Y221919D01*
X138847Y221790D01*
X138917Y221659D01*
X138984Y221527D01*
X139047Y221392D01*
X139106Y221256D01*
X139162Y221119D01*
X139214Y220980D01*
X139263Y220840D01*
X139308Y220698D01*
X139349Y220556D01*
X139386Y220412D01*
X139419Y220267D01*
X139448Y220122D01*
X139474Y219976D01*
X139496Y219829D01*
X139513Y219681D01*
X139527Y219534D01*
X139537Y219386D01*
X139543Y219237D01*
X139545Y219089D01*
X139543Y218941D01*
X139537Y218792D01*
X139527Y218644D01*
X139513Y218497D01*
X139496Y218349D01*
X139474Y218202D01*
X139448Y218056D01*
X139419Y217911D01*
X139386Y217766D01*
X139349Y217622D01*
X139308Y217480D01*
X139263Y217338D01*
X139214Y217198D01*
X139162Y217059D01*
X139106Y216922D01*
X139047Y216786D01*
X138984Y216651D01*
X138917Y216519D01*
X138847Y216388D01*
X138773Y216259D01*
X138696Y216132D01*
X138616Y216008D01*
X138532Y215885D01*
X138445Y215765D01*
X138355Y215647D01*
X138262Y215531D01*
X138166Y215418D01*
X138067Y215308D01*
X137965Y215200D01*
X137860Y215095D01*
X137752Y214993D01*
X137642Y214894D01*
X137529Y214798D01*
X137413Y214705D01*
X137295Y214615D01*
X137175Y214528D01*
X137052Y214444D01*
X136928Y214364D01*
X136801Y214287D01*
X136672Y214213D01*
X136541Y214143D01*
X136409Y214076D01*
X136274Y214013D01*
X136138Y213954D01*
X136001Y213898D01*
X135862Y213846D01*
X135722Y213797D01*
X135580Y213752D01*
X135438Y213711D01*
X135294Y213674D01*
X135149Y213641D01*
X135004Y213612D01*
X134858Y213586D01*
X134711Y213564D01*
X134563Y213547D01*
X134416Y213533D01*
X134268Y213523D01*
X134119Y213517D01*
X133971Y213515D01*
X128397Y213515D01*
X147197Y217974D02*
X147197Y207941D01*
X147199Y207827D01*
X147205Y207713D01*
X147215Y207599D01*
X147228Y207486D01*
X147246Y207373D01*
X147267Y207261D01*
X147292Y207149D01*
X147321Y207039D01*
X147354Y206929D01*
X147390Y206821D01*
X147430Y206714D01*
X147474Y206609D01*
X147521Y206505D01*
X147572Y206403D01*
X147626Y206302D01*
X147684Y206204D01*
X147745Y206107D01*
X147809Y206013D01*
X147876Y205920D01*
X147947Y205831D01*
X148021Y205743D01*
X148097Y205659D01*
X148176Y205576D01*
X148259Y205497D01*
X148343Y205421D01*
X148431Y205347D01*
X148520Y205276D01*
X148613Y205209D01*
X148707Y205145D01*
X148804Y205084D01*
X148902Y205026D01*
X149003Y204972D01*
X149105Y204921D01*
X149209Y204874D01*
X149314Y204830D01*
X149421Y204790D01*
X149529Y204754D01*
X149639Y204721D01*
X149749Y204692D01*
X149861Y204667D01*
X149973Y204646D01*
X150086Y204628D01*
X150199Y204615D01*
X150313Y204605D01*
X150427Y204599D01*
X150541Y204597D01*
X156115Y204597D01*
X156115Y217974D01*
X162906Y217974D02*
X169595Y217974D01*
X165135Y224663D02*
X165135Y207941D01*
X165136Y207941D02*
X165138Y207827D01*
X165144Y207713D01*
X165154Y207599D01*
X165167Y207486D01*
X165185Y207373D01*
X165206Y207261D01*
X165231Y207149D01*
X165260Y207039D01*
X165293Y206929D01*
X165329Y206821D01*
X165369Y206714D01*
X165413Y206609D01*
X165460Y206505D01*
X165511Y206403D01*
X165565Y206302D01*
X165623Y206204D01*
X165684Y206107D01*
X165748Y206013D01*
X165815Y205920D01*
X165886Y205831D01*
X165960Y205743D01*
X166036Y205659D01*
X166115Y205576D01*
X166198Y205497D01*
X166282Y205421D01*
X166370Y205347D01*
X166459Y205276D01*
X166552Y205209D01*
X166646Y205145D01*
X166743Y205084D01*
X166841Y205026D01*
X166942Y204972D01*
X167044Y204921D01*
X167148Y204874D01*
X167253Y204830D01*
X167360Y204790D01*
X167468Y204754D01*
X167578Y204721D01*
X167688Y204692D01*
X167800Y204667D01*
X167912Y204646D01*
X168025Y204628D01*
X168138Y204615D01*
X168252Y204605D01*
X168366Y204599D01*
X168480Y204597D01*
X169595Y204597D01*
X175083Y217974D02*
X181771Y217974D01*
X177312Y224663D02*
X177312Y207941D01*
X177314Y207827D01*
X177320Y207713D01*
X177330Y207599D01*
X177343Y207486D01*
X177361Y207373D01*
X177382Y207261D01*
X177407Y207149D01*
X177436Y207039D01*
X177469Y206929D01*
X177505Y206821D01*
X177545Y206714D01*
X177589Y206609D01*
X177636Y206505D01*
X177687Y206403D01*
X177741Y206302D01*
X177799Y206204D01*
X177860Y206107D01*
X177924Y206013D01*
X177991Y205920D01*
X178062Y205831D01*
X178136Y205743D01*
X178212Y205659D01*
X178291Y205576D01*
X178374Y205497D01*
X178458Y205421D01*
X178546Y205347D01*
X178635Y205276D01*
X178728Y205209D01*
X178822Y205145D01*
X178919Y205084D01*
X179017Y205026D01*
X179118Y204972D01*
X179220Y204921D01*
X179324Y204874D01*
X179429Y204830D01*
X179536Y204790D01*
X179644Y204754D01*
X179754Y204721D01*
X179864Y204692D01*
X179976Y204667D01*
X180088Y204646D01*
X180201Y204628D01*
X180314Y204615D01*
X180428Y204605D01*
X180542Y204599D01*
X180656Y204597D01*
X181771Y204597D01*
X205323Y204597D02*
X205455Y204599D01*
X205587Y204605D01*
X205719Y204615D01*
X205850Y204628D01*
X205981Y204646D01*
X206112Y204667D01*
X206241Y204693D01*
X206370Y204722D01*
X206498Y204755D01*
X206625Y204791D01*
X206751Y204832D01*
X206876Y204876D01*
X206999Y204924D01*
X207121Y204975D01*
X207241Y205030D01*
X207359Y205089D01*
X207476Y205151D01*
X207591Y205217D01*
X207703Y205285D01*
X207814Y205358D01*
X207923Y205433D01*
X208029Y205512D01*
X208133Y205593D01*
X208234Y205678D01*
X208333Y205766D01*
X208429Y205857D01*
X208522Y205950D01*
X208613Y206046D01*
X208701Y206145D01*
X208786Y206246D01*
X208867Y206350D01*
X208946Y206457D01*
X209021Y206565D01*
X209094Y206676D01*
X209162Y206788D01*
X209228Y206903D01*
X209290Y207020D01*
X209349Y207138D01*
X209404Y207258D01*
X209455Y207380D01*
X209503Y207503D01*
X209547Y207628D01*
X209588Y207754D01*
X209624Y207881D01*
X209657Y208009D01*
X209686Y208138D01*
X209712Y208267D01*
X209733Y208398D01*
X209751Y208529D01*
X209764Y208660D01*
X209774Y208792D01*
X209780Y208924D01*
X209782Y209056D01*
X205323Y204597D02*
X205098Y204600D01*
X204872Y204608D01*
X204647Y204621D01*
X204423Y204640D01*
X204199Y204664D01*
X203975Y204694D01*
X203753Y204729D01*
X203531Y204769D01*
X203310Y204815D01*
X203091Y204865D01*
X202872Y204921D01*
X202655Y204983D01*
X202440Y205049D01*
X202226Y205121D01*
X202014Y205197D01*
X201804Y205279D01*
X201596Y205366D01*
X201390Y205457D01*
X201187Y205554D01*
X200985Y205655D01*
X200786Y205761D01*
X200590Y205872D01*
X200397Y205988D01*
X200206Y206108D01*
X200018Y206233D01*
X199834Y206362D01*
X199652Y206495D01*
X199474Y206633D01*
X199299Y206775D01*
X199127Y206921D01*
X198959Y207072D01*
X198795Y207226D01*
X198634Y207384D01*
X199192Y220204D02*
X199194Y220336D01*
X199200Y220468D01*
X199210Y220600D01*
X199223Y220731D01*
X199241Y220862D01*
X199262Y220993D01*
X199288Y221122D01*
X199317Y221251D01*
X199350Y221379D01*
X199386Y221506D01*
X199427Y221632D01*
X199471Y221757D01*
X199519Y221880D01*
X199570Y222002D01*
X199625Y222122D01*
X199684Y222240D01*
X199746Y222357D01*
X199812Y222472D01*
X199880Y222584D01*
X199953Y222695D01*
X200028Y222804D01*
X200107Y222910D01*
X200188Y223014D01*
X200273Y223115D01*
X200361Y223214D01*
X200452Y223310D01*
X200545Y223403D01*
X200641Y223494D01*
X200740Y223582D01*
X200841Y223667D01*
X200945Y223748D01*
X201051Y223827D01*
X201160Y223902D01*
X201271Y223975D01*
X201383Y224043D01*
X201498Y224109D01*
X201615Y224171D01*
X201733Y224230D01*
X201853Y224285D01*
X201975Y224336D01*
X202098Y224384D01*
X202223Y224428D01*
X202349Y224469D01*
X202476Y224505D01*
X202604Y224538D01*
X202733Y224567D01*
X202862Y224593D01*
X202993Y224614D01*
X203124Y224632D01*
X203255Y224645D01*
X203387Y224655D01*
X203519Y224661D01*
X203651Y224663D01*
X203850Y224661D01*
X204049Y224654D01*
X204248Y224642D01*
X204447Y224625D01*
X204645Y224604D01*
X204843Y224578D01*
X205039Y224547D01*
X205236Y224511D01*
X205431Y224471D01*
X205625Y224427D01*
X205818Y224377D01*
X206010Y224323D01*
X206200Y224265D01*
X206389Y224202D01*
X206577Y224134D01*
X206763Y224062D01*
X206947Y223986D01*
X207129Y223905D01*
X207309Y223820D01*
X207487Y223731D01*
X207663Y223637D01*
X207837Y223540D01*
X208008Y223438D01*
X208177Y223332D01*
X208343Y223222D01*
X208507Y223108D01*
X208668Y222991D01*
X201421Y216302D02*
X201309Y216370D01*
X201200Y216441D01*
X201092Y216515D01*
X200987Y216593D01*
X200884Y216673D01*
X200783Y216756D01*
X200685Y216842D01*
X200589Y216931D01*
X200496Y217023D01*
X200406Y217117D01*
X200318Y217214D01*
X200233Y217313D01*
X200151Y217415D01*
X200073Y217519D01*
X199997Y217626D01*
X199924Y217734D01*
X199854Y217845D01*
X199788Y217957D01*
X199725Y218071D01*
X199665Y218187D01*
X199608Y218305D01*
X199555Y218425D01*
X199506Y218545D01*
X199460Y218668D01*
X199417Y218791D01*
X199378Y218916D01*
X199343Y219042D01*
X199311Y219168D01*
X199283Y219296D01*
X199259Y219424D01*
X199238Y219553D01*
X199221Y219683D01*
X199208Y219813D01*
X199199Y219943D01*
X199193Y220073D01*
X199191Y220204D01*
X207552Y212958D02*
X207664Y212890D01*
X207773Y212819D01*
X207881Y212745D01*
X207986Y212667D01*
X208089Y212587D01*
X208190Y212504D01*
X208288Y212418D01*
X208384Y212329D01*
X208477Y212237D01*
X208567Y212143D01*
X208655Y212046D01*
X208740Y211947D01*
X208822Y211845D01*
X208900Y211741D01*
X208976Y211634D01*
X209049Y211526D01*
X209119Y211415D01*
X209185Y211303D01*
X209248Y211189D01*
X209308Y211073D01*
X209365Y210955D01*
X209418Y210835D01*
X209467Y210715D01*
X209513Y210592D01*
X209556Y210469D01*
X209595Y210344D01*
X209630Y210218D01*
X209662Y210092D01*
X209690Y209964D01*
X209714Y209836D01*
X209735Y209707D01*
X209752Y209577D01*
X209765Y209447D01*
X209774Y209317D01*
X209780Y209187D01*
X209782Y209056D01*
X207552Y212958D02*
X201421Y216302D01*
X217783Y217974D02*
X217783Y197908D01*
X217783Y217974D02*
X223357Y217974D01*
X223471Y217972D01*
X223585Y217966D01*
X223699Y217956D01*
X223812Y217943D01*
X223925Y217925D01*
X224037Y217904D01*
X224149Y217879D01*
X224259Y217850D01*
X224369Y217817D01*
X224477Y217781D01*
X224584Y217741D01*
X224689Y217697D01*
X224793Y217650D01*
X224895Y217599D01*
X224996Y217545D01*
X225094Y217487D01*
X225191Y217426D01*
X225285Y217362D01*
X225378Y217295D01*
X225467Y217224D01*
X225555Y217150D01*
X225639Y217074D01*
X225722Y216995D01*
X225801Y216912D01*
X225877Y216828D01*
X225951Y216740D01*
X226022Y216651D01*
X226089Y216558D01*
X226153Y216464D01*
X226214Y216368D01*
X226272Y216269D01*
X226326Y216168D01*
X226377Y216066D01*
X226424Y215962D01*
X226468Y215857D01*
X226508Y215750D01*
X226544Y215642D01*
X226577Y215532D01*
X226606Y215422D01*
X226631Y215310D01*
X226652Y215198D01*
X226670Y215085D01*
X226683Y214972D01*
X226693Y214858D01*
X226699Y214744D01*
X226701Y214630D01*
X226701Y207941D01*
X226699Y207827D01*
X226693Y207713D01*
X226683Y207599D01*
X226670Y207486D01*
X226652Y207373D01*
X226631Y207261D01*
X226606Y207149D01*
X226577Y207039D01*
X226544Y206929D01*
X226508Y206821D01*
X226468Y206714D01*
X226424Y206609D01*
X226377Y206505D01*
X226326Y206403D01*
X226272Y206302D01*
X226214Y206204D01*
X226153Y206107D01*
X226089Y206013D01*
X226022Y205920D01*
X225951Y205831D01*
X225877Y205743D01*
X225801Y205659D01*
X225722Y205576D01*
X225639Y205497D01*
X225555Y205421D01*
X225467Y205347D01*
X225378Y205276D01*
X225285Y205209D01*
X225191Y205145D01*
X225094Y205084D01*
X224996Y205026D01*
X224895Y204972D01*
X224793Y204921D01*
X224689Y204874D01*
X224584Y204830D01*
X224477Y204790D01*
X224369Y204754D01*
X224259Y204721D01*
X224149Y204692D01*
X224037Y204667D01*
X223925Y204646D01*
X223812Y204628D01*
X223699Y204615D01*
X223585Y204605D01*
X223471Y204599D01*
X223357Y204597D01*
X217783Y204597D01*
X237701Y204597D02*
X243274Y204597D01*
X237701Y204597D02*
X237587Y204599D01*
X237473Y204605D01*
X237359Y204615D01*
X237246Y204628D01*
X237133Y204646D01*
X237021Y204667D01*
X236909Y204692D01*
X236799Y204721D01*
X236689Y204754D01*
X236581Y204790D01*
X236474Y204830D01*
X236369Y204874D01*
X236265Y204921D01*
X236163Y204972D01*
X236062Y205026D01*
X235964Y205084D01*
X235867Y205145D01*
X235773Y205209D01*
X235680Y205276D01*
X235591Y205347D01*
X235503Y205421D01*
X235419Y205497D01*
X235336Y205576D01*
X235257Y205659D01*
X235181Y205743D01*
X235107Y205831D01*
X235036Y205920D01*
X234969Y206013D01*
X234905Y206107D01*
X234844Y206204D01*
X234786Y206302D01*
X234732Y206403D01*
X234681Y206505D01*
X234634Y206609D01*
X234590Y206714D01*
X234550Y206821D01*
X234514Y206929D01*
X234481Y207039D01*
X234452Y207149D01*
X234427Y207261D01*
X234406Y207373D01*
X234388Y207486D01*
X234375Y207599D01*
X234365Y207713D01*
X234359Y207827D01*
X234357Y207941D01*
X234356Y207941D02*
X234356Y213515D01*
X234358Y213647D01*
X234364Y213779D01*
X234374Y213911D01*
X234387Y214042D01*
X234405Y214173D01*
X234426Y214304D01*
X234452Y214433D01*
X234481Y214562D01*
X234514Y214690D01*
X234550Y214817D01*
X234591Y214943D01*
X234635Y215068D01*
X234683Y215191D01*
X234734Y215313D01*
X234789Y215433D01*
X234848Y215551D01*
X234910Y215668D01*
X234976Y215783D01*
X235044Y215895D01*
X235117Y216006D01*
X235192Y216115D01*
X235271Y216221D01*
X235352Y216325D01*
X235437Y216426D01*
X235525Y216525D01*
X235616Y216621D01*
X235709Y216714D01*
X235805Y216805D01*
X235904Y216893D01*
X236005Y216978D01*
X236109Y217059D01*
X236215Y217138D01*
X236324Y217213D01*
X236435Y217286D01*
X236547Y217354D01*
X236662Y217420D01*
X236779Y217482D01*
X236897Y217541D01*
X237017Y217596D01*
X237139Y217647D01*
X237262Y217695D01*
X237387Y217739D01*
X237513Y217780D01*
X237640Y217816D01*
X237768Y217849D01*
X237897Y217878D01*
X238026Y217904D01*
X238157Y217925D01*
X238288Y217943D01*
X238419Y217956D01*
X238551Y217966D01*
X238683Y217972D01*
X238815Y217974D01*
X238947Y217972D01*
X239079Y217966D01*
X239211Y217956D01*
X239342Y217943D01*
X239473Y217925D01*
X239604Y217904D01*
X239733Y217878D01*
X239862Y217849D01*
X239990Y217816D01*
X240117Y217780D01*
X240243Y217739D01*
X240368Y217695D01*
X240491Y217647D01*
X240613Y217596D01*
X240733Y217541D01*
X240851Y217482D01*
X240968Y217420D01*
X241083Y217354D01*
X241195Y217286D01*
X241306Y217213D01*
X241415Y217138D01*
X241521Y217059D01*
X241625Y216978D01*
X241726Y216893D01*
X241825Y216805D01*
X241921Y216714D01*
X242014Y216621D01*
X242105Y216525D01*
X242193Y216426D01*
X242278Y216325D01*
X242359Y216221D01*
X242438Y216115D01*
X242513Y216006D01*
X242586Y215895D01*
X242654Y215783D01*
X242720Y215668D01*
X242782Y215551D01*
X242841Y215433D01*
X242896Y215313D01*
X242947Y215191D01*
X242995Y215068D01*
X243039Y214943D01*
X243080Y214817D01*
X243116Y214690D01*
X243149Y214562D01*
X243178Y214433D01*
X243204Y214304D01*
X243225Y214173D01*
X243243Y214042D01*
X243256Y213911D01*
X243266Y213779D01*
X243272Y213647D01*
X243274Y213515D01*
X243274Y211286D01*
X234356Y211286D01*
X254363Y204597D02*
X259937Y204597D01*
X254363Y204597D02*
X254249Y204599D01*
X254135Y204605D01*
X254021Y204615D01*
X253908Y204628D01*
X253795Y204646D01*
X253683Y204667D01*
X253571Y204692D01*
X253461Y204721D01*
X253351Y204754D01*
X253243Y204790D01*
X253136Y204830D01*
X253031Y204874D01*
X252927Y204921D01*
X252825Y204972D01*
X252724Y205026D01*
X252626Y205084D01*
X252529Y205145D01*
X252435Y205209D01*
X252342Y205276D01*
X252253Y205347D01*
X252165Y205421D01*
X252081Y205497D01*
X251998Y205576D01*
X251919Y205659D01*
X251843Y205743D01*
X251769Y205831D01*
X251698Y205920D01*
X251631Y206013D01*
X251567Y206107D01*
X251506Y206204D01*
X251448Y206302D01*
X251394Y206403D01*
X251343Y206505D01*
X251296Y206609D01*
X251252Y206714D01*
X251212Y206821D01*
X251176Y206929D01*
X251143Y207039D01*
X251114Y207149D01*
X251089Y207261D01*
X251068Y207373D01*
X251050Y207486D01*
X251037Y207599D01*
X251027Y207713D01*
X251021Y207827D01*
X251019Y207941D01*
X251019Y213515D01*
X251021Y213647D01*
X251027Y213779D01*
X251037Y213911D01*
X251050Y214042D01*
X251068Y214173D01*
X251089Y214304D01*
X251115Y214433D01*
X251144Y214562D01*
X251177Y214690D01*
X251213Y214817D01*
X251254Y214943D01*
X251298Y215068D01*
X251346Y215191D01*
X251397Y215313D01*
X251452Y215433D01*
X251511Y215551D01*
X251573Y215668D01*
X251639Y215783D01*
X251707Y215895D01*
X251780Y216006D01*
X251855Y216115D01*
X251934Y216221D01*
X252015Y216325D01*
X252100Y216426D01*
X252188Y216525D01*
X252279Y216621D01*
X252372Y216714D01*
X252468Y216805D01*
X252567Y216893D01*
X252668Y216978D01*
X252772Y217059D01*
X252878Y217138D01*
X252987Y217213D01*
X253098Y217286D01*
X253210Y217354D01*
X253325Y217420D01*
X253442Y217482D01*
X253560Y217541D01*
X253680Y217596D01*
X253802Y217647D01*
X253925Y217695D01*
X254050Y217739D01*
X254176Y217780D01*
X254303Y217816D01*
X254431Y217849D01*
X254560Y217878D01*
X254689Y217904D01*
X254820Y217925D01*
X254951Y217943D01*
X255082Y217956D01*
X255214Y217966D01*
X255346Y217972D01*
X255478Y217974D01*
X255610Y217972D01*
X255742Y217966D01*
X255874Y217956D01*
X256005Y217943D01*
X256136Y217925D01*
X256267Y217904D01*
X256396Y217878D01*
X256525Y217849D01*
X256653Y217816D01*
X256780Y217780D01*
X256906Y217739D01*
X257031Y217695D01*
X257154Y217647D01*
X257276Y217596D01*
X257396Y217541D01*
X257514Y217482D01*
X257631Y217420D01*
X257746Y217354D01*
X257858Y217286D01*
X257969Y217213D01*
X258078Y217138D01*
X258184Y217059D01*
X258288Y216978D01*
X258389Y216893D01*
X258488Y216805D01*
X258584Y216714D01*
X258677Y216621D01*
X258768Y216525D01*
X258856Y216426D01*
X258941Y216325D01*
X259022Y216221D01*
X259101Y216115D01*
X259176Y216006D01*
X259249Y215895D01*
X259317Y215783D01*
X259383Y215668D01*
X259445Y215551D01*
X259504Y215433D01*
X259559Y215313D01*
X259610Y215191D01*
X259658Y215068D01*
X259702Y214943D01*
X259743Y214817D01*
X259779Y214690D01*
X259812Y214562D01*
X259841Y214433D01*
X259867Y214304D01*
X259888Y214173D01*
X259906Y214042D01*
X259919Y213911D01*
X259929Y213779D01*
X259935Y213647D01*
X259937Y213515D01*
X259937Y211286D01*
X251019Y211286D01*
X276510Y204597D02*
X276510Y224663D01*
X276510Y204597D02*
X270936Y204597D01*
X270822Y204599D01*
X270708Y204605D01*
X270594Y204615D01*
X270481Y204628D01*
X270368Y204646D01*
X270256Y204667D01*
X270144Y204692D01*
X270034Y204721D01*
X269924Y204754D01*
X269816Y204790D01*
X269709Y204830D01*
X269604Y204874D01*
X269500Y204921D01*
X269398Y204972D01*
X269297Y205026D01*
X269199Y205084D01*
X269102Y205145D01*
X269008Y205209D01*
X268915Y205276D01*
X268826Y205347D01*
X268738Y205421D01*
X268654Y205497D01*
X268571Y205576D01*
X268492Y205659D01*
X268416Y205743D01*
X268342Y205831D01*
X268271Y205920D01*
X268204Y206013D01*
X268140Y206107D01*
X268079Y206204D01*
X268021Y206302D01*
X267967Y206403D01*
X267916Y206505D01*
X267869Y206609D01*
X267825Y206714D01*
X267785Y206821D01*
X267749Y206929D01*
X267716Y207039D01*
X267687Y207149D01*
X267662Y207261D01*
X267641Y207373D01*
X267623Y207486D01*
X267610Y207599D01*
X267600Y207713D01*
X267594Y207827D01*
X267592Y207941D01*
X267592Y214630D01*
X267594Y214744D01*
X267600Y214858D01*
X267610Y214972D01*
X267623Y215085D01*
X267641Y215198D01*
X267662Y215310D01*
X267687Y215422D01*
X267716Y215532D01*
X267749Y215642D01*
X267785Y215750D01*
X267825Y215857D01*
X267869Y215962D01*
X267916Y216066D01*
X267967Y216168D01*
X268021Y216269D01*
X268079Y216367D01*
X268140Y216464D01*
X268204Y216558D01*
X268271Y216651D01*
X268342Y216740D01*
X268416Y216828D01*
X268492Y216912D01*
X268571Y216995D01*
X268654Y217074D01*
X268738Y217150D01*
X268826Y217224D01*
X268915Y217295D01*
X269008Y217362D01*
X269102Y217426D01*
X269199Y217487D01*
X269297Y217545D01*
X269398Y217599D01*
X269500Y217650D01*
X269604Y217697D01*
X269709Y217741D01*
X269816Y217781D01*
X269924Y217817D01*
X270034Y217850D01*
X270144Y217879D01*
X270256Y217904D01*
X270368Y217925D01*
X270481Y217943D01*
X270594Y217956D01*
X270708Y217966D01*
X270822Y217972D01*
X270936Y217974D01*
X276510Y217974D01*
X299699Y224663D02*
X299699Y204597D01*
X294125Y224663D02*
X305273Y224663D01*
X312653Y217974D02*
X312653Y204597D01*
X312653Y217974D02*
X319342Y217974D01*
X319342Y215745D01*
X329173Y212400D02*
X334189Y212400D01*
X329173Y212401D02*
X329049Y212399D01*
X328926Y212393D01*
X328802Y212383D01*
X328679Y212370D01*
X328556Y212352D01*
X328435Y212330D01*
X328313Y212305D01*
X328193Y212276D01*
X328074Y212243D01*
X327955Y212206D01*
X327838Y212166D01*
X327723Y212121D01*
X327609Y212074D01*
X327496Y212022D01*
X327385Y211967D01*
X327276Y211909D01*
X327169Y211847D01*
X327063Y211782D01*
X326960Y211713D01*
X326859Y211641D01*
X326761Y211566D01*
X326665Y211488D01*
X326571Y211407D01*
X326480Y211323D01*
X326392Y211236D01*
X326307Y211147D01*
X326224Y211054D01*
X326144Y210959D01*
X326068Y210862D01*
X325995Y210762D01*
X325924Y210660D01*
X325857Y210556D01*
X325794Y210450D01*
X325734Y210342D01*
X325677Y210232D01*
X325624Y210120D01*
X325574Y210007D01*
X325528Y209892D01*
X325486Y209775D01*
X325447Y209658D01*
X325412Y209539D01*
X325381Y209419D01*
X325354Y209298D01*
X325330Y209177D01*
X325311Y209054D01*
X325295Y208931D01*
X325283Y208808D01*
X325275Y208685D01*
X325271Y208561D01*
X325271Y208437D01*
X325275Y208313D01*
X325283Y208190D01*
X325295Y208067D01*
X325311Y207944D01*
X325330Y207821D01*
X325354Y207700D01*
X325381Y207579D01*
X325412Y207459D01*
X325447Y207340D01*
X325486Y207223D01*
X325528Y207106D01*
X325574Y206991D01*
X325624Y206878D01*
X325677Y206766D01*
X325734Y206656D01*
X325794Y206548D01*
X325857Y206442D01*
X325924Y206338D01*
X325995Y206236D01*
X326068Y206136D01*
X326144Y206039D01*
X326224Y205944D01*
X326307Y205851D01*
X326392Y205762D01*
X326480Y205675D01*
X326571Y205591D01*
X326665Y205510D01*
X326761Y205432D01*
X326859Y205357D01*
X326960Y205285D01*
X327063Y205216D01*
X327169Y205151D01*
X327276Y205089D01*
X327385Y205031D01*
X327496Y204976D01*
X327609Y204924D01*
X327723Y204877D01*
X327838Y204832D01*
X327955Y204792D01*
X328074Y204755D01*
X328193Y204722D01*
X328313Y204693D01*
X328435Y204668D01*
X328556Y204646D01*
X328679Y204628D01*
X328802Y204615D01*
X328926Y204605D01*
X329049Y204599D01*
X329173Y204597D01*
X334189Y204597D01*
X334189Y214630D01*
X334187Y214744D01*
X334181Y214858D01*
X334171Y214972D01*
X334158Y215085D01*
X334140Y215198D01*
X334119Y215310D01*
X334094Y215422D01*
X334065Y215532D01*
X334032Y215642D01*
X333996Y215750D01*
X333956Y215857D01*
X333912Y215962D01*
X333865Y216066D01*
X333814Y216168D01*
X333760Y216269D01*
X333702Y216367D01*
X333641Y216464D01*
X333577Y216558D01*
X333510Y216651D01*
X333439Y216740D01*
X333365Y216828D01*
X333289Y216912D01*
X333210Y216995D01*
X333127Y217074D01*
X333043Y217150D01*
X332955Y217224D01*
X332866Y217295D01*
X332773Y217362D01*
X332679Y217426D01*
X332582Y217487D01*
X332484Y217545D01*
X332383Y217599D01*
X332281Y217650D01*
X332177Y217697D01*
X332072Y217741D01*
X331965Y217781D01*
X331857Y217817D01*
X331747Y217850D01*
X331637Y217879D01*
X331525Y217904D01*
X331413Y217925D01*
X331300Y217943D01*
X331187Y217956D01*
X331073Y217966D01*
X330959Y217972D01*
X330845Y217974D01*
X326386Y217974D01*
X346033Y204597D02*
X350492Y204597D01*
X346033Y204597D02*
X345919Y204599D01*
X345805Y204605D01*
X345691Y204615D01*
X345578Y204628D01*
X345465Y204646D01*
X345353Y204667D01*
X345241Y204692D01*
X345131Y204721D01*
X345021Y204754D01*
X344913Y204790D01*
X344806Y204830D01*
X344701Y204874D01*
X344597Y204921D01*
X344495Y204972D01*
X344394Y205026D01*
X344296Y205084D01*
X344199Y205145D01*
X344105Y205209D01*
X344012Y205276D01*
X343923Y205347D01*
X343835Y205421D01*
X343751Y205497D01*
X343668Y205576D01*
X343589Y205659D01*
X343513Y205743D01*
X343439Y205831D01*
X343368Y205920D01*
X343301Y206013D01*
X343237Y206107D01*
X343176Y206204D01*
X343118Y206302D01*
X343064Y206403D01*
X343013Y206505D01*
X342966Y206609D01*
X342922Y206714D01*
X342882Y206821D01*
X342846Y206929D01*
X342813Y207039D01*
X342784Y207149D01*
X342759Y207261D01*
X342738Y207373D01*
X342720Y207486D01*
X342707Y207599D01*
X342697Y207713D01*
X342691Y207827D01*
X342689Y207941D01*
X342689Y214630D01*
X342691Y214744D01*
X342697Y214858D01*
X342707Y214972D01*
X342720Y215085D01*
X342738Y215198D01*
X342759Y215310D01*
X342784Y215422D01*
X342813Y215532D01*
X342846Y215642D01*
X342882Y215750D01*
X342922Y215857D01*
X342966Y215962D01*
X343013Y216066D01*
X343064Y216168D01*
X343118Y216269D01*
X343176Y216367D01*
X343237Y216464D01*
X343301Y216558D01*
X343368Y216651D01*
X343439Y216740D01*
X343513Y216828D01*
X343589Y216912D01*
X343668Y216995D01*
X343751Y217074D01*
X343835Y217150D01*
X343923Y217224D01*
X344012Y217295D01*
X344105Y217362D01*
X344199Y217426D01*
X344296Y217487D01*
X344394Y217545D01*
X344495Y217599D01*
X344597Y217650D01*
X344701Y217697D01*
X344806Y217741D01*
X344913Y217781D01*
X345021Y217817D01*
X345131Y217850D01*
X345241Y217879D01*
X345353Y217904D01*
X345465Y217925D01*
X345578Y217943D01*
X345691Y217956D01*
X345805Y217966D01*
X345919Y217972D01*
X346033Y217974D01*
X350492Y217974D01*
X358253Y224663D02*
X358253Y204597D01*
X358253Y211286D02*
X367172Y217974D01*
X362155Y214073D02*
X367172Y204597D01*
X377412Y204597D02*
X382986Y204597D01*
X377412Y204597D02*
X377298Y204599D01*
X377184Y204605D01*
X377070Y204615D01*
X376957Y204628D01*
X376844Y204646D01*
X376732Y204667D01*
X376620Y204692D01*
X376510Y204721D01*
X376400Y204754D01*
X376292Y204790D01*
X376185Y204830D01*
X376080Y204874D01*
X375976Y204921D01*
X375874Y204972D01*
X375773Y205026D01*
X375675Y205084D01*
X375578Y205145D01*
X375484Y205209D01*
X375391Y205276D01*
X375302Y205347D01*
X375214Y205421D01*
X375130Y205497D01*
X375047Y205576D01*
X374968Y205659D01*
X374892Y205743D01*
X374818Y205831D01*
X374747Y205920D01*
X374680Y206013D01*
X374616Y206107D01*
X374555Y206204D01*
X374497Y206302D01*
X374443Y206403D01*
X374392Y206505D01*
X374345Y206609D01*
X374301Y206714D01*
X374261Y206821D01*
X374225Y206929D01*
X374192Y207039D01*
X374163Y207149D01*
X374138Y207261D01*
X374117Y207373D01*
X374099Y207486D01*
X374086Y207599D01*
X374076Y207713D01*
X374070Y207827D01*
X374068Y207941D01*
X374068Y213515D01*
X374070Y213647D01*
X374076Y213779D01*
X374086Y213911D01*
X374099Y214042D01*
X374117Y214173D01*
X374138Y214304D01*
X374164Y214433D01*
X374193Y214562D01*
X374226Y214690D01*
X374262Y214817D01*
X374303Y214943D01*
X374347Y215068D01*
X374395Y215191D01*
X374446Y215313D01*
X374501Y215433D01*
X374560Y215551D01*
X374622Y215668D01*
X374688Y215783D01*
X374756Y215895D01*
X374829Y216006D01*
X374904Y216115D01*
X374983Y216221D01*
X375064Y216325D01*
X375149Y216426D01*
X375237Y216525D01*
X375328Y216621D01*
X375421Y216714D01*
X375517Y216805D01*
X375616Y216893D01*
X375717Y216978D01*
X375821Y217059D01*
X375927Y217138D01*
X376036Y217213D01*
X376147Y217286D01*
X376259Y217354D01*
X376374Y217420D01*
X376491Y217482D01*
X376609Y217541D01*
X376729Y217596D01*
X376851Y217647D01*
X376974Y217695D01*
X377099Y217739D01*
X377225Y217780D01*
X377352Y217816D01*
X377480Y217849D01*
X377609Y217878D01*
X377738Y217904D01*
X377869Y217925D01*
X378000Y217943D01*
X378131Y217956D01*
X378263Y217966D01*
X378395Y217972D01*
X378527Y217974D01*
X378659Y217972D01*
X378791Y217966D01*
X378923Y217956D01*
X379054Y217943D01*
X379185Y217925D01*
X379316Y217904D01*
X379445Y217878D01*
X379574Y217849D01*
X379702Y217816D01*
X379829Y217780D01*
X379955Y217739D01*
X380080Y217695D01*
X380203Y217647D01*
X380325Y217596D01*
X380445Y217541D01*
X380563Y217482D01*
X380680Y217420D01*
X380795Y217354D01*
X380907Y217286D01*
X381018Y217213D01*
X381127Y217138D01*
X381233Y217059D01*
X381337Y216978D01*
X381438Y216893D01*
X381537Y216805D01*
X381633Y216714D01*
X381726Y216621D01*
X381817Y216525D01*
X381905Y216426D01*
X381990Y216325D01*
X382071Y216221D01*
X382150Y216115D01*
X382225Y216006D01*
X382298Y215895D01*
X382366Y215783D01*
X382432Y215668D01*
X382494Y215551D01*
X382553Y215433D01*
X382608Y215313D01*
X382659Y215191D01*
X382707Y215068D01*
X382751Y214943D01*
X382792Y214817D01*
X382828Y214690D01*
X382861Y214562D01*
X382890Y214433D01*
X382916Y214304D01*
X382937Y214173D01*
X382955Y214042D01*
X382968Y213911D01*
X382978Y213779D01*
X382984Y213647D01*
X382986Y213515D01*
X382986Y211286D01*
X374068Y211286D01*
X391481Y204597D02*
X391481Y217974D01*
X398170Y217974D01*
X398170Y215745D01*
X280797Y173863D02*
X280797Y153797D01*
X280797Y173863D02*
X286371Y173863D01*
X286519Y173861D01*
X286668Y173855D01*
X286816Y173845D01*
X286963Y173831D01*
X287111Y173814D01*
X287258Y173792D01*
X287404Y173766D01*
X287549Y173737D01*
X287694Y173704D01*
X287838Y173667D01*
X287980Y173626D01*
X288122Y173581D01*
X288262Y173532D01*
X288401Y173480D01*
X288538Y173424D01*
X288674Y173365D01*
X288809Y173302D01*
X288941Y173235D01*
X289072Y173165D01*
X289201Y173091D01*
X289328Y173014D01*
X289452Y172934D01*
X289575Y172850D01*
X289695Y172763D01*
X289813Y172673D01*
X289929Y172580D01*
X290042Y172484D01*
X290152Y172385D01*
X290260Y172283D01*
X290365Y172178D01*
X290467Y172070D01*
X290566Y171960D01*
X290662Y171847D01*
X290755Y171731D01*
X290845Y171613D01*
X290932Y171493D01*
X291016Y171370D01*
X291096Y171246D01*
X291173Y171119D01*
X291247Y170990D01*
X291317Y170859D01*
X291384Y170727D01*
X291447Y170592D01*
X291506Y170456D01*
X291562Y170319D01*
X291614Y170180D01*
X291663Y170040D01*
X291708Y169898D01*
X291749Y169756D01*
X291786Y169612D01*
X291819Y169467D01*
X291848Y169322D01*
X291874Y169176D01*
X291896Y169029D01*
X291913Y168881D01*
X291927Y168734D01*
X291937Y168586D01*
X291943Y168437D01*
X291945Y168289D01*
X291943Y168141D01*
X291937Y167992D01*
X291927Y167844D01*
X291913Y167697D01*
X291896Y167549D01*
X291874Y167402D01*
X291848Y167256D01*
X291819Y167111D01*
X291786Y166966D01*
X291749Y166822D01*
X291708Y166680D01*
X291663Y166538D01*
X291614Y166398D01*
X291562Y166259D01*
X291506Y166122D01*
X291447Y165986D01*
X291384Y165851D01*
X291317Y165719D01*
X291247Y165588D01*
X291173Y165459D01*
X291096Y165332D01*
X291016Y165208D01*
X290932Y165085D01*
X290845Y164965D01*
X290755Y164847D01*
X290662Y164731D01*
X290566Y164618D01*
X290467Y164508D01*
X290365Y164400D01*
X290260Y164295D01*
X290152Y164193D01*
X290042Y164094D01*
X289929Y163998D01*
X289813Y163905D01*
X289695Y163815D01*
X289575Y163728D01*
X289452Y163644D01*
X289328Y163564D01*
X289201Y163487D01*
X289072Y163413D01*
X288941Y163343D01*
X288809Y163276D01*
X288674Y163213D01*
X288538Y163154D01*
X288401Y163098D01*
X288262Y163046D01*
X288122Y162997D01*
X287980Y162952D01*
X287838Y162911D01*
X287694Y162874D01*
X287549Y162841D01*
X287404Y162812D01*
X287258Y162786D01*
X287111Y162764D01*
X286963Y162747D01*
X286816Y162733D01*
X286668Y162723D01*
X286519Y162717D01*
X286371Y162715D01*
X280797Y162715D01*
X287486Y162715D02*
X291945Y153797D01*
X303088Y153797D02*
X308662Y153797D01*
X303088Y153797D02*
X302974Y153799D01*
X302860Y153805D01*
X302746Y153815D01*
X302633Y153828D01*
X302520Y153846D01*
X302408Y153867D01*
X302296Y153892D01*
X302186Y153921D01*
X302076Y153954D01*
X301968Y153990D01*
X301861Y154030D01*
X301756Y154074D01*
X301652Y154121D01*
X301550Y154172D01*
X301449Y154226D01*
X301351Y154284D01*
X301254Y154345D01*
X301160Y154409D01*
X301067Y154476D01*
X300978Y154547D01*
X300890Y154621D01*
X300806Y154697D01*
X300723Y154776D01*
X300644Y154859D01*
X300568Y154943D01*
X300494Y155031D01*
X300423Y155120D01*
X300356Y155213D01*
X300292Y155307D01*
X300231Y155404D01*
X300173Y155502D01*
X300119Y155603D01*
X300068Y155705D01*
X300021Y155809D01*
X299977Y155914D01*
X299937Y156021D01*
X299901Y156129D01*
X299868Y156239D01*
X299839Y156349D01*
X299814Y156461D01*
X299793Y156573D01*
X299775Y156686D01*
X299762Y156799D01*
X299752Y156913D01*
X299746Y157027D01*
X299744Y157141D01*
X299744Y162715D01*
X299746Y162847D01*
X299752Y162979D01*
X299762Y163111D01*
X299775Y163242D01*
X299793Y163373D01*
X299814Y163504D01*
X299840Y163633D01*
X299869Y163762D01*
X299902Y163890D01*
X299938Y164017D01*
X299979Y164143D01*
X300023Y164268D01*
X300071Y164391D01*
X300122Y164513D01*
X300177Y164633D01*
X300236Y164751D01*
X300298Y164868D01*
X300364Y164983D01*
X300432Y165095D01*
X300505Y165206D01*
X300580Y165315D01*
X300659Y165421D01*
X300740Y165525D01*
X300825Y165626D01*
X300913Y165725D01*
X301004Y165821D01*
X301097Y165914D01*
X301193Y166005D01*
X301292Y166093D01*
X301393Y166178D01*
X301497Y166259D01*
X301603Y166338D01*
X301712Y166413D01*
X301823Y166486D01*
X301935Y166554D01*
X302050Y166620D01*
X302167Y166682D01*
X302285Y166741D01*
X302405Y166796D01*
X302527Y166847D01*
X302650Y166895D01*
X302775Y166939D01*
X302901Y166980D01*
X303028Y167016D01*
X303156Y167049D01*
X303285Y167078D01*
X303414Y167104D01*
X303545Y167125D01*
X303676Y167143D01*
X303807Y167156D01*
X303939Y167166D01*
X304071Y167172D01*
X304203Y167174D01*
X304335Y167172D01*
X304467Y167166D01*
X304599Y167156D01*
X304730Y167143D01*
X304861Y167125D01*
X304992Y167104D01*
X305121Y167078D01*
X305250Y167049D01*
X305378Y167016D01*
X305505Y166980D01*
X305631Y166939D01*
X305756Y166895D01*
X305879Y166847D01*
X306001Y166796D01*
X306121Y166741D01*
X306239Y166682D01*
X306356Y166620D01*
X306471Y166554D01*
X306583Y166486D01*
X306694Y166413D01*
X306803Y166338D01*
X306909Y166259D01*
X307013Y166178D01*
X307114Y166093D01*
X307213Y166005D01*
X307309Y165914D01*
X307402Y165821D01*
X307493Y165725D01*
X307581Y165626D01*
X307666Y165525D01*
X307747Y165421D01*
X307826Y165315D01*
X307901Y165206D01*
X307974Y165095D01*
X308042Y164983D01*
X308108Y164868D01*
X308170Y164751D01*
X308229Y164633D01*
X308284Y164513D01*
X308335Y164391D01*
X308383Y164268D01*
X308427Y164143D01*
X308468Y164017D01*
X308504Y163890D01*
X308537Y163762D01*
X308566Y163633D01*
X308592Y163504D01*
X308613Y163373D01*
X308631Y163242D01*
X308644Y163111D01*
X308654Y162979D01*
X308660Y162847D01*
X308662Y162715D01*
X308662Y160486D01*
X299744Y160486D01*
X315766Y167174D02*
X320225Y153797D01*
X324684Y167174D01*
X342209Y169404D02*
X347783Y173863D01*
X347783Y153797D01*
X342209Y153797D02*
X353357Y153797D01*
X360684Y153797D02*
X360684Y154912D01*
X361799Y154912D01*
X361799Y153797D01*
X360684Y153797D01*
X369126Y163830D02*
X369131Y164225D01*
X369145Y164619D01*
X369168Y165013D01*
X369201Y165407D01*
X369244Y165799D01*
X369295Y166191D01*
X369356Y166581D01*
X369427Y166969D01*
X369506Y167356D01*
X369595Y167740D01*
X369693Y168123D01*
X369800Y168503D01*
X369916Y168880D01*
X370041Y169255D01*
X370175Y169626D01*
X370318Y169994D01*
X370469Y170358D01*
X370629Y170719D01*
X370798Y171076D01*
X370841Y171196D01*
X370888Y171315D01*
X370939Y171433D01*
X370993Y171548D01*
X371051Y171662D01*
X371113Y171775D01*
X371178Y171885D01*
X371246Y171993D01*
X371318Y172099D01*
X371392Y172203D01*
X371470Y172304D01*
X371552Y172403D01*
X371636Y172499D01*
X371723Y172593D01*
X371813Y172684D01*
X371905Y172772D01*
X372001Y172857D01*
X372099Y172940D01*
X372199Y173019D01*
X372302Y173095D01*
X372408Y173167D01*
X372515Y173237D01*
X372625Y173303D01*
X372736Y173366D01*
X372850Y173425D01*
X372965Y173480D01*
X373082Y173532D01*
X373200Y173581D01*
X373320Y173625D01*
X373441Y173666D01*
X373564Y173703D01*
X373687Y173737D01*
X373812Y173766D01*
X373937Y173792D01*
X374063Y173814D01*
X374190Y173831D01*
X374317Y173845D01*
X374444Y173855D01*
X374572Y173861D01*
X374700Y173863D01*
X374828Y173861D01*
X374956Y173855D01*
X375083Y173845D01*
X375210Y173831D01*
X375337Y173814D01*
X375463Y173792D01*
X375588Y173766D01*
X375713Y173737D01*
X375836Y173703D01*
X375959Y173666D01*
X376080Y173625D01*
X376200Y173581D01*
X376318Y173532D01*
X376435Y173480D01*
X376550Y173425D01*
X376664Y173366D01*
X376775Y173303D01*
X376885Y173237D01*
X376992Y173167D01*
X377098Y173095D01*
X377201Y173019D01*
X377301Y172940D01*
X377399Y172857D01*
X377495Y172772D01*
X377587Y172684D01*
X377677Y172593D01*
X377764Y172499D01*
X377848Y172403D01*
X377930Y172304D01*
X378008Y172203D01*
X378082Y172099D01*
X378154Y171993D01*
X378222Y171885D01*
X378287Y171775D01*
X378349Y171662D01*
X378407Y171548D01*
X378461Y171433D01*
X378512Y171315D01*
X378559Y171196D01*
X378602Y171076D01*
X378771Y170719D01*
X378931Y170358D01*
X379082Y169994D01*
X379225Y169626D01*
X379359Y169254D01*
X379484Y168880D01*
X379600Y168503D01*
X379707Y168123D01*
X379805Y167740D01*
X379894Y167356D01*
X379973Y166969D01*
X380044Y166581D01*
X380105Y166191D01*
X380156Y165799D01*
X380199Y165407D01*
X380232Y165013D01*
X380255Y164619D01*
X380269Y164225D01*
X380274Y163830D01*
X369126Y163830D02*
X369131Y163435D01*
X369145Y163041D01*
X369168Y162647D01*
X369201Y162253D01*
X369244Y161861D01*
X369295Y161469D01*
X369356Y161079D01*
X369427Y160691D01*
X369506Y160304D01*
X369595Y159920D01*
X369693Y159537D01*
X369800Y159157D01*
X369916Y158780D01*
X370041Y158406D01*
X370175Y158034D01*
X370318Y157666D01*
X370469Y157302D01*
X370629Y156941D01*
X370798Y156584D01*
X370841Y156464D01*
X370888Y156345D01*
X370939Y156227D01*
X370993Y156112D01*
X371051Y155998D01*
X371113Y155885D01*
X371178Y155775D01*
X371246Y155667D01*
X371318Y155561D01*
X371392Y155457D01*
X371470Y155356D01*
X371552Y155257D01*
X371636Y155161D01*
X371723Y155067D01*
X371813Y154976D01*
X371905Y154888D01*
X372001Y154803D01*
X372099Y154720D01*
X372199Y154641D01*
X372302Y154565D01*
X372408Y154493D01*
X372515Y154423D01*
X372625Y154357D01*
X372736Y154294D01*
X372850Y154235D01*
X372965Y154180D01*
X373082Y154128D01*
X373200Y154079D01*
X373320Y154035D01*
X373441Y153994D01*
X373564Y153957D01*
X373687Y153923D01*
X373812Y153894D01*
X373937Y153868D01*
X374063Y153846D01*
X374190Y153829D01*
X374317Y153815D01*
X374444Y153805D01*
X374572Y153799D01*
X374700Y153797D01*
X378602Y156584D02*
X378771Y156941D01*
X378931Y157302D01*
X379082Y157666D01*
X379225Y158034D01*
X379359Y158406D01*
X379484Y158780D01*
X379600Y159157D01*
X379707Y159537D01*
X379805Y159920D01*
X379894Y160304D01*
X379973Y160691D01*
X380044Y161079D01*
X380105Y161469D01*
X380156Y161861D01*
X380199Y162253D01*
X380232Y162647D01*
X380255Y163041D01*
X380269Y163435D01*
X380274Y163830D01*
X378602Y156584D02*
X378559Y156464D01*
X378512Y156345D01*
X378461Y156227D01*
X378407Y156112D01*
X378349Y155998D01*
X378287Y155885D01*
X378222Y155775D01*
X378154Y155667D01*
X378082Y155561D01*
X378008Y155457D01*
X377930Y155356D01*
X377848Y155257D01*
X377764Y155161D01*
X377677Y155067D01*
X377587Y154976D01*
X377495Y154888D01*
X377399Y154803D01*
X377301Y154720D01*
X377201Y154641D01*
X377098Y154565D01*
X376992Y154493D01*
X376885Y154423D01*
X376775Y154357D01*
X376664Y154294D01*
X376550Y154235D01*
X376435Y154180D01*
X376318Y154128D01*
X376200Y154079D01*
X376080Y154035D01*
X375959Y153994D01*
X375836Y153957D01*
X375713Y153923D01*
X375588Y153894D01*
X375463Y153868D01*
X375337Y153846D01*
X375210Y153829D01*
X375083Y153815D01*
X374956Y153805D01*
X374828Y153799D01*
X374700Y153797D01*
X370241Y158256D02*
X379159Y169404D01*
X342745Y114145D02*
X339400Y114145D01*
X342745Y114145D02*
X342745Y102997D01*
X336056Y102997D01*
X335924Y102999D01*
X335792Y103005D01*
X335660Y103015D01*
X335529Y103028D01*
X335398Y103046D01*
X335267Y103067D01*
X335138Y103093D01*
X335009Y103122D01*
X334881Y103155D01*
X334754Y103191D01*
X334628Y103232D01*
X334503Y103276D01*
X334380Y103324D01*
X334258Y103375D01*
X334138Y103430D01*
X334020Y103489D01*
X333903Y103551D01*
X333788Y103617D01*
X333676Y103685D01*
X333565Y103758D01*
X333456Y103833D01*
X333350Y103912D01*
X333246Y103993D01*
X333145Y104078D01*
X333046Y104166D01*
X332950Y104257D01*
X332857Y104350D01*
X332766Y104446D01*
X332678Y104545D01*
X332593Y104646D01*
X332512Y104750D01*
X332433Y104856D01*
X332358Y104965D01*
X332285Y105076D01*
X332217Y105188D01*
X332151Y105303D01*
X332089Y105420D01*
X332030Y105538D01*
X331975Y105658D01*
X331924Y105780D01*
X331876Y105903D01*
X331832Y106028D01*
X331791Y106154D01*
X331755Y106281D01*
X331722Y106409D01*
X331693Y106538D01*
X331667Y106667D01*
X331646Y106798D01*
X331628Y106929D01*
X331615Y107060D01*
X331605Y107192D01*
X331599Y107324D01*
X331597Y107456D01*
X331597Y118604D01*
X331599Y118736D01*
X331605Y118868D01*
X331615Y119000D01*
X331628Y119131D01*
X331646Y119262D01*
X331667Y119393D01*
X331693Y119522D01*
X331722Y119651D01*
X331755Y119779D01*
X331791Y119906D01*
X331832Y120032D01*
X331876Y120157D01*
X331924Y120280D01*
X331975Y120402D01*
X332030Y120522D01*
X332089Y120640D01*
X332151Y120757D01*
X332217Y120872D01*
X332285Y120984D01*
X332358Y121095D01*
X332433Y121203D01*
X332512Y121310D01*
X332593Y121414D01*
X332678Y121515D01*
X332766Y121614D01*
X332857Y121710D01*
X332950Y121803D01*
X333046Y121894D01*
X333145Y121982D01*
X333246Y122067D01*
X333350Y122148D01*
X333456Y122227D01*
X333565Y122302D01*
X333676Y122375D01*
X333788Y122443D01*
X333903Y122509D01*
X334020Y122571D01*
X334138Y122630D01*
X334258Y122685D01*
X334380Y122736D01*
X334503Y122784D01*
X334628Y122828D01*
X334754Y122869D01*
X334881Y122905D01*
X335009Y122938D01*
X335138Y122967D01*
X335267Y122993D01*
X335398Y123014D01*
X335529Y123032D01*
X335660Y123045D01*
X335792Y123055D01*
X335924Y123061D01*
X336056Y123063D01*
X342745Y123063D01*
X350683Y123063D02*
X355143Y102997D01*
X359602Y116374D01*
X364061Y102997D01*
X368520Y123063D01*
D11*
X1227700Y266700D02*
X1227700Y636700D01*
X67700Y636700D01*
X67310Y636700D02*
X67310Y266700D01*
X67700Y266700D02*
X1227700Y266700D01*
D12*
X616839Y636781D02*
X614751Y636781D01*
X614662Y636783D01*
X614574Y636789D01*
X614486Y636798D01*
X614398Y636811D01*
X614311Y636828D01*
X614225Y636848D01*
X614140Y636873D01*
X614055Y636900D01*
X613972Y636932D01*
X613891Y636966D01*
X613811Y637005D01*
X613733Y637046D01*
X613656Y637091D01*
X613582Y637139D01*
X613509Y637190D01*
X613439Y637244D01*
X613372Y637302D01*
X613306Y637362D01*
X613244Y637424D01*
X613184Y637490D01*
X613126Y637557D01*
X613072Y637627D01*
X613021Y637700D01*
X612973Y637774D01*
X612928Y637851D01*
X612887Y637929D01*
X612848Y638009D01*
X612814Y638090D01*
X612782Y638173D01*
X612755Y638258D01*
X612730Y638343D01*
X612710Y638429D01*
X612693Y638516D01*
X612680Y638604D01*
X612671Y638692D01*
X612665Y638780D01*
X612663Y638869D01*
X612662Y638869D02*
X612662Y644091D01*
X612663Y644091D02*
X612665Y644182D01*
X612671Y644273D01*
X612681Y644364D01*
X612695Y644454D01*
X612712Y644543D01*
X612734Y644631D01*
X612760Y644719D01*
X612789Y644805D01*
X612822Y644890D01*
X612859Y644973D01*
X612899Y645055D01*
X612943Y645135D01*
X612990Y645213D01*
X613041Y645289D01*
X613094Y645362D01*
X613151Y645433D01*
X613212Y645502D01*
X613275Y645567D01*
X613340Y645630D01*
X613409Y645690D01*
X613480Y645748D01*
X613553Y645801D01*
X613629Y645852D01*
X613707Y645899D01*
X613787Y645943D01*
X613869Y645983D01*
X613952Y646020D01*
X614037Y646053D01*
X614123Y646082D01*
X614211Y646108D01*
X614299Y646130D01*
X614388Y646147D01*
X614478Y646161D01*
X614569Y646171D01*
X614660Y646177D01*
X614751Y646179D01*
X616839Y646179D01*
X637018Y646179D02*
X637018Y636781D01*
X637018Y646179D02*
X639628Y646179D01*
X639728Y646177D01*
X639828Y646171D01*
X639927Y646162D01*
X640027Y646148D01*
X640125Y646131D01*
X640223Y646110D01*
X640320Y646086D01*
X640416Y646057D01*
X640511Y646025D01*
X640604Y645990D01*
X640696Y645951D01*
X640787Y645908D01*
X640875Y645862D01*
X640962Y645812D01*
X641047Y645760D01*
X641130Y645704D01*
X641211Y645645D01*
X641289Y645582D01*
X641365Y645517D01*
X641439Y645449D01*
X641509Y645379D01*
X641577Y645305D01*
X641642Y645229D01*
X641705Y645151D01*
X641764Y645070D01*
X641820Y644987D01*
X641872Y644902D01*
X641922Y644815D01*
X641968Y644727D01*
X642011Y644636D01*
X642050Y644544D01*
X642085Y644451D01*
X642117Y644356D01*
X642146Y644260D01*
X642170Y644163D01*
X642191Y644065D01*
X642208Y643967D01*
X642222Y643867D01*
X642231Y643768D01*
X642237Y643668D01*
X642239Y643568D01*
X642239Y639392D01*
X642237Y639292D01*
X642231Y639192D01*
X642222Y639093D01*
X642208Y638993D01*
X642191Y638895D01*
X642170Y638797D01*
X642146Y638700D01*
X642117Y638604D01*
X642085Y638509D01*
X642050Y638416D01*
X642011Y638324D01*
X641968Y638233D01*
X641922Y638145D01*
X641872Y638058D01*
X641820Y637973D01*
X641764Y637890D01*
X641705Y637809D01*
X641642Y637731D01*
X641577Y637655D01*
X641509Y637581D01*
X641439Y637511D01*
X641365Y637443D01*
X641289Y637378D01*
X641211Y637315D01*
X641130Y637256D01*
X641047Y637200D01*
X640962Y637148D01*
X640875Y637098D01*
X640787Y637052D01*
X640696Y637009D01*
X640604Y636970D01*
X640511Y636935D01*
X640416Y636903D01*
X640320Y636874D01*
X640223Y636850D01*
X640125Y636829D01*
X640027Y636812D01*
X639927Y636798D01*
X639828Y636789D01*
X639728Y636783D01*
X639628Y636781D01*
X637018Y636781D01*
X661374Y640436D02*
X667639Y640436D01*
X686774Y640436D02*
X693039Y640436D01*
X689906Y637303D02*
X689906Y643568D01*
D13*
X89862Y660266D02*
X89862Y668338D01*
X89862Y660266D02*
X89864Y660155D01*
X89870Y660045D01*
X89880Y659934D01*
X89894Y659824D01*
X89911Y659715D01*
X89933Y659606D01*
X89958Y659498D01*
X89988Y659392D01*
X90021Y659286D01*
X90058Y659181D01*
X90098Y659078D01*
X90143Y658977D01*
X90190Y658877D01*
X90242Y658778D01*
X90297Y658682D01*
X90355Y658588D01*
X90416Y658496D01*
X90481Y658406D01*
X90549Y658318D01*
X90620Y658233D01*
X90694Y658151D01*
X90771Y658071D01*
X90851Y657994D01*
X90933Y657920D01*
X91018Y657849D01*
X91106Y657781D01*
X91196Y657716D01*
X91288Y657655D01*
X91382Y657597D01*
X91478Y657542D01*
X91577Y657490D01*
X91677Y657443D01*
X91778Y657398D01*
X91881Y657358D01*
X91986Y657321D01*
X92092Y657288D01*
X92198Y657258D01*
X92306Y657233D01*
X92415Y657211D01*
X92524Y657194D01*
X92634Y657180D01*
X92745Y657170D01*
X92855Y657164D01*
X92966Y657162D01*
X93077Y657164D01*
X93187Y657170D01*
X93298Y657180D01*
X93408Y657194D01*
X93517Y657211D01*
X93626Y657233D01*
X93734Y657258D01*
X93840Y657288D01*
X93946Y657321D01*
X94051Y657358D01*
X94154Y657398D01*
X94255Y657443D01*
X94355Y657490D01*
X94454Y657542D01*
X94550Y657597D01*
X94644Y657655D01*
X94736Y657716D01*
X94826Y657781D01*
X94914Y657849D01*
X94999Y657920D01*
X95081Y657994D01*
X95161Y658071D01*
X95238Y658151D01*
X95312Y658233D01*
X95383Y658318D01*
X95451Y658406D01*
X95516Y658496D01*
X95577Y658588D01*
X95635Y658682D01*
X95690Y658778D01*
X95742Y658877D01*
X95789Y658977D01*
X95834Y659078D01*
X95874Y659181D01*
X95911Y659286D01*
X95944Y659392D01*
X95974Y659498D01*
X95999Y659606D01*
X96021Y659715D01*
X96038Y659824D01*
X96052Y659934D01*
X96062Y660045D01*
X96068Y660155D01*
X96070Y660266D01*
X96071Y660266D02*
X96071Y668338D01*
X101673Y665854D02*
X104777Y668338D01*
X104777Y657162D01*
X101673Y657162D02*
X107882Y657162D01*
D14*
X837400Y117800D02*
X837642Y117803D01*
X837883Y117812D01*
X838124Y117826D01*
X838365Y117847D01*
X838605Y117873D01*
X838845Y117905D01*
X839084Y117943D01*
X839321Y117986D01*
X839558Y118036D01*
X839793Y118091D01*
X840027Y118151D01*
X840259Y118218D01*
X840490Y118289D01*
X840719Y118367D01*
X840946Y118450D01*
X841171Y118538D01*
X841394Y118632D01*
X841614Y118731D01*
X841832Y118836D01*
X842047Y118945D01*
X842260Y119060D01*
X842470Y119180D01*
X842676Y119305D01*
X842880Y119435D01*
X843081Y119570D01*
X843278Y119710D01*
X843472Y119854D01*
X843662Y120003D01*
X843848Y120157D01*
X844031Y120315D01*
X844210Y120477D01*
X844385Y120644D01*
X844556Y120815D01*
X844723Y120990D01*
X844885Y121169D01*
X845043Y121352D01*
X845197Y121538D01*
X845346Y121728D01*
X845490Y121922D01*
X845630Y122119D01*
X845765Y122320D01*
X845895Y122524D01*
X846020Y122730D01*
X846140Y122940D01*
X846255Y123153D01*
X846364Y123368D01*
X846469Y123586D01*
X846568Y123806D01*
X846662Y124029D01*
X846750Y124254D01*
X846833Y124481D01*
X846911Y124710D01*
X846982Y124941D01*
X847049Y125173D01*
X847109Y125407D01*
X847164Y125642D01*
X847214Y125879D01*
X847257Y126116D01*
X847295Y126355D01*
X847327Y126595D01*
X847353Y126835D01*
X847374Y127076D01*
X847388Y127317D01*
X847397Y127558D01*
X847400Y127800D01*
X837400Y117800D02*
X737400Y117800D01*
X737158Y117803D01*
X736917Y117812D01*
X736676Y117826D01*
X736435Y117847D01*
X736195Y117873D01*
X735955Y117905D01*
X735716Y117943D01*
X735479Y117986D01*
X735242Y118036D01*
X735007Y118091D01*
X734773Y118151D01*
X734541Y118218D01*
X734310Y118289D01*
X734081Y118367D01*
X733854Y118450D01*
X733629Y118538D01*
X733406Y118632D01*
X733186Y118731D01*
X732968Y118836D01*
X732753Y118945D01*
X732540Y119060D01*
X732330Y119180D01*
X732124Y119305D01*
X731920Y119435D01*
X731719Y119570D01*
X731522Y119710D01*
X731328Y119854D01*
X731138Y120003D01*
X730952Y120157D01*
X730769Y120315D01*
X730590Y120477D01*
X730415Y120644D01*
X730244Y120815D01*
X730077Y120990D01*
X729915Y121169D01*
X729757Y121352D01*
X729603Y121538D01*
X729454Y121728D01*
X729310Y121922D01*
X729170Y122119D01*
X729035Y122320D01*
X728905Y122524D01*
X728780Y122730D01*
X728660Y122940D01*
X728545Y123153D01*
X728436Y123368D01*
X728331Y123586D01*
X728232Y123806D01*
X728138Y124029D01*
X728050Y124254D01*
X727967Y124481D01*
X727889Y124710D01*
X727818Y124941D01*
X727751Y125173D01*
X727691Y125407D01*
X727636Y125642D01*
X727586Y125879D01*
X727543Y126116D01*
X727505Y126355D01*
X727473Y126595D01*
X727447Y126835D01*
X727426Y127076D01*
X727412Y127317D01*
X727403Y127558D01*
X727400Y127800D01*
X727400Y227800D02*
X727403Y228042D01*
X727412Y228283D01*
X727426Y228524D01*
X727447Y228765D01*
X727473Y229005D01*
X727505Y229245D01*
X727543Y229484D01*
X727586Y229721D01*
X727636Y229958D01*
X727691Y230193D01*
X727751Y230427D01*
X727818Y230659D01*
X727889Y230890D01*
X727967Y231119D01*
X728050Y231346D01*
X728138Y231571D01*
X728232Y231794D01*
X728331Y232014D01*
X728436Y232232D01*
X728545Y232447D01*
X728660Y232660D01*
X728780Y232870D01*
X728905Y233076D01*
X729035Y233280D01*
X729170Y233481D01*
X729310Y233678D01*
X729454Y233872D01*
X729603Y234062D01*
X729757Y234248D01*
X729915Y234431D01*
X730077Y234610D01*
X730244Y234785D01*
X730415Y234956D01*
X730590Y235123D01*
X730769Y235285D01*
X730952Y235443D01*
X731138Y235597D01*
X731328Y235746D01*
X731522Y235890D01*
X731719Y236030D01*
X731920Y236165D01*
X732124Y236295D01*
X732330Y236420D01*
X732540Y236540D01*
X732753Y236655D01*
X732968Y236764D01*
X733186Y236869D01*
X733406Y236968D01*
X733629Y237062D01*
X733854Y237150D01*
X734081Y237233D01*
X734310Y237311D01*
X734541Y237382D01*
X734773Y237449D01*
X735007Y237509D01*
X735242Y237564D01*
X735479Y237614D01*
X735716Y237657D01*
X735955Y237695D01*
X736195Y237727D01*
X736435Y237753D01*
X736676Y237774D01*
X736917Y237788D01*
X737158Y237797D01*
X737400Y237800D01*
X837400Y237800D01*
X837642Y237797D01*
X837883Y237788D01*
X838124Y237774D01*
X838365Y237753D01*
X838605Y237727D01*
X838845Y237695D01*
X839084Y237657D01*
X839321Y237614D01*
X839558Y237564D01*
X839793Y237509D01*
X840027Y237449D01*
X840259Y237382D01*
X840490Y237311D01*
X840719Y237233D01*
X840946Y237150D01*
X841171Y237062D01*
X841394Y236968D01*
X841614Y236869D01*
X841832Y236764D01*
X842047Y236655D01*
X842260Y236540D01*
X842470Y236420D01*
X842676Y236295D01*
X842880Y236165D01*
X843081Y236030D01*
X843278Y235890D01*
X843472Y235746D01*
X843662Y235597D01*
X843848Y235443D01*
X844031Y235285D01*
X844210Y235123D01*
X844385Y234956D01*
X844556Y234785D01*
X844723Y234610D01*
X844885Y234431D01*
X845043Y234248D01*
X845197Y234062D01*
X845346Y233872D01*
X845490Y233678D01*
X845630Y233481D01*
X845765Y233280D01*
X845895Y233076D01*
X846020Y232870D01*
X846140Y232660D01*
X846255Y232447D01*
X846364Y232232D01*
X846469Y232014D01*
X846568Y231794D01*
X846662Y231571D01*
X846750Y231346D01*
X846833Y231119D01*
X846911Y230890D01*
X846982Y230659D01*
X847049Y230427D01*
X847109Y230193D01*
X847164Y229958D01*
X847214Y229721D01*
X847257Y229484D01*
X847295Y229245D01*
X847327Y229005D01*
X847353Y228765D01*
X847374Y228524D01*
X847388Y228283D01*
X847397Y228042D01*
X847400Y227800D01*
X752045Y177800D02*
X752056Y178668D01*
X752088Y179535D01*
X752141Y180401D01*
X752215Y181265D01*
X752311Y182128D01*
X752428Y182988D01*
X752566Y183844D01*
X752724Y184697D01*
X752904Y185546D01*
X753105Y186391D01*
X753326Y187230D01*
X753567Y188063D01*
X753829Y188890D01*
X754112Y189711D01*
X754414Y190524D01*
X754736Y191330D01*
X755078Y192127D01*
X755439Y192916D01*
X755820Y193696D01*
X756220Y194466D01*
X756638Y195226D01*
X757075Y195976D01*
X757530Y196715D01*
X758003Y197442D01*
X758494Y198158D01*
X759003Y198861D01*
X759528Y199552D01*
X760070Y200229D01*
X760629Y200893D01*
X761204Y201543D01*
X761794Y202179D01*
X762400Y202800D01*
X763021Y203406D01*
X763657Y203996D01*
X764307Y204571D01*
X764971Y205130D01*
X765648Y205672D01*
X766339Y206197D01*
X767042Y206706D01*
X767758Y207197D01*
X768485Y207670D01*
X769224Y208125D01*
X769974Y208562D01*
X770734Y208980D01*
X771504Y209380D01*
X772284Y209761D01*
X773073Y210122D01*
X773870Y210464D01*
X774676Y210786D01*
X775489Y211088D01*
X776310Y211371D01*
X777137Y211633D01*
X777970Y211874D01*
X778809Y212095D01*
X779654Y212296D01*
X780503Y212476D01*
X781356Y212634D01*
X782212Y212772D01*
X783072Y212889D01*
X783935Y212985D01*
X784799Y213059D01*
X785665Y213112D01*
X786532Y213144D01*
X787400Y213155D01*
X788268Y213144D01*
X789135Y213112D01*
X790001Y213059D01*
X790865Y212985D01*
X791728Y212889D01*
X792588Y212772D01*
X793444Y212634D01*
X794297Y212476D01*
X795146Y212296D01*
X795991Y212095D01*
X796830Y211874D01*
X797663Y211633D01*
X798490Y211371D01*
X799311Y211088D01*
X800124Y210786D01*
X800930Y210464D01*
X801727Y210122D01*
X802516Y209761D01*
X803296Y209380D01*
X804066Y208980D01*
X804826Y208562D01*
X805576Y208125D01*
X806315Y207670D01*
X807042Y207197D01*
X807758Y206706D01*
X808461Y206197D01*
X809152Y205672D01*
X809829Y205130D01*
X810493Y204571D01*
X811143Y203996D01*
X811779Y203406D01*
X812400Y202800D01*
X813006Y202179D01*
X813596Y201543D01*
X814171Y200893D01*
X814730Y200229D01*
X815272Y199552D01*
X815797Y198861D01*
X816306Y198158D01*
X816797Y197442D01*
X817270Y196715D01*
X817725Y195976D01*
X818162Y195226D01*
X818580Y194466D01*
X818980Y193696D01*
X819361Y192916D01*
X819722Y192127D01*
X820064Y191330D01*
X820386Y190524D01*
X820688Y189711D01*
X820971Y188890D01*
X821233Y188063D01*
X821474Y187230D01*
X821695Y186391D01*
X821896Y185546D01*
X822076Y184697D01*
X822234Y183844D01*
X822372Y182988D01*
X822489Y182128D01*
X822585Y181265D01*
X822659Y180401D01*
X822712Y179535D01*
X822744Y178668D01*
X822755Y177800D01*
X822744Y176932D01*
X822712Y176065D01*
X822659Y175199D01*
X822585Y174335D01*
X822489Y173472D01*
X822372Y172612D01*
X822234Y171756D01*
X822076Y170903D01*
X821896Y170054D01*
X821695Y169209D01*
X821474Y168370D01*
X821233Y167537D01*
X820971Y166710D01*
X820688Y165889D01*
X820386Y165076D01*
X820064Y164270D01*
X819722Y163473D01*
X819361Y162684D01*
X818980Y161904D01*
X818580Y161134D01*
X818162Y160374D01*
X817725Y159624D01*
X817270Y158885D01*
X816797Y158158D01*
X816306Y157442D01*
X815797Y156739D01*
X815272Y156048D01*
X814730Y155371D01*
X814171Y154707D01*
X813596Y154057D01*
X813006Y153421D01*
X812400Y152800D01*
X811779Y152194D01*
X811143Y151604D01*
X810493Y151029D01*
X809829Y150470D01*
X809152Y149928D01*
X808461Y149403D01*
X807758Y148894D01*
X807042Y148403D01*
X806315Y147930D01*
X805576Y147475D01*
X804826Y147038D01*
X804066Y146620D01*
X803296Y146220D01*
X802516Y145839D01*
X801727Y145478D01*
X800930Y145136D01*
X800124Y144814D01*
X799311Y144512D01*
X798490Y144229D01*
X797663Y143967D01*
X796830Y143726D01*
X795991Y143505D01*
X795146Y143304D01*
X794297Y143124D01*
X793444Y142966D01*
X792588Y142828D01*
X791728Y142711D01*
X790865Y142615D01*
X790001Y142541D01*
X789135Y142488D01*
X788268Y142456D01*
X787400Y142445D01*
X786532Y142456D01*
X785665Y142488D01*
X784799Y142541D01*
X783935Y142615D01*
X783072Y142711D01*
X782212Y142828D01*
X781356Y142966D01*
X780503Y143124D01*
X779654Y143304D01*
X778809Y143505D01*
X777970Y143726D01*
X777137Y143967D01*
X776310Y144229D01*
X775489Y144512D01*
X774676Y144814D01*
X773870Y145136D01*
X773073Y145478D01*
X772284Y145839D01*
X771504Y146220D01*
X770734Y146620D01*
X769974Y147038D01*
X769224Y147475D01*
X768485Y147930D01*
X767758Y148403D01*
X767042Y148894D01*
X766339Y149403D01*
X765648Y149928D01*
X764971Y150470D01*
X764307Y151029D01*
X763657Y151604D01*
X763021Y152194D01*
X762400Y152800D01*
X761794Y153421D01*
X761204Y154057D01*
X760629Y154707D01*
X760070Y155371D01*
X759528Y156048D01*
X759003Y156739D01*
X758494Y157442D01*
X758003Y158158D01*
X757530Y158885D01*
X757075Y159624D01*
X756638Y160374D01*
X756220Y161134D01*
X755820Y161904D01*
X755439Y162684D01*
X755078Y163473D01*
X754736Y164270D01*
X754414Y165076D01*
X754112Y165889D01*
X753829Y166710D01*
X753567Y167537D01*
X753326Y168370D01*
X753105Y169209D01*
X752904Y170054D01*
X752724Y170903D01*
X752566Y171756D01*
X752428Y172612D01*
X752311Y173472D01*
X752215Y174335D01*
X752141Y175199D01*
X752088Y176065D01*
X752056Y176932D01*
X752045Y177800D01*
X767400Y197800D02*
X807400Y197800D01*
X807400Y157800D01*
X767400Y157800D01*
X767400Y197800D01*
X727400Y215300D02*
X727400Y227800D01*
X727400Y190300D02*
X727400Y165300D01*
X727400Y140300D02*
X727400Y127800D01*
X847400Y215300D02*
X847400Y227800D01*
X847400Y190300D02*
X847400Y165300D01*
X847400Y140300D02*
X847400Y127800D01*
D13*
X741087Y242062D02*
X741184Y242064D01*
X741282Y242070D01*
X741379Y242079D01*
X741476Y242093D01*
X741572Y242110D01*
X741667Y242131D01*
X741761Y242155D01*
X741855Y242184D01*
X741947Y242216D01*
X742038Y242251D01*
X742127Y242290D01*
X742215Y242333D01*
X742301Y242379D01*
X742385Y242428D01*
X742467Y242481D01*
X742547Y242536D01*
X742625Y242595D01*
X742700Y242657D01*
X742773Y242722D01*
X742843Y242790D01*
X742911Y242860D01*
X742976Y242933D01*
X743038Y243008D01*
X743097Y243086D01*
X743152Y243166D01*
X743205Y243248D01*
X743254Y243332D01*
X743300Y243418D01*
X743343Y243506D01*
X743382Y243595D01*
X743417Y243686D01*
X743449Y243778D01*
X743478Y243872D01*
X743502Y243966D01*
X743523Y244061D01*
X743540Y244157D01*
X743554Y244254D01*
X743563Y244351D01*
X743569Y244448D01*
X743571Y244546D01*
X741087Y242062D02*
X740944Y242064D01*
X740801Y242070D01*
X740659Y242079D01*
X740517Y242093D01*
X740375Y242111D01*
X740234Y242132D01*
X740093Y242157D01*
X739953Y242186D01*
X739814Y242219D01*
X739676Y242255D01*
X739539Y242296D01*
X739403Y242340D01*
X739268Y242387D01*
X739135Y242439D01*
X739003Y242494D01*
X738873Y242552D01*
X738744Y242614D01*
X738617Y242680D01*
X738492Y242749D01*
X738369Y242821D01*
X738248Y242897D01*
X738129Y242975D01*
X738012Y243058D01*
X737897Y243143D01*
X737785Y243231D01*
X737675Y243323D01*
X737568Y243417D01*
X737463Y243514D01*
X737361Y243614D01*
X737672Y250754D02*
X737674Y250852D01*
X737680Y250949D01*
X737689Y251046D01*
X737703Y251143D01*
X737720Y251239D01*
X737741Y251334D01*
X737765Y251428D01*
X737794Y251522D01*
X737826Y251614D01*
X737861Y251705D01*
X737900Y251794D01*
X737943Y251882D01*
X737989Y251968D01*
X738038Y252052D01*
X738091Y252134D01*
X738146Y252214D01*
X738205Y252292D01*
X738267Y252367D01*
X738332Y252440D01*
X738400Y252510D01*
X738470Y252578D01*
X738543Y252643D01*
X738618Y252705D01*
X738696Y252764D01*
X738776Y252819D01*
X738858Y252872D01*
X738942Y252921D01*
X739028Y252967D01*
X739116Y253010D01*
X739205Y253049D01*
X739296Y253084D01*
X739388Y253116D01*
X739482Y253145D01*
X739576Y253169D01*
X739671Y253190D01*
X739767Y253207D01*
X739864Y253221D01*
X739961Y253230D01*
X740058Y253236D01*
X740156Y253238D01*
X740286Y253236D01*
X740416Y253231D01*
X740546Y253222D01*
X740676Y253209D01*
X740805Y253193D01*
X740934Y253173D01*
X741062Y253149D01*
X741190Y253122D01*
X741316Y253091D01*
X741442Y253057D01*
X741567Y253019D01*
X741690Y252978D01*
X741813Y252933D01*
X741934Y252885D01*
X742054Y252834D01*
X742172Y252779D01*
X742288Y252721D01*
X742403Y252660D01*
X742517Y252595D01*
X742628Y252528D01*
X742737Y252457D01*
X742845Y252383D01*
X742950Y252307D01*
X738915Y248581D02*
X738832Y248632D01*
X738751Y248686D01*
X738673Y248743D01*
X738597Y248803D01*
X738523Y248866D01*
X738452Y248932D01*
X738383Y249000D01*
X738317Y249071D01*
X738253Y249144D01*
X738193Y249220D01*
X738136Y249298D01*
X738081Y249379D01*
X738030Y249461D01*
X737982Y249545D01*
X737937Y249631D01*
X737895Y249719D01*
X737857Y249808D01*
X737823Y249898D01*
X737791Y249990D01*
X737764Y250083D01*
X737740Y250177D01*
X737719Y250272D01*
X737703Y250368D01*
X737690Y250464D01*
X737680Y250560D01*
X737675Y250657D01*
X737673Y250754D01*
X742328Y246719D02*
X742411Y246668D01*
X742492Y246614D01*
X742570Y246557D01*
X742646Y246497D01*
X742720Y246434D01*
X742791Y246368D01*
X742860Y246300D01*
X742926Y246229D01*
X742990Y246156D01*
X743050Y246080D01*
X743107Y246002D01*
X743162Y245921D01*
X743213Y245839D01*
X743261Y245755D01*
X743306Y245669D01*
X743348Y245581D01*
X743386Y245492D01*
X743420Y245402D01*
X743452Y245310D01*
X743479Y245217D01*
X743503Y245123D01*
X743524Y245028D01*
X743540Y244932D01*
X743553Y244836D01*
X743563Y244740D01*
X743568Y244643D01*
X743570Y244546D01*
X742329Y246719D02*
X738914Y248581D01*
X748072Y253238D02*
X750556Y242062D01*
X753039Y249513D01*
X755523Y242062D01*
X758007Y253238D01*
X762889Y250754D02*
X765993Y253238D01*
X765993Y242062D01*
X762889Y242062D02*
X769098Y242062D01*
D14*
X568000Y127800D02*
X567997Y127558D01*
X567988Y127317D01*
X567974Y127076D01*
X567953Y126835D01*
X567927Y126595D01*
X567895Y126355D01*
X567857Y126116D01*
X567814Y125879D01*
X567764Y125642D01*
X567709Y125407D01*
X567649Y125173D01*
X567582Y124941D01*
X567511Y124710D01*
X567433Y124481D01*
X567350Y124254D01*
X567262Y124029D01*
X567168Y123806D01*
X567069Y123586D01*
X566964Y123368D01*
X566855Y123153D01*
X566740Y122940D01*
X566620Y122730D01*
X566495Y122524D01*
X566365Y122320D01*
X566230Y122119D01*
X566090Y121922D01*
X565946Y121728D01*
X565797Y121538D01*
X565643Y121352D01*
X565485Y121169D01*
X565323Y120990D01*
X565156Y120815D01*
X564985Y120644D01*
X564810Y120477D01*
X564631Y120315D01*
X564448Y120157D01*
X564262Y120003D01*
X564072Y119854D01*
X563878Y119710D01*
X563681Y119570D01*
X563480Y119435D01*
X563276Y119305D01*
X563070Y119180D01*
X562860Y119060D01*
X562647Y118945D01*
X562432Y118836D01*
X562214Y118731D01*
X561994Y118632D01*
X561771Y118538D01*
X561546Y118450D01*
X561319Y118367D01*
X561090Y118289D01*
X560859Y118218D01*
X560627Y118151D01*
X560393Y118091D01*
X560158Y118036D01*
X559921Y117986D01*
X559684Y117943D01*
X559445Y117905D01*
X559205Y117873D01*
X558965Y117847D01*
X558724Y117826D01*
X558483Y117812D01*
X558242Y117803D01*
X558000Y117800D01*
X458000Y117800D01*
X457758Y117803D01*
X457517Y117812D01*
X457276Y117826D01*
X457035Y117847D01*
X456795Y117873D01*
X456555Y117905D01*
X456316Y117943D01*
X456079Y117986D01*
X455842Y118036D01*
X455607Y118091D01*
X455373Y118151D01*
X455141Y118218D01*
X454910Y118289D01*
X454681Y118367D01*
X454454Y118450D01*
X454229Y118538D01*
X454006Y118632D01*
X453786Y118731D01*
X453568Y118836D01*
X453353Y118945D01*
X453140Y119060D01*
X452930Y119180D01*
X452724Y119305D01*
X452520Y119435D01*
X452319Y119570D01*
X452122Y119710D01*
X451928Y119854D01*
X451738Y120003D01*
X451552Y120157D01*
X451369Y120315D01*
X451190Y120477D01*
X451015Y120644D01*
X450844Y120815D01*
X450677Y120990D01*
X450515Y121169D01*
X450357Y121352D01*
X450203Y121538D01*
X450054Y121728D01*
X449910Y121922D01*
X449770Y122119D01*
X449635Y122320D01*
X449505Y122524D01*
X449380Y122730D01*
X449260Y122940D01*
X449145Y123153D01*
X449036Y123368D01*
X448931Y123586D01*
X448832Y123806D01*
X448738Y124029D01*
X448650Y124254D01*
X448567Y124481D01*
X448489Y124710D01*
X448418Y124941D01*
X448351Y125173D01*
X448291Y125407D01*
X448236Y125642D01*
X448186Y125879D01*
X448143Y126116D01*
X448105Y126355D01*
X448073Y126595D01*
X448047Y126835D01*
X448026Y127076D01*
X448012Y127317D01*
X448003Y127558D01*
X448000Y127800D01*
X448000Y227800D02*
X448003Y228042D01*
X448012Y228283D01*
X448026Y228524D01*
X448047Y228765D01*
X448073Y229005D01*
X448105Y229245D01*
X448143Y229484D01*
X448186Y229721D01*
X448236Y229958D01*
X448291Y230193D01*
X448351Y230427D01*
X448418Y230659D01*
X448489Y230890D01*
X448567Y231119D01*
X448650Y231346D01*
X448738Y231571D01*
X448832Y231794D01*
X448931Y232014D01*
X449036Y232232D01*
X449145Y232447D01*
X449260Y232660D01*
X449380Y232870D01*
X449505Y233076D01*
X449635Y233280D01*
X449770Y233481D01*
X449910Y233678D01*
X450054Y233872D01*
X450203Y234062D01*
X450357Y234248D01*
X450515Y234431D01*
X450677Y234610D01*
X450844Y234785D01*
X451015Y234956D01*
X451190Y235123D01*
X451369Y235285D01*
X451552Y235443D01*
X451738Y235597D01*
X451928Y235746D01*
X452122Y235890D01*
X452319Y236030D01*
X452520Y236165D01*
X452724Y236295D01*
X452930Y236420D01*
X453140Y236540D01*
X453353Y236655D01*
X453568Y236764D01*
X453786Y236869D01*
X454006Y236968D01*
X454229Y237062D01*
X454454Y237150D01*
X454681Y237233D01*
X454910Y237311D01*
X455141Y237382D01*
X455373Y237449D01*
X455607Y237509D01*
X455842Y237564D01*
X456079Y237614D01*
X456316Y237657D01*
X456555Y237695D01*
X456795Y237727D01*
X457035Y237753D01*
X457276Y237774D01*
X457517Y237788D01*
X457758Y237797D01*
X458000Y237800D01*
X558000Y237800D01*
X558242Y237797D01*
X558483Y237788D01*
X558724Y237774D01*
X558965Y237753D01*
X559205Y237727D01*
X559445Y237695D01*
X559684Y237657D01*
X559921Y237614D01*
X560158Y237564D01*
X560393Y237509D01*
X560627Y237449D01*
X560859Y237382D01*
X561090Y237311D01*
X561319Y237233D01*
X561546Y237150D01*
X561771Y237062D01*
X561994Y236968D01*
X562214Y236869D01*
X562432Y236764D01*
X562647Y236655D01*
X562860Y236540D01*
X563070Y236420D01*
X563276Y236295D01*
X563480Y236165D01*
X563681Y236030D01*
X563878Y235890D01*
X564072Y235746D01*
X564262Y235597D01*
X564448Y235443D01*
X564631Y235285D01*
X564810Y235123D01*
X564985Y234956D01*
X565156Y234785D01*
X565323Y234610D01*
X565485Y234431D01*
X565643Y234248D01*
X565797Y234062D01*
X565946Y233872D01*
X566090Y233678D01*
X566230Y233481D01*
X566365Y233280D01*
X566495Y233076D01*
X566620Y232870D01*
X566740Y232660D01*
X566855Y232447D01*
X566964Y232232D01*
X567069Y232014D01*
X567168Y231794D01*
X567262Y231571D01*
X567350Y231346D01*
X567433Y231119D01*
X567511Y230890D01*
X567582Y230659D01*
X567649Y230427D01*
X567709Y230193D01*
X567764Y229958D01*
X567814Y229721D01*
X567857Y229484D01*
X567895Y229245D01*
X567927Y229005D01*
X567953Y228765D01*
X567974Y228524D01*
X567988Y228283D01*
X567997Y228042D01*
X568000Y227800D01*
X472645Y177800D02*
X472656Y178668D01*
X472688Y179535D01*
X472741Y180401D01*
X472815Y181265D01*
X472911Y182128D01*
X473028Y182988D01*
X473166Y183844D01*
X473324Y184697D01*
X473504Y185546D01*
X473705Y186391D01*
X473926Y187230D01*
X474167Y188063D01*
X474429Y188890D01*
X474712Y189711D01*
X475014Y190524D01*
X475336Y191330D01*
X475678Y192127D01*
X476039Y192916D01*
X476420Y193696D01*
X476820Y194466D01*
X477238Y195226D01*
X477675Y195976D01*
X478130Y196715D01*
X478603Y197442D01*
X479094Y198158D01*
X479603Y198861D01*
X480128Y199552D01*
X480670Y200229D01*
X481229Y200893D01*
X481804Y201543D01*
X482394Y202179D01*
X483000Y202800D01*
X483621Y203406D01*
X484257Y203996D01*
X484907Y204571D01*
X485571Y205130D01*
X486248Y205672D01*
X486939Y206197D01*
X487642Y206706D01*
X488358Y207197D01*
X489085Y207670D01*
X489824Y208125D01*
X490574Y208562D01*
X491334Y208980D01*
X492104Y209380D01*
X492884Y209761D01*
X493673Y210122D01*
X494470Y210464D01*
X495276Y210786D01*
X496089Y211088D01*
X496910Y211371D01*
X497737Y211633D01*
X498570Y211874D01*
X499409Y212095D01*
X500254Y212296D01*
X501103Y212476D01*
X501956Y212634D01*
X502812Y212772D01*
X503672Y212889D01*
X504535Y212985D01*
X505399Y213059D01*
X506265Y213112D01*
X507132Y213144D01*
X508000Y213155D01*
X508868Y213144D01*
X509735Y213112D01*
X510601Y213059D01*
X511465Y212985D01*
X512328Y212889D01*
X513188Y212772D01*
X514044Y212634D01*
X514897Y212476D01*
X515746Y212296D01*
X516591Y212095D01*
X517430Y211874D01*
X518263Y211633D01*
X519090Y211371D01*
X519911Y211088D01*
X520724Y210786D01*
X521530Y210464D01*
X522327Y210122D01*
X523116Y209761D01*
X523896Y209380D01*
X524666Y208980D01*
X525426Y208562D01*
X526176Y208125D01*
X526915Y207670D01*
X527642Y207197D01*
X528358Y206706D01*
X529061Y206197D01*
X529752Y205672D01*
X530429Y205130D01*
X531093Y204571D01*
X531743Y203996D01*
X532379Y203406D01*
X533000Y202800D01*
X533606Y202179D01*
X534196Y201543D01*
X534771Y200893D01*
X535330Y200229D01*
X535872Y199552D01*
X536397Y198861D01*
X536906Y198158D01*
X537397Y197442D01*
X537870Y196715D01*
X538325Y195976D01*
X538762Y195226D01*
X539180Y194466D01*
X539580Y193696D01*
X539961Y192916D01*
X540322Y192127D01*
X540664Y191330D01*
X540986Y190524D01*
X541288Y189711D01*
X541571Y188890D01*
X541833Y188063D01*
X542074Y187230D01*
X542295Y186391D01*
X542496Y185546D01*
X542676Y184697D01*
X542834Y183844D01*
X542972Y182988D01*
X543089Y182128D01*
X543185Y181265D01*
X543259Y180401D01*
X543312Y179535D01*
X543344Y178668D01*
X543355Y177800D01*
X543344Y176932D01*
X543312Y176065D01*
X543259Y175199D01*
X543185Y174335D01*
X543089Y173472D01*
X542972Y172612D01*
X542834Y171756D01*
X542676Y170903D01*
X542496Y170054D01*
X542295Y169209D01*
X542074Y168370D01*
X541833Y167537D01*
X541571Y166710D01*
X541288Y165889D01*
X540986Y165076D01*
X540664Y164270D01*
X540322Y163473D01*
X539961Y162684D01*
X539580Y161904D01*
X539180Y161134D01*
X538762Y160374D01*
X538325Y159624D01*
X537870Y158885D01*
X537397Y158158D01*
X536906Y157442D01*
X536397Y156739D01*
X535872Y156048D01*
X535330Y155371D01*
X534771Y154707D01*
X534196Y154057D01*
X533606Y153421D01*
X533000Y152800D01*
X532379Y152194D01*
X531743Y151604D01*
X531093Y151029D01*
X530429Y150470D01*
X529752Y149928D01*
X529061Y149403D01*
X528358Y148894D01*
X527642Y148403D01*
X526915Y147930D01*
X526176Y147475D01*
X525426Y147038D01*
X524666Y146620D01*
X523896Y146220D01*
X523116Y145839D01*
X522327Y145478D01*
X521530Y145136D01*
X520724Y144814D01*
X519911Y144512D01*
X519090Y144229D01*
X518263Y143967D01*
X517430Y143726D01*
X516591Y143505D01*
X515746Y143304D01*
X514897Y143124D01*
X514044Y142966D01*
X513188Y142828D01*
X512328Y142711D01*
X511465Y142615D01*
X510601Y142541D01*
X509735Y142488D01*
X508868Y142456D01*
X508000Y142445D01*
X507132Y142456D01*
X506265Y142488D01*
X505399Y142541D01*
X504535Y142615D01*
X503672Y142711D01*
X502812Y142828D01*
X501956Y142966D01*
X501103Y143124D01*
X500254Y143304D01*
X499409Y143505D01*
X498570Y143726D01*
X497737Y143967D01*
X496910Y144229D01*
X496089Y144512D01*
X495276Y144814D01*
X494470Y145136D01*
X493673Y145478D01*
X492884Y145839D01*
X492104Y146220D01*
X491334Y146620D01*
X490574Y147038D01*
X489824Y147475D01*
X489085Y147930D01*
X488358Y148403D01*
X487642Y148894D01*
X486939Y149403D01*
X486248Y149928D01*
X485571Y150470D01*
X484907Y151029D01*
X484257Y151604D01*
X483621Y152194D01*
X483000Y152800D01*
X482394Y153421D01*
X481804Y154057D01*
X481229Y154707D01*
X480670Y155371D01*
X480128Y156048D01*
X479603Y156739D01*
X479094Y157442D01*
X478603Y158158D01*
X478130Y158885D01*
X477675Y159624D01*
X477238Y160374D01*
X476820Y161134D01*
X476420Y161904D01*
X476039Y162684D01*
X475678Y163473D01*
X475336Y164270D01*
X475014Y165076D01*
X474712Y165889D01*
X474429Y166710D01*
X474167Y167537D01*
X473926Y168370D01*
X473705Y169209D01*
X473504Y170054D01*
X473324Y170903D01*
X473166Y171756D01*
X473028Y172612D01*
X472911Y173472D01*
X472815Y174335D01*
X472741Y175199D01*
X472688Y176065D01*
X472656Y176932D01*
X472645Y177800D01*
X488000Y197800D02*
X528000Y197800D01*
X528000Y157800D01*
X488000Y157800D01*
X488000Y197800D01*
X448000Y215300D02*
X448000Y227800D01*
X448000Y190300D02*
X448000Y165300D01*
X448000Y140300D02*
X448000Y127800D01*
X568000Y215300D02*
X568000Y227800D01*
X568000Y190300D02*
X568000Y165300D01*
X568000Y140300D02*
X568000Y127800D01*
D13*
X537887Y242062D02*
X537984Y242064D01*
X538082Y242070D01*
X538179Y242079D01*
X538276Y242093D01*
X538372Y242110D01*
X538467Y242131D01*
X538561Y242155D01*
X538655Y242184D01*
X538747Y242216D01*
X538838Y242251D01*
X538927Y242290D01*
X539015Y242333D01*
X539101Y242379D01*
X539185Y242428D01*
X539267Y242481D01*
X539347Y242536D01*
X539425Y242595D01*
X539500Y242657D01*
X539573Y242722D01*
X539643Y242790D01*
X539711Y242860D01*
X539776Y242933D01*
X539838Y243008D01*
X539897Y243086D01*
X539952Y243166D01*
X540005Y243248D01*
X540054Y243332D01*
X540100Y243418D01*
X540143Y243506D01*
X540182Y243595D01*
X540217Y243686D01*
X540249Y243778D01*
X540278Y243872D01*
X540302Y243966D01*
X540323Y244061D01*
X540340Y244157D01*
X540354Y244254D01*
X540363Y244351D01*
X540369Y244448D01*
X540371Y244546D01*
X537887Y242062D02*
X537744Y242064D01*
X537601Y242070D01*
X537459Y242079D01*
X537317Y242093D01*
X537175Y242111D01*
X537034Y242132D01*
X536893Y242157D01*
X536753Y242186D01*
X536614Y242219D01*
X536476Y242255D01*
X536339Y242296D01*
X536203Y242340D01*
X536068Y242387D01*
X535935Y242439D01*
X535803Y242494D01*
X535673Y242552D01*
X535544Y242614D01*
X535417Y242680D01*
X535292Y242749D01*
X535169Y242821D01*
X535048Y242897D01*
X534929Y242975D01*
X534812Y243058D01*
X534697Y243143D01*
X534585Y243231D01*
X534475Y243323D01*
X534368Y243417D01*
X534263Y243514D01*
X534161Y243614D01*
X534472Y250754D02*
X534474Y250852D01*
X534480Y250949D01*
X534489Y251046D01*
X534503Y251143D01*
X534520Y251239D01*
X534541Y251334D01*
X534565Y251428D01*
X534594Y251522D01*
X534626Y251614D01*
X534661Y251705D01*
X534700Y251794D01*
X534743Y251882D01*
X534789Y251968D01*
X534838Y252052D01*
X534891Y252134D01*
X534946Y252214D01*
X535005Y252292D01*
X535067Y252367D01*
X535132Y252440D01*
X535200Y252510D01*
X535270Y252578D01*
X535343Y252643D01*
X535418Y252705D01*
X535496Y252764D01*
X535576Y252819D01*
X535658Y252872D01*
X535742Y252921D01*
X535828Y252967D01*
X535916Y253010D01*
X536005Y253049D01*
X536096Y253084D01*
X536188Y253116D01*
X536282Y253145D01*
X536376Y253169D01*
X536471Y253190D01*
X536567Y253207D01*
X536664Y253221D01*
X536761Y253230D01*
X536858Y253236D01*
X536956Y253238D01*
X537086Y253236D01*
X537216Y253231D01*
X537346Y253222D01*
X537476Y253209D01*
X537605Y253193D01*
X537734Y253173D01*
X537862Y253149D01*
X537990Y253122D01*
X538116Y253091D01*
X538242Y253057D01*
X538367Y253019D01*
X538490Y252978D01*
X538613Y252933D01*
X538734Y252885D01*
X538854Y252834D01*
X538972Y252779D01*
X539088Y252721D01*
X539203Y252660D01*
X539317Y252595D01*
X539428Y252528D01*
X539537Y252457D01*
X539645Y252383D01*
X539750Y252307D01*
X535715Y248581D02*
X535632Y248632D01*
X535551Y248686D01*
X535473Y248743D01*
X535397Y248803D01*
X535323Y248866D01*
X535252Y248932D01*
X535183Y249000D01*
X535117Y249071D01*
X535053Y249144D01*
X534993Y249220D01*
X534936Y249298D01*
X534881Y249379D01*
X534830Y249461D01*
X534782Y249545D01*
X534737Y249631D01*
X534695Y249719D01*
X534657Y249808D01*
X534623Y249898D01*
X534591Y249990D01*
X534564Y250083D01*
X534540Y250177D01*
X534519Y250272D01*
X534503Y250368D01*
X534490Y250464D01*
X534480Y250560D01*
X534475Y250657D01*
X534473Y250754D01*
X539128Y246719D02*
X539211Y246668D01*
X539292Y246614D01*
X539370Y246557D01*
X539446Y246497D01*
X539520Y246434D01*
X539591Y246368D01*
X539660Y246300D01*
X539726Y246229D01*
X539790Y246156D01*
X539850Y246080D01*
X539907Y246002D01*
X539962Y245921D01*
X540013Y245839D01*
X540061Y245755D01*
X540106Y245669D01*
X540148Y245581D01*
X540186Y245492D01*
X540220Y245402D01*
X540252Y245310D01*
X540279Y245217D01*
X540303Y245123D01*
X540324Y245028D01*
X540340Y244932D01*
X540353Y244836D01*
X540363Y244740D01*
X540368Y244643D01*
X540370Y244546D01*
X539129Y246719D02*
X535714Y248581D01*
X544872Y253238D02*
X547356Y242062D01*
X549839Y249513D01*
X552323Y242062D01*
X554807Y253238D01*
X563104Y253238D02*
X563208Y253236D01*
X563313Y253230D01*
X563417Y253220D01*
X563520Y253207D01*
X563623Y253189D01*
X563726Y253168D01*
X563827Y253143D01*
X563928Y253114D01*
X564027Y253081D01*
X564125Y253045D01*
X564221Y253005D01*
X564316Y252961D01*
X564410Y252914D01*
X564501Y252864D01*
X564590Y252810D01*
X564678Y252753D01*
X564763Y252692D01*
X564846Y252628D01*
X564926Y252562D01*
X565004Y252492D01*
X565080Y252420D01*
X565152Y252344D01*
X565222Y252266D01*
X565288Y252186D01*
X565352Y252103D01*
X565413Y252018D01*
X565470Y251930D01*
X565524Y251841D01*
X565574Y251750D01*
X565621Y251656D01*
X565665Y251561D01*
X565705Y251465D01*
X565741Y251367D01*
X565774Y251268D01*
X565803Y251167D01*
X565828Y251066D01*
X565849Y250963D01*
X565867Y250860D01*
X565880Y250757D01*
X565890Y250653D01*
X565896Y250548D01*
X565898Y250444D01*
X563104Y253239D02*
X562985Y253237D01*
X562867Y253231D01*
X562748Y253221D01*
X562630Y253208D01*
X562513Y253190D01*
X562396Y253168D01*
X562280Y253143D01*
X562165Y253114D01*
X562050Y253081D01*
X561937Y253044D01*
X561826Y253004D01*
X561715Y252960D01*
X561607Y252912D01*
X561500Y252861D01*
X561394Y252806D01*
X561291Y252747D01*
X561189Y252686D01*
X561090Y252621D01*
X560992Y252552D01*
X560898Y252481D01*
X560805Y252406D01*
X560715Y252329D01*
X560628Y252248D01*
X560543Y252165D01*
X560461Y252079D01*
X560382Y251990D01*
X560306Y251899D01*
X560233Y251805D01*
X560164Y251709D01*
X560097Y251610D01*
X560034Y251510D01*
X559974Y251407D01*
X559917Y251303D01*
X559865Y251196D01*
X559815Y251088D01*
X559769Y250979D01*
X559727Y250867D01*
X559689Y250755D01*
X564967Y248271D02*
X565042Y248345D01*
X565114Y248422D01*
X565184Y248501D01*
X565251Y248583D01*
X565315Y248667D01*
X565376Y248753D01*
X565434Y248841D01*
X565489Y248932D01*
X565541Y249024D01*
X565589Y249118D01*
X565634Y249213D01*
X565676Y249311D01*
X565714Y249409D01*
X565749Y249509D01*
X565780Y249610D01*
X565807Y249712D01*
X565831Y249815D01*
X565852Y249918D01*
X565868Y250023D01*
X565881Y250128D01*
X565891Y250233D01*
X565896Y250338D01*
X565898Y250444D01*
X564967Y248271D02*
X559689Y242062D01*
X565898Y242062D01*
D14*
X1421600Y524200D02*
X1421842Y524203D01*
X1422083Y524212D01*
X1422324Y524226D01*
X1422565Y524247D01*
X1422805Y524273D01*
X1423045Y524305D01*
X1423284Y524343D01*
X1423521Y524386D01*
X1423758Y524436D01*
X1423993Y524491D01*
X1424227Y524551D01*
X1424459Y524618D01*
X1424690Y524689D01*
X1424919Y524767D01*
X1425146Y524850D01*
X1425371Y524938D01*
X1425594Y525032D01*
X1425814Y525131D01*
X1426032Y525236D01*
X1426247Y525345D01*
X1426460Y525460D01*
X1426670Y525580D01*
X1426876Y525705D01*
X1427080Y525835D01*
X1427281Y525970D01*
X1427478Y526110D01*
X1427672Y526254D01*
X1427862Y526403D01*
X1428048Y526557D01*
X1428231Y526715D01*
X1428410Y526877D01*
X1428585Y527044D01*
X1428756Y527215D01*
X1428923Y527390D01*
X1429085Y527569D01*
X1429243Y527752D01*
X1429397Y527938D01*
X1429546Y528128D01*
X1429690Y528322D01*
X1429830Y528519D01*
X1429965Y528720D01*
X1430095Y528924D01*
X1430220Y529130D01*
X1430340Y529340D01*
X1430455Y529553D01*
X1430564Y529768D01*
X1430669Y529986D01*
X1430768Y530206D01*
X1430862Y530429D01*
X1430950Y530654D01*
X1431033Y530881D01*
X1431111Y531110D01*
X1431182Y531341D01*
X1431249Y531573D01*
X1431309Y531807D01*
X1431364Y532042D01*
X1431414Y532279D01*
X1431457Y532516D01*
X1431495Y532755D01*
X1431527Y532995D01*
X1431553Y533235D01*
X1431574Y533476D01*
X1431588Y533717D01*
X1431597Y533958D01*
X1431600Y534200D01*
X1421600Y524200D02*
X1321600Y524200D01*
X1321358Y524203D01*
X1321117Y524212D01*
X1320876Y524226D01*
X1320635Y524247D01*
X1320395Y524273D01*
X1320155Y524305D01*
X1319916Y524343D01*
X1319679Y524386D01*
X1319442Y524436D01*
X1319207Y524491D01*
X1318973Y524551D01*
X1318741Y524618D01*
X1318510Y524689D01*
X1318281Y524767D01*
X1318054Y524850D01*
X1317829Y524938D01*
X1317606Y525032D01*
X1317386Y525131D01*
X1317168Y525236D01*
X1316953Y525345D01*
X1316740Y525460D01*
X1316530Y525580D01*
X1316324Y525705D01*
X1316120Y525835D01*
X1315919Y525970D01*
X1315722Y526110D01*
X1315528Y526254D01*
X1315338Y526403D01*
X1315152Y526557D01*
X1314969Y526715D01*
X1314790Y526877D01*
X1314615Y527044D01*
X1314444Y527215D01*
X1314277Y527390D01*
X1314115Y527569D01*
X1313957Y527752D01*
X1313803Y527938D01*
X1313654Y528128D01*
X1313510Y528322D01*
X1313370Y528519D01*
X1313235Y528720D01*
X1313105Y528924D01*
X1312980Y529130D01*
X1312860Y529340D01*
X1312745Y529553D01*
X1312636Y529768D01*
X1312531Y529986D01*
X1312432Y530206D01*
X1312338Y530429D01*
X1312250Y530654D01*
X1312167Y530881D01*
X1312089Y531110D01*
X1312018Y531341D01*
X1311951Y531573D01*
X1311891Y531807D01*
X1311836Y532042D01*
X1311786Y532279D01*
X1311743Y532516D01*
X1311705Y532755D01*
X1311673Y532995D01*
X1311647Y533235D01*
X1311626Y533476D01*
X1311612Y533717D01*
X1311603Y533958D01*
X1311600Y534200D01*
X1311600Y634200D02*
X1311603Y634442D01*
X1311612Y634683D01*
X1311626Y634924D01*
X1311647Y635165D01*
X1311673Y635405D01*
X1311705Y635645D01*
X1311743Y635884D01*
X1311786Y636121D01*
X1311836Y636358D01*
X1311891Y636593D01*
X1311951Y636827D01*
X1312018Y637059D01*
X1312089Y637290D01*
X1312167Y637519D01*
X1312250Y637746D01*
X1312338Y637971D01*
X1312432Y638194D01*
X1312531Y638414D01*
X1312636Y638632D01*
X1312745Y638847D01*
X1312860Y639060D01*
X1312980Y639270D01*
X1313105Y639476D01*
X1313235Y639680D01*
X1313370Y639881D01*
X1313510Y640078D01*
X1313654Y640272D01*
X1313803Y640462D01*
X1313957Y640648D01*
X1314115Y640831D01*
X1314277Y641010D01*
X1314444Y641185D01*
X1314615Y641356D01*
X1314790Y641523D01*
X1314969Y641685D01*
X1315152Y641843D01*
X1315338Y641997D01*
X1315528Y642146D01*
X1315722Y642290D01*
X1315919Y642430D01*
X1316120Y642565D01*
X1316324Y642695D01*
X1316530Y642820D01*
X1316740Y642940D01*
X1316953Y643055D01*
X1317168Y643164D01*
X1317386Y643269D01*
X1317606Y643368D01*
X1317829Y643462D01*
X1318054Y643550D01*
X1318281Y643633D01*
X1318510Y643711D01*
X1318741Y643782D01*
X1318973Y643849D01*
X1319207Y643909D01*
X1319442Y643964D01*
X1319679Y644014D01*
X1319916Y644057D01*
X1320155Y644095D01*
X1320395Y644127D01*
X1320635Y644153D01*
X1320876Y644174D01*
X1321117Y644188D01*
X1321358Y644197D01*
X1321600Y644200D01*
X1421600Y644200D01*
X1421842Y644197D01*
X1422083Y644188D01*
X1422324Y644174D01*
X1422565Y644153D01*
X1422805Y644127D01*
X1423045Y644095D01*
X1423284Y644057D01*
X1423521Y644014D01*
X1423758Y643964D01*
X1423993Y643909D01*
X1424227Y643849D01*
X1424459Y643782D01*
X1424690Y643711D01*
X1424919Y643633D01*
X1425146Y643550D01*
X1425371Y643462D01*
X1425594Y643368D01*
X1425814Y643269D01*
X1426032Y643164D01*
X1426247Y643055D01*
X1426460Y642940D01*
X1426670Y642820D01*
X1426876Y642695D01*
X1427080Y642565D01*
X1427281Y642430D01*
X1427478Y642290D01*
X1427672Y642146D01*
X1427862Y641997D01*
X1428048Y641843D01*
X1428231Y641685D01*
X1428410Y641523D01*
X1428585Y641356D01*
X1428756Y641185D01*
X1428923Y641010D01*
X1429085Y640831D01*
X1429243Y640648D01*
X1429397Y640462D01*
X1429546Y640272D01*
X1429690Y640078D01*
X1429830Y639881D01*
X1429965Y639680D01*
X1430095Y639476D01*
X1430220Y639270D01*
X1430340Y639060D01*
X1430455Y638847D01*
X1430564Y638632D01*
X1430669Y638414D01*
X1430768Y638194D01*
X1430862Y637971D01*
X1430950Y637746D01*
X1431033Y637519D01*
X1431111Y637290D01*
X1431182Y637059D01*
X1431249Y636827D01*
X1431309Y636593D01*
X1431364Y636358D01*
X1431414Y636121D01*
X1431457Y635884D01*
X1431495Y635645D01*
X1431527Y635405D01*
X1431553Y635165D01*
X1431574Y634924D01*
X1431588Y634683D01*
X1431597Y634442D01*
X1431600Y634200D01*
X1336245Y584200D02*
X1336256Y585068D01*
X1336288Y585935D01*
X1336341Y586801D01*
X1336415Y587665D01*
X1336511Y588528D01*
X1336628Y589388D01*
X1336766Y590244D01*
X1336924Y591097D01*
X1337104Y591946D01*
X1337305Y592791D01*
X1337526Y593630D01*
X1337767Y594463D01*
X1338029Y595290D01*
X1338312Y596111D01*
X1338614Y596924D01*
X1338936Y597730D01*
X1339278Y598527D01*
X1339639Y599316D01*
X1340020Y600096D01*
X1340420Y600866D01*
X1340838Y601626D01*
X1341275Y602376D01*
X1341730Y603115D01*
X1342203Y603842D01*
X1342694Y604558D01*
X1343203Y605261D01*
X1343728Y605952D01*
X1344270Y606629D01*
X1344829Y607293D01*
X1345404Y607943D01*
X1345994Y608579D01*
X1346600Y609200D01*
X1347221Y609806D01*
X1347857Y610396D01*
X1348507Y610971D01*
X1349171Y611530D01*
X1349848Y612072D01*
X1350539Y612597D01*
X1351242Y613106D01*
X1351958Y613597D01*
X1352685Y614070D01*
X1353424Y614525D01*
X1354174Y614962D01*
X1354934Y615380D01*
X1355704Y615780D01*
X1356484Y616161D01*
X1357273Y616522D01*
X1358070Y616864D01*
X1358876Y617186D01*
X1359689Y617488D01*
X1360510Y617771D01*
X1361337Y618033D01*
X1362170Y618274D01*
X1363009Y618495D01*
X1363854Y618696D01*
X1364703Y618876D01*
X1365556Y619034D01*
X1366412Y619172D01*
X1367272Y619289D01*
X1368135Y619385D01*
X1368999Y619459D01*
X1369865Y619512D01*
X1370732Y619544D01*
X1371600Y619555D01*
X1372468Y619544D01*
X1373335Y619512D01*
X1374201Y619459D01*
X1375065Y619385D01*
X1375928Y619289D01*
X1376788Y619172D01*
X1377644Y619034D01*
X1378497Y618876D01*
X1379346Y618696D01*
X1380191Y618495D01*
X1381030Y618274D01*
X1381863Y618033D01*
X1382690Y617771D01*
X1383511Y617488D01*
X1384324Y617186D01*
X1385130Y616864D01*
X1385927Y616522D01*
X1386716Y616161D01*
X1387496Y615780D01*
X1388266Y615380D01*
X1389026Y614962D01*
X1389776Y614525D01*
X1390515Y614070D01*
X1391242Y613597D01*
X1391958Y613106D01*
X1392661Y612597D01*
X1393352Y612072D01*
X1394029Y611530D01*
X1394693Y610971D01*
X1395343Y610396D01*
X1395979Y609806D01*
X1396600Y609200D01*
X1397206Y608579D01*
X1397796Y607943D01*
X1398371Y607293D01*
X1398930Y606629D01*
X1399472Y605952D01*
X1399997Y605261D01*
X1400506Y604558D01*
X1400997Y603842D01*
X1401470Y603115D01*
X1401925Y602376D01*
X1402362Y601626D01*
X1402780Y600866D01*
X1403180Y600096D01*
X1403561Y599316D01*
X1403922Y598527D01*
X1404264Y597730D01*
X1404586Y596924D01*
X1404888Y596111D01*
X1405171Y595290D01*
X1405433Y594463D01*
X1405674Y593630D01*
X1405895Y592791D01*
X1406096Y591946D01*
X1406276Y591097D01*
X1406434Y590244D01*
X1406572Y589388D01*
X1406689Y588528D01*
X1406785Y587665D01*
X1406859Y586801D01*
X1406912Y585935D01*
X1406944Y585068D01*
X1406955Y584200D01*
X1406944Y583332D01*
X1406912Y582465D01*
X1406859Y581599D01*
X1406785Y580735D01*
X1406689Y579872D01*
X1406572Y579012D01*
X1406434Y578156D01*
X1406276Y577303D01*
X1406096Y576454D01*
X1405895Y575609D01*
X1405674Y574770D01*
X1405433Y573937D01*
X1405171Y573110D01*
X1404888Y572289D01*
X1404586Y571476D01*
X1404264Y570670D01*
X1403922Y569873D01*
X1403561Y569084D01*
X1403180Y568304D01*
X1402780Y567534D01*
X1402362Y566774D01*
X1401925Y566024D01*
X1401470Y565285D01*
X1400997Y564558D01*
X1400506Y563842D01*
X1399997Y563139D01*
X1399472Y562448D01*
X1398930Y561771D01*
X1398371Y561107D01*
X1397796Y560457D01*
X1397206Y559821D01*
X1396600Y559200D01*
X1395979Y558594D01*
X1395343Y558004D01*
X1394693Y557429D01*
X1394029Y556870D01*
X1393352Y556328D01*
X1392661Y555803D01*
X1391958Y555294D01*
X1391242Y554803D01*
X1390515Y554330D01*
X1389776Y553875D01*
X1389026Y553438D01*
X1388266Y553020D01*
X1387496Y552620D01*
X1386716Y552239D01*
X1385927Y551878D01*
X1385130Y551536D01*
X1384324Y551214D01*
X1383511Y550912D01*
X1382690Y550629D01*
X1381863Y550367D01*
X1381030Y550126D01*
X1380191Y549905D01*
X1379346Y549704D01*
X1378497Y549524D01*
X1377644Y549366D01*
X1376788Y549228D01*
X1375928Y549111D01*
X1375065Y549015D01*
X1374201Y548941D01*
X1373335Y548888D01*
X1372468Y548856D01*
X1371600Y548845D01*
X1370732Y548856D01*
X1369865Y548888D01*
X1368999Y548941D01*
X1368135Y549015D01*
X1367272Y549111D01*
X1366412Y549228D01*
X1365556Y549366D01*
X1364703Y549524D01*
X1363854Y549704D01*
X1363009Y549905D01*
X1362170Y550126D01*
X1361337Y550367D01*
X1360510Y550629D01*
X1359689Y550912D01*
X1358876Y551214D01*
X1358070Y551536D01*
X1357273Y551878D01*
X1356484Y552239D01*
X1355704Y552620D01*
X1354934Y553020D01*
X1354174Y553438D01*
X1353424Y553875D01*
X1352685Y554330D01*
X1351958Y554803D01*
X1351242Y555294D01*
X1350539Y555803D01*
X1349848Y556328D01*
X1349171Y556870D01*
X1348507Y557429D01*
X1347857Y558004D01*
X1347221Y558594D01*
X1346600Y559200D01*
X1345994Y559821D01*
X1345404Y560457D01*
X1344829Y561107D01*
X1344270Y561771D01*
X1343728Y562448D01*
X1343203Y563139D01*
X1342694Y563842D01*
X1342203Y564558D01*
X1341730Y565285D01*
X1341275Y566024D01*
X1340838Y566774D01*
X1340420Y567534D01*
X1340020Y568304D01*
X1339639Y569084D01*
X1339278Y569873D01*
X1338936Y570670D01*
X1338614Y571476D01*
X1338312Y572289D01*
X1338029Y573110D01*
X1337767Y573937D01*
X1337526Y574770D01*
X1337305Y575609D01*
X1337104Y576454D01*
X1336924Y577303D01*
X1336766Y578156D01*
X1336628Y579012D01*
X1336511Y579872D01*
X1336415Y580735D01*
X1336341Y581599D01*
X1336288Y582465D01*
X1336256Y583332D01*
X1336245Y584200D01*
X1351600Y604200D02*
X1391600Y604200D01*
X1391600Y564200D01*
X1351600Y564200D01*
X1351600Y604200D01*
X1311600Y621700D02*
X1311600Y634200D01*
X1311600Y596700D02*
X1311600Y571700D01*
X1311600Y546700D02*
X1311600Y534200D01*
X1431600Y621700D02*
X1431600Y634200D01*
X1431600Y596700D02*
X1431600Y571700D01*
X1431600Y546700D02*
X1431600Y534200D01*
D15*
X1325203Y648208D02*
X1325302Y648210D01*
X1325402Y648216D01*
X1325501Y648225D01*
X1325599Y648238D01*
X1325697Y648255D01*
X1325795Y648276D01*
X1325891Y648301D01*
X1325986Y648329D01*
X1326080Y648361D01*
X1326173Y648396D01*
X1326265Y648435D01*
X1326355Y648478D01*
X1326443Y648523D01*
X1326530Y648573D01*
X1326614Y648625D01*
X1326697Y648681D01*
X1326777Y648739D01*
X1326855Y648801D01*
X1326930Y648866D01*
X1327003Y648934D01*
X1327073Y649004D01*
X1327141Y649077D01*
X1327206Y649152D01*
X1327268Y649230D01*
X1327326Y649310D01*
X1327382Y649393D01*
X1327434Y649477D01*
X1327484Y649564D01*
X1327529Y649652D01*
X1327572Y649742D01*
X1327611Y649834D01*
X1327646Y649927D01*
X1327678Y650021D01*
X1327706Y650116D01*
X1327731Y650212D01*
X1327752Y650310D01*
X1327769Y650408D01*
X1327782Y650506D01*
X1327791Y650605D01*
X1327797Y650705D01*
X1327799Y650804D01*
X1325203Y648208D02*
X1325059Y648210D01*
X1324914Y648216D01*
X1324770Y648225D01*
X1324627Y648238D01*
X1324483Y648255D01*
X1324340Y648276D01*
X1324198Y648301D01*
X1324057Y648329D01*
X1323916Y648361D01*
X1323776Y648397D01*
X1323637Y648436D01*
X1323499Y648479D01*
X1323363Y648526D01*
X1323227Y648576D01*
X1323093Y648630D01*
X1322961Y648687D01*
X1322830Y648748D01*
X1322701Y648812D01*
X1322573Y648880D01*
X1322447Y648950D01*
X1322323Y649025D01*
X1322202Y649102D01*
X1322082Y649183D01*
X1321964Y649266D01*
X1321849Y649353D01*
X1321736Y649443D01*
X1321625Y649536D01*
X1321517Y649631D01*
X1321411Y649730D01*
X1321308Y649831D01*
X1321633Y657296D02*
X1321635Y657395D01*
X1321641Y657495D01*
X1321650Y657594D01*
X1321663Y657692D01*
X1321680Y657790D01*
X1321701Y657888D01*
X1321726Y657984D01*
X1321754Y658079D01*
X1321786Y658173D01*
X1321821Y658266D01*
X1321860Y658358D01*
X1321903Y658448D01*
X1321948Y658536D01*
X1321998Y658623D01*
X1322050Y658707D01*
X1322106Y658790D01*
X1322164Y658870D01*
X1322226Y658948D01*
X1322291Y659023D01*
X1322359Y659096D01*
X1322429Y659166D01*
X1322502Y659234D01*
X1322577Y659299D01*
X1322655Y659361D01*
X1322735Y659419D01*
X1322818Y659475D01*
X1322902Y659527D01*
X1322989Y659577D01*
X1323077Y659622D01*
X1323167Y659665D01*
X1323259Y659704D01*
X1323352Y659739D01*
X1323446Y659771D01*
X1323541Y659799D01*
X1323638Y659824D01*
X1323735Y659845D01*
X1323833Y659862D01*
X1323931Y659875D01*
X1324030Y659884D01*
X1324130Y659890D01*
X1324229Y659892D01*
X1324365Y659890D01*
X1324501Y659884D01*
X1324637Y659875D01*
X1324773Y659862D01*
X1324908Y659844D01*
X1325042Y659824D01*
X1325176Y659799D01*
X1325310Y659771D01*
X1325442Y659738D01*
X1325573Y659703D01*
X1325704Y659663D01*
X1325833Y659620D01*
X1325961Y659574D01*
X1326087Y659523D01*
X1326213Y659470D01*
X1326336Y659412D01*
X1326458Y659352D01*
X1326578Y659288D01*
X1326697Y659220D01*
X1326813Y659150D01*
X1326927Y659076D01*
X1327040Y658999D01*
X1327150Y658918D01*
X1322931Y655024D02*
X1322845Y655077D01*
X1322761Y655134D01*
X1322679Y655193D01*
X1322599Y655256D01*
X1322522Y655322D01*
X1322447Y655390D01*
X1322375Y655462D01*
X1322306Y655536D01*
X1322240Y655613D01*
X1322177Y655692D01*
X1322117Y655774D01*
X1322060Y655858D01*
X1322006Y655944D01*
X1321956Y656032D01*
X1321909Y656122D01*
X1321865Y656213D01*
X1321826Y656307D01*
X1321789Y656401D01*
X1321757Y656497D01*
X1321728Y656595D01*
X1321703Y656693D01*
X1321682Y656792D01*
X1321664Y656892D01*
X1321651Y656992D01*
X1321641Y657093D01*
X1321635Y657195D01*
X1321633Y657296D01*
X1326501Y653076D02*
X1326587Y653023D01*
X1326671Y652966D01*
X1326753Y652907D01*
X1326833Y652844D01*
X1326910Y652778D01*
X1326985Y652710D01*
X1327057Y652638D01*
X1327126Y652564D01*
X1327192Y652487D01*
X1327255Y652408D01*
X1327315Y652326D01*
X1327372Y652242D01*
X1327426Y652156D01*
X1327476Y652068D01*
X1327523Y651978D01*
X1327567Y651887D01*
X1327606Y651793D01*
X1327643Y651699D01*
X1327675Y651603D01*
X1327704Y651505D01*
X1327729Y651407D01*
X1327750Y651308D01*
X1327768Y651208D01*
X1327781Y651108D01*
X1327791Y651007D01*
X1327797Y650905D01*
X1327799Y650804D01*
X1326501Y653076D02*
X1322931Y655024D01*
X1331934Y659892D02*
X1334530Y648208D01*
X1337127Y655997D01*
X1339723Y648208D01*
X1342319Y659892D01*
X1346835Y648208D02*
X1350081Y648208D01*
X1350194Y648210D01*
X1350307Y648216D01*
X1350420Y648226D01*
X1350533Y648240D01*
X1350645Y648257D01*
X1350756Y648279D01*
X1350866Y648304D01*
X1350976Y648334D01*
X1351084Y648367D01*
X1351191Y648404D01*
X1351297Y648444D01*
X1351401Y648489D01*
X1351504Y648537D01*
X1351605Y648588D01*
X1351704Y648643D01*
X1351801Y648701D01*
X1351896Y648763D01*
X1351989Y648828D01*
X1352079Y648896D01*
X1352167Y648967D01*
X1352253Y649042D01*
X1352336Y649119D01*
X1352416Y649199D01*
X1352493Y649282D01*
X1352568Y649368D01*
X1352639Y649456D01*
X1352707Y649546D01*
X1352772Y649639D01*
X1352834Y649734D01*
X1352892Y649831D01*
X1352947Y649930D01*
X1352998Y650031D01*
X1353046Y650134D01*
X1353091Y650238D01*
X1353131Y650344D01*
X1353168Y650451D01*
X1353201Y650559D01*
X1353231Y650669D01*
X1353256Y650779D01*
X1353278Y650890D01*
X1353295Y651002D01*
X1353309Y651115D01*
X1353319Y651228D01*
X1353325Y651341D01*
X1353327Y651454D01*
X1353325Y651567D01*
X1353319Y651680D01*
X1353309Y651793D01*
X1353295Y651906D01*
X1353278Y652018D01*
X1353256Y652129D01*
X1353231Y652239D01*
X1353201Y652349D01*
X1353168Y652457D01*
X1353131Y652564D01*
X1353091Y652670D01*
X1353046Y652774D01*
X1352998Y652877D01*
X1352947Y652978D01*
X1352892Y653077D01*
X1352834Y653174D01*
X1352772Y653269D01*
X1352707Y653362D01*
X1352639Y653452D01*
X1352568Y653540D01*
X1352493Y653626D01*
X1352416Y653709D01*
X1352336Y653789D01*
X1352253Y653866D01*
X1352167Y653941D01*
X1352079Y654012D01*
X1351989Y654080D01*
X1351896Y654145D01*
X1351801Y654207D01*
X1351704Y654265D01*
X1351605Y654320D01*
X1351504Y654371D01*
X1351401Y654419D01*
X1351297Y654464D01*
X1351191Y654504D01*
X1351084Y654541D01*
X1350976Y654574D01*
X1350866Y654604D01*
X1350756Y654629D01*
X1350645Y654651D01*
X1350533Y654668D01*
X1350420Y654682D01*
X1350307Y654692D01*
X1350194Y654698D01*
X1350081Y654700D01*
X1350730Y659892D02*
X1346835Y659892D01*
X1350730Y659892D02*
X1350831Y659890D01*
X1350931Y659884D01*
X1351031Y659874D01*
X1351131Y659861D01*
X1351230Y659843D01*
X1351329Y659822D01*
X1351426Y659797D01*
X1351523Y659768D01*
X1351618Y659735D01*
X1351712Y659699D01*
X1351804Y659659D01*
X1351895Y659616D01*
X1351984Y659569D01*
X1352071Y659519D01*
X1352157Y659465D01*
X1352240Y659408D01*
X1352320Y659348D01*
X1352399Y659285D01*
X1352475Y659218D01*
X1352548Y659149D01*
X1352618Y659077D01*
X1352686Y659003D01*
X1352751Y658926D01*
X1352812Y658846D01*
X1352871Y658764D01*
X1352926Y658680D01*
X1352978Y658594D01*
X1353027Y658506D01*
X1353072Y658416D01*
X1353114Y658324D01*
X1353152Y658231D01*
X1353186Y658136D01*
X1353217Y658041D01*
X1353244Y657944D01*
X1353267Y657846D01*
X1353287Y657747D01*
X1353302Y657647D01*
X1353314Y657547D01*
X1353322Y657447D01*
X1353326Y657346D01*
X1353326Y657246D01*
X1353322Y657145D01*
X1353314Y657045D01*
X1353302Y656945D01*
X1353287Y656845D01*
X1353267Y656746D01*
X1353244Y656648D01*
X1353217Y656551D01*
X1353186Y656456D01*
X1353152Y656361D01*
X1353114Y656268D01*
X1353072Y656176D01*
X1353027Y656086D01*
X1352978Y655998D01*
X1352926Y655912D01*
X1352871Y655828D01*
X1352812Y655746D01*
X1352751Y655666D01*
X1352686Y655589D01*
X1352618Y655515D01*
X1352548Y655443D01*
X1352475Y655374D01*
X1352399Y655307D01*
X1352320Y655244D01*
X1352240Y655184D01*
X1352157Y655127D01*
X1352071Y655073D01*
X1351984Y655023D01*
X1351895Y654976D01*
X1351804Y654933D01*
X1351712Y654893D01*
X1351618Y654857D01*
X1351523Y654824D01*
X1351426Y654795D01*
X1351329Y654770D01*
X1351230Y654749D01*
X1351131Y654731D01*
X1351031Y654718D01*
X1350931Y654708D01*
X1350831Y654702D01*
X1350730Y654700D01*
X1350730Y654699D02*
X1348133Y654699D01*
D14*
X1431600Y331000D02*
X1431597Y330758D01*
X1431588Y330517D01*
X1431574Y330276D01*
X1431553Y330035D01*
X1431527Y329795D01*
X1431495Y329555D01*
X1431457Y329316D01*
X1431414Y329079D01*
X1431364Y328842D01*
X1431309Y328607D01*
X1431249Y328373D01*
X1431182Y328141D01*
X1431111Y327910D01*
X1431033Y327681D01*
X1430950Y327454D01*
X1430862Y327229D01*
X1430768Y327006D01*
X1430669Y326786D01*
X1430564Y326568D01*
X1430455Y326353D01*
X1430340Y326140D01*
X1430220Y325930D01*
X1430095Y325724D01*
X1429965Y325520D01*
X1429830Y325319D01*
X1429690Y325122D01*
X1429546Y324928D01*
X1429397Y324738D01*
X1429243Y324552D01*
X1429085Y324369D01*
X1428923Y324190D01*
X1428756Y324015D01*
X1428585Y323844D01*
X1428410Y323677D01*
X1428231Y323515D01*
X1428048Y323357D01*
X1427862Y323203D01*
X1427672Y323054D01*
X1427478Y322910D01*
X1427281Y322770D01*
X1427080Y322635D01*
X1426876Y322505D01*
X1426670Y322380D01*
X1426460Y322260D01*
X1426247Y322145D01*
X1426032Y322036D01*
X1425814Y321931D01*
X1425594Y321832D01*
X1425371Y321738D01*
X1425146Y321650D01*
X1424919Y321567D01*
X1424690Y321489D01*
X1424459Y321418D01*
X1424227Y321351D01*
X1423993Y321291D01*
X1423758Y321236D01*
X1423521Y321186D01*
X1423284Y321143D01*
X1423045Y321105D01*
X1422805Y321073D01*
X1422565Y321047D01*
X1422324Y321026D01*
X1422083Y321012D01*
X1421842Y321003D01*
X1421600Y321000D01*
X1321600Y321000D01*
X1321358Y321003D01*
X1321117Y321012D01*
X1320876Y321026D01*
X1320635Y321047D01*
X1320395Y321073D01*
X1320155Y321105D01*
X1319916Y321143D01*
X1319679Y321186D01*
X1319442Y321236D01*
X1319207Y321291D01*
X1318973Y321351D01*
X1318741Y321418D01*
X1318510Y321489D01*
X1318281Y321567D01*
X1318054Y321650D01*
X1317829Y321738D01*
X1317606Y321832D01*
X1317386Y321931D01*
X1317168Y322036D01*
X1316953Y322145D01*
X1316740Y322260D01*
X1316530Y322380D01*
X1316324Y322505D01*
X1316120Y322635D01*
X1315919Y322770D01*
X1315722Y322910D01*
X1315528Y323054D01*
X1315338Y323203D01*
X1315152Y323357D01*
X1314969Y323515D01*
X1314790Y323677D01*
X1314615Y323844D01*
X1314444Y324015D01*
X1314277Y324190D01*
X1314115Y324369D01*
X1313957Y324552D01*
X1313803Y324738D01*
X1313654Y324928D01*
X1313510Y325122D01*
X1313370Y325319D01*
X1313235Y325520D01*
X1313105Y325724D01*
X1312980Y325930D01*
X1312860Y326140D01*
X1312745Y326353D01*
X1312636Y326568D01*
X1312531Y326786D01*
X1312432Y327006D01*
X1312338Y327229D01*
X1312250Y327454D01*
X1312167Y327681D01*
X1312089Y327910D01*
X1312018Y328141D01*
X1311951Y328373D01*
X1311891Y328607D01*
X1311836Y328842D01*
X1311786Y329079D01*
X1311743Y329316D01*
X1311705Y329555D01*
X1311673Y329795D01*
X1311647Y330035D01*
X1311626Y330276D01*
X1311612Y330517D01*
X1311603Y330758D01*
X1311600Y331000D01*
X1311600Y431000D02*
X1311603Y431242D01*
X1311612Y431483D01*
X1311626Y431724D01*
X1311647Y431965D01*
X1311673Y432205D01*
X1311705Y432445D01*
X1311743Y432684D01*
X1311786Y432921D01*
X1311836Y433158D01*
X1311891Y433393D01*
X1311951Y433627D01*
X1312018Y433859D01*
X1312089Y434090D01*
X1312167Y434319D01*
X1312250Y434546D01*
X1312338Y434771D01*
X1312432Y434994D01*
X1312531Y435214D01*
X1312636Y435432D01*
X1312745Y435647D01*
X1312860Y435860D01*
X1312980Y436070D01*
X1313105Y436276D01*
X1313235Y436480D01*
X1313370Y436681D01*
X1313510Y436878D01*
X1313654Y437072D01*
X1313803Y437262D01*
X1313957Y437448D01*
X1314115Y437631D01*
X1314277Y437810D01*
X1314444Y437985D01*
X1314615Y438156D01*
X1314790Y438323D01*
X1314969Y438485D01*
X1315152Y438643D01*
X1315338Y438797D01*
X1315528Y438946D01*
X1315722Y439090D01*
X1315919Y439230D01*
X1316120Y439365D01*
X1316324Y439495D01*
X1316530Y439620D01*
X1316740Y439740D01*
X1316953Y439855D01*
X1317168Y439964D01*
X1317386Y440069D01*
X1317606Y440168D01*
X1317829Y440262D01*
X1318054Y440350D01*
X1318281Y440433D01*
X1318510Y440511D01*
X1318741Y440582D01*
X1318973Y440649D01*
X1319207Y440709D01*
X1319442Y440764D01*
X1319679Y440814D01*
X1319916Y440857D01*
X1320155Y440895D01*
X1320395Y440927D01*
X1320635Y440953D01*
X1320876Y440974D01*
X1321117Y440988D01*
X1321358Y440997D01*
X1321600Y441000D01*
X1421600Y441000D01*
X1421842Y440997D01*
X1422083Y440988D01*
X1422324Y440974D01*
X1422565Y440953D01*
X1422805Y440927D01*
X1423045Y440895D01*
X1423284Y440857D01*
X1423521Y440814D01*
X1423758Y440764D01*
X1423993Y440709D01*
X1424227Y440649D01*
X1424459Y440582D01*
X1424690Y440511D01*
X1424919Y440433D01*
X1425146Y440350D01*
X1425371Y440262D01*
X1425594Y440168D01*
X1425814Y440069D01*
X1426032Y439964D01*
X1426247Y439855D01*
X1426460Y439740D01*
X1426670Y439620D01*
X1426876Y439495D01*
X1427080Y439365D01*
X1427281Y439230D01*
X1427478Y439090D01*
X1427672Y438946D01*
X1427862Y438797D01*
X1428048Y438643D01*
X1428231Y438485D01*
X1428410Y438323D01*
X1428585Y438156D01*
X1428756Y437985D01*
X1428923Y437810D01*
X1429085Y437631D01*
X1429243Y437448D01*
X1429397Y437262D01*
X1429546Y437072D01*
X1429690Y436878D01*
X1429830Y436681D01*
X1429965Y436480D01*
X1430095Y436276D01*
X1430220Y436070D01*
X1430340Y435860D01*
X1430455Y435647D01*
X1430564Y435432D01*
X1430669Y435214D01*
X1430768Y434994D01*
X1430862Y434771D01*
X1430950Y434546D01*
X1431033Y434319D01*
X1431111Y434090D01*
X1431182Y433859D01*
X1431249Y433627D01*
X1431309Y433393D01*
X1431364Y433158D01*
X1431414Y432921D01*
X1431457Y432684D01*
X1431495Y432445D01*
X1431527Y432205D01*
X1431553Y431965D01*
X1431574Y431724D01*
X1431588Y431483D01*
X1431597Y431242D01*
X1431600Y431000D01*
X1336245Y381000D02*
X1336256Y381868D01*
X1336288Y382735D01*
X1336341Y383601D01*
X1336415Y384465D01*
X1336511Y385328D01*
X1336628Y386188D01*
X1336766Y387044D01*
X1336924Y387897D01*
X1337104Y388746D01*
X1337305Y389591D01*
X1337526Y390430D01*
X1337767Y391263D01*
X1338029Y392090D01*
X1338312Y392911D01*
X1338614Y393724D01*
X1338936Y394530D01*
X1339278Y395327D01*
X1339639Y396116D01*
X1340020Y396896D01*
X1340420Y397666D01*
X1340838Y398426D01*
X1341275Y399176D01*
X1341730Y399915D01*
X1342203Y400642D01*
X1342694Y401358D01*
X1343203Y402061D01*
X1343728Y402752D01*
X1344270Y403429D01*
X1344829Y404093D01*
X1345404Y404743D01*
X1345994Y405379D01*
X1346600Y406000D01*
X1347221Y406606D01*
X1347857Y407196D01*
X1348507Y407771D01*
X1349171Y408330D01*
X1349848Y408872D01*
X1350539Y409397D01*
X1351242Y409906D01*
X1351958Y410397D01*
X1352685Y410870D01*
X1353424Y411325D01*
X1354174Y411762D01*
X1354934Y412180D01*
X1355704Y412580D01*
X1356484Y412961D01*
X1357273Y413322D01*
X1358070Y413664D01*
X1358876Y413986D01*
X1359689Y414288D01*
X1360510Y414571D01*
X1361337Y414833D01*
X1362170Y415074D01*
X1363009Y415295D01*
X1363854Y415496D01*
X1364703Y415676D01*
X1365556Y415834D01*
X1366412Y415972D01*
X1367272Y416089D01*
X1368135Y416185D01*
X1368999Y416259D01*
X1369865Y416312D01*
X1370732Y416344D01*
X1371600Y416355D01*
X1372468Y416344D01*
X1373335Y416312D01*
X1374201Y416259D01*
X1375065Y416185D01*
X1375928Y416089D01*
X1376788Y415972D01*
X1377644Y415834D01*
X1378497Y415676D01*
X1379346Y415496D01*
X1380191Y415295D01*
X1381030Y415074D01*
X1381863Y414833D01*
X1382690Y414571D01*
X1383511Y414288D01*
X1384324Y413986D01*
X1385130Y413664D01*
X1385927Y413322D01*
X1386716Y412961D01*
X1387496Y412580D01*
X1388266Y412180D01*
X1389026Y411762D01*
X1389776Y411325D01*
X1390515Y410870D01*
X1391242Y410397D01*
X1391958Y409906D01*
X1392661Y409397D01*
X1393352Y408872D01*
X1394029Y408330D01*
X1394693Y407771D01*
X1395343Y407196D01*
X1395979Y406606D01*
X1396600Y406000D01*
X1397206Y405379D01*
X1397796Y404743D01*
X1398371Y404093D01*
X1398930Y403429D01*
X1399472Y402752D01*
X1399997Y402061D01*
X1400506Y401358D01*
X1400997Y400642D01*
X1401470Y399915D01*
X1401925Y399176D01*
X1402362Y398426D01*
X1402780Y397666D01*
X1403180Y396896D01*
X1403561Y396116D01*
X1403922Y395327D01*
X1404264Y394530D01*
X1404586Y393724D01*
X1404888Y392911D01*
X1405171Y392090D01*
X1405433Y391263D01*
X1405674Y390430D01*
X1405895Y389591D01*
X1406096Y388746D01*
X1406276Y387897D01*
X1406434Y387044D01*
X1406572Y386188D01*
X1406689Y385328D01*
X1406785Y384465D01*
X1406859Y383601D01*
X1406912Y382735D01*
X1406944Y381868D01*
X1406955Y381000D01*
X1406944Y380132D01*
X1406912Y379265D01*
X1406859Y378399D01*
X1406785Y377535D01*
X1406689Y376672D01*
X1406572Y375812D01*
X1406434Y374956D01*
X1406276Y374103D01*
X1406096Y373254D01*
X1405895Y372409D01*
X1405674Y371570D01*
X1405433Y370737D01*
X1405171Y369910D01*
X1404888Y369089D01*
X1404586Y368276D01*
X1404264Y367470D01*
X1403922Y366673D01*
X1403561Y365884D01*
X1403180Y365104D01*
X1402780Y364334D01*
X1402362Y363574D01*
X1401925Y362824D01*
X1401470Y362085D01*
X1400997Y361358D01*
X1400506Y360642D01*
X1399997Y359939D01*
X1399472Y359248D01*
X1398930Y358571D01*
X1398371Y357907D01*
X1397796Y357257D01*
X1397206Y356621D01*
X1396600Y356000D01*
X1395979Y355394D01*
X1395343Y354804D01*
X1394693Y354229D01*
X1394029Y353670D01*
X1393352Y353128D01*
X1392661Y352603D01*
X1391958Y352094D01*
X1391242Y351603D01*
X1390515Y351130D01*
X1389776Y350675D01*
X1389026Y350238D01*
X1388266Y349820D01*
X1387496Y349420D01*
X1386716Y349039D01*
X1385927Y348678D01*
X1385130Y348336D01*
X1384324Y348014D01*
X1383511Y347712D01*
X1382690Y347429D01*
X1381863Y347167D01*
X1381030Y346926D01*
X1380191Y346705D01*
X1379346Y346504D01*
X1378497Y346324D01*
X1377644Y346166D01*
X1376788Y346028D01*
X1375928Y345911D01*
X1375065Y345815D01*
X1374201Y345741D01*
X1373335Y345688D01*
X1372468Y345656D01*
X1371600Y345645D01*
X1370732Y345656D01*
X1369865Y345688D01*
X1368999Y345741D01*
X1368135Y345815D01*
X1367272Y345911D01*
X1366412Y346028D01*
X1365556Y346166D01*
X1364703Y346324D01*
X1363854Y346504D01*
X1363009Y346705D01*
X1362170Y346926D01*
X1361337Y347167D01*
X1360510Y347429D01*
X1359689Y347712D01*
X1358876Y348014D01*
X1358070Y348336D01*
X1357273Y348678D01*
X1356484Y349039D01*
X1355704Y349420D01*
X1354934Y349820D01*
X1354174Y350238D01*
X1353424Y350675D01*
X1352685Y351130D01*
X1351958Y351603D01*
X1351242Y352094D01*
X1350539Y352603D01*
X1349848Y353128D01*
X1349171Y353670D01*
X1348507Y354229D01*
X1347857Y354804D01*
X1347221Y355394D01*
X1346600Y356000D01*
X1345994Y356621D01*
X1345404Y357257D01*
X1344829Y357907D01*
X1344270Y358571D01*
X1343728Y359248D01*
X1343203Y359939D01*
X1342694Y360642D01*
X1342203Y361358D01*
X1341730Y362085D01*
X1341275Y362824D01*
X1340838Y363574D01*
X1340420Y364334D01*
X1340020Y365104D01*
X1339639Y365884D01*
X1339278Y366673D01*
X1338936Y367470D01*
X1338614Y368276D01*
X1338312Y369089D01*
X1338029Y369910D01*
X1337767Y370737D01*
X1337526Y371570D01*
X1337305Y372409D01*
X1337104Y373254D01*
X1336924Y374103D01*
X1336766Y374956D01*
X1336628Y375812D01*
X1336511Y376672D01*
X1336415Y377535D01*
X1336341Y378399D01*
X1336288Y379265D01*
X1336256Y380132D01*
X1336245Y381000D01*
X1351600Y401000D02*
X1391600Y401000D01*
X1391600Y361000D01*
X1351600Y361000D01*
X1351600Y401000D01*
X1311600Y418500D02*
X1311600Y431000D01*
X1311600Y393500D02*
X1311600Y368500D01*
X1311600Y343500D02*
X1311600Y331000D01*
X1431600Y418500D02*
X1431600Y431000D01*
X1431600Y393500D02*
X1431600Y368500D01*
X1431600Y343500D02*
X1431600Y331000D01*
D15*
X1325203Y445008D02*
X1325302Y445010D01*
X1325402Y445016D01*
X1325501Y445025D01*
X1325599Y445038D01*
X1325697Y445055D01*
X1325795Y445076D01*
X1325891Y445101D01*
X1325986Y445129D01*
X1326080Y445161D01*
X1326173Y445196D01*
X1326265Y445235D01*
X1326355Y445278D01*
X1326443Y445323D01*
X1326530Y445373D01*
X1326614Y445425D01*
X1326697Y445481D01*
X1326777Y445539D01*
X1326855Y445601D01*
X1326930Y445666D01*
X1327003Y445734D01*
X1327073Y445804D01*
X1327141Y445877D01*
X1327206Y445952D01*
X1327268Y446030D01*
X1327326Y446110D01*
X1327382Y446193D01*
X1327434Y446277D01*
X1327484Y446364D01*
X1327529Y446452D01*
X1327572Y446542D01*
X1327611Y446634D01*
X1327646Y446727D01*
X1327678Y446821D01*
X1327706Y446916D01*
X1327731Y447012D01*
X1327752Y447110D01*
X1327769Y447208D01*
X1327782Y447306D01*
X1327791Y447405D01*
X1327797Y447505D01*
X1327799Y447604D01*
X1325203Y445008D02*
X1325059Y445010D01*
X1324914Y445016D01*
X1324770Y445025D01*
X1324627Y445038D01*
X1324483Y445055D01*
X1324340Y445076D01*
X1324198Y445101D01*
X1324057Y445129D01*
X1323916Y445161D01*
X1323776Y445197D01*
X1323637Y445236D01*
X1323499Y445279D01*
X1323363Y445326D01*
X1323227Y445376D01*
X1323093Y445430D01*
X1322961Y445487D01*
X1322830Y445548D01*
X1322701Y445612D01*
X1322573Y445680D01*
X1322447Y445750D01*
X1322323Y445825D01*
X1322202Y445902D01*
X1322082Y445983D01*
X1321964Y446066D01*
X1321849Y446153D01*
X1321736Y446243D01*
X1321625Y446336D01*
X1321517Y446431D01*
X1321411Y446530D01*
X1321308Y446631D01*
X1321633Y454096D02*
X1321635Y454195D01*
X1321641Y454295D01*
X1321650Y454394D01*
X1321663Y454492D01*
X1321680Y454590D01*
X1321701Y454688D01*
X1321726Y454784D01*
X1321754Y454879D01*
X1321786Y454973D01*
X1321821Y455066D01*
X1321860Y455158D01*
X1321903Y455248D01*
X1321948Y455336D01*
X1321998Y455423D01*
X1322050Y455507D01*
X1322106Y455590D01*
X1322164Y455670D01*
X1322226Y455748D01*
X1322291Y455823D01*
X1322359Y455896D01*
X1322429Y455966D01*
X1322502Y456034D01*
X1322577Y456099D01*
X1322655Y456161D01*
X1322735Y456219D01*
X1322818Y456275D01*
X1322902Y456327D01*
X1322989Y456377D01*
X1323077Y456422D01*
X1323167Y456465D01*
X1323259Y456504D01*
X1323352Y456539D01*
X1323446Y456571D01*
X1323541Y456599D01*
X1323638Y456624D01*
X1323735Y456645D01*
X1323833Y456662D01*
X1323931Y456675D01*
X1324030Y456684D01*
X1324130Y456690D01*
X1324229Y456692D01*
X1324365Y456690D01*
X1324501Y456684D01*
X1324637Y456675D01*
X1324773Y456662D01*
X1324908Y456644D01*
X1325042Y456624D01*
X1325176Y456599D01*
X1325310Y456571D01*
X1325442Y456538D01*
X1325573Y456503D01*
X1325704Y456463D01*
X1325833Y456420D01*
X1325961Y456374D01*
X1326087Y456323D01*
X1326213Y456270D01*
X1326336Y456212D01*
X1326458Y456152D01*
X1326578Y456088D01*
X1326697Y456020D01*
X1326813Y455950D01*
X1326927Y455876D01*
X1327040Y455799D01*
X1327150Y455718D01*
X1322931Y451824D02*
X1322845Y451877D01*
X1322761Y451934D01*
X1322679Y451993D01*
X1322599Y452056D01*
X1322522Y452122D01*
X1322447Y452190D01*
X1322375Y452262D01*
X1322306Y452336D01*
X1322240Y452413D01*
X1322177Y452492D01*
X1322117Y452574D01*
X1322060Y452658D01*
X1322006Y452744D01*
X1321956Y452832D01*
X1321909Y452922D01*
X1321865Y453013D01*
X1321826Y453107D01*
X1321789Y453201D01*
X1321757Y453297D01*
X1321728Y453395D01*
X1321703Y453493D01*
X1321682Y453592D01*
X1321664Y453692D01*
X1321651Y453792D01*
X1321641Y453893D01*
X1321635Y453995D01*
X1321633Y454096D01*
X1326501Y449876D02*
X1326587Y449823D01*
X1326671Y449766D01*
X1326753Y449707D01*
X1326833Y449644D01*
X1326910Y449578D01*
X1326985Y449510D01*
X1327057Y449438D01*
X1327126Y449364D01*
X1327192Y449287D01*
X1327255Y449208D01*
X1327315Y449126D01*
X1327372Y449042D01*
X1327426Y448956D01*
X1327476Y448868D01*
X1327523Y448778D01*
X1327567Y448687D01*
X1327606Y448593D01*
X1327643Y448499D01*
X1327675Y448403D01*
X1327704Y448305D01*
X1327729Y448207D01*
X1327750Y448108D01*
X1327768Y448008D01*
X1327781Y447908D01*
X1327791Y447807D01*
X1327797Y447705D01*
X1327799Y447604D01*
X1326501Y449876D02*
X1322931Y451824D01*
X1331934Y456692D02*
X1334530Y445008D01*
X1337127Y452797D01*
X1339723Y445008D01*
X1342319Y456692D01*
X1349431Y456692D02*
X1346835Y447604D01*
X1353326Y447604D01*
X1351379Y450201D02*
X1351379Y445008D01*
D16*
X665480Y101600D02*
X655320Y101600D01*
D15*
X673608Y102586D02*
X680720Y102586D01*
X673608Y102586D02*
X673608Y104562D01*
X673610Y104649D01*
X673616Y104737D01*
X673625Y104824D01*
X673639Y104910D01*
X673656Y104996D01*
X673677Y105080D01*
X673702Y105164D01*
X673731Y105247D01*
X673763Y105328D01*
X673798Y105408D01*
X673837Y105486D01*
X673880Y105563D01*
X673926Y105637D01*
X673975Y105709D01*
X674027Y105779D01*
X674083Y105847D01*
X674141Y105912D01*
X674202Y105975D01*
X674266Y106034D01*
X674333Y106091D01*
X674401Y106145D01*
X674473Y106196D01*
X674546Y106243D01*
X674621Y106288D01*
X674699Y106329D01*
X674778Y106366D01*
X674858Y106400D01*
X674940Y106430D01*
X675023Y106457D01*
X675108Y106480D01*
X675193Y106499D01*
X675279Y106514D01*
X675366Y106526D01*
X675453Y106534D01*
X675540Y106538D01*
X675628Y106538D01*
X675715Y106534D01*
X675802Y106526D01*
X675889Y106514D01*
X675975Y106499D01*
X676060Y106480D01*
X676145Y106457D01*
X676228Y106430D01*
X676310Y106400D01*
X676390Y106366D01*
X676469Y106329D01*
X676547Y106288D01*
X676622Y106243D01*
X676695Y106196D01*
X676767Y106145D01*
X676835Y106091D01*
X676902Y106034D01*
X676966Y105975D01*
X677027Y105912D01*
X677085Y105847D01*
X677141Y105779D01*
X677193Y105709D01*
X677242Y105637D01*
X677288Y105563D01*
X677331Y105486D01*
X677370Y105408D01*
X677405Y105328D01*
X677437Y105247D01*
X677466Y105164D01*
X677491Y105080D01*
X677512Y104996D01*
X677529Y104910D01*
X677543Y104824D01*
X677552Y104737D01*
X677558Y104649D01*
X677560Y104562D01*
X677559Y104562D02*
X677559Y102586D01*
X677559Y104957D02*
X680720Y106537D01*
X673608Y112014D02*
X673610Y112096D01*
X673616Y112178D01*
X673625Y112260D01*
X673638Y112341D01*
X673655Y112421D01*
X673676Y112501D01*
X673700Y112579D01*
X673728Y112656D01*
X673759Y112732D01*
X673794Y112807D01*
X673833Y112879D01*
X673874Y112950D01*
X673919Y113019D01*
X673967Y113085D01*
X674018Y113150D01*
X674072Y113212D01*
X674129Y113271D01*
X674188Y113328D01*
X674250Y113382D01*
X674315Y113433D01*
X674381Y113481D01*
X674450Y113526D01*
X674521Y113567D01*
X674593Y113606D01*
X674668Y113641D01*
X674744Y113672D01*
X674821Y113700D01*
X674899Y113724D01*
X674979Y113745D01*
X675059Y113762D01*
X675140Y113775D01*
X675222Y113784D01*
X675304Y113790D01*
X675386Y113792D01*
X673608Y112014D02*
X673610Y111921D01*
X673616Y111829D01*
X673625Y111737D01*
X673638Y111645D01*
X673655Y111554D01*
X673675Y111464D01*
X673699Y111374D01*
X673727Y111286D01*
X673759Y111198D01*
X673793Y111113D01*
X673832Y111028D01*
X673873Y110946D01*
X673918Y110865D01*
X673967Y110785D01*
X674018Y110708D01*
X674072Y110633D01*
X674130Y110561D01*
X674190Y110490D01*
X674254Y110423D01*
X674319Y110358D01*
X674388Y110295D01*
X674459Y110236D01*
X674532Y110179D01*
X674608Y110125D01*
X674685Y110075D01*
X674765Y110027D01*
X674847Y109983D01*
X674930Y109943D01*
X675015Y109905D01*
X675101Y109871D01*
X675188Y109841D01*
X676769Y113199D02*
X676708Y113260D01*
X676645Y113318D01*
X676579Y113373D01*
X676511Y113426D01*
X676440Y113475D01*
X676368Y113520D01*
X676293Y113563D01*
X676217Y113602D01*
X676138Y113638D01*
X676059Y113670D01*
X675978Y113698D01*
X675895Y113723D01*
X675812Y113744D01*
X675728Y113761D01*
X675643Y113775D01*
X675558Y113784D01*
X675472Y113790D01*
X675386Y113792D01*
X676769Y113199D02*
X680720Y109841D01*
X680720Y113792D01*
D16*
X1447800Y579120D02*
X1447800Y589280D01*
D12*
X1435481Y597281D02*
X1435481Y604647D01*
X1437527Y604647D01*
X1437616Y604645D01*
X1437705Y604639D01*
X1437794Y604629D01*
X1437882Y604616D01*
X1437970Y604599D01*
X1438057Y604577D01*
X1438142Y604552D01*
X1438227Y604524D01*
X1438310Y604491D01*
X1438392Y604455D01*
X1438472Y604416D01*
X1438550Y604373D01*
X1438626Y604327D01*
X1438701Y604277D01*
X1438773Y604224D01*
X1438842Y604168D01*
X1438909Y604109D01*
X1438974Y604048D01*
X1439035Y603983D01*
X1439094Y603916D01*
X1439150Y603847D01*
X1439203Y603775D01*
X1439253Y603700D01*
X1439299Y603624D01*
X1439342Y603546D01*
X1439381Y603466D01*
X1439417Y603384D01*
X1439450Y603301D01*
X1439478Y603216D01*
X1439503Y603131D01*
X1439525Y603044D01*
X1439542Y602956D01*
X1439555Y602868D01*
X1439565Y602779D01*
X1439571Y602690D01*
X1439573Y602601D01*
X1439571Y602512D01*
X1439565Y602423D01*
X1439555Y602334D01*
X1439542Y602246D01*
X1439525Y602158D01*
X1439503Y602071D01*
X1439478Y601986D01*
X1439450Y601901D01*
X1439417Y601818D01*
X1439381Y601736D01*
X1439342Y601656D01*
X1439299Y601578D01*
X1439253Y601502D01*
X1439203Y601427D01*
X1439150Y601355D01*
X1439094Y601286D01*
X1439035Y601219D01*
X1438974Y601154D01*
X1438909Y601093D01*
X1438842Y601034D01*
X1438773Y600978D01*
X1438701Y600925D01*
X1438626Y600875D01*
X1438550Y600829D01*
X1438472Y600786D01*
X1438392Y600747D01*
X1438310Y600711D01*
X1438227Y600678D01*
X1438142Y600650D01*
X1438057Y600625D01*
X1437970Y600603D01*
X1437882Y600586D01*
X1437794Y600573D01*
X1437705Y600563D01*
X1437616Y600557D01*
X1437527Y600555D01*
X1435481Y600555D01*
X1437936Y600555D02*
X1439573Y597281D01*
X1442745Y597281D02*
X1444791Y597281D01*
X1444880Y597283D01*
X1444969Y597289D01*
X1445058Y597299D01*
X1445146Y597312D01*
X1445234Y597329D01*
X1445321Y597351D01*
X1445406Y597376D01*
X1445491Y597404D01*
X1445574Y597437D01*
X1445656Y597473D01*
X1445736Y597512D01*
X1445814Y597555D01*
X1445890Y597601D01*
X1445965Y597651D01*
X1446037Y597704D01*
X1446106Y597760D01*
X1446173Y597819D01*
X1446238Y597880D01*
X1446299Y597945D01*
X1446358Y598012D01*
X1446414Y598081D01*
X1446467Y598153D01*
X1446517Y598228D01*
X1446563Y598304D01*
X1446606Y598382D01*
X1446645Y598462D01*
X1446681Y598544D01*
X1446714Y598627D01*
X1446742Y598712D01*
X1446767Y598797D01*
X1446789Y598884D01*
X1446806Y598972D01*
X1446819Y599060D01*
X1446829Y599149D01*
X1446835Y599238D01*
X1446837Y599327D01*
X1446835Y599416D01*
X1446829Y599505D01*
X1446819Y599594D01*
X1446806Y599682D01*
X1446789Y599770D01*
X1446767Y599857D01*
X1446742Y599942D01*
X1446714Y600027D01*
X1446681Y600110D01*
X1446645Y600192D01*
X1446606Y600272D01*
X1446563Y600350D01*
X1446517Y600426D01*
X1446467Y600501D01*
X1446414Y600573D01*
X1446358Y600642D01*
X1446299Y600709D01*
X1446238Y600774D01*
X1446173Y600835D01*
X1446106Y600894D01*
X1446037Y600950D01*
X1445965Y601003D01*
X1445890Y601053D01*
X1445814Y601099D01*
X1445736Y601142D01*
X1445656Y601181D01*
X1445574Y601217D01*
X1445491Y601250D01*
X1445406Y601278D01*
X1445321Y601303D01*
X1445234Y601325D01*
X1445146Y601342D01*
X1445058Y601355D01*
X1444969Y601365D01*
X1444880Y601371D01*
X1444791Y601373D01*
X1445200Y604647D02*
X1442745Y604647D01*
X1445200Y604647D02*
X1445279Y604645D01*
X1445358Y604639D01*
X1445437Y604630D01*
X1445515Y604617D01*
X1445592Y604599D01*
X1445668Y604579D01*
X1445743Y604554D01*
X1445817Y604526D01*
X1445890Y604495D01*
X1445961Y604459D01*
X1446030Y604421D01*
X1446097Y604379D01*
X1446162Y604334D01*
X1446225Y604286D01*
X1446286Y604235D01*
X1446343Y604181D01*
X1446399Y604125D01*
X1446451Y604066D01*
X1446501Y604004D01*
X1446547Y603940D01*
X1446591Y603874D01*
X1446631Y603806D01*
X1446667Y603736D01*
X1446701Y603664D01*
X1446731Y603590D01*
X1446757Y603516D01*
X1446780Y603440D01*
X1446798Y603363D01*
X1446814Y603286D01*
X1446825Y603207D01*
X1446833Y603129D01*
X1446837Y603050D01*
X1446837Y602970D01*
X1446833Y602891D01*
X1446825Y602813D01*
X1446814Y602734D01*
X1446798Y602657D01*
X1446780Y602580D01*
X1446757Y602504D01*
X1446731Y602430D01*
X1446701Y602356D01*
X1446667Y602284D01*
X1446631Y602214D01*
X1446591Y602146D01*
X1446547Y602080D01*
X1446501Y602016D01*
X1446451Y601954D01*
X1446399Y601895D01*
X1446343Y601839D01*
X1446286Y601785D01*
X1446225Y601734D01*
X1446162Y601686D01*
X1446097Y601641D01*
X1446030Y601599D01*
X1445961Y601561D01*
X1445890Y601525D01*
X1445817Y601494D01*
X1445743Y601466D01*
X1445668Y601441D01*
X1445592Y601421D01*
X1445515Y601403D01*
X1445437Y601390D01*
X1445358Y601381D01*
X1445279Y601375D01*
X1445200Y601373D01*
X1443563Y601373D01*
D16*
X1447800Y462280D02*
X1447800Y452120D01*
D12*
X1435481Y470281D02*
X1435481Y477647D01*
X1437527Y477647D01*
X1437616Y477645D01*
X1437705Y477639D01*
X1437794Y477629D01*
X1437882Y477616D01*
X1437970Y477599D01*
X1438057Y477577D01*
X1438142Y477552D01*
X1438227Y477524D01*
X1438310Y477491D01*
X1438392Y477455D01*
X1438472Y477416D01*
X1438550Y477373D01*
X1438626Y477327D01*
X1438701Y477277D01*
X1438773Y477224D01*
X1438842Y477168D01*
X1438909Y477109D01*
X1438974Y477048D01*
X1439035Y476983D01*
X1439094Y476916D01*
X1439150Y476847D01*
X1439203Y476775D01*
X1439253Y476700D01*
X1439299Y476624D01*
X1439342Y476546D01*
X1439381Y476466D01*
X1439417Y476384D01*
X1439450Y476301D01*
X1439478Y476216D01*
X1439503Y476131D01*
X1439525Y476044D01*
X1439542Y475956D01*
X1439555Y475868D01*
X1439565Y475779D01*
X1439571Y475690D01*
X1439573Y475601D01*
X1439571Y475512D01*
X1439565Y475423D01*
X1439555Y475334D01*
X1439542Y475246D01*
X1439525Y475158D01*
X1439503Y475071D01*
X1439478Y474986D01*
X1439450Y474901D01*
X1439417Y474818D01*
X1439381Y474736D01*
X1439342Y474656D01*
X1439299Y474578D01*
X1439253Y474502D01*
X1439203Y474427D01*
X1439150Y474355D01*
X1439094Y474286D01*
X1439035Y474219D01*
X1438974Y474154D01*
X1438909Y474093D01*
X1438842Y474034D01*
X1438773Y473978D01*
X1438701Y473925D01*
X1438626Y473875D01*
X1438550Y473829D01*
X1438472Y473786D01*
X1438392Y473747D01*
X1438310Y473711D01*
X1438227Y473678D01*
X1438142Y473650D01*
X1438057Y473625D01*
X1437970Y473603D01*
X1437882Y473586D01*
X1437794Y473573D01*
X1437705Y473563D01*
X1437616Y473557D01*
X1437527Y473555D01*
X1435481Y473555D01*
X1437936Y473555D02*
X1439573Y470281D01*
X1442745Y471918D02*
X1444382Y477647D01*
X1442745Y471918D02*
X1446837Y471918D01*
X1445610Y473555D02*
X1445610Y470281D01*
D16*
X538480Y584200D02*
X528320Y584200D01*
D12*
X508381Y584581D02*
X508381Y591947D01*
X510427Y591947D01*
X510516Y591945D01*
X510605Y591939D01*
X510694Y591929D01*
X510782Y591916D01*
X510870Y591899D01*
X510957Y591877D01*
X511042Y591852D01*
X511127Y591824D01*
X511210Y591791D01*
X511292Y591755D01*
X511372Y591716D01*
X511450Y591673D01*
X511526Y591627D01*
X511601Y591577D01*
X511673Y591524D01*
X511742Y591468D01*
X511809Y591409D01*
X511874Y591348D01*
X511935Y591283D01*
X511994Y591216D01*
X512050Y591147D01*
X512103Y591075D01*
X512153Y591000D01*
X512199Y590924D01*
X512242Y590846D01*
X512281Y590766D01*
X512317Y590684D01*
X512350Y590601D01*
X512378Y590516D01*
X512403Y590431D01*
X512425Y590344D01*
X512442Y590256D01*
X512455Y590168D01*
X512465Y590079D01*
X512471Y589990D01*
X512473Y589901D01*
X512471Y589812D01*
X512465Y589723D01*
X512455Y589634D01*
X512442Y589546D01*
X512425Y589458D01*
X512403Y589371D01*
X512378Y589286D01*
X512350Y589201D01*
X512317Y589118D01*
X512281Y589036D01*
X512242Y588956D01*
X512199Y588878D01*
X512153Y588802D01*
X512103Y588727D01*
X512050Y588655D01*
X511994Y588586D01*
X511935Y588519D01*
X511874Y588454D01*
X511809Y588393D01*
X511742Y588334D01*
X511673Y588278D01*
X511601Y588225D01*
X511526Y588175D01*
X511450Y588129D01*
X511372Y588086D01*
X511292Y588047D01*
X511210Y588011D01*
X511127Y587978D01*
X511042Y587950D01*
X510957Y587925D01*
X510870Y587903D01*
X510782Y587886D01*
X510694Y587873D01*
X510605Y587863D01*
X510516Y587857D01*
X510427Y587855D01*
X508381Y587855D01*
X510836Y587855D02*
X512473Y584581D01*
X515645Y584581D02*
X518100Y584581D01*
X518178Y584583D01*
X518256Y584588D01*
X518333Y584598D01*
X518410Y584611D01*
X518486Y584627D01*
X518561Y584647D01*
X518635Y584671D01*
X518708Y584698D01*
X518780Y584729D01*
X518850Y584763D01*
X518919Y584800D01*
X518985Y584841D01*
X519050Y584885D01*
X519112Y584931D01*
X519172Y584981D01*
X519230Y585033D01*
X519285Y585088D01*
X519337Y585146D01*
X519387Y585206D01*
X519433Y585268D01*
X519477Y585333D01*
X519518Y585400D01*
X519555Y585468D01*
X519589Y585538D01*
X519620Y585610D01*
X519647Y585683D01*
X519671Y585757D01*
X519691Y585832D01*
X519707Y585908D01*
X519720Y585985D01*
X519730Y586062D01*
X519735Y586140D01*
X519737Y586218D01*
X519737Y587036D01*
X519735Y587114D01*
X519730Y587192D01*
X519720Y587269D01*
X519707Y587346D01*
X519691Y587422D01*
X519671Y587497D01*
X519647Y587571D01*
X519620Y587644D01*
X519589Y587716D01*
X519555Y587786D01*
X519518Y587855D01*
X519477Y587921D01*
X519433Y587986D01*
X519387Y588048D01*
X519337Y588108D01*
X519285Y588166D01*
X519230Y588221D01*
X519172Y588273D01*
X519112Y588323D01*
X519050Y588369D01*
X518985Y588413D01*
X518919Y588454D01*
X518850Y588491D01*
X518780Y588525D01*
X518708Y588556D01*
X518635Y588583D01*
X518561Y588607D01*
X518486Y588627D01*
X518410Y588643D01*
X518333Y588656D01*
X518256Y588666D01*
X518178Y588671D01*
X518100Y588673D01*
X515645Y588673D01*
X515645Y591947D01*
X519737Y591947D01*
D16*
X642620Y571500D02*
X652780Y571500D01*
D12*
X660781Y566547D02*
X660781Y559181D01*
X660781Y566547D02*
X662827Y566547D01*
X662916Y566545D01*
X663005Y566539D01*
X663094Y566529D01*
X663182Y566516D01*
X663270Y566499D01*
X663357Y566477D01*
X663442Y566452D01*
X663527Y566424D01*
X663610Y566391D01*
X663692Y566355D01*
X663772Y566316D01*
X663850Y566273D01*
X663926Y566227D01*
X664001Y566177D01*
X664073Y566124D01*
X664142Y566068D01*
X664209Y566009D01*
X664274Y565948D01*
X664335Y565883D01*
X664394Y565816D01*
X664450Y565747D01*
X664503Y565675D01*
X664553Y565600D01*
X664599Y565524D01*
X664642Y565446D01*
X664681Y565366D01*
X664717Y565284D01*
X664750Y565201D01*
X664778Y565116D01*
X664803Y565031D01*
X664825Y564944D01*
X664842Y564856D01*
X664855Y564768D01*
X664865Y564679D01*
X664871Y564590D01*
X664873Y564501D01*
X664871Y564412D01*
X664865Y564323D01*
X664855Y564234D01*
X664842Y564146D01*
X664825Y564058D01*
X664803Y563971D01*
X664778Y563886D01*
X664750Y563801D01*
X664717Y563718D01*
X664681Y563636D01*
X664642Y563556D01*
X664599Y563478D01*
X664553Y563402D01*
X664503Y563327D01*
X664450Y563255D01*
X664394Y563186D01*
X664335Y563119D01*
X664274Y563054D01*
X664209Y562993D01*
X664142Y562934D01*
X664073Y562878D01*
X664001Y562825D01*
X663926Y562775D01*
X663850Y562729D01*
X663772Y562686D01*
X663692Y562647D01*
X663610Y562611D01*
X663527Y562578D01*
X663442Y562550D01*
X663357Y562525D01*
X663270Y562503D01*
X663182Y562486D01*
X663094Y562473D01*
X663005Y562463D01*
X662916Y562457D01*
X662827Y562455D01*
X660781Y562455D01*
X663236Y562455D02*
X664873Y559181D01*
X668045Y563273D02*
X670500Y563273D01*
X670578Y563271D01*
X670656Y563266D01*
X670733Y563256D01*
X670810Y563243D01*
X670886Y563227D01*
X670961Y563207D01*
X671035Y563183D01*
X671108Y563156D01*
X671180Y563125D01*
X671250Y563091D01*
X671319Y563054D01*
X671385Y563013D01*
X671450Y562969D01*
X671512Y562923D01*
X671572Y562873D01*
X671630Y562821D01*
X671685Y562766D01*
X671737Y562708D01*
X671787Y562648D01*
X671833Y562586D01*
X671877Y562521D01*
X671918Y562455D01*
X671955Y562386D01*
X671989Y562316D01*
X672020Y562244D01*
X672047Y562171D01*
X672071Y562097D01*
X672091Y562022D01*
X672107Y561946D01*
X672120Y561869D01*
X672130Y561792D01*
X672135Y561714D01*
X672137Y561636D01*
X672137Y561227D01*
X672135Y561138D01*
X672129Y561049D01*
X672119Y560960D01*
X672106Y560872D01*
X672089Y560784D01*
X672067Y560697D01*
X672042Y560612D01*
X672014Y560527D01*
X671981Y560444D01*
X671945Y560362D01*
X671906Y560282D01*
X671863Y560204D01*
X671817Y560128D01*
X671767Y560053D01*
X671714Y559981D01*
X671658Y559912D01*
X671599Y559845D01*
X671538Y559780D01*
X671473Y559719D01*
X671406Y559660D01*
X671337Y559604D01*
X671265Y559551D01*
X671190Y559501D01*
X671114Y559455D01*
X671036Y559412D01*
X670956Y559373D01*
X670874Y559337D01*
X670791Y559304D01*
X670706Y559276D01*
X670621Y559251D01*
X670534Y559229D01*
X670446Y559212D01*
X670358Y559199D01*
X670269Y559189D01*
X670180Y559183D01*
X670091Y559181D01*
X670002Y559183D01*
X669913Y559189D01*
X669824Y559199D01*
X669736Y559212D01*
X669648Y559229D01*
X669561Y559251D01*
X669476Y559276D01*
X669391Y559304D01*
X669308Y559337D01*
X669226Y559373D01*
X669146Y559412D01*
X669068Y559455D01*
X668992Y559501D01*
X668917Y559551D01*
X668845Y559604D01*
X668776Y559660D01*
X668709Y559719D01*
X668644Y559780D01*
X668583Y559845D01*
X668524Y559912D01*
X668468Y559981D01*
X668415Y560053D01*
X668365Y560128D01*
X668319Y560204D01*
X668276Y560282D01*
X668237Y560362D01*
X668201Y560444D01*
X668168Y560527D01*
X668140Y560612D01*
X668115Y560697D01*
X668093Y560784D01*
X668076Y560872D01*
X668063Y560960D01*
X668053Y561049D01*
X668047Y561138D01*
X668045Y561227D01*
X668045Y563273D01*
X668047Y563387D01*
X668053Y563501D01*
X668063Y563615D01*
X668077Y563729D01*
X668095Y563842D01*
X668117Y563954D01*
X668142Y564065D01*
X668172Y564175D01*
X668205Y564285D01*
X668242Y564393D01*
X668283Y564499D01*
X668328Y564605D01*
X668376Y564708D01*
X668428Y564810D01*
X668484Y564910D01*
X668542Y565008D01*
X668605Y565104D01*
X668670Y565197D01*
X668739Y565289D01*
X668811Y565377D01*
X668886Y565464D01*
X668964Y565547D01*
X669045Y565628D01*
X669128Y565706D01*
X669215Y565781D01*
X669303Y565853D01*
X669395Y565922D01*
X669488Y565987D01*
X669584Y566049D01*
X669682Y566108D01*
X669782Y566164D01*
X669884Y566216D01*
X669987Y566264D01*
X670093Y566309D01*
X670199Y566350D01*
X670307Y566387D01*
X670417Y566420D01*
X670527Y566450D01*
X670638Y566475D01*
X670750Y566497D01*
X670863Y566515D01*
X670977Y566529D01*
X671091Y566539D01*
X671205Y566545D01*
X671319Y566547D01*
D16*
X883920Y101600D02*
X894080Y101600D01*
D15*
X902208Y102586D02*
X909320Y102586D01*
X902208Y102586D02*
X902208Y104562D01*
X902210Y104649D01*
X902216Y104737D01*
X902225Y104824D01*
X902239Y104910D01*
X902256Y104996D01*
X902277Y105080D01*
X902302Y105164D01*
X902331Y105247D01*
X902363Y105328D01*
X902398Y105408D01*
X902437Y105486D01*
X902480Y105563D01*
X902526Y105637D01*
X902575Y105709D01*
X902627Y105779D01*
X902683Y105847D01*
X902741Y105912D01*
X902802Y105975D01*
X902866Y106034D01*
X902933Y106091D01*
X903001Y106145D01*
X903073Y106196D01*
X903146Y106243D01*
X903221Y106288D01*
X903299Y106329D01*
X903378Y106366D01*
X903458Y106400D01*
X903540Y106430D01*
X903623Y106457D01*
X903708Y106480D01*
X903793Y106499D01*
X903879Y106514D01*
X903966Y106526D01*
X904053Y106534D01*
X904140Y106538D01*
X904228Y106538D01*
X904315Y106534D01*
X904402Y106526D01*
X904489Y106514D01*
X904575Y106499D01*
X904660Y106480D01*
X904745Y106457D01*
X904828Y106430D01*
X904910Y106400D01*
X904990Y106366D01*
X905069Y106329D01*
X905147Y106288D01*
X905222Y106243D01*
X905295Y106196D01*
X905367Y106145D01*
X905435Y106091D01*
X905502Y106034D01*
X905566Y105975D01*
X905627Y105912D01*
X905685Y105847D01*
X905741Y105779D01*
X905793Y105709D01*
X905842Y105637D01*
X905888Y105563D01*
X905931Y105486D01*
X905970Y105408D01*
X906005Y105328D01*
X906037Y105247D01*
X906066Y105164D01*
X906091Y105080D01*
X906112Y104996D01*
X906129Y104910D01*
X906143Y104824D01*
X906152Y104737D01*
X906158Y104649D01*
X906160Y104562D01*
X906159Y104562D02*
X906159Y102586D01*
X906159Y104957D02*
X909320Y106537D01*
X903788Y109841D02*
X902208Y111816D01*
X909320Y111816D01*
X909320Y109841D02*
X909320Y113792D01*
M02*
