G04 EAGLE Gerber RS-274X export*
G75*
%MOMM*%
%FSLAX34Y34*%
%LPD*%
%INSoldermask Top*%
%IPPOS*%
%AMOC8*
5,1,8,0,0,1.08239X$1,22.5*%
G01*
%ADD10C,2.152400*%
%ADD11C,1.930400*%
%ADD12R,1.676400X1.676400*%
%ADD13P,1.814519X8X202.500000*%
%ADD14C,2.112400*%
%ADD15R,1.183641X1.102359*%
%ADD16R,1.102359X1.183641*%
%ADD17R,1.803400X1.803400*%
%ADD18C,1.803400*%
%ADD19C,1.432562*%
%ADD20C,3.388362*%
%ADD21C,4.597400*%
%ADD22C,0.609600*%
%ADD23C,1.168400*%


D10*
X107700Y306700D03*
X1187700Y306700D03*
X107700Y596700D03*
X1196140Y591000D03*
D11*
X612700Y611700D03*
X637540Y611000D03*
X662940Y611000D03*
X688340Y611000D03*
D12*
X1419000Y229900D03*
D13*
X1419000Y255300D03*
X1393600Y229900D03*
X1393600Y255300D03*
X1368200Y229900D03*
X1368200Y255300D03*
X1342800Y229900D03*
X1342800Y255300D03*
X1317400Y229900D03*
X1317400Y255300D03*
X1292000Y229900D03*
X1292000Y255300D03*
X1266600Y229900D03*
X1266600Y255300D03*
X1241200Y229900D03*
X1241200Y255300D03*
X1215800Y229900D03*
X1215800Y255300D03*
X1190400Y229900D03*
X1190400Y255300D03*
X1165000Y229900D03*
X1165000Y255300D03*
X1139600Y229900D03*
X1139600Y255300D03*
X1114200Y229900D03*
X1114200Y255300D03*
X1088800Y229900D03*
X1088800Y255300D03*
X1063400Y229900D03*
X1063400Y255300D03*
X1038000Y229900D03*
X1038000Y255300D03*
X1012600Y229900D03*
X1012600Y255300D03*
X987200Y229900D03*
X987200Y255300D03*
D12*
X1419000Y483900D03*
D13*
X1419000Y509300D03*
X1393600Y483900D03*
X1393600Y509300D03*
X1368200Y483900D03*
X1368200Y509300D03*
X1342800Y483900D03*
X1342800Y509300D03*
X1317400Y483900D03*
X1317400Y509300D03*
X1292000Y483900D03*
X1292000Y509300D03*
X1266600Y483900D03*
X1266600Y509300D03*
X1241200Y483900D03*
X1241200Y509300D03*
X1215800Y483900D03*
X1215800Y509300D03*
X1190400Y483900D03*
X1190400Y509300D03*
X1165000Y483900D03*
X1165000Y509300D03*
X1139600Y483900D03*
X1139600Y509300D03*
X1114200Y483900D03*
X1114200Y509300D03*
X1088800Y483900D03*
X1088800Y509300D03*
X1063400Y483900D03*
X1063400Y509300D03*
X1038000Y483900D03*
X1038000Y509300D03*
X1012600Y483900D03*
X1012600Y509300D03*
X987200Y483900D03*
X987200Y509300D03*
D14*
X849900Y202800D03*
X849900Y152800D03*
X724900Y152800D03*
X724900Y202800D03*
X570500Y202800D03*
X570500Y152800D03*
X445500Y152800D03*
X445500Y202800D03*
X1434100Y609200D03*
X1434100Y559200D03*
X1309100Y559200D03*
X1309100Y609200D03*
X1434100Y406000D03*
X1434100Y356000D03*
X1309100Y356000D03*
X1309100Y406000D03*
D15*
X660400Y109601D03*
X660400Y93599D03*
D16*
X1439799Y584200D03*
X1455801Y584200D03*
X1439799Y457200D03*
X1455801Y457200D03*
D15*
X533400Y592201D03*
X533400Y576199D03*
X647700Y579501D03*
X647700Y563499D03*
D17*
X1397000Y127000D03*
D18*
X1422400Y127000D03*
X1447800Y127000D03*
D17*
X38100Y139700D03*
D18*
X63500Y139700D03*
X88900Y139700D03*
D15*
X889000Y109601D03*
X889000Y93599D03*
D19*
X1279525Y154178D03*
X1254633Y154178D03*
X1234567Y154178D03*
X1209675Y154178D03*
D20*
X1178941Y127000D03*
X1310259Y127000D03*
D21*
X38100Y38100D03*
X1460500Y38100D03*
X38100Y647700D03*
X1460500Y647700D03*
D22*
X195580Y76200D02*
X195582Y76387D01*
X195589Y76574D01*
X195601Y76761D01*
X195617Y76947D01*
X195637Y77133D01*
X195662Y77318D01*
X195692Y77503D01*
X195726Y77687D01*
X195765Y77870D01*
X195808Y78052D01*
X195856Y78232D01*
X195908Y78412D01*
X195965Y78590D01*
X196025Y78767D01*
X196091Y78942D01*
X196160Y79116D01*
X196234Y79288D01*
X196312Y79458D01*
X196394Y79626D01*
X196480Y79792D01*
X196570Y79956D01*
X196664Y80117D01*
X196762Y80277D01*
X196864Y80433D01*
X196970Y80588D01*
X197080Y80739D01*
X197193Y80888D01*
X197310Y81034D01*
X197430Y81177D01*
X197554Y81317D01*
X197681Y81454D01*
X197812Y81588D01*
X197946Y81719D01*
X198083Y81846D01*
X198223Y81970D01*
X198366Y82090D01*
X198512Y82207D01*
X198661Y82320D01*
X198812Y82430D01*
X198967Y82536D01*
X199123Y82638D01*
X199283Y82736D01*
X199444Y82830D01*
X199608Y82920D01*
X199774Y83006D01*
X199942Y83088D01*
X200112Y83166D01*
X200284Y83240D01*
X200458Y83309D01*
X200633Y83375D01*
X200810Y83435D01*
X200988Y83492D01*
X201168Y83544D01*
X201348Y83592D01*
X201530Y83635D01*
X201713Y83674D01*
X201897Y83708D01*
X202082Y83738D01*
X202267Y83763D01*
X202453Y83783D01*
X202639Y83799D01*
X202826Y83811D01*
X203013Y83818D01*
X203200Y83820D01*
X203387Y83818D01*
X203574Y83811D01*
X203761Y83799D01*
X203947Y83783D01*
X204133Y83763D01*
X204318Y83738D01*
X204503Y83708D01*
X204687Y83674D01*
X204870Y83635D01*
X205052Y83592D01*
X205232Y83544D01*
X205412Y83492D01*
X205590Y83435D01*
X205767Y83375D01*
X205942Y83309D01*
X206116Y83240D01*
X206288Y83166D01*
X206458Y83088D01*
X206626Y83006D01*
X206792Y82920D01*
X206956Y82830D01*
X207117Y82736D01*
X207277Y82638D01*
X207433Y82536D01*
X207588Y82430D01*
X207739Y82320D01*
X207888Y82207D01*
X208034Y82090D01*
X208177Y81970D01*
X208317Y81846D01*
X208454Y81719D01*
X208588Y81588D01*
X208719Y81454D01*
X208846Y81317D01*
X208970Y81177D01*
X209090Y81034D01*
X209207Y80888D01*
X209320Y80739D01*
X209430Y80588D01*
X209536Y80433D01*
X209638Y80277D01*
X209736Y80117D01*
X209830Y79956D01*
X209920Y79792D01*
X210006Y79626D01*
X210088Y79458D01*
X210166Y79288D01*
X210240Y79116D01*
X210309Y78942D01*
X210375Y78767D01*
X210435Y78590D01*
X210492Y78412D01*
X210544Y78232D01*
X210592Y78052D01*
X210635Y77870D01*
X210674Y77687D01*
X210708Y77503D01*
X210738Y77318D01*
X210763Y77133D01*
X210783Y76947D01*
X210799Y76761D01*
X210811Y76574D01*
X210818Y76387D01*
X210820Y76200D01*
X210818Y76013D01*
X210811Y75826D01*
X210799Y75639D01*
X210783Y75453D01*
X210763Y75267D01*
X210738Y75082D01*
X210708Y74897D01*
X210674Y74713D01*
X210635Y74530D01*
X210592Y74348D01*
X210544Y74168D01*
X210492Y73988D01*
X210435Y73810D01*
X210375Y73633D01*
X210309Y73458D01*
X210240Y73284D01*
X210166Y73112D01*
X210088Y72942D01*
X210006Y72774D01*
X209920Y72608D01*
X209830Y72444D01*
X209736Y72283D01*
X209638Y72123D01*
X209536Y71967D01*
X209430Y71812D01*
X209320Y71661D01*
X209207Y71512D01*
X209090Y71366D01*
X208970Y71223D01*
X208846Y71083D01*
X208719Y70946D01*
X208588Y70812D01*
X208454Y70681D01*
X208317Y70554D01*
X208177Y70430D01*
X208034Y70310D01*
X207888Y70193D01*
X207739Y70080D01*
X207588Y69970D01*
X207433Y69864D01*
X207277Y69762D01*
X207117Y69664D01*
X206956Y69570D01*
X206792Y69480D01*
X206626Y69394D01*
X206458Y69312D01*
X206288Y69234D01*
X206116Y69160D01*
X205942Y69091D01*
X205767Y69025D01*
X205590Y68965D01*
X205412Y68908D01*
X205232Y68856D01*
X205052Y68808D01*
X204870Y68765D01*
X204687Y68726D01*
X204503Y68692D01*
X204318Y68662D01*
X204133Y68637D01*
X203947Y68617D01*
X203761Y68601D01*
X203574Y68589D01*
X203387Y68582D01*
X203200Y68580D01*
X203013Y68582D01*
X202826Y68589D01*
X202639Y68601D01*
X202453Y68617D01*
X202267Y68637D01*
X202082Y68662D01*
X201897Y68692D01*
X201713Y68726D01*
X201530Y68765D01*
X201348Y68808D01*
X201168Y68856D01*
X200988Y68908D01*
X200810Y68965D01*
X200633Y69025D01*
X200458Y69091D01*
X200284Y69160D01*
X200112Y69234D01*
X199942Y69312D01*
X199774Y69394D01*
X199608Y69480D01*
X199444Y69570D01*
X199283Y69664D01*
X199123Y69762D01*
X198967Y69864D01*
X198812Y69970D01*
X198661Y70080D01*
X198512Y70193D01*
X198366Y70310D01*
X198223Y70430D01*
X198083Y70554D01*
X197946Y70681D01*
X197812Y70812D01*
X197681Y70946D01*
X197554Y71083D01*
X197430Y71223D01*
X197310Y71366D01*
X197193Y71512D01*
X197080Y71661D01*
X196970Y71812D01*
X196864Y71967D01*
X196762Y72123D01*
X196664Y72283D01*
X196570Y72444D01*
X196480Y72608D01*
X196394Y72774D01*
X196312Y72942D01*
X196234Y73112D01*
X196160Y73284D01*
X196091Y73458D01*
X196025Y73633D01*
X195965Y73810D01*
X195908Y73988D01*
X195856Y74168D01*
X195808Y74348D01*
X195765Y74530D01*
X195726Y74713D01*
X195692Y74897D01*
X195662Y75082D01*
X195637Y75267D01*
X195617Y75453D01*
X195601Y75639D01*
X195589Y75826D01*
X195582Y76013D01*
X195580Y76200D01*
D23*
X203200Y76200D03*
D22*
X1135380Y50800D02*
X1135382Y50987D01*
X1135389Y51174D01*
X1135401Y51361D01*
X1135417Y51547D01*
X1135437Y51733D01*
X1135462Y51918D01*
X1135492Y52103D01*
X1135526Y52287D01*
X1135565Y52470D01*
X1135608Y52652D01*
X1135656Y52832D01*
X1135708Y53012D01*
X1135765Y53190D01*
X1135825Y53367D01*
X1135891Y53542D01*
X1135960Y53716D01*
X1136034Y53888D01*
X1136112Y54058D01*
X1136194Y54226D01*
X1136280Y54392D01*
X1136370Y54556D01*
X1136464Y54717D01*
X1136562Y54877D01*
X1136664Y55033D01*
X1136770Y55188D01*
X1136880Y55339D01*
X1136993Y55488D01*
X1137110Y55634D01*
X1137230Y55777D01*
X1137354Y55917D01*
X1137481Y56054D01*
X1137612Y56188D01*
X1137746Y56319D01*
X1137883Y56446D01*
X1138023Y56570D01*
X1138166Y56690D01*
X1138312Y56807D01*
X1138461Y56920D01*
X1138612Y57030D01*
X1138767Y57136D01*
X1138923Y57238D01*
X1139083Y57336D01*
X1139244Y57430D01*
X1139408Y57520D01*
X1139574Y57606D01*
X1139742Y57688D01*
X1139912Y57766D01*
X1140084Y57840D01*
X1140258Y57909D01*
X1140433Y57975D01*
X1140610Y58035D01*
X1140788Y58092D01*
X1140968Y58144D01*
X1141148Y58192D01*
X1141330Y58235D01*
X1141513Y58274D01*
X1141697Y58308D01*
X1141882Y58338D01*
X1142067Y58363D01*
X1142253Y58383D01*
X1142439Y58399D01*
X1142626Y58411D01*
X1142813Y58418D01*
X1143000Y58420D01*
X1143187Y58418D01*
X1143374Y58411D01*
X1143561Y58399D01*
X1143747Y58383D01*
X1143933Y58363D01*
X1144118Y58338D01*
X1144303Y58308D01*
X1144487Y58274D01*
X1144670Y58235D01*
X1144852Y58192D01*
X1145032Y58144D01*
X1145212Y58092D01*
X1145390Y58035D01*
X1145567Y57975D01*
X1145742Y57909D01*
X1145916Y57840D01*
X1146088Y57766D01*
X1146258Y57688D01*
X1146426Y57606D01*
X1146592Y57520D01*
X1146756Y57430D01*
X1146917Y57336D01*
X1147077Y57238D01*
X1147233Y57136D01*
X1147388Y57030D01*
X1147539Y56920D01*
X1147688Y56807D01*
X1147834Y56690D01*
X1147977Y56570D01*
X1148117Y56446D01*
X1148254Y56319D01*
X1148388Y56188D01*
X1148519Y56054D01*
X1148646Y55917D01*
X1148770Y55777D01*
X1148890Y55634D01*
X1149007Y55488D01*
X1149120Y55339D01*
X1149230Y55188D01*
X1149336Y55033D01*
X1149438Y54877D01*
X1149536Y54717D01*
X1149630Y54556D01*
X1149720Y54392D01*
X1149806Y54226D01*
X1149888Y54058D01*
X1149966Y53888D01*
X1150040Y53716D01*
X1150109Y53542D01*
X1150175Y53367D01*
X1150235Y53190D01*
X1150292Y53012D01*
X1150344Y52832D01*
X1150392Y52652D01*
X1150435Y52470D01*
X1150474Y52287D01*
X1150508Y52103D01*
X1150538Y51918D01*
X1150563Y51733D01*
X1150583Y51547D01*
X1150599Y51361D01*
X1150611Y51174D01*
X1150618Y50987D01*
X1150620Y50800D01*
X1150618Y50613D01*
X1150611Y50426D01*
X1150599Y50239D01*
X1150583Y50053D01*
X1150563Y49867D01*
X1150538Y49682D01*
X1150508Y49497D01*
X1150474Y49313D01*
X1150435Y49130D01*
X1150392Y48948D01*
X1150344Y48768D01*
X1150292Y48588D01*
X1150235Y48410D01*
X1150175Y48233D01*
X1150109Y48058D01*
X1150040Y47884D01*
X1149966Y47712D01*
X1149888Y47542D01*
X1149806Y47374D01*
X1149720Y47208D01*
X1149630Y47044D01*
X1149536Y46883D01*
X1149438Y46723D01*
X1149336Y46567D01*
X1149230Y46412D01*
X1149120Y46261D01*
X1149007Y46112D01*
X1148890Y45966D01*
X1148770Y45823D01*
X1148646Y45683D01*
X1148519Y45546D01*
X1148388Y45412D01*
X1148254Y45281D01*
X1148117Y45154D01*
X1147977Y45030D01*
X1147834Y44910D01*
X1147688Y44793D01*
X1147539Y44680D01*
X1147388Y44570D01*
X1147233Y44464D01*
X1147077Y44362D01*
X1146917Y44264D01*
X1146756Y44170D01*
X1146592Y44080D01*
X1146426Y43994D01*
X1146258Y43912D01*
X1146088Y43834D01*
X1145916Y43760D01*
X1145742Y43691D01*
X1145567Y43625D01*
X1145390Y43565D01*
X1145212Y43508D01*
X1145032Y43456D01*
X1144852Y43408D01*
X1144670Y43365D01*
X1144487Y43326D01*
X1144303Y43292D01*
X1144118Y43262D01*
X1143933Y43237D01*
X1143747Y43217D01*
X1143561Y43201D01*
X1143374Y43189D01*
X1143187Y43182D01*
X1143000Y43180D01*
X1142813Y43182D01*
X1142626Y43189D01*
X1142439Y43201D01*
X1142253Y43217D01*
X1142067Y43237D01*
X1141882Y43262D01*
X1141697Y43292D01*
X1141513Y43326D01*
X1141330Y43365D01*
X1141148Y43408D01*
X1140968Y43456D01*
X1140788Y43508D01*
X1140610Y43565D01*
X1140433Y43625D01*
X1140258Y43691D01*
X1140084Y43760D01*
X1139912Y43834D01*
X1139742Y43912D01*
X1139574Y43994D01*
X1139408Y44080D01*
X1139244Y44170D01*
X1139083Y44264D01*
X1138923Y44362D01*
X1138767Y44464D01*
X1138612Y44570D01*
X1138461Y44680D01*
X1138312Y44793D01*
X1138166Y44910D01*
X1138023Y45030D01*
X1137883Y45154D01*
X1137746Y45281D01*
X1137612Y45412D01*
X1137481Y45546D01*
X1137354Y45683D01*
X1137230Y45823D01*
X1137110Y45966D01*
X1136993Y46112D01*
X1136880Y46261D01*
X1136770Y46412D01*
X1136664Y46567D01*
X1136562Y46723D01*
X1136464Y46883D01*
X1136370Y47044D01*
X1136280Y47208D01*
X1136194Y47374D01*
X1136112Y47542D01*
X1136034Y47712D01*
X1135960Y47884D01*
X1135891Y48058D01*
X1135825Y48233D01*
X1135765Y48410D01*
X1135708Y48588D01*
X1135656Y48768D01*
X1135608Y48948D01*
X1135565Y49130D01*
X1135526Y49313D01*
X1135492Y49497D01*
X1135462Y49682D01*
X1135437Y49867D01*
X1135417Y50053D01*
X1135401Y50239D01*
X1135389Y50426D01*
X1135382Y50613D01*
X1135380Y50800D01*
D23*
X1143000Y50800D03*
D22*
X1135380Y660400D02*
X1135382Y660587D01*
X1135389Y660774D01*
X1135401Y660961D01*
X1135417Y661147D01*
X1135437Y661333D01*
X1135462Y661518D01*
X1135492Y661703D01*
X1135526Y661887D01*
X1135565Y662070D01*
X1135608Y662252D01*
X1135656Y662432D01*
X1135708Y662612D01*
X1135765Y662790D01*
X1135825Y662967D01*
X1135891Y663142D01*
X1135960Y663316D01*
X1136034Y663488D01*
X1136112Y663658D01*
X1136194Y663826D01*
X1136280Y663992D01*
X1136370Y664156D01*
X1136464Y664317D01*
X1136562Y664477D01*
X1136664Y664633D01*
X1136770Y664788D01*
X1136880Y664939D01*
X1136993Y665088D01*
X1137110Y665234D01*
X1137230Y665377D01*
X1137354Y665517D01*
X1137481Y665654D01*
X1137612Y665788D01*
X1137746Y665919D01*
X1137883Y666046D01*
X1138023Y666170D01*
X1138166Y666290D01*
X1138312Y666407D01*
X1138461Y666520D01*
X1138612Y666630D01*
X1138767Y666736D01*
X1138923Y666838D01*
X1139083Y666936D01*
X1139244Y667030D01*
X1139408Y667120D01*
X1139574Y667206D01*
X1139742Y667288D01*
X1139912Y667366D01*
X1140084Y667440D01*
X1140258Y667509D01*
X1140433Y667575D01*
X1140610Y667635D01*
X1140788Y667692D01*
X1140968Y667744D01*
X1141148Y667792D01*
X1141330Y667835D01*
X1141513Y667874D01*
X1141697Y667908D01*
X1141882Y667938D01*
X1142067Y667963D01*
X1142253Y667983D01*
X1142439Y667999D01*
X1142626Y668011D01*
X1142813Y668018D01*
X1143000Y668020D01*
X1143187Y668018D01*
X1143374Y668011D01*
X1143561Y667999D01*
X1143747Y667983D01*
X1143933Y667963D01*
X1144118Y667938D01*
X1144303Y667908D01*
X1144487Y667874D01*
X1144670Y667835D01*
X1144852Y667792D01*
X1145032Y667744D01*
X1145212Y667692D01*
X1145390Y667635D01*
X1145567Y667575D01*
X1145742Y667509D01*
X1145916Y667440D01*
X1146088Y667366D01*
X1146258Y667288D01*
X1146426Y667206D01*
X1146592Y667120D01*
X1146756Y667030D01*
X1146917Y666936D01*
X1147077Y666838D01*
X1147233Y666736D01*
X1147388Y666630D01*
X1147539Y666520D01*
X1147688Y666407D01*
X1147834Y666290D01*
X1147977Y666170D01*
X1148117Y666046D01*
X1148254Y665919D01*
X1148388Y665788D01*
X1148519Y665654D01*
X1148646Y665517D01*
X1148770Y665377D01*
X1148890Y665234D01*
X1149007Y665088D01*
X1149120Y664939D01*
X1149230Y664788D01*
X1149336Y664633D01*
X1149438Y664477D01*
X1149536Y664317D01*
X1149630Y664156D01*
X1149720Y663992D01*
X1149806Y663826D01*
X1149888Y663658D01*
X1149966Y663488D01*
X1150040Y663316D01*
X1150109Y663142D01*
X1150175Y662967D01*
X1150235Y662790D01*
X1150292Y662612D01*
X1150344Y662432D01*
X1150392Y662252D01*
X1150435Y662070D01*
X1150474Y661887D01*
X1150508Y661703D01*
X1150538Y661518D01*
X1150563Y661333D01*
X1150583Y661147D01*
X1150599Y660961D01*
X1150611Y660774D01*
X1150618Y660587D01*
X1150620Y660400D01*
X1150618Y660213D01*
X1150611Y660026D01*
X1150599Y659839D01*
X1150583Y659653D01*
X1150563Y659467D01*
X1150538Y659282D01*
X1150508Y659097D01*
X1150474Y658913D01*
X1150435Y658730D01*
X1150392Y658548D01*
X1150344Y658368D01*
X1150292Y658188D01*
X1150235Y658010D01*
X1150175Y657833D01*
X1150109Y657658D01*
X1150040Y657484D01*
X1149966Y657312D01*
X1149888Y657142D01*
X1149806Y656974D01*
X1149720Y656808D01*
X1149630Y656644D01*
X1149536Y656483D01*
X1149438Y656323D01*
X1149336Y656167D01*
X1149230Y656012D01*
X1149120Y655861D01*
X1149007Y655712D01*
X1148890Y655566D01*
X1148770Y655423D01*
X1148646Y655283D01*
X1148519Y655146D01*
X1148388Y655012D01*
X1148254Y654881D01*
X1148117Y654754D01*
X1147977Y654630D01*
X1147834Y654510D01*
X1147688Y654393D01*
X1147539Y654280D01*
X1147388Y654170D01*
X1147233Y654064D01*
X1147077Y653962D01*
X1146917Y653864D01*
X1146756Y653770D01*
X1146592Y653680D01*
X1146426Y653594D01*
X1146258Y653512D01*
X1146088Y653434D01*
X1145916Y653360D01*
X1145742Y653291D01*
X1145567Y653225D01*
X1145390Y653165D01*
X1145212Y653108D01*
X1145032Y653056D01*
X1144852Y653008D01*
X1144670Y652965D01*
X1144487Y652926D01*
X1144303Y652892D01*
X1144118Y652862D01*
X1143933Y652837D01*
X1143747Y652817D01*
X1143561Y652801D01*
X1143374Y652789D01*
X1143187Y652782D01*
X1143000Y652780D01*
X1142813Y652782D01*
X1142626Y652789D01*
X1142439Y652801D01*
X1142253Y652817D01*
X1142067Y652837D01*
X1141882Y652862D01*
X1141697Y652892D01*
X1141513Y652926D01*
X1141330Y652965D01*
X1141148Y653008D01*
X1140968Y653056D01*
X1140788Y653108D01*
X1140610Y653165D01*
X1140433Y653225D01*
X1140258Y653291D01*
X1140084Y653360D01*
X1139912Y653434D01*
X1139742Y653512D01*
X1139574Y653594D01*
X1139408Y653680D01*
X1139244Y653770D01*
X1139083Y653864D01*
X1138923Y653962D01*
X1138767Y654064D01*
X1138612Y654170D01*
X1138461Y654280D01*
X1138312Y654393D01*
X1138166Y654510D01*
X1138023Y654630D01*
X1137883Y654754D01*
X1137746Y654881D01*
X1137612Y655012D01*
X1137481Y655146D01*
X1137354Y655283D01*
X1137230Y655423D01*
X1137110Y655566D01*
X1136993Y655712D01*
X1136880Y655861D01*
X1136770Y656012D01*
X1136664Y656167D01*
X1136562Y656323D01*
X1136464Y656483D01*
X1136370Y656644D01*
X1136280Y656808D01*
X1136194Y656974D01*
X1136112Y657142D01*
X1136034Y657312D01*
X1135960Y657484D01*
X1135891Y657658D01*
X1135825Y657833D01*
X1135765Y658010D01*
X1135708Y658188D01*
X1135656Y658368D01*
X1135608Y658548D01*
X1135565Y658730D01*
X1135526Y658913D01*
X1135492Y659097D01*
X1135462Y659282D01*
X1135437Y659467D01*
X1135417Y659653D01*
X1135401Y659839D01*
X1135389Y660026D01*
X1135382Y660213D01*
X1135380Y660400D01*
D23*
X1143000Y660400D03*
M02*
